<svg width="48" height="50" viewBox="0 0 48 50" fill="none" xmlns="http://www.w3.org/2000/svg">
    <path
        d="M3.38989 7.82496C3.38989 4.03076 6.4657 0.954956 10.2599 0.954956H27.948C29.7182 0.954956 31.4201 1.63829 32.6988 2.86247L42.4907 12.2368C43.8444 13.5327 44.6099 15.3253 44.6099 17.1993V42.175C44.6099 45.9692 41.5341 49.045 37.7399 49.045H10.2599C6.4657 49.045 3.38989 45.9692 3.38989 42.175V7.82496Z"
        fill="#DADBE0" />
    <path
        d="M44.4743 15.84H35.4501C32.2883 15.84 29.7251 13.2768 29.7251 10.115V1.18872C30.8323 1.48522 31.8573 2.05667 32.699 2.86246L42.491 12.2368C43.5123 13.2146 44.1988 14.4751 44.4743 15.84Z"
        fill="#EBECF0" />
    <path
        d="M44.6101 17.5574H35.4501C31.3397 17.5574 28.0076 14.2253 28.0076 10.1149V0.9552C28.5922 0.960253 29.169 1.03981 29.7251 1.18871V10.1149C29.7251 13.2768 32.2882 15.8399 35.4501 15.8399H44.4743C44.5639 16.2841 44.6101 16.7392 44.6101 17.1993V17.5574Z"
        fill="#BABBC5" />
    <path fill-rule="evenodd" clip-rule="evenodd"
        d="M23.2643 23.0803C25.0491 21.2956 27.9426 21.2956 29.7273 23.0803C31.5121 24.865 31.5121 27.7586 29.7273 29.5433C28.4595 30.8111 26.631 31.1797 25.0357 30.6436L24.4703 30.4536L24.0485 30.8754L23.4891 31.4348H22.1491C21.8938 31.4348 21.649 31.5362 21.4685 31.7167C21.288 31.8972 21.1866 32.142 21.1866 32.3973L21.1866 33.1735H20.4104C19.8788 33.1735 19.4479 33.6044 19.4479 34.136L19.4479 34.9122H17.8955L17.8955 32.796L21.9323 28.7591L22.3541 28.3374L22.1641 27.7719C21.628 26.1767 21.9965 24.3481 23.2643 23.0803ZM22.1491 35.0985H21.3729V35.26C21.3729 36.131 20.6667 36.8372 19.7956 36.8372H16.933C16.4014 36.8372 15.9705 36.4063 15.9705 35.8747V32.6519C15.9705 32.2336 16.1366 31.8324 16.4324 31.5366L20.1721 27.7969C19.6779 25.6839 20.2536 23.3687 21.9032 21.7191C24.4396 19.1827 28.5521 19.1827 31.0885 21.7191C33.625 24.2556 33.625 28.368 31.0885 30.9045C29.4389 32.5541 27.1237 33.1297 25.0107 32.6355L24.5684 33.0779C24.3879 33.2584 24.1431 33.3598 23.8878 33.3598H23.1116L23.1116 34.136C23.1116 34.3913 23.0102 34.6361 22.8297 34.8166C22.6492 34.9971 22.4044 35.0985 22.1491 35.0985ZM27.6567 26.2499C28.3525 26.2499 28.9166 25.6859 28.9166 24.99C28.9166 24.2942 28.3525 23.7302 27.6567 23.7302C26.9609 23.7302 26.3968 24.2942 26.3968 24.99C26.3968 25.6859 26.9609 26.2499 27.6567 26.2499Z"
        fill="#3A3F4A" />
</svg>