<svg width="163" height="163" viewBox="0 0 163 163" fill="none" xmlns="http://www.w3.org/2000/svg">
    <path d="M33.2606 88.4395C37.0692 88.4395 39.7425 85.937 39.7425 82.2749V82.2505C39.7425 78.8813 37.3622 76.4399 34.0785 76.4399C32.4183 76.4399 31.0511 77.1479 30.3187 78.332H30.1112L30.5995 72.9731H38.7171V70.3853H28.1458L27.2914 80.7002H29.9891C30.1966 80.3096 30.4896 79.9678 30.807 79.6992C31.4539 79.1133 32.3084 78.8203 33.2972 78.8203C35.3114 78.8203 36.7518 80.2607 36.7518 82.3115V82.3359C36.7518 84.4111 35.3358 85.8638 33.2728 85.8638C31.4662 85.8638 30.1356 84.7163 29.9037 83.2759L29.8914 83.1904H26.9862L26.9984 83.3491C27.2303 86.2422 29.6595 88.4395 33.2606 88.4395ZM65.0694 88.354C68.9756 88.354 71.649 86.1934 71.649 83.0928V83.0684C71.649 80.627 69.9278 79.0889 67.3399 78.8447V78.7837C69.4517 78.3442 71.0264 76.8916 71.0264 74.7065V74.6821C71.0264 71.9233 68.6705 70.0312 65.045 70.0312C61.4927 70.0312 59.088 72.0332 58.8194 75.085L58.8072 75.2192H61.7369L61.7491 75.0972C61.9078 73.5225 63.1895 72.5337 65.045 72.5337C66.9249 72.5337 68.0113 73.4858 68.0113 75.0972V75.1216C68.0113 76.6597 66.7173 77.7583 64.7764 77.7583H62.7623V80.1021H64.8375C67.0958 80.1021 68.463 81.1274 68.463 82.9829V83.0073C68.463 84.6431 67.108 85.7783 65.0694 85.7783C63.0064 85.7783 61.627 84.7163 61.4561 83.2271L61.4439 83.0928H58.441L58.4532 83.2393C58.6851 86.2544 61.212 88.354 65.0694 88.354ZM90.6648 88H102.896V85.3877H94.9251V85.1313L98.4529 81.7134C101.663 78.625 102.628 77.0381 102.628 75.0361V74.9995C102.628 72.0332 100.162 69.9458 96.7317 69.9458C93.0574 69.9458 90.4939 72.2407 90.4939 75.5244L90.5061 75.561L93.4358 75.5732L93.448 75.5244C93.448 73.7056 94.7054 72.4727 96.573 72.4727C98.4041 72.4727 99.5149 73.6445 99.5149 75.2681V75.3047C99.5149 76.6597 98.8435 77.5508 96.451 79.9678L90.6648 85.876V88ZM128.577 88.354C132.63 88.354 135.45 86.2544 135.45 83.2393V83.2148C135.45 80.9565 133.814 79.2109 131.458 78.7349V78.6616C133.472 78.1245 134.815 76.6475 134.815 74.7554V74.731C134.815 72.021 132.227 70.0312 128.577 70.0312C124.927 70.0312 122.339 72.021 122.339 74.731V74.7554C122.339 76.6475 123.682 78.1245 125.696 78.6616V78.7349C123.353 79.2109 121.705 80.9565 121.705 83.2148V83.2393C121.705 86.2544 124.524 88.354 128.577 88.354ZM128.577 77.6606C126.734 77.6606 125.452 76.5864 125.452 75.0483V75.0239C125.452 73.4858 126.734 72.4116 128.577 72.4116C130.42 72.4116 131.702 73.4858 131.702 75.0239V75.0483C131.702 76.5864 130.42 77.6606 128.577 77.6606ZM128.577 85.9492C126.465 85.9492 124.964 84.7285 124.964 83.0317V83.0073C124.964 81.2983 126.441 80.0654 128.577 80.0654C130.701 80.0654 132.19 81.2983 132.19 83.0073V83.0317C132.19 84.7285 130.689 85.9492 128.577 85.9492Z" fill="black" />
    <g opacity="0.1">
        <path d="M106.5 5H134C147.255 5 158 15.7452 158 29V56.5" stroke="black" stroke-width="10" stroke-linecap="round" stroke-linejoin="round" />
        <path d="M106.5 158H134C147.255 158 158 147.255 158 134V106.5" stroke="black" stroke-width="10" stroke-linecap="round" stroke-linejoin="round" />
        <path d="M56.5 5H29C15.7452 5 5 15.7452 5 29V56.5" stroke="black" stroke-width="10" stroke-linecap="round" stroke-linejoin="round" />
        <path d="M56.5 158H29C15.7452 158 5 147.255 5 134V106.5" stroke="black" stroke-width="10" stroke-linecap="round" stroke-linejoin="round" />
    </g>
</svg>