<svg width="31" height="26" viewBox="0 0 31 26" fill="none" xmlns="http://www.w3.org/2000/svg">
    <path fill-rule="evenodd" clip-rule="evenodd"
        d="M15 9.5C15 11.1569 13.6569 12.5 12 12.5C10.3431 12.5 9 11.1569 9 9.5C9 7.84315 10.3431 6.5 12 6.5C13.6569 6.5 15 7.84315 15 9.5ZM16.5 9.5C16.5 11.9853 14.4853 14 12 14C9.51472 14 7.5 11.9853 7.5 9.5C7.5 7.01472 9.51472 5 12 5C14.4853 5 16.5 7.01472 16.5 9.5ZM5.78323 18.4706C6.3379 17.5688 7.35016 17 8.46117 17H15.5388C16.6498 17 17.6621 17.5688 18.2168 18.4706L19.3901 20.3782C19.6631 20.8222 19.3762 21.5 18.6899 21.5H5.31006C4.62384 21.5 4.33686 20.8222 4.60992 20.3782L5.78323 18.4706ZM4.50556 17.6848C5.33924 16.3293 6.8408 15.5 8.46117 15.5H15.5388C17.1592 15.5 18.6608 16.3293 19.4944 17.6848L20.6677 19.5924C21.5901 21.0921 20.4828 23 18.6899 23H5.31006C3.51723 23 2.40985 21.0921 3.33225 19.5924L4.50556 17.6848Z"
        fill="#333333" />
    <path
        d="M25 0L26.6971 4.30294L31 6L26.6971 7.69706L25 12L23.3029 7.69706L19 6L23.3029 4.30294L25 0Z"
        fill="#FFCA8A" />
</svg>