<svg width="321" height="180" viewBox="0 0 321 180" fill="none" xmlns="http://www.w3.org/2000/svg">
<g clip-path="url(#clip0_11275_64280)">
<g filter="url(#filter0_i_11275_64280)">
<path d="M190.964 169.139H130.611C123.253 169.139 117.225 162.806 117.225 154.992V25.3527C117.225 17.6216 123.253 11.2887 130.611 11.2887H190.964C198.4 11.2887 204.349 17.6216 204.349 25.3527V154.992C204.428 162.806 198.4 169.139 190.964 169.139Z" fill="#3B3747"/>
<path d="M190.964 169.139H130.611C123.253 169.139 117.225 162.806 117.225 154.992V25.3527C117.225 17.6216 123.253 11.2887 130.611 11.2887H190.964C198.4 11.2887 204.349 17.6216 204.349 25.3527V154.992C204.428 162.806 198.4 169.139 190.964 169.139Z" fill="url(#paint0_linear_11275_64280)" fill-opacity="0.2"/>
</g>
<path d="M189.893 16.4137H181.668L139.908 16.4961H131.683C126.542 16.4961 122.35 20.8633 122.35 26.2193V154.29C122.35 159.646 126.542 164.014 131.683 164.014H189.893C195.034 164.014 199.225 159.646 199.225 154.29V26.1369C199.146 20.7809 195.034 16.4137 189.893 16.4137Z" fill="url(#paint1_linear_11275_64280)"/>
<rect x="125.425" y="102.514" width="70.725" height="58.425" rx="8.2" fill="#3B3747"/>
<path fill-rule="evenodd" clip-rule="evenodd" d="M179.225 143.289C184.748 143.289 189.225 138.812 189.225 133.289C189.225 127.766 184.748 123.289 179.225 123.289C173.702 123.289 169.225 127.766 169.225 133.289C169.225 138.812 173.702 143.289 179.225 143.289ZM186.792 133.289C186.792 137.468 183.404 140.855 179.225 140.855C177.781 140.855 176.432 140.451 175.284 139.749L185.685 129.347C186.387 130.495 186.792 131.845 186.792 133.289ZM184.095 127.497C182.779 126.389 181.08 125.722 179.225 125.722C175.046 125.722 171.658 129.11 171.658 133.289C171.658 135.143 172.326 136.842 173.433 138.158L184.095 127.497Z" fill="white"/>
<path d="M143.225 123.289L140.963 126.584L137.278 125.035L137.157 129.03L133.219 129.719L135.277 133.146L132.337 135.854L135.921 137.624L134.912 141.492L138.884 141.044L140.126 144.843L143.225 142.319L146.324 144.843L147.567 141.044L151.538 141.492L150.53 137.624L154.113 135.854L151.173 133.146L153.231 129.719L149.294 129.03L149.172 125.035L145.488 126.584L143.225 123.289Z" fill="url(#paint2_linear_11275_64280)"/>
<path d="M143.225 123.289L140.963 126.584L137.278 125.035L137.157 129.03L133.219 129.719L135.277 133.146L132.337 135.854L135.921 137.624L134.912 141.492L138.884 141.044L140.126 144.843L143.225 142.319L146.324 144.843L147.567 141.044L151.538 141.492L150.53 137.624L154.113 135.854L151.173 133.146L153.231 129.719L149.294 129.03L149.172 125.035L145.488 126.584L143.225 123.289Z" fill="white" fill-opacity="0.3"/>
<rect x="129.525" y="11.2887" width="31.775" height="157.85" fill="url(#paint3_linear_11275_64280)"/>
<path fill-rule="evenodd" clip-rule="evenodd" d="M162.325 164.014H189.893C195.034 164.014 199.225 159.646 199.225 154.29V26.1369C199.146 20.7809 195.034 16.4137 189.893 16.4137H181.667L162.325 16.4519V164.014Z" fill="#50F0D2" fill-opacity="0.3"/>
<rect width="31.775" height="157.85" transform="matrix(-1 0 0 1 193.075 11.2887)" fill="url(#paint4_linear_11275_64280)" fill-opacity="0.8"/>
<path opacity="0.3" fill-rule="evenodd" clip-rule="evenodd" d="M160.2 164.014H131.885C126.605 164.014 122.3 159.646 122.3 154.29V26.1369C122.381 20.7809 126.605 16.4137 131.885 16.4137H140.334L160.2 16.4519V164.014Z" fill="#F95182"/>
<rect opacity="0.1" x="128.45" y="11.2887" width="31.775" height="157.85" fill="url(#paint5_linear_11275_64280)" fill-opacity="0.8"/>
<path d="M182.539 26.8154L182.172 27.7291C182.12 27.8595 182.016 27.9628 181.886 28.0149L180.969 28.3804C180.711 28.4836 180.711 28.8489 180.969 28.9521L181.886 29.3176C182.016 29.3698 182.12 29.4731 182.172 29.6035L182.539 30.5172C182.642 30.7752 183.009 30.7752 183.112 30.5172L183.478 29.6035C183.531 29.4731 183.634 29.3698 183.765 29.3176L184.681 28.9521C184.94 28.8489 184.94 28.4836 184.681 28.3804L183.765 28.0149C183.634 27.9628 183.531 27.8595 183.478 27.7291L183.112 26.8154C183.009 26.5573 182.642 26.5573 182.539 26.8154Z" fill="url(#paint6_linear_11275_64280)"/>
<path d="M188.402 76.0758L187.669 77.9032C187.565 78.164 187.357 78.3706 187.096 78.4749L185.264 79.2059C184.746 79.4123 184.746 80.1429 185.264 80.3493L187.096 81.0803C187.357 81.1846 187.565 81.3912 187.669 81.652L188.402 83.4794C188.609 83.9955 189.342 83.9955 189.549 83.4794L190.282 81.652C190.386 81.3912 190.593 81.1846 190.855 81.0803L192.687 80.3493C193.205 80.1429 193.205 79.4123 192.687 79.2059L190.855 78.4749C190.593 78.3706 190.386 78.164 190.282 77.9032L189.549 76.0758C189.342 75.5597 188.609 75.5597 188.402 76.0758Z" fill="url(#paint7_linear_11275_64280)"/>
</g>
<g filter="url(#filter1_i_11275_64280)">
<path d="M162.5 1.5C162.5 0.671571 161.828 0 161 0C160.172 0 159.5 0.671573 159.5 1.5V178.5C159.5 179.328 160.172 180 161 180C161.828 180 162.5 179.328 162.5 178.5V1.5Z" fill="#2DDCCC"/>
</g>
<g filter="url(#filter2_di_11275_64280)">
<path d="M186.89 35.9648L164.343 28.8081C162.445 28.2078 160.408 28.2078 158.51 28.8081L135.963 35.9648C134.805 36.3342 133.972 37.3962 133.925 38.6428C133.601 47.2771 134.157 80.7521 160.963 89.571C161.288 89.6634 161.612 89.6634 161.889 89.571C188.696 80.7521 189.251 47.2771 188.927 38.6428C188.881 37.3962 188.048 36.3342 186.89 35.9648Z" fill="url(#paint8_linear_11275_64280)"/>
</g>
<g filter="url(#filter3_i_11275_64280)">
<path d="M179.69 42.4466L163.383 37.3705C162.01 36.9447 160.537 36.9447 159.164 37.3705L142.857 42.4466C142.02 42.7085 141.418 43.4618 141.384 44.346C141.15 50.4701 141.551 74.2132 160.939 80.4682C161.173 80.5337 161.407 80.5337 161.608 80.4682C180.996 74.2132 181.397 50.4701 181.163 44.346C181.13 43.4618 180.527 42.7085 179.69 42.4466Z" fill="url(#paint9_linear_11275_64280)"/>
</g>
<path d="M178.88 40.1532L178.421 41.2953C178.356 41.4583 178.227 41.5874 178.063 41.6526L176.918 42.1095C176.594 42.2385 176.594 42.6951 176.918 42.8241L178.063 43.281C178.227 43.3462 178.356 43.4753 178.421 43.6383L178.88 44.7805C179.009 45.103 179.467 45.103 179.596 44.7805L180.054 43.6383C180.12 43.4753 180.249 43.3462 180.412 43.281L181.558 42.8241C181.881 42.6951 181.881 42.2385 181.558 42.1095L180.412 41.6526C180.249 41.5874 180.12 41.4583 180.054 41.2953L179.596 40.1532C179.467 39.8306 179.009 39.8306 178.88 40.1532Z" fill="white"/>
<circle cx="99.5" cy="40" r="3" fill="url(#paint10_linear_11275_64280)"/>
<circle opacity="0.5" cx="220.5" cy="83" r="3" fill="url(#paint11_linear_11275_64280)"/>
<circle opacity="0.5" cx="222.5" cy="156" r="3" fill="url(#paint12_linear_11275_64280)"/>
<circle opacity="0.5" cx="243.5" cy="101" r="3" fill="url(#paint13_linear_11275_64280)"/>
<circle opacity="0.5" cx="274.5" cy="73" r="3" fill="url(#paint14_linear_11275_64280)"/>
<circle cx="59.5" cy="78" r="3" fill="url(#paint15_linear_11275_64280)"/>
<circle cx="96.5" cy="132" r="3" fill="url(#paint16_linear_11275_64280)"/>
<path d="M267.5 35C267.5 21.7452 256.755 11 243.5 11C230.245 11 219.5 21.7452 219.5 35V52.85C219.5 56.2466 222.253 59 225.65 59H243.5C256.755 59 267.5 48.2548 267.5 35Z" fill="url(#paint17_linear_11275_64280)"/>
<path d="M257.832 25.0081C258.092 24.7172 258.068 24.2689 257.78 24.0068C257.492 23.7447 257.048 23.7681 256.788 24.059L234.314 49.2371C234.054 49.528 234.077 49.9763 234.365 50.2384C234.654 50.5005 235.098 50.4771 235.357 50.1862L240.626 44.2836C241.069 44.4662 241.549 44.5648 242.044 44.5648H245.311C246.745 44.5648 248.053 43.7389 248.68 42.4379H251.121L253.46 45.041C253.72 45.3311 254.165 45.353 254.452 45.09C254.739 44.827 254.761 44.3787 254.501 44.0886L251.953 41.2528C251.82 41.1045 251.631 41.02 251.433 41.02H249.361L249.423 40.8902C250.119 39.4426 250.428 37.8606 250.35 36.2936H251.121L253.46 38.8967C253.72 39.1868 254.165 39.2087 254.452 38.9457C254.739 38.6827 254.761 38.2343 254.501 37.9443L251.953 35.1084C251.82 34.9602 251.631 34.8757 251.433 34.8757H250.173C250.105 34.5399 250.019 34.2069 249.914 33.8784L257.832 25.0081Z" fill="white"/>
<path d="M248.236 30.3856L248.68 30.951L238.605 42.4379H235.766L233.427 45.041C233.167 45.3311 232.722 45.353 232.435 45.09C232.148 44.827 232.126 44.3787 232.386 44.0886L234.934 41.2528C235.067 41.1045 235.256 41.02 235.455 41.02H237.994L237.932 40.8902C237.236 39.4426 236.928 37.8606 237.005 36.2936H235.766L233.427 38.8967C233.167 39.1868 232.722 39.2087 232.435 38.9457C232.148 38.6827 232.126 38.2343 232.386 37.9443L234.934 35.1084C235.067 34.9602 235.256 34.8757 235.455 34.8757H237.183C237.337 34.1103 237.587 33.3598 237.932 32.6422L238.335 31.8035H235.455C235.256 31.8035 235.067 31.719 234.934 31.5708L232.386 28.7349C232.126 28.4449 232.148 27.9965 232.435 27.7335C232.722 27.4705 233.167 27.4924 233.427 27.7825L235.766 30.3856H239.12C239.821 29.501 240.892 28.9677 242.044 28.9677H245.311C246.463 28.9677 247.534 29.501 248.236 30.3856Z" fill="white"/>
<path d="M240.868 27.0985C240.868 25.9704 241.53 24.9496 242.555 24.4989C243.271 24.1839 244.084 24.1839 244.8 24.4989C245.825 24.9496 246.487 25.9704 246.487 27.0985V27.5497C246.487 27.8108 246.278 28.0224 246.019 28.0224H241.336C241.078 28.0224 240.868 27.8108 240.868 27.5497V27.0985Z" fill="white"/>
<path d="M55.5624 30.2101C56.5287 28.5966 58.8723 28.5966 59.8386 30.2101L68.5449 44.7477C69.5363 46.4032 68.3403 48.5048 66.4068 48.5048H48.9942C47.0607 48.5048 45.8647 46.4032 46.8561 44.7477L55.5624 30.2101Z" fill="url(#paint18_linear_11275_64280)"/>
<path d="M56.5338 36.0278C56.537 35.4592 56.9988 35 57.5673 35C58.1359 35 58.5976 35.4592 58.6008 36.0278L58.6287 41.0288C58.6319 41.6173 58.1558 42.0961 57.5673 42.0961C56.9788 42.0961 56.5027 41.6173 56.5059 41.0288L56.5338 36.0278Z" fill="white"/>
<ellipse cx="57.5673" cy="44.0644" rx="1.0673" ry="1.06441" fill="white"/>
<path d="M79.5 91C79.5 83.268 85.768 77 93.5 77C101.232 77 107.5 83.268 107.5 91C107.5 98.732 101.232 105 93.5 105C85.768 105 79.5 98.732 79.5 91Z" fill="url(#paint19_linear_11275_64280)"/>
<path fill-rule="evenodd" clip-rule="evenodd" d="M93.5 96C90.7675 96 87.9045 94.4238 86.0161 91C87.9045 87.5762 90.7675 86 93.5 86C96.2326 86 99.0955 87.576 100.984 91C99.0955 94.424 96.2326 96 93.5 96ZM102.112 90.4577C97.9628 82.8473 89.0373 82.8476 84.8879 90.4577C84.704 90.7948 84.704 91.2052 84.8879 91.5423C89.0373 99.1524 97.9628 99.1527 102.112 91.5423C102.296 91.2052 102.296 90.7948 102.112 90.4577ZM93.5 88.5C93.5 89.8807 92.3807 91 91 91C90.5504 91 90.1285 90.8813 89.764 90.6736C89.7547 90.7812 89.75 90.89 89.75 91C89.75 93.0711 91.4289 94.75 93.5 94.75C95.5711 94.75 97.25 93.0711 97.25 91C97.25 88.9289 95.5711 87.25 93.5 87.25C93.39 87.25 93.2812 87.2547 93.1736 87.264C93.3813 87.6285 93.5 88.0504 93.5 88.5Z" fill="white"/>
<path fill-rule="evenodd" clip-rule="evenodd" d="M59.9716 141.242C61.7621 139.742 62.9002 137.492 62.9002 134.978C62.9002 130.461 59.2289 126.8 54.7002 126.8C50.1714 126.8 46.5002 130.461 46.5002 134.978C46.5002 137.492 47.6383 139.742 49.4288 141.242V143.74C49.4288 144.707 50.2155 145.492 51.1859 145.492C52.1563 145.492 52.943 144.707 52.943 143.74C52.943 144.707 53.7297 145.492 54.7002 145.492C55.6706 145.492 56.4573 144.707 56.4573 143.74C56.4573 144.707 57.244 145.492 58.2145 145.492C59.1849 145.492 59.9716 144.707 59.9716 143.74V141.242ZM50.893 137.314C52.0252 137.314 52.943 136.399 52.943 135.27C52.943 134.141 52.0252 133.225 50.893 133.225C49.7609 133.225 48.843 134.141 48.843 135.27C48.843 136.399 49.7609 137.314 50.893 137.314ZM60.5573 135.27C60.5573 136.399 59.6395 137.314 58.5073 137.314C57.3751 137.314 56.4573 136.399 56.4573 135.27C56.4573 134.141 57.3751 133.225 58.5073 133.225C59.6395 133.225 60.5573 134.141 60.5573 135.27ZM54.4659 138.794C54.583 138.638 54.8173 138.638 54.9345 138.794L56.1059 140.352C56.2507 140.544 56.1129 140.819 55.8716 140.819H53.5287C53.2874 140.819 53.1497 140.544 53.2945 140.352L54.4659 138.794Z" fill="url(#paint20_linear_11275_64280)"/>
<path d="M247.5 129C247.5 121.268 253.768 115 261.5 115C269.232 115 275.5 121.268 275.5 129C275.5 136.732 269.232 143 261.5 143C253.768 143 247.5 136.732 247.5 129Z" fill="url(#paint21_linear_11275_64280)"/>
<path fill-rule="evenodd" clip-rule="evenodd" d="M254.183 121.683C253.939 121.927 253.939 122.323 254.183 122.567L267.933 136.317C268.177 136.561 268.573 136.561 268.817 136.317C269.061 136.073 269.061 135.677 268.817 135.433L266.818 133.434C268.077 132.498 269.208 131.201 270.112 129.542C270.296 129.205 270.296 128.795 270.112 128.458C267.118 122.965 261.635 121.437 257.256 123.872L255.067 121.683C254.823 121.439 254.427 121.439 254.183 121.683ZM258.185 124.801L261.154 127.77C261.374 127.398 261.5 126.964 261.5 126.5C261.5 126.05 261.381 125.629 261.174 125.264C261.281 125.255 261.39 125.25 261.5 125.25C263.571 125.25 265.25 126.929 265.25 129C265.25 129.81 264.993 130.56 264.557 131.173L265.918 132.534C267.063 131.717 268.113 130.548 268.966 129C267.076 125.568 264.215 124 261.5 124C260.394 124 259.263 124.26 258.185 124.801ZM259.341 128.977C259.23 128.992 259.116 129 259 129C258.55 129 258.129 128.881 257.764 128.674C257.755 128.781 257.75 128.89 257.75 129C257.75 131.071 259.429 132.75 261.5 132.75C261.979 132.75 262.438 132.66 262.859 132.496L259.341 128.977ZM252.888 128.458C253.611 127.132 254.478 126.037 255.441 125.173L256.339 126.058C255.483 126.817 254.699 127.793 254.034 129C255.924 132.432 258.785 134 261.5 134C262.319 134 263.151 133.857 263.965 133.564L264.941 134.525C260.713 136.365 255.702 134.704 252.888 129.542C252.704 129.205 252.704 128.795 252.888 128.458Z" fill="white"/>
<defs>
<filter id="filter0_i_11275_64280" x="117.225" y="11.2887" width="87.125" height="158.875" filterUnits="userSpaceOnUse" color-interpolation-filters="sRGB">
<feFlood flood-opacity="0" result="BackgroundImageFix"/>
<feBlend mode="normal" in="SourceGraphic" in2="BackgroundImageFix" result="shape"/>
<feColorMatrix in="SourceAlpha" type="matrix" values="0 0 0 0 0 0 0 0 0 0 0 0 0 0 0 0 0 0 127 0" result="hardAlpha"/>
<feOffset dy="1.025"/>
<feGaussianBlur stdDeviation="0.5125"/>
<feComposite in2="hardAlpha" operator="arithmetic" k2="-1" k3="1"/>
<feColorMatrix type="matrix" values="0 0 0 0 1 0 0 0 0 1 0 0 0 0 1 0 0 0 0.4 0"/>
<feBlend mode="normal" in2="shape" result="effect1_innerShadow_11275_64280"/>
</filter>
<filter id="filter1_i_11275_64280" x="159" y="0" width="3.5" height="180" filterUnits="userSpaceOnUse" color-interpolation-filters="sRGB">
<feFlood flood-opacity="0" result="BackgroundImageFix"/>
<feBlend mode="normal" in="SourceGraphic" in2="BackgroundImageFix" result="shape"/>
<feColorMatrix in="SourceAlpha" type="matrix" values="0 0 0 0 0 0 0 0 0 0 0 0 0 0 0 0 0 0 127 0" result="hardAlpha"/>
<feOffset dx="-1"/>
<feGaussianBlur stdDeviation="0.25"/>
<feComposite in2="hardAlpha" operator="arithmetic" k2="-1" k3="1"/>
<feColorMatrix type="matrix" values="0 0 0 0 1 0 0 0 0 1 0 0 0 0 1 0 0 0 0.5 0"/>
<feBlend mode="normal" in2="shape" result="effect1_innerShadow_11275_64280"/>
</filter>
<filter id="filter2_di_11275_64280" x="113.377" y="18.1079" width="96.098" height="102.282" filterUnits="userSpaceOnUse" color-interpolation-filters="sRGB">
<feFlood flood-opacity="0" result="BackgroundImageFix"/>
<feColorMatrix in="SourceAlpha" type="matrix" values="0 0 0 0 0 0 0 0 0 0 0 0 0 0 0 0 0 0 127 0" result="hardAlpha"/>
<feOffset dy="10.25"/>
<feGaussianBlur stdDeviation="10.25"/>
<feComposite in2="hardAlpha" operator="out"/>
<feColorMatrix type="matrix" values="0 0 0 0 0.231373 0 0 0 0 0.215686 0 0 0 0 0.278431 0 0 0 0.6 0"/>
<feBlend mode="normal" in2="BackgroundImageFix" result="effect1_dropShadow_11275_64280"/>
<feBlend mode="normal" in="SourceGraphic" in2="effect1_dropShadow_11275_64280" result="shape"/>
<feColorMatrix in="SourceAlpha" type="matrix" values="0 0 0 0 0 0 0 0 0 0 0 0 0 0 0 0 0 0 127 0" result="hardAlpha"/>
<feOffset dy="1.025"/>
<feComposite in2="hardAlpha" operator="arithmetic" k2="-1" k3="1"/>
<feColorMatrix type="matrix" values="0 0 0 0 1 0 0 0 0 1 0 0 0 0 1 0 0 0 0.5 0"/>
<feBlend mode="normal" in2="shape" result="effect2_innerShadow_11275_64280"/>
</filter>
<filter id="filter3_i_11275_64280" x="141.349" y="37.0511" width="39.8485" height="43.4662" filterUnits="userSpaceOnUse" color-interpolation-filters="sRGB">
<feFlood flood-opacity="0" result="BackgroundImageFix"/>
<feBlend mode="normal" in="SourceGraphic" in2="BackgroundImageFix" result="shape"/>
<feColorMatrix in="SourceAlpha" type="matrix" values="0 0 0 0 0 0 0 0 0 0 0 0 0 0 0 0 0 0 127 0" result="hardAlpha"/>
<feOffset dy="1.025"/>
<feComposite in2="hardAlpha" operator="arithmetic" k2="-1" k3="1"/>
<feColorMatrix type="matrix" values="0 0 0 0 1 0 0 0 0 1 0 0 0 0 1 0 0 0 0.5 0"/>
<feBlend mode="normal" in2="shape" result="effect1_innerShadow_11275_64280"/>
</filter>
<linearGradient id="paint0_linear_11275_64280" x1="183.212" y1="236.527" x2="85.321" y2="203.951" gradientUnits="userSpaceOnUse">
<stop stop-color="white"/>
<stop offset="0.553424" stop-color="white" stop-opacity="0"/>
</linearGradient>
<linearGradient id="paint1_linear_11275_64280" x1="207.425" y1="3.6012" x2="107.071" y2="55.3677" gradientUnits="userSpaceOnUse">
<stop stop-color="#A7A4B5"/>
<stop offset="1" stop-color="#4A4658"/>
</linearGradient>
<linearGradient id="paint2_linear_11275_64280" x1="143.225" y1="123.102" x2="143.225" y2="155.126" gradientUnits="userSpaceOnUse">
<stop stop-color="#FA5284"/>
<stop offset="1" stop-color="#DC3251"/>
</linearGradient>
<linearGradient id="paint3_linear_11275_64280" x1="161.3" y1="29.7387" x2="129.525" y2="29.7387" gradientUnits="userSpaceOnUse">
<stop stop-color="#3B3747"/>
<stop offset="1" stop-color="#3B3747" stop-opacity="0"/>
</linearGradient>
<linearGradient id="paint4_linear_11275_64280" x1="31.775" y1="18.45" x2="-1.45745e-06" y2="18.45" gradientUnits="userSpaceOnUse">
<stop stop-color="#2DDCCC"/>
<stop offset="1" stop-color="#2DDCCC" stop-opacity="0"/>
</linearGradient>
<linearGradient id="paint5_linear_11275_64280" x1="160.225" y1="29.7387" x2="128.45" y2="29.7387" gradientUnits="userSpaceOnUse">
<stop stop-color="#F95182"/>
<stop offset="1" stop-color="#F95182" stop-opacity="0"/>
</linearGradient>
<linearGradient id="paint6_linear_11275_64280" x1="182.825" y1="33.164" x2="182.817" y2="26.315" gradientUnits="userSpaceOnUse">
<stop stop-color="#25ECC6"/>
<stop offset="1" stop-color="white"/>
</linearGradient>
<linearGradient id="paint7_linear_11275_64280" x1="188.975" y1="88.7732" x2="188.959" y2="75.075" gradientUnits="userSpaceOnUse">
<stop stop-color="#25ECC6"/>
<stop offset="1" stop-color="white"/>
</linearGradient>
<linearGradient id="paint8_linear_11275_64280" x1="150.689" y1="99.1457" x2="164.644" y2="25.6284" gradientUnits="userSpaceOnUse">
<stop stop-color="#8A6EFF"/>
<stop offset="1" stop-color="#25ECC6"/>
</linearGradient>
<linearGradient id="paint9_linear_11275_64280" x1="163.141" y1="91.0734" x2="162.931" y2="33.802" gradientUnits="userSpaceOnUse">
<stop offset="0.00514267" stop-color="#6898EC"/>
<stop offset="0.140625" stop-color="#41CAD6"/>
<stop offset="0.651042" stop-color="#25ECC6"/>
<stop offset="1" stop-color="white"/>
</linearGradient>
<linearGradient id="paint10_linear_11275_64280" x1="99.5" y1="36.949" x2="99.5" y2="45.683" gradientUnits="userSpaceOnUse">
<stop stop-color="#FA5284"/>
<stop offset="1" stop-color="#DC3251"/>
</linearGradient>
<linearGradient id="paint11_linear_11275_64280" x1="220.781" y1="87.4571" x2="220.755" y2="79.5515" gradientUnits="userSpaceOnUse">
<stop offset="0.00514267" stop-color="#6898EC"/>
<stop offset="0.140625" stop-color="#41CAD6"/>
<stop offset="0.651042" stop-color="#25ECC6"/>
<stop offset="1" stop-color="white"/>
</linearGradient>
<linearGradient id="paint12_linear_11275_64280" x1="222.781" y1="160.457" x2="222.755" y2="152.551" gradientUnits="userSpaceOnUse">
<stop offset="0.00514267" stop-color="#6898EC"/>
<stop offset="0.140625" stop-color="#41CAD6"/>
<stop offset="0.651042" stop-color="#25ECC6"/>
<stop offset="1" stop-color="white"/>
</linearGradient>
<linearGradient id="paint13_linear_11275_64280" x1="243.781" y1="105.457" x2="243.755" y2="97.5515" gradientUnits="userSpaceOnUse">
<stop offset="0.00514267" stop-color="#6898EC"/>
<stop offset="0.140625" stop-color="#41CAD6"/>
<stop offset="0.651042" stop-color="#25ECC6"/>
<stop offset="1" stop-color="white"/>
</linearGradient>
<linearGradient id="paint14_linear_11275_64280" x1="274.781" y1="77.4571" x2="274.755" y2="69.5515" gradientUnits="userSpaceOnUse">
<stop offset="0.00514267" stop-color="#6898EC"/>
<stop offset="0.140625" stop-color="#41CAD6"/>
<stop offset="0.651042" stop-color="#25ECC6"/>
<stop offset="1" stop-color="white"/>
</linearGradient>
<linearGradient id="paint15_linear_11275_64280" x1="59.5" y1="74.949" x2="59.5" y2="83.683" gradientUnits="userSpaceOnUse">
<stop stop-color="#FA5284"/>
<stop offset="1" stop-color="#DC3251"/>
</linearGradient>
<linearGradient id="paint16_linear_11275_64280" x1="96.5" y1="128.949" x2="96.5" y2="137.683" gradientUnits="userSpaceOnUse">
<stop stop-color="#FA5284"/>
<stop offset="1" stop-color="#DC3251"/>
</linearGradient>
<linearGradient id="paint17_linear_11275_64280" x1="234.145" y1="66.4452" x2="244.039" y2="8.47569" gradientUnits="userSpaceOnUse">
<stop stop-color="#8A6EFF"/>
<stop offset="1" stop-color="#25ECC6"/>
</linearGradient>
<linearGradient id="paint18_linear_11275_64280" x1="57.7005" y1="28.8343" x2="57.7005" y2="57.2268" gradientUnits="userSpaceOnUse">
<stop stop-color="#FA5284"/>
<stop offset="1" stop-color="#DC3251"/>
</linearGradient>
<linearGradient id="paint19_linear_11275_64280" x1="93.4999" y1="76.7621" x2="93.4999" y2="117.521" gradientUnits="userSpaceOnUse">
<stop stop-color="#FA5284"/>
<stop offset="1" stop-color="#DC3251"/>
</linearGradient>
<linearGradient id="paint20_linear_11275_64280" x1="54.7001" y1="126.641" x2="54.7001" y2="153.85" gradientUnits="userSpaceOnUse">
<stop stop-color="#FA5284"/>
<stop offset="1" stop-color="#DC3251"/>
</linearGradient>
<linearGradient id="paint21_linear_11275_64280" x1="262.812" y1="149.8" x2="262.688" y2="112.907" gradientUnits="userSpaceOnUse">
<stop offset="0.00514267" stop-color="#6898EC"/>
<stop offset="0.546875" stop-color="#41CAD6"/>
<stop offset="1" stop-color="#25ECC6"/>
</linearGradient>
<clipPath id="clip0_11275_64280">
<rect width="87.125" height="157.422" fill="white" transform="translate(117.225 11.2887)"/>
</clipPath>
</defs>
</svg>
