<svg width="26" height="26" viewBox="0 0 26 26" fill="none" xmlns="http://www.w3.org/2000/svg">
    <path d="M1 25L4 22" stroke="black" stroke-opacity="0.8" stroke-width="1.2"
        stroke-linecap="round" stroke-linejoin="round" />
    <path
        d="M5.19998 8.7998L5.25998 8.8598C6.04008 9.63983 6.6589 10.5659 7.08109 11.5851C7.50328 12.6043 7.72058 13.6966 7.72058 14.7998C7.72058 15.903 7.50328 16.9954 7.08109 18.0145C6.6589 19.0337 6.04008 19.9598 5.25998 20.7398L3.99998 21.9998L3.93998 21.9398C3.15987 21.1598 2.54106 20.2337 2.11886 19.2145C1.69667 18.1954 1.47937 17.103 1.47937 15.9998C1.47937 14.8966 1.69667 13.8043 2.11886 12.7851C2.54106 11.7659 3.15987 10.8398 3.93998 10.0598L5.19998 8.7998Z"
        stroke="black" stroke-opacity="0.8" stroke-width="1.2" stroke-linecap="round"
        stroke-linejoin="round" />
    <path
        d="M17.2 20.7999L17.14 20.7399C16.36 19.9598 15.4339 19.341 14.4147 18.9188C13.3955 18.4966 12.3032 18.2793 11.2 18.2793C10.0968 18.2793 9.00445 18.4966 7.98526 18.9188C6.96607 19.341 6.04002 19.9598 5.26 20.7399L4 21.9999L4.06 22.0599C4.84002 22.84 5.76607 23.4588 6.78526 23.881C7.80445 24.3032 8.89682 24.5205 10 24.5205C11.1032 24.5205 12.1955 24.3032 13.2147 23.881C14.2339 23.4588 15.16 22.84 15.94 22.0599L17.2 20.7999Z"
        stroke="black" stroke-opacity="0.8" stroke-width="1.2" stroke-linecap="round"
        stroke-linejoin="round" />
    <path
        d="M11.8 14.2004L11.6668 14.0672C10.4291 12.8295 9.73376 11.1508 9.73376 9.40039C9.73376 7.65001 10.4291 5.97132 11.6668 4.73359L13 3.40039L13.1332 3.53359C14.3708 4.77132 15.0661 6.45001 15.0661 8.20039C15.0661 9.95077 14.3708 11.6295 13.1332 12.8672L11.8 14.2004Z"
        stroke="black" stroke-opacity="0.8" stroke-width="1.2" stroke-linecap="round"
        stroke-linejoin="round" />
    <path
        d="M11.8 14.1998L11.9332 14.333C13.171 15.5707 14.8497 16.266 16.6 16.266C18.3504 16.266 20.0291 15.5707 21.2668 14.333L22.6 12.9998L22.4668 12.8666C21.2291 11.6289 19.5504 10.9336 17.8 10.9336C16.0497 10.9336 14.371 11.6289 13.1332 12.8666L11.8 14.1998Z"
        stroke="black" stroke-opacity="0.8" stroke-width="1.2" stroke-linecap="round"
        stroke-linejoin="round" />
    <path
        d="M19.5999 2.8C21.3819 1.018 24.9999 1 24.9999 1C24.9999 1 24.9819 4.618 23.1999 6.4C21.4179 8.182 18.3999 7.6 18.3999 7.6C18.3999 7.6 17.8179 4.582 19.5999 2.8Z"
        stroke="black" stroke-opacity="0.8" stroke-width="1.2" stroke-linecap="round"
        stroke-linejoin="round" />
</svg>