<svg width="12" height="12" viewBox="0 0 12 12" fill="none" xmlns="http://www.w3.org/2000/svg">
<g clip-path="url(#clip0_6196_65320)">
<path d="M8.36917 3.72707C11.0052 6.36311 12.1132 9.52893 10.844 10.7981C9.57483 12.0673 6.40901 10.9593 3.77297 8.32326C1.13693 5.68722 0.028893 2.5214 1.2981 1.2522C2.5673 -0.0170082 5.73313 1.09103 8.36917 3.72707Z" stroke="black" stroke-linecap="round" stroke-linejoin="round"/>
<path d="M8.36917 8.32328C11.0052 5.68725 12.1132 2.52142 10.844 1.25222C9.57483 -0.0169874 6.40901 1.09105 3.77297 3.72709C1.13693 6.36313 0.028893 9.52895 1.2981 10.7982C2.5673 12.0674 5.73313 10.9593 8.36917 8.32328Z" stroke="black" stroke-linecap="round" stroke-linejoin="round"/>
<path d="M6 7C6.55228 7 7 6.55228 7 6C7 5.44772 6.55228 5 6 5C5.44772 5 5 5.44772 5 6C5 6.55228 5.44772 7 6 7Z" stroke="black" stroke-linecap="round" stroke-linejoin="round"/>
</g>
<defs>
<clipPath id="clip0_6196_65320">
<rect width="12" height="12" fill="white"/>
</clipPath>
</defs>
</svg>
