<svg width="375" height="276" viewBox="0 0 375 276" fill="none" xmlns="http://www.w3.org/2000/svg">
    <path d="M25.8096 197.491C28.89 197.491 31.3872 194.994 31.3872 191.914C31.3872 188.833 28.89 186.336 25.8096 186.336C22.7291 186.336 20.2319 188.833 20.2319 191.914C20.2319 194.994 22.7291 197.491 25.8096 197.491Z" fill="#EAE8E4" />
    <path d="M333.696 102.384C335.683 102.384 336.903 100.209 335.867 98.5135L333.407 94.4882C332.415 92.8649 330.057 92.8649 329.065 94.4882L326.605 98.5135C325.569 100.209 326.789 102.384 328.776 102.384L333.696 102.384Z" fill="#EAE8E4" />
    <path d="M24.0481 66.7678C24.0481 48.5026 38.8549 33.6958 57.1201 33.6958C75.3853 33.6958 90.1921 48.5026 90.1921 66.7678V99.8398H57.1201C38.8549 99.8398 24.0481 85.033 24.0481 66.7678Z" fill="url(#paint0_linear_2761_12545)" />
    <path fill-rule="evenodd" clip-rule="evenodd" d="M68.8989 53.1091C65.2139 50.7362 60.3655 51.2989 57.322 54.4527L43.3266 68.448C42.0096 69.7269 41.3217 71.5203 41.4457 73.352C41.5891 75.1865 42.5202 76.8689 43.9984 77.9648C45.05 78.7374 46.3211 79.1533 47.626 79.1516C49.4601 79.1301 51.2126 78.3905 52.5076 77.0915L64.5995 64.9996C65.9389 63.5344 65.8906 61.2754 64.4899 59.8688C63.0893 58.4621 60.8305 58.4043 59.3597 59.7373L51.2984 67.7986L52.8882 69.3885L60.9272 61.3272C61.514 60.8326 62.3819 60.8696 62.9246 61.4123C63.4673 61.955 63.5042 62.8228 63.0097 63.4097L50.9401 75.5016C49.4669 77.0195 47.1325 77.2996 45.342 76.1734C44.4039 75.4619 43.8172 74.3812 43.7315 73.2069C43.6457 72.0325 44.0693 70.8781 44.8941 70.0379L58.8894 56.0426C61.1768 53.6577 64.8252 53.2087 67.6225 54.9677C69.2815 56.0843 70.3568 57.8819 70.5559 59.8717C70.7246 61.8377 70.0204 63.7784 68.6302 65.1787L56.8069 76.9572L58.3744 78.547L70.1753 66.7686C72.0349 64.8855 72.9666 62.2765 72.7204 59.6414C72.4741 57.0063 71.0752 54.6151 68.8989 53.1091Z" fill="white" />
    <path d="M241.99 208.912C242.413 208.04 243.665 208.068 244.049 208.958L249.654 221.952H235.662L241.99 208.912Z" fill="#3F2B87" />
    <path d="M250.351 210.003C250.788 209.178 251.979 209.206 252.377 210.051L258 222H244L250.351 210.003Z" fill="#27DDA6" />
    <path d="M105.886 208.912C106.309 208.04 107.561 208.068 107.945 208.958L113.55 221.952H99.5581L105.886 208.912Z" fill="#27DDA6" />
    <path d="M198.16 132.524H178.437V221.712H198.16V132.524Z" fill="#FFA24D" />
    <path d="M198.161 185.856L178.437 175.198V138.292H198.161V185.856Z" fill="url(#paint1_linear_2761_12545)" />
    <path d="M253.672 151.796H125.701C123.671 151.796 121.992 150.156 121.992 148.087V111.897C121.992 95.3837 135.382 82.0322 151.857 82.0322H223.729C240.242 82.0322 253.594 95.4228 253.594 111.897V151.796H253.672Z" fill="url(#paint2_linear_2761_12545)" />
    <path d="M178.562 151.507H126.601V111.531C126.601 97.2036 138.234 85.5698 152.562 85.5698C166.889 85.5698 178.523 97.2036 178.523 111.531V151.507H178.562Z" fill="url(#paint3_linear_2761_12545)" />
    <path d="M153.567 152.003H97.5689C95.5934 152.003 94.0081 150.376 94.0081 148.405V113.537C94.0081 111.565 95.6178 109.939 97.5689 109.939H153.543C155.518 109.939 157.103 111.565 157.103 113.537V148.405C157.128 150.401 155.518 152.003 153.567 152.003Z" fill="url(#paint4_linear_2761_12545)" />
    <path d="M123.254 134.157C124.577 135.248 126.512 135.248 127.835 134.157L156.103 110.883C155.466 110.301 154.609 109.938 153.678 109.938H97.4356C96.5047 109.938 95.6474 110.301 95.0105 110.883L123.254 134.157Z" fill="url(#paint5_linear_2761_12545)" />
    <path fill-rule="evenodd" clip-rule="evenodd" d="M203.781 68.269H226.114C227.364 68.269 228.379 67.254 228.379 66.0047V55.0402C228.379 53.7909 227.364 52.7759 226.114 52.7759H197.928C196.679 52.7759 195.664 53.7909 195.664 55.0402V62.3099H195.661V117.971C195.661 120.196 197.496 122.031 199.721 122.031C201.986 122.031 203.781 120.196 203.781 117.971V68.269Z" fill="url(#paint6_linear_2761_12545)" />
    <path d="M178.563 151.507H173.527V153.772H126.601L113.679 163.063C113.679 163.063 110.361 165.483 109.385 168.88L109.112 168.568V170.754C109.112 172.432 109.815 174.306 111.727 176.141C117.818 181.294 140.031 182.856 156.467 170.48C172.863 158.105 178.563 153.733 178.563 153.733V151.507Z" fill="#734FFF" />
    <path d="M126.601 151.507L113.678 160.799C113.678 160.799 104.856 167.279 111.727 173.916C117.817 179.069 140.03 180.631 156.466 168.255C172.901 155.88 178.562 151.507 178.562 151.507H126.601Z" fill="url(#paint7_linear_2761_12545)" />
    <path d="M199.722 120.001C200.778 120.001 201.635 119.144 201.635 118.088C201.635 117.031 200.778 116.175 199.722 116.175C198.665 116.175 197.809 117.031 197.809 118.088C197.809 119.144 198.665 120.001 199.722 120.001Z" fill="white" />
    <path d="M331.769 120.095L290.697 107.022C287.239 105.926 283.528 105.926 280.07 107.022L238.998 120.095C236.89 120.769 235.372 122.709 235.287 124.986C234.697 140.757 235.709 201.901 284.54 218.01C285.13 218.178 285.721 218.178 286.227 218.01C335.058 201.901 336.07 140.757 335.48 124.986C335.395 122.709 333.877 120.769 331.769 120.095Z" fill="url(#paint8_linear_2761_12545)" />
    <path d="M285.383 182.334C298.425 182.334 308.998 171.762 308.998 158.72C308.998 145.678 298.425 135.105 285.383 135.105C272.342 135.105 261.769 145.678 261.769 158.72C261.769 171.762 272.342 182.334 285.383 182.334Z" fill="white" />
    <path fill-rule="evenodd" clip-rule="evenodd" d="M296.905 152.682C297.496 153.274 297.496 154.233 296.905 154.825L284.178 167.552C283.586 168.144 282.626 168.144 282.034 167.552L275.522 161.04C274.93 160.448 274.93 159.488 275.522 158.896C276.114 158.304 277.074 158.304 277.666 158.896L283.106 164.337L294.761 152.682C295.353 152.09 296.313 152.09 296.905 152.682Z" fill="#372580" />
    <defs>
        <linearGradient id="paint0_linear_2761_12545" x1="85.1041" y1="13.9798" x2="62.8441" y2="93.4798" gradientUnits="userSpaceOnUse">
            <stop stop-color="#4CFED3" />
            <stop offset="1" stop-color="#00C1FE" />
        </linearGradient>
        <linearGradient id="paint1_linear_2761_12545" x1="184.516" y1="144.996" x2="192.148" y2="167.892" gradientUnits="userSpaceOnUse">
            <stop stop-color="#0D0A44" />
            <stop offset="1" stop-color="#0D0A44" stop-opacity="0" />
        </linearGradient>
        <linearGradient id="paint2_linear_2761_12545" x1="187.832" y1="92.9968" x2="187.832" y2="151.796" gradientUnits="userSpaceOnUse">
            <stop stop-color="#EEBEFF" />
            <stop offset="1" stop-color="#6D4AFF" />
        </linearGradient>
        <linearGradient id="paint3_linear_2761_12545" x1="171.073" y1="95.3249" x2="114.777" y2="151.621" gradientUnits="userSpaceOnUse">
            <stop stop-color="#372580" />
            <stop offset="1" stop-color="#372580" stop-opacity="0" />
        </linearGradient>
        <linearGradient id="paint4_linear_2761_12545" x1="125.556" y1="109.939" x2="125.556" y2="142.989" gradientUnits="userSpaceOnUse">
            <stop stop-color="#C1CDF8" />
            <stop offset="1" stop-color="#E7ECFA" />
        </linearGradient>
        <linearGradient id="paint5_linear_2761_12545" x1="125.557" y1="99.4216" x2="125.557" y2="128.466" gradientUnits="userSpaceOnUse">
            <stop stop-color="#DEDEF7" />
            <stop offset="1" stop-color="white" />
        </linearGradient>
        <linearGradient id="paint6_linear_2761_12545" x1="228.023" y1="46.2299" x2="192.02" y2="125.437" gradientUnits="userSpaceOnUse">
            <stop stop-color="#FA8D7E" />
            <stop offset="1" stop-color="#E02626" />
        </linearGradient>
        <linearGradient id="paint7_linear_2761_12545" x1="127.213" y1="162.095" x2="141.614" y2="133.292" gradientUnits="userSpaceOnUse">
            <stop stop-color="#EEBEFF" />
            <stop offset="1" stop-color="#6D4AFF" />
        </linearGradient>
        <linearGradient id="paint8_linear_2761_12545" x1="290.585" y1="98.0382" x2="291.168" y2="218.136" gradientUnits="userSpaceOnUse">
            <stop stop-color="#2AF091" />
            <stop offset="1" stop-color="#00C5A1" />
        </linearGradient>
    </defs>
</svg>
    