<svg width="12" height="12" viewBox="0 0 12 12" fill="none" xmlns="http://www.w3.org/2000/svg">
<g clip-path="url(#clip0_6196_64797)">
<path d="M7 0.599976C8.65 1.34548 9.6571 3.07048 9.6571 5.20798C9.6571 7.34548 8.43835 9.03298 6.86335 9.03298C5.28835 9.03298 4.3501 7.40173 4.3501 6.01423C4.36816 5.47377 4.52688 4.94737 4.81059 4.48702C5.0943 4.02667 5.49318 3.64828 5.96785 3.38923" stroke="black" stroke-linecap="round" stroke-linejoin="round"/>
<path d="M5 11.4062C3.35 10.6607 2.34277 8.9625 2.34277 6.825C2.34277 4.6875 3.56152 3 5.13652 3C6.71152 3 7.64977 4.63125 7.64977 6.01875C7.63172 6.5592 7.47299 7.0856 7.18929 7.54596C6.90558 8.00631 6.50669 8.3847 6.03202 8.64375" stroke="black" stroke-linecap="round" stroke-linejoin="round"/>
<path d="M6 11.5C9.03757 11.5 11.5 9.03757 11.5 6C11.5 2.96243 9.03757 0.5 6 0.5C2.96243 0.5 0.5 2.96243 0.5 6C0.5 9.03757 2.96243 11.5 6 11.5Z" stroke="black" stroke-linecap="round" stroke-linejoin="round"/>
</g>
<defs>
<clipPath id="clip0_6196_64797">
<rect width="12" height="12" fill="white"/>
</clipPath>
</defs>
</svg>
