<svg width="78" height="78" viewBox="0 0 78 78" fill="none" xmlns="http://www.w3.org/2000/svg">
<path d="M73.2303 77.0717H4.69276C2.07709 77.0717 -6.10352e-05 74.9945 -6.10352e-05 72.3788V27.3928H78V72.3788C77.9231 74.9176 75.8459 77.0717 73.2303 77.0717Z" fill="url(#paint0_linear_7829_84336)"/>
<path d="M-6.10352e-05 27.3928L38.85 54.8385L78 27.3928H-6.10352e-05Z" fill="#4D34B3"/>
<path d="M78 27.3928L41.1583 1.67855C39.7735 0.67844 37.9272 0.67844 36.5424 1.67855L-6.10352e-05 27.3928H78Z" fill="#4D34B3"/>
<path d="M66.8571 35.2132L38.8502 54.8379L11.1428 35.2676V7.89282H66.8571V35.2132Z" fill="url(#paint1_linear_7829_84336)"/>
<path fill-rule="evenodd" clip-rule="evenodd" d="M7.4971 77.0134H73.0076C75.6233 77.0134 77.7004 74.8593 77.7773 72.3206V27.5493L7.4971 77.0134Z" fill="url(#paint2_linear_7829_84336)"/>
<g clip-path="url(#clip0_7829_84336)">
<path d="M34.372 20.3225C35.992 18.7026 36.8019 17.8926 37.7359 17.5891C38.5575 17.3222 39.4425 17.3222 40.2641 17.5891C41.1981 17.8926 42.008 18.7026 43.628 20.3225L47.6775 24.372C49.2975 25.992 50.1074 26.802 50.4109 27.736C50.6778 28.5575 50.6778 29.4425 50.4109 30.2641C50.1074 31.1981 49.2974 32.0081 47.6775 33.628L43.628 37.6775C42.008 39.2975 41.1981 40.1075 40.2641 40.4109C39.4425 40.6779 38.5575 40.6779 37.7359 40.4109C36.8019 40.1075 35.992 39.2975 34.372 37.6775L33.6106 36.824C33.1499 36.3075 32.9196 36.0492 32.7553 35.7555C32.6096 35.495 32.5028 35.2146 32.4381 34.9232C32.3651 34.5947 32.3651 34.2486 32.3651 33.5565L32.3651 24.4436C32.3651 23.7515 32.3651 23.4054 32.4381 23.0769C32.5028 22.7855 32.6096 22.5051 32.7553 22.2446C32.9196 21.9509 33.1499 21.6926 33.6106 21.1761L34.372 20.3225Z" fill="url(#paint3_radial_7829_84336)"/>
<path d="M34.372 20.3225C35.992 18.7026 36.8019 17.8926 37.7359 17.5891C38.5575 17.3222 39.4425 17.3222 40.2641 17.5891C41.1981 17.8926 42.008 18.7026 43.628 20.3225L47.6775 24.372C49.2975 25.992 50.1074 26.802 50.4109 27.736C50.6778 28.5575 50.6778 29.4425 50.4109 30.2641C50.1074 31.1981 49.2974 32.0081 47.6775 33.628L43.628 37.6775C42.008 39.2975 41.1981 40.1075 40.2641 40.4109C39.4425 40.6779 38.5575 40.6779 37.7359 40.4109C36.8019 40.1075 35.992 39.2975 34.372 37.6775L33.6106 36.824C33.1499 36.3075 32.9196 36.0492 32.7553 35.7555C32.6096 35.495 32.5028 35.2146 32.4381 34.9232C32.3651 34.5947 32.3651 34.2486 32.3651 33.5565L32.3651 24.4436C32.3651 23.7515 32.3651 23.4054 32.4381 23.0769C32.5028 22.7855 32.6096 22.5051 32.7553 22.2446C32.9196 21.9509 33.1499 21.6926 33.6106 21.1761L34.372 20.3225Z" fill="url(#paint4_linear_7829_84336)"/>
<path d="M34.0827 20.6116C34.8927 19.8016 35.2977 19.3966 35.7647 19.2449C36.1754 19.1114 36.6179 19.1114 37.0287 19.2449C37.4957 19.3966 37.9007 19.8016 38.7107 20.6116L44.7849 26.6858C45.5949 27.4958 45.9999 27.9008 46.1516 28.3678C46.2851 28.7786 46.2851 29.2211 46.1516 29.6319C45.9999 30.0989 45.5949 30.5039 44.7849 31.3138L38.7107 37.3881C37.9007 38.1981 37.4957 38.603 37.0287 38.7548C36.6179 38.8882 36.1754 38.8882 35.7647 38.7548C35.2977 38.603 34.8927 38.198 34.0827 37.3881L30.3224 33.6278C28.7025 32.0079 27.8925 31.1979 27.589 30.2639C27.3221 29.4423 27.3221 28.5573 27.589 27.7358C27.8925 26.8018 28.7025 25.9918 30.3224 24.3718L34.0827 20.6116Z" fill="url(#paint5_radial_7829_84336)"/>
</g>
<defs>
<linearGradient id="paint0_linear_7829_84336" x1="33.1964" y1="32.5" x2="-6.20346e-05" y2="77.0714" gradientUnits="userSpaceOnUse">
<stop stop-color="#EEBEFF"/>
<stop offset="1" stop-color="#6D4AFF"/>
</linearGradient>
<linearGradient id="paint1_linear_7829_84336" x1="38.8887" y1="7.75589" x2="38.8887" y2="54.8379" gradientUnits="userSpaceOnUse">
<stop stop-color="white"/>
<stop offset="1" stop-color="#FFF3EF"/>
</linearGradient>
<linearGradient id="paint2_linear_7829_84336" x1="92.6251" y1="35.5174" x2="20.8929" y2="77.071" gradientUnits="userSpaceOnUse">
<stop stop-color="#EEBEFF"/>
<stop offset="1" stop-color="#6D4AFF"/>
</linearGradient>
<radialGradient id="paint3_radial_7829_84336" cx="0" cy="0" r="1" gradientUnits="userSpaceOnUse" gradientTransform="translate(34.3973 41.0637) rotate(-58.142) scale(19.3849 30.314)">
<stop stop-color="#FFD580"/>
<stop offset="0.09375" stop-color="#F6C592"/>
<stop offset="0.205" stop-color="#EBB6A2"/>
<stop offset="0.324466" stop-color="#DFA5AF"/>
<stop offset="0.42875" stop-color="#D397BE"/>
<stop offset="0.53375" stop-color="#C486CB"/>
<stop offset="0.64875" stop-color="#B578D9"/>
<stop offset="0.77125" stop-color="#A166E5"/>
<stop offset="0.89125" stop-color="#8B57F2"/>
<stop offset="1" stop-color="#704CFF"/>
</radialGradient>
<linearGradient id="paint4_linear_7829_84336" x1="33.5975" y1="12.7779" x2="38.1136" y2="40.3445" gradientUnits="userSpaceOnUse">
<stop stop-color="#6D4AFF"/>
<stop offset="0.392009" stop-color="#B39FFB" stop-opacity="0.978022"/>
<stop offset="1" stop-color="#FFE8DB" stop-opacity="0.8"/>
</linearGradient>
<radialGradient id="paint5_radial_7829_84336" cx="0" cy="0" r="1" gradientUnits="userSpaceOnUse" gradientTransform="translate(32.6945 38.7032) rotate(-58.142) scale(15.5922 24.383)">
<stop stop-color="#FFD580"/>
<stop offset="0.09375" stop-color="#F6C592"/>
<stop offset="0.205" stop-color="#EBB6A2"/>
<stop offset="0.324466" stop-color="#DFA5AF"/>
<stop offset="0.42875" stop-color="#D397BE"/>
<stop offset="0.53375" stop-color="#C486CB"/>
<stop offset="0.64875" stop-color="#B578D9"/>
<stop offset="0.77125" stop-color="#A166E5"/>
<stop offset="0.89125" stop-color="#8B57F2"/>
<stop offset="1" stop-color="#704CFF"/>
</radialGradient>
<clipPath id="clip0_7829_84336">
<path d="M19.9999 10H34.8437C47.6325 10 57.9999 20.3674 57.9999 33.1562V48H19.9999V10Z" fill="white"/>
</clipPath>
</defs>
</svg>
