<svg width="20" height="20" viewBox="0 0 20 20" fill="none" xmlns="http://www.w3.org/2000/svg">
<path fill-rule="evenodd" clip-rule="evenodd" d="M17.5 3.12486C17.5 2.77969 16.875 1.875 16.875 1.875C16.875 1.875 16.25 2.77969 16.25 3.12486V3.7498L15.6249 3.74977C15.2797 3.74977 14.375 4.375 14.375 4.375C14.375 4.375 15.2797 4.99977 15.6249 4.99977L16.25 4.9998L16.2499 5.62498C16.2499 5.97016 16.875 6.87503 16.875 6.87503C16.875 6.87503 17.4999 5.97016 17.4999 5.62498L17.5 4.9998L18.125 4.99987C18.4701 4.99987 19.375 4.375 19.375 4.375C19.375 4.375 18.4701 3.74987 18.125 3.74987L17.5 3.7498V3.12486ZM4.375 5C4.23308 5 4.09538 5.0483 3.98456 5.13696L0.859567 7.63696C0.726399 7.74348 0.642546 7.89981 0.627454 8.06968C0.612363 8.23956 0.66734 8.40822 0.779641 8.53655L9.52963 18.5366C9.64831 18.6722 9.81976 18.75 9.99999 18.75C10.1802 18.75 10.3517 18.6722 10.4704 18.5366L19.2204 8.53655C19.3819 8.35201 19.4205 8.09005 19.3191 7.86673C19.2179 7.64342 18.9952 7.49999 18.75 7.49999H3.03173L4.59423 6.25H13.125C13.4701 6.25 13.75 5.97017 13.75 5.625C13.75 5.27982 13.4701 5 13.125 5H4.375ZM5.81687 8.74999H2.62736L8.209 15.129L5.81687 8.74999ZM17.3726 8.74999L11.791 15.129L14.1831 8.74999H17.3726ZM7.15187 8.74999H12.8481L9.99999 16.345L7.15187 8.74999Z" fill="#000000"/>
</svg>
