<svg width="80" height="56" viewBox="0 0 80 56" fill="none" xmlns="http://www.w3.org/2000/svg">
<rect x="2" y="2" width="78" height="49" rx="6" fill="url(#paint0_linear_10778_10727)"/>
<path d="M45.6795 32.9884L69.6419 16.6038C76.0845 12.1986 79.3058 9.99601 79.7207 8.03495C80.0792 6.34043 79.5353 4.58107 78.2829 3.38463C76.8335 2 72.9311 2 65.1264 2H15.9728C7.87984 2 3.83338 2 2.37917 3.40864C1.12329 4.62515 0.594115 6.40933 0.983623 8.11385C1.43464 10.0876 4.82674 12.2938 11.6109 16.7063L36.8022 33.0909C38.4187 34.1422 39.2269 34.6679 40.0962 34.8657C40.8645 35.0405 41.6632 35.0313 42.4273 34.8388C43.2918 34.621 44.0877 34.0768 45.6794 32.9884L45.6795 32.9884Z" fill="url(#paint1_radial_10778_10727)"/>
<path d="M39.4429 14.4316C40.2435 13.4385 41.7565 13.4385 42.5571 14.4316L44.6928 17.0809C45.1198 17.6106 45.7868 17.8869 46.4633 17.8143L49.8469 17.4511C51.1151 17.315 52.185 18.3849 52.0489 19.6531L51.6857 23.0367C51.6131 23.7132 51.8894 24.3802 52.4191 24.8072L55.0684 26.9429C56.0615 27.7435 56.0615 29.2565 55.0684 30.0571L52.4191 32.1928C51.8894 32.6198 51.6131 33.2868 51.6857 33.9633L52.0489 37.3469C52.185 38.6151 51.1151 39.685 49.8469 39.5489L46.4633 39.1857C45.7868 39.1131 45.1198 39.3894 44.6928 39.9191L42.5571 42.5684C41.7565 43.5615 40.2435 43.5615 39.4429 42.5684L37.3072 39.9191C36.8802 39.3894 36.2132 39.1131 35.5367 39.1857L32.1531 39.5489C30.8849 39.685 29.815 38.6151 29.9511 37.3469L30.3143 33.9633C30.3869 33.2868 30.1106 32.6198 29.5809 32.1928L26.9316 30.0571C25.9385 29.2565 25.9385 27.7435 26.9316 26.9429L29.5809 24.8072C30.1106 24.3802 30.3869 23.7132 30.3143 23.0367L29.9511 19.6531C29.815 18.3849 30.8849 17.315 32.1531 17.4511L35.5367 17.8143C36.2132 17.8869 36.8802 17.6106 37.3072 17.0809L39.4429 14.4316Z" fill="#191927"/>
<path fill-rule="evenodd" clip-rule="evenodd" d="M42.6782 22.1646C43.812 21.6754 45.1139 22.3205 45.4115 23.5189L46.401 27.5032H47.5C47.7761 27.5032 48 27.7271 48 28.0032C48 28.2794 47.7761 28.5032 47.5 28.5032H34.5C34.2239 28.5032 34 28.2794 34 28.0032C34 27.7271 34.2239 27.5032 34.5 27.5032H35.599L36.5885 23.5189C36.8861 22.3205 38.188 21.6754 39.3218 22.1646L40.4058 22.6323C40.785 22.7959 41.215 22.7959 41.5942 22.6323L42.6782 22.1646ZM44.441 23.76C44.2922 23.1607 43.6412 22.8382 43.0743 23.0828L41.9903 23.5504C41.3583 23.8231 40.6417 23.8231 40.0097 23.5504L38.9257 23.0828C38.3588 22.8382 37.7078 23.1607 37.559 23.76L36.6394 27.4632H45.3606L44.441 23.76Z" fill="#6ABDB3"/>
<path fill-rule="evenodd" clip-rule="evenodd" d="M39.5716 30.1033C39.1222 29.4395 38.362 29.0032 37.5 29.0032C36.1193 29.0032 35 30.1225 35 31.5032C35 32.8839 36.1193 34.0032 37.5 34.0032C38.8807 34.0032 40 32.8839 40 31.5032C40 30.951 40.4477 30.5032 41 30.5032C41.5523 30.5032 42 30.951 42 31.5032C42 32.8839 43.1193 34.0032 44.5 34.0032C45.8807 34.0032 47 32.8839 47 31.5032C47 30.1225 45.8807 29.0032 44.5 29.0032C43.638 29.0032 42.8778 29.4395 42.4284 30.1033C42.0654 29.733 41.5595 29.5032 41 29.5032C40.4405 29.5032 39.9346 29.733 39.5716 30.1033ZM39 31.5032C39 32.3317 38.3284 33.0032 37.5 33.0032C36.6716 33.0032 36 32.3317 36 31.5032C36 30.6748 36.6716 30.0032 37.5 30.0032C38.3284 30.0032 39 30.6748 39 31.5032ZM43 31.5032C43 32.3317 43.6716 33.0032 44.5 33.0032C45.3284 33.0032 46 32.3317 46 31.5032C46 30.6748 45.3284 30.0032 44.5 30.0032C43.6716 30.0032 43 30.6748 43 31.5032Z" fill="#6ABDB3"/>
<defs>
<linearGradient id="paint0_linear_10778_10727" x1="96.4787" y1="9.89337" x2="21.6643" y2="58.4485" gradientUnits="userSpaceOnUse">
<stop stop-color="#EEBEFF"/>
<stop offset="1" stop-color="#6D4AFF"/>
</linearGradient>
<radialGradient id="paint1_radial_10778_10727" cx="0" cy="0" r="1" gradientUnits="userSpaceOnUse" gradientTransform="translate(8.76249 67.5) rotate(-36.7519) scale(166.29 255.16)">
<stop stop-color="#FFD580"/>
<stop offset="0.09375" stop-color="#F6C592"/>
<stop offset="0.205" stop-color="#EBB6A2"/>
<stop offset="0.324466" stop-color="#DFA5AF"/>
<stop offset="0.42875" stop-color="#D397BE"/>
<stop offset="0.53375" stop-color="#C486CB"/>
<stop offset="0.64875" stop-color="#B578D9"/>
<stop offset="0.77125" stop-color="#A166E5"/>
<stop offset="0.89125" stop-color="#8B57F2"/>
<stop offset="1" stop-color="#704CFF"/>
</radialGradient>
</defs>
</svg>
