<svg width="221" height="18" viewBox="0 0 221 18" fill="none" xmlns="http://www.w3.org/2000/svg">
<path d="M0.5 8C0.5 3.85786 3.85786 0.5 8 0.5H213C217.142 0.5 220.5 3.85786 220.5 8V28C220.5 32.1421 217.142 35.5 213 35.5H8C3.85786 35.5 0.5 32.1421 0.5 28V8Z" fill="white"/>
<path d="M0.5 8C0.5 3.85786 3.85786 0.5 8 0.5H213C217.142 0.5 220.5 3.85786 220.5 8V28C220.5 32.1421 217.142 35.5 213 35.5H8C3.85786 35.5 0.5 32.1421 0.5 28V8Z" stroke="#D1CFCD"/>
<path fill-rule="evenodd" clip-rule="evenodd" d="M23.5 17C24.8807 17 26 15.8807 26 14.5C26 13.1193 24.8807 12 23.5 12C22.1193 12 21 13.1193 21 14.5C21 15.8807 22.1193 17 23.5 17ZM14.2 13H20.3368C20.1891 13.3109 20.0859 13.6469 20.0354 14H14.2C13.6234 14 13.2512 14.0008 12.9678 14.0239C12.6962 14.0461 12.5955 14.0838 12.546 14.109C12.3578 14.2049 12.2049 14.3578 12.109 14.546C12.0838 14.5955 12.0461 14.6962 12.0239 14.9678C12.0217 14.9957 12.0196 15.0244 12.0177 15.054L17.738 18.5742C17.8987 18.6731 18.1013 18.6731 18.262 18.5742L20.9635 16.9117C21.2095 17.1703 21.4946 17.3914 21.8094 17.5654L18.7861 19.4258C18.304 19.7225 17.696 19.7225 17.2139 19.4258L12 16.2173V20.8C12 21.3766 12.0008 21.7488 12.0239 22.0322C12.0461 22.3038 12.0838 22.4045 12.109 22.454C12.2049 22.6422 12.3578 22.7951 12.546 22.891C12.5955 22.9162 12.6962 22.9539 12.9678 22.9761C13.2512 22.9992 13.6234 23 14.2 23H21.8C22.3766 23 22.7488 22.9992 23.0322 22.9761C23.3038 22.9539 23.4045 22.9162 23.454 22.891C23.6422 22.7951 23.7951 22.6422 23.891 22.454C23.9162 22.4045 23.9539 22.3038 23.9761 22.0322C23.9992 21.7488 24 21.3766 24 20.8V17.9646C24.3531 17.9141 24.6891 17.8109 25 17.6632V20.8C25 21.9201 25 22.4802 24.782 22.908C24.5903 23.2843 24.2843 23.5903 23.908 23.782C23.4802 24 22.9201 24 21.8 24H14.2C13.0799 24 12.5198 24 12.092 23.782C11.7157 23.5903 11.4097 23.2843 11.218 22.908C11 22.4802 11 21.9201 11 20.8V16.2C11 15.0799 11 14.5198 11.218 14.092C11.4097 13.7157 11.7157 13.4097 12.092 13.218C12.5198 13 13.0799 13 14.2 13Z" fill="#191927"/>
<rect x="36" y="6" width="1" height="24" fill="#D1CFCD"/>
<path fill-rule="evenodd" clip-rule="evenodd" d="M53.5 11C53.3106 11 53.1375 11.107 53.0528 11.2764L52.191 13H49C48.7239 13 48.5 13.2239 48.5 13.5C48.5 13.7761 48.7239 14 49 14H50.0222L50.4571 23.5681C50.4935 24.3692 51.1536 25 51.9556 25H58.0444C58.8464 25 59.5065 24.3692 59.5429 23.5681L59.9778 14H61C61.2761 14 61.5 13.7761 61.5 13.5C61.5 13.2239 61.2761 13 61 13H57.809L56.9472 11.2764C56.8625 11.107 56.6894 11 56.5 11H53.5ZM56.691 13L56.191 12H53.809L53.309 13H56.691ZM51.0232 14H58.9768L58.5439 23.5227C58.5318 23.7897 58.3117 24 58.0444 24H51.9556C51.6883 24 51.4682 23.7897 51.4561 23.5227L51.0232 14ZM54 16C54 15.7239 53.7761 15.5 53.5 15.5C53.2239 15.5 53 15.7239 53 16V22C53 22.2761 53.2239 22.5 53.5 22.5C53.7761 22.5 54 22.2761 54 22V16ZM57 16C57 15.7239 56.7761 15.5 56.5 15.5C56.2239 15.5 56 15.7239 56 16V22C56 22.2761 56.2239 22.5 56.5 22.5C56.7761 22.5 57 22.2761 57 22V16Z" fill="#191927"/>
<rect x="73" y="6" width="1" height="24" fill="#D1CFCD"/>
<path fill-rule="evenodd" clip-rule="evenodd" d="M91.7929 19H85V18H91.7929L90.6464 16.8536C90.4512 16.6583 90.4512 16.3417 90.6464 16.1464C90.8417 15.9512 91.1583 15.9512 91.3536 16.1464L93.2121 18.005C93.4855 18.2784 93.4855 18.7216 93.2121 18.995L91.3536 20.8536C91.1583 21.0488 90.8417 21.0488 90.6464 20.8536C90.4512 20.6583 90.4512 20.3417 90.6464 20.1464L91.7929 19Z" fill="#191927"/>
<path d="M87 12C85.8954 12 85 12.8954 85 14V17H86V14C86 13.4477 86.4477 13 87 13H89.5279C89.7607 13 89.9904 13.0542 90.1987 13.1584L91.3541 13.7361C91.7012 13.9096 92.084 14 92.4721 14H97C97.5523 14 98 14.4477 98 15V22C98 22.5523 97.5523 23 97 23H87C86.4477 23 86 22.5523 86 22V20H85V22C85 23.1046 85.8954 24 87 24H97C98.1046 24 99 23.1046 99 22V15C99 13.8954 98.1046 13 97 13H92.4721C92.2393 13 92.0096 12.9458 91.8013 12.8416L90.6459 12.2639C90.2988 12.0904 89.916 12 89.5279 12H87Z" fill="#191927"/>
<rect x="110" y="6" width="1" height="24" fill="#D1CFCD"/>
<path fill-rule="evenodd" clip-rule="evenodd" d="M130.425 24.3753L135.375 19.4256L128.95 13.001L124 13.001L124 17.9507L130.425 24.3753ZM129.718 25.0825C130.108 25.473 130.741 25.473 131.132 25.0825L136.082 20.1327C136.472 19.7422 136.472 19.109 136.082 18.7185L129.657 12.2939C129.47 12.1063 129.215 12.001 128.95 12.001H124C123.448 12.001 123 12.4487 123 13.001V17.9507C123 18.2159 123.106 18.4703 123.293 18.6578L129.718 25.0825ZM126.5 16.5005C127.052 16.5005 127.5 16.0528 127.5 15.5005C127.5 14.9482 127.052 14.5005 126.5 14.5005C125.948 14.5005 125.5 14.9482 125.5 15.5005C125.5 16.0528 125.948 16.5005 126.5 16.5005Z" fill="#191927"/>
<rect x="147" y="6" width="1" height="24" fill="#D1CFCD"/>
<path fill-rule="evenodd" clip-rule="evenodd" d="M165.003 19.1231V22.691L166.997 23.6895V19.1231L172.377 13H159.623L165.003 19.1231ZM158.703 13.4675L164.003 19.5V22.9996C164.003 23.189 164.11 23.3621 164.279 23.4468L167.274 24.9468C167.606 25.113 167.997 24.8713 167.997 24.4996V19.5L173.297 13.4675C173.774 12.8794 173.356 12 172.6 12H159.4C158.644 12 158.226 12.8794 158.703 13.4675Z" fill="#191927"/>
<rect x="184" y="6" width="1" height="24" fill="#D1CFCD"/>
<path d="M209 17C209.552 17 210 17.4477 210 18C210 18.5523 209.552 19 209 19C208.448 19 208 18.5523 208 18C208 17.4477 208.448 17 209 17Z" fill="#191927"/>
<path d="M197 17C197.552 17 198 17.4477 198 18C198 18.5523 197.552 19 197 19C196.448 19 196 18.5523 196 18C196 17.4477 196.448 17 197 17Z" fill="#191927"/>
<path d="M203 19C203.552 19 204 18.5523 204 18C204 17.4477 203.552 17 203 17C202.448 17 202 17.4477 202 18C202 18.5523 202.448 19 203 19Z" fill="#191927"/>
</svg>
