<svg width="45" height="46" viewBox="0 0 45 46" fill="none" xmlns="http://www.w3.org/2000/svg">
	<path
		d="M42.917 45.5C42.6762 45.5004 42.4377 45.4497 42.2152 45.3509C41.9928 45.2522 41.7907 45.1072 41.6208 44.9244L31.2868 33.8532C31.1166 33.6708 30.9815 33.4542 30.8894 33.2159C30.7973 32.9775 30.75 32.722 30.75 32.4641C30.75 32.2061 30.7975 31.9507 30.8897 31.7123C30.9819 31.474 31.117 31.2575 31.2872 31.0751C31.4575 30.8927 31.6597 30.7481 31.8821 30.6494C32.1046 30.5507 32.343 30.5 32.5838 30.5C32.8245 30.5 33.063 30.5509 33.2854 30.6497C33.5078 30.7484 33.7099 30.8932 33.8801 31.0756L44.2132 42.1468C44.4695 42.4215 44.6441 42.7715 44.7148 43.1525C44.7855 43.5335 44.7492 43.9284 44.6105 44.2873C44.4717 44.6462 44.2368 44.953 43.9354 45.1688C43.6339 45.3847 43.2795 45.4999 42.917 45.5Z"
		fill="#6160FD" />
	<path
		d="M19.25 37C29.1911 37 37.25 28.9411 37.25 19C37.25 9.05887 29.1911 1 19.25 1C9.30887 1 1.25 9.05887 1.25 19C1.25 28.9411 9.30887 37 19.25 37Z"
		fill="#6160FD" fill-opacity="0.08" />
	<path
		d="M19.25 38C15.4922 38 11.8187 36.8857 8.69417 34.7979C5.56964 32.7102 3.13436 29.7428 1.6963 26.271C0.258232 22.7992 -0.118031 18.9789 0.615088 15.2933C1.34821 11.6077 3.15778 8.22218 5.81498 5.56498C8.47218 2.90778 11.8577 1.09821 15.5433 0.365088C19.2289 -0.368031 23.0492 0.00823236 26.521 1.4463C29.9928 2.88436 32.9602 5.31964 35.0479 8.44417C37.1357 11.5687 38.25 15.2422 38.25 19C38.2444 24.0374 36.2409 28.8669 32.6789 32.4289C29.1169 35.9909 24.2874 37.9944 19.25 38ZM19.25 2.00001C15.8877 2.00001 12.601 2.99704 9.80532 4.86503C7.00968 6.73301 4.83075 9.38805 3.54406 12.4944C2.25737 15.6007 1.92071 19.0189 2.57666 22.3165C3.23261 25.6142 4.8517 28.6433 7.22919 31.0208C9.60669 33.3983 12.6358 35.0174 15.9335 35.6734C19.2311 36.3293 22.6493 35.9926 25.7556 34.706C28.862 33.4193 31.517 31.2403 33.385 28.4447C35.253 25.6491 36.25 22.3623 36.25 19C36.245 14.4929 34.4523 10.1718 31.2653 6.98475C28.0782 3.79772 23.7571 2.00504 19.25 2.00001Z"
		fill="#8180FD" />
</svg>