<svg width="28" height="28" viewBox="0 0 28 28" fill="none" xmlns="http://www.w3.org/2000/svg">
    <path
        d="M24.8001 15.2002V24.2002C24.8001 24.8367 24.5472 25.4472 24.0971 25.8973C23.647 26.3473 23.0366 26.6002 22.4001 26.6002H5.60007C4.96355 26.6002 4.3531 26.3473 3.90302 25.8973C3.45293 25.4472 3.20007 24.8367 3.20007 24.2002V15.2002"
        stroke="black" stroke-opacity="0.8" stroke-width="1.2" stroke-miterlimit="10"
        stroke-linecap="square" />
    <path d="M27.2 6.80176H0.800049V11.6018H27.2V6.80176Z" stroke="black" stroke-opacity="0.8"
        stroke-width="1.2" stroke-miterlimit="10" stroke-linecap="square" />
    <path d="M16.4001 6.80176V26.6H11.6001V6.80176" stroke="black" stroke-opacity="0.8"
        stroke-width="1.2" stroke-miterlimit="10" stroke-linecap="square" />
    <path
        d="M4.40002 3.80037C4.42728 2.97838 4.7796 2.20079 5.37963 1.63832C5.97967 1.07586 6.77839 0.774483 7.60042 0.800368C12.3332 0.800368 14 6.80037 14 6.80037H7.60042C6.77843 6.82609 5.97981 6.52467 5.3798 5.96223C4.7798 5.3998 4.42743 4.62231 4.40002 3.80037Z"
        stroke="black" stroke-opacity="0.8" stroke-width="1.2" stroke-miterlimit="10"
        stroke-linecap="square" />
    <path
        d="M20.3996 6.80037H14C14 6.80037 15.6668 0.800368 20.3996 0.800368C21.2216 0.774483 22.0204 1.07586 22.6204 1.63832C23.2204 2.20079 23.5727 2.97838 23.6 3.80037C23.5726 4.62231 23.2202 5.3998 22.6202 5.96223C22.0202 6.52467 21.2216 6.82609 20.3996 6.80037Z"
        stroke="black" stroke-opacity="0.8" stroke-width="1.2" stroke-miterlimit="10"
        stroke-linecap="square" />
</svg>