<svg width="16" height="16" viewBox="0 0 16 16" fill="none" xmlns="http://www.w3.org/2000/svg">
    <path fill-rule="evenodd" clip-rule="evenodd"
        d="M13.5756 6.97119L9.02537 2.42096C8.45911 1.8547 7.54102 1.8547 6.97475 2.42097L11.64 7.10024C12.13 7.59024 12.13 8.40024 11.64 8.89024L6.97476 13.572C7.54102 14.1383 8.45911 14.1383 9.02537 13.572L13.5756 9.0218C14.1419 8.45555 14.1419 7.53745 13.5756 6.97119ZM9.73247 1.71386C8.77569 0.757072 7.22443 0.757074 6.26765 1.71386L1.71742 6.26409C0.760633 7.22087 0.760634 8.77213 1.71742 9.72891L6.26765 14.2791C7.22443 15.2359 8.77569 15.2359 9.73247 14.2791L14.2827 9.72891C15.2395 8.77213 15.2395 7.22087 14.2827 6.26409L9.73247 1.71386Z"
        fill="black" />
</svg>