<svg width="24" height="24" viewBox="0 0 24 24" fill="none" xmlns="http://www.w3.org/2000/svg">
<path d="M20.554 11.889L12 20.778L3.44599 11.889C2.92285 11.3382 2.5251 10.6807 2.28004 9.96169C2.03497 9.24266 1.9484 8.47912 2.02627 7.72348C2.10413 6.96785 2.34459 6.23801 2.73114 5.58407C3.11768 4.93013 3.64115 4.36758 4.26562 3.93504C4.89009 3.5025 5.60076 3.21021 6.34884 3.07823C7.09693 2.94626 7.86472 2.97773 8.5995 3.17048C9.33427 3.36324 10.0186 3.71271 10.6056 4.19491C11.1926 4.6771 11.6683 5.28061 12 5.96399C12.3317 5.28061 12.8074 4.6771 13.3944 4.19491C13.9813 3.71271 14.6657 3.36324 15.4005 3.17048C16.1353 2.97773 16.903 2.94626 17.6511 3.07823C18.3992 3.21021 19.1099 3.5025 19.7344 3.93504C20.3588 4.36758 20.8823 4.93013 21.2688 5.58407C21.6554 6.23801 21.8958 6.96785 21.9737 7.72348C22.0516 8.47912 21.965 9.24266 21.7199 9.96169C21.4749 10.6807 21.0771 11.3382 20.554 11.889Z" stroke="black" stroke-width="2" stroke-linecap="round" stroke-linejoin="round"/>
</svg>
