<svg width="58" height="64" viewBox="0 0 58 64" fill="none" xmlns="http://www.w3.org/2000/svg">
    <path
        d="M55.8283 7.94425L32.3452 0.470145C30.3682 -0.156715 28.2465 -0.156715 26.2695 0.470145L2.78632 7.94425C1.58082 8.33001 0.71285 9.43906 0.66463 10.741C0.32709 19.7581 0.905728 54.7177 28.8251 63.9277C29.1627 64.0241 29.5002 64.0241 29.7895 63.9277C57.7089 54.7177 58.2875 19.7581 57.95 10.741C57.9018 9.43906 57.0338 8.33001 55.8283 7.94425Z"
        fill="#0EE48C" />
    <path
        d="M29.3073 43.5301C36.7641 43.5301 42.8089 37.4852 42.8089 30.0285C42.8089 22.5718 36.7641 16.5269 29.3073 16.5269C21.8506 16.5269 15.8057 22.5718 15.8057 30.0285C15.8057 37.4852 21.8506 43.5301 29.3073 43.5301Z"
        fill="white" />
    <path fill-rule="evenodd" clip-rule="evenodd"
        d="M35.8946 26.5762C36.233 26.9146 36.233 27.4634 35.8946 27.8018L28.618 35.0783C28.2796 35.4168 27.7308 35.4168 27.3924 35.0783L23.6689 31.355C23.3305 31.0165 23.3305 30.4678 23.6689 30.1293C24.0074 29.7909 24.5561 29.7908 24.8946 30.1293L28.0052 33.2398L34.6689 26.5762C35.0074 26.2377 35.5561 26.2377 35.8946 26.5762Z"
        fill="#0EE48C" />
</svg>