<svg width="12" height="12" viewBox="0 0 12 12" fill="none" xmlns="http://www.w3.org/2000/svg">
<g clip-path="url(#clip0_6189_64390)">
<path d="M6 11C8.76142 11 11 8.76142 11 6C11 3.23858 8.76142 1 6 1C3.23858 1 1 3.23858 1 6C1 8.76142 3.23858 11 6 11Z" stroke="black" stroke-linecap="round" stroke-linejoin="round"/>
<path d="M2.9115 1.37822C2.76883 0.873372 2.29653 0.5 1.72994 0.5C1.0506 0.5 0.5 1.03345 0.5 1.69161C0.5 2.15674 0.777966 2.55513 1.17893 2.75175" stroke="black" stroke-linecap="round" stroke-linejoin="round"/>
<path d="M9 1.37822C9.14267 0.873372 9.61497 0.5 10.1816 0.5C10.8609 0.5 11.4115 1.03345 11.4115 1.69161C11.4115 2.15674 11.1335 2.55513 10.7326 2.75175" stroke="black" stroke-linecap="round" stroke-linejoin="round"/>
<path d="M4.25 5.5C4.66421 5.5 5 5.16421 5 4.75C5 4.33579 4.66421 4 4.25 4C3.83579 4 3.5 4.33579 3.5 4.75C3.5 5.16421 3.83579 5.5 4.25 5.5Z" fill="black"/>
<path d="M7.75 5.5C8.16421 5.5 8.5 5.16421 8.5 4.75C8.5 4.33579 8.16421 4 7.75 4C7.33579 4 7 4.33579 7 4.75C7 5.16421 7.33579 5.5 7.75 5.5Z" fill="black"/>
<path d="M6 7C6.41421 7 6.75 6.66421 6.75 6.25C6.75 5.83579 6.41421 5.5 6 5.5C5.58579 5.5 5.25 5.83579 5.25 6.25C5.25 6.66421 5.58579 7 6 7Z" fill="black"/>
<path d="M4.5 8C5.72836 8.39004 6.38061 8.33945 7.5 8" stroke="black" stroke-linecap="round" stroke-linejoin="round"/>
</g>
<defs>
<clipPath id="clip0_6189_64390">
<rect width="12" height="12" fill="white"/>
</clipPath>
</defs>
</svg>
