<svg width="20" height="18" viewBox="0 0 20 18" fill="none" xmlns="http://www.w3.org/2000/svg">
    <g clip-path="url(#clip0_5131_95229)">
        <path
            d="M9.95877 17.3801C5.03031 17.3801 1.02095 14.705 1.02095 11.4167C1.02095 11.1896 1.04001 10.9646 1.07737 10.7438C0.748549 10.5408 0.477108 10.257 0.288839 9.91953C0.100571 9.58204 0.00173038 9.20201 0.00170898 8.81555C0.00240098 8.21523 0.241156 7.6397 0.665607 7.21518C1.09006 6.79066 1.66555 6.55181 2.26587 6.55102C2.82369 6.55102 3.35535 6.75501 3.76671 7.11967C5.31688 6.12471 7.40207 5.49852 9.70247 5.45518L11.2127 0.846159L11.5422 0.923873L11.55 0.925741L15.0699 1.75444C15.2135 1.41823 15.4527 1.13154 15.7576 0.929909C16.0626 0.728278 16.42 0.620565 16.7856 0.620117C17.28 0.620711 17.7539 0.817378 18.1034 1.16697C18.4529 1.51656 18.6495 1.99052 18.65 2.48487C18.6494 2.97915 18.4528 3.45302 18.1033 3.80253C17.7538 4.15204 17.2799 4.34866 16.7856 4.34925C16.2917 4.34876 15.8181 4.15248 15.4686 3.80344C15.1192 3.45439 14.9223 2.98104 14.9212 2.48711L11.7096 1.7309L10.4867 5.4634C12.7034 5.54971 14.7053 6.17777 16.1998 7.15106C16.6173 6.76446 17.1656 6.55022 17.7346 6.55139C18.335 6.55208 18.9106 6.79089 19.3351 7.21542C19.7597 7.63995 19.9985 8.21554 19.9992 8.81592C20.001 9.21754 19.8952 9.61232 19.6928 9.95924C19.4905 10.3062 19.1989 10.5925 18.8484 10.7887C18.8809 10.9953 18.8977 11.2045 18.8977 11.4167C18.897 14.705 14.8872 17.3801 9.95877 17.3801ZM1.84293 10.7098C1.79325 10.9422 1.7682 11.1791 1.7682 11.4167C1.7682 14.2932 5.44241 16.6329 9.95877 16.6329C14.4751 16.6329 18.1493 14.2929 18.1493 11.4167C18.1493 11.1881 18.1262 10.9628 18.081 10.7416C18.0566 10.6909 18.044 10.6353 18.044 10.5791C17.794 9.59754 17.1122 8.70645 16.1273 7.98835C16.0646 7.96559 16.0093 7.92635 15.967 7.87476C14.4699 6.84543 12.3309 6.20018 9.95877 6.20018C7.61055 6.20018 5.48986 6.83273 3.995 7.8445C3.95422 7.89085 3.90281 7.92662 3.84517 7.94874C2.83901 8.66722 2.13958 9.56429 1.87991 10.5544C1.87913 10.6038 1.86846 10.6526 1.84853 10.6979C1.84666 10.702 1.84517 10.7061 1.84293 10.7098ZM16.8241 7.60165C17.6905 8.29472 18.3264 9.12005 18.6515 10.0257C18.8387 9.88456 18.9904 9.70167 19.0945 9.49158C19.1986 9.28149 19.2523 9.05001 19.2512 8.81555C19.2508 8.41326 19.0908 8.02756 18.8063 7.7431C18.5219 7.45864 18.1362 7.29866 17.7339 7.29826C17.4057 7.2978 17.0863 7.40431 16.8241 7.60165ZM2.26587 7.29826C1.86364 7.29876 1.47804 7.45878 1.19366 7.74323C0.909283 8.02768 0.749351 8.41333 0.748956 8.81555C0.748956 9.26875 0.950713 9.68983 1.28548 9.97378C1.62137 9.07522 2.26363 8.25661 3.13342 7.57026C2.87878 7.39316 2.57604 7.29824 2.26587 7.29826ZM16.7852 1.36699C16.1695 1.36699 15.6681 1.86839 15.6681 2.4845C15.6681 3.1006 16.1695 3.60163 16.7852 3.60163C17.401 3.60163 17.9024 3.1006 17.9024 2.4845C17.9024 1.86839 17.4014 1.36699 16.7852 1.36699ZM9.9995 15.2535C8.50314 15.2535 7.44877 14.9265 6.77662 14.254C6.70657 14.1839 6.66723 14.0888 6.66726 13.9897C6.6673 13.8906 6.7067 13.7956 6.77681 13.7255C6.84692 13.6555 6.94198 13.6161 7.04109 13.6162C7.14021 13.6162 7.23524 13.6556 7.3053 13.7257C7.83024 14.2506 8.71125 14.5062 9.9995 14.5062C11.2874 14.5062 12.1691 14.2506 12.6948 13.7257C12.7295 13.691 12.7707 13.6636 12.816 13.6448C12.8613 13.626 12.9099 13.6164 12.9589 13.6164C13.008 13.6164 13.0565 13.6261 13.1018 13.6449C13.1471 13.6637 13.1883 13.6912 13.2229 13.7259C13.2576 13.7606 13.2851 13.8018 13.3038 13.8471C13.3226 13.8924 13.3322 13.941 13.3322 13.99C13.3322 14.039 13.3225 14.0876 13.3037 14.1329C13.285 14.1782 13.2574 14.2193 13.2227 14.254C12.5499 14.9265 11.4959 15.2535 9.9995 15.2535Z"
            fill="black" />
        <path
            d="M13.0291 8.93164C12.2677 8.93164 11.6284 9.56942 11.6284 10.3309C11.6284 11.0919 12.2677 11.7088 13.0291 11.7088C13.7906 11.7088 14.407 11.0919 14.407 10.3309C14.407 9.56942 13.7902 8.93164 13.0291 8.93164ZM6.99212 8.93164C6.23142 8.93164 5.5929 9.57016 5.5929 10.3309C5.5929 11.0916 6.23104 11.7088 6.99212 11.7088C7.75319 11.7088 8.37004 11.0916 8.37004 10.3309C8.37004 9.57016 7.75281 8.93164 6.99212 8.93164Z"
            fill="black" />
    </g>
    <defs>
        <clipPath id="clip0_5131_95229">
            <rect width="20" height="16.76" fill="white" transform="translate(0 0.620117)" />
        </clipPath>
    </defs>
</svg>