<svg width="48" height="49" viewBox="0 0 48 49" fill="none" xmlns="http://www.w3.org/2000/svg">
<path d="M6 28.5148V10.3857C6 9.35816 6.77442 8.49293 7.79072 8.34166C10.7023 7.9083 16.6914 6.79921 22.1867 4.41923C23.3421 3.91887 24.6579 3.91887 25.8133 4.41923C31.3086 6.79921 37.2977 7.9083 40.2093 8.34166C41.2256 8.49293 42 9.35816 42 10.3857V28.5148C42 32.8728 39.6373 36.8883 35.8277 39.0047L24.9713 45.0361C24.3672 45.3717 23.6328 45.3717 23.0287 45.0361L12.1723 39.0047C8.3627 36.8883 6 32.8728 6 28.5148Z" fill="#738099" fill-opacity="0.4"/>
<path d="M21.5111 30.971C21.4615 31.2022 21.5808 31.4365 21.7969 31.5326C22.013 31.6287 22.2669 31.5602 22.4053 31.3685L28.9053 22.3685C29.0153 22.2162 29.0307 22.0153 28.9452 21.8481C28.8597 21.6809 28.6878 21.5757 28.5 21.5757L25.0902 21.5757L25.9932 16.1579C26.0311 15.9305 25.9086 15.7067 25.6967 15.616C25.4848 15.5254 25.2383 15.5913 25.1 15.7757L19.1 23.7757C18.9864 23.9272 18.9681 24.1299 19.0528 24.2993C19.1375 24.4687 19.3106 24.5757 19.5 24.5757H22.8815L21.5111 30.971Z" fill="white"/>
</svg>
