<svg width="20" height="17" viewBox="0 0 20 17" fill="none" xmlns="http://www.w3.org/2000/svg">
    <path
        d="M19.1667 1.49959C18.3687 2.06249 17.4851 2.49302 16.55 2.77459C16.0482 2.19752 15.3812 1.7885 14.6392 1.60286C13.8973 1.41722 13.1163 1.46392 12.4018 1.73664C11.6873 2.00935 11.0737 2.49493 10.6442 3.12769C10.2146 3.76045 9.98979 4.50987 10 5.27459V6.10792C8.53557 6.1459 7.08444 5.8211 5.77588 5.16246C4.46733 4.50382 3.34197 3.53179 2.50004 2.33292C2.50004 2.33292 -0.833292 9.83292 6.66671 13.1663C4.95048 14.3312 2.906 14.9154 0.833374 14.8329C8.33337 18.9996 17.5 14.8329 17.5 5.24959C17.4993 5.01747 17.477 4.78592 17.4334 4.55792C18.2839 3.71917 18.8841 2.66018 19.1667 1.49959Z"
        stroke="black" stroke-linecap="round" stroke-linejoin="round" />
</svg>