<svg width="60" height="60" viewBox="0 0 60 60" fill="none" xmlns="http://www.w3.org/2000/svg">
    <path
        d="M14.5009 16.355L10.822 17.9317C10.2971 18.1567 9.7029 18.1567 9.17796 17.9317L5.49911 16.355C4.46023 15.9098 3.4098 16.9602 3.85504 17.9991L5.43169 21.678C5.65666 22.2029 5.65666 22.7971 5.43169 23.322L3.85504 27.0009C3.4098 28.0398 4.46023 29.0902 5.49911 28.645L9.17796 27.0683C9.7029 26.8433 10.2971 26.8433 10.822 27.0683L14.5009 28.645C15.5398 29.0902 16.5902 28.0398 16.145 27.0009L14.5683 23.322C14.3433 22.7971 14.3433 22.2029 14.5683 21.678L16.145 17.9991C16.5902 16.9602 15.5398 15.9098 14.5009 16.355Z"
        fill="url(#paint0_linear_5938_49892)" />
    <path
        d="M26.8009 4.2233L25.9071 6.45798C25.7795 6.77685 25.5268 7.02951 25.208 7.15705L22.9733 8.05093C22.3422 8.30335 22.3422 9.19665 22.9733 9.44907L25.208 10.3429C25.5268 10.4705 25.7795 10.7232 25.9071 11.042L26.8009 13.2767C27.0533 13.9078 27.9467 13.9078 28.1991 13.2767L29.0929 11.042C29.2205 10.7232 29.4732 10.4705 29.792 10.3429L32.0267 9.44907C32.6578 9.19665 32.6578 8.30335 32.0267 8.05093L29.792 7.15705C29.4732 7.02951 29.2205 6.77685 29.0929 6.45798L28.1991 4.2233C27.9466 3.59223 27.0533 3.59224 26.8009 4.2233Z"
        fill="#FFEBC5" />
    <path
        d="M43.9514 39.4599L42.6106 42.812C42.4193 43.2903 42.0403 43.6693 41.562 43.8606L38.2099 45.2014C37.2634 45.58 37.2634 46.92 38.2099 47.2986L41.562 48.6394C42.0403 48.8307 42.4193 49.2097 42.6106 49.688L43.9514 53.0401C44.33 53.9866 45.67 53.9866 46.0486 53.0401L47.3894 49.688C47.5807 49.2097 47.9597 48.8307 48.438 48.6394L51.7901 47.2986C52.7366 46.92 52.7366 45.58 51.7901 45.2014L48.438 43.8606C47.9597 43.6693 47.5807 43.2903 47.3894 42.812L46.0486 39.4599C45.67 38.5134 44.33 38.5134 43.9514 39.4599Z"
        fill="url(#paint1_linear_5938_49892)" />
    <path
        d="M46.075 10.1642C46.8561 9.38316 48.1224 9.38317 48.9035 10.1642L51.3783 12.6391C52.1594 13.4201 52.1594 14.6865 51.3783 15.4675L14.0785 52.7674C13.4927 53.3532 12.5429 53.3532 11.9571 52.7674L8.77516 49.5854C8.18938 48.9996 8.18938 48.0499 8.77516 47.4641L46.075 10.1642Z"
        fill="url(#paint2_linear_5938_49892)" />
    <path
        d="M46.4286 9.81066C47.0144 9.22487 47.9641 9.22487 48.5499 9.81066L51.7319 12.9926C52.3177 13.5784 52.3177 14.5282 51.7319 15.114L43.9537 22.8921L38.6504 17.5888L46.4286 9.81066Z"
        fill="url(#paint3_linear_5938_49892)" />
    <defs>
        <linearGradient id="paint0_linear_5938_49892" x1="10" y1="16.25" x2="10" y2="28.75"
            gradientUnits="userSpaceOnUse">
            <stop stop-color="#FFE76C" />
            <stop offset="1" stop-color="#FFB94F" />
        </linearGradient>
        <linearGradient id="paint1_linear_5938_49892" x1="45" y1="38.75" x2="45" y2="53.75"
            gradientUnits="userSpaceOnUse">
            <stop stop-color="#FFE76C" />
            <stop offset="1" stop-color="#FFB94F" />
        </linearGradient>
        <linearGradient id="paint2_linear_5938_49892" x1="35.0002" y1="36.875" x2="26.8752"
            y2="28.75" gradientUnits="userSpaceOnUse">
            <stop offset="0.56205" stop-color="#19192D" />
            <stop offset="1" stop-color="white" />
        </linearGradient>
        <linearGradient id="paint3_linear_5938_49892" x1="48.1252" y1="18.4113" x2="45.3389"
            y2="15.625" gradientUnits="userSpaceOnUse">
            <stop stop-color="#ADADAD" />
            <stop offset="1" stop-color="#F8F8FC" />
        </linearGradient>
    </defs>
</svg>