<svg width="12" height="12" viewBox="0 0 12 12" fill="none" xmlns="http://www.w3.org/2000/svg">
<path d="M3.5 4.5V3C3.5 2.33696 3.76339 1.70107 4.23223 1.23223C4.70107 0.763392 5.33696 0.5 6 0.5C6.3283 0.5 6.65339 0.564664 6.95671 0.690301C7.26002 0.815938 7.53562 1.00009 7.76777 1.23223C7.99991 1.46438 8.18406 1.73998 8.3097 2.04329C8.43534 2.34661 8.5 2.6717 8.5 3V4.5" stroke="black" stroke-linecap="round" stroke-linejoin="round"/>
<path d="M9.5 4.5H2.5C1.94772 4.5 1.5 4.94772 1.5 5.5V10.5C1.5 11.0523 1.94772 11.5 2.5 11.5H9.5C10.0523 11.5 10.5 11.0523 10.5 10.5V5.5C10.5 4.94772 10.0523 4.5 9.5 4.5Z" stroke="black" stroke-linecap="round" stroke-linejoin="round"/>
</svg>
