<svg width="22" height="28" viewBox="0 0 22 28" fill="none" xmlns="http://www.w3.org/2000/svg">
    <path
        d="M21.1999 27.1998H0.799946V23.5494C0.797525 22.812 1.0226 22.0919 1.44448 21.4872C1.86636 20.8824 2.46451 20.4225 3.15735 20.1702C8.22611 18.343 13.7738 18.343 18.8425 20.1702C19.5354 20.4225 20.1335 20.8824 20.5554 21.4872C20.9773 22.0919 21.2024 22.812 21.1999 23.5494V27.1998Z"
        stroke="black" stroke-opacity="0.8" stroke-width="1.2" stroke-linecap="round"
        stroke-linejoin="round" />
    <path
        d="M10.9999 18.7998L8.7265 19.9362C8.32784 20.1356 7.99257 20.442 7.75826 20.8212C7.52395 21.2003 7.39986 21.6373 7.3999 22.083V27.1998"
        stroke="black" stroke-opacity="0.8" stroke-width="1.2" stroke-linecap="round"
        stroke-linejoin="round" />
    <path
        d="M10.9999 23.5994C11.3313 23.5994 11.5999 23.3308 11.5999 22.9994C11.5999 22.668 11.3313 22.3994 10.9999 22.3994C10.6685 22.3994 10.3999 22.668 10.3999 22.9994C10.3999 23.3308 10.6685 23.5994 10.9999 23.5994Z"
        stroke="black" stroke-opacity="0.8" stroke-width="1.2" stroke-linecap="round"
        stroke-linejoin="round" />
    <path
        d="M10.9999 23.5994C11.3313 23.5994 11.5999 23.3308 11.5999 22.9994C11.5999 22.668 11.3313 22.3994 10.9999 22.3994C10.6685 22.3994 10.3999 22.668 10.3999 22.9994C10.3999 23.3308 10.6685 23.5994 10.9999 23.5994Z"
        fill="black" fill-opacity="0.8" />
    <path
        d="M15.8 11V14C15.8 15.273 15.2942 16.4939 14.3941 17.3941C13.4939 18.2943 12.273 18.8 11 18.8C9.72691 18.8 8.50601 18.2943 7.60584 17.3941C6.70566 16.4939 6.19995 15.273 6.19995 14V11"
        stroke="black" stroke-opacity="0.8" stroke-width="1.2" stroke-linecap="round"
        stroke-linejoin="round" />
    <path
        d="M15.7999 1.99967C15.2737 2.00272 14.7578 2.14538 14.3047 2.41307C13.9127 1.91064 13.4114 1.5042 12.8387 1.22465C12.266 0.945103 11.6372 0.799805 10.9999 0.799805C10.3627 0.799805 9.73381 0.945103 9.16115 1.22465C8.58849 1.5042 8.08711 1.91064 7.69512 2.41307C7.29727 2.18288 6.85177 2.04736 6.39313 2.01701C5.93449 1.98666 5.47502 2.06229 5.05031 2.23806C4.6256 2.41382 4.24705 2.68499 3.94398 3.03056C3.64091 3.37613 3.42146 3.78683 3.30262 4.23085C3.18378 4.67486 3.16875 5.14028 3.25869 5.59103C3.34863 6.04179 3.54113 6.4658 3.82127 6.8302C4.10141 7.19461 4.46167 7.48964 4.87416 7.69244C5.28665 7.89524 5.74028 8.00036 6.19992 7.99967V10.9997H15.7999V7.99967C16.5956 7.99967 17.3586 7.6836 17.9212 7.12099C18.4839 6.55838 18.7999 5.79532 18.7999 4.99967C18.7999 4.20402 18.4839 3.44096 17.9212 2.87835C17.3586 2.31574 16.5956 1.99967 15.7999 1.99967Z"
        stroke="black" stroke-opacity="0.8" stroke-width="1.2" stroke-linecap="round"
        stroke-linejoin="round" />
</svg>