<svg width="22" height="18" viewBox="0 0 22 18" fill="none" xmlns="http://www.w3.org/2000/svg">
    <path
        d="M9.45264 17.4736C4.8208 17.4736 0.98584 13.6304 0.98584 9.00684C0.98584 4.375 4.8125 0.540039 9.44434 0.540039C13.7607 0.540039 17.3965 3.88525 17.8613 8.10205C17.438 8.01074 16.832 7.97754 16.4253 8.03564C15.9521 4.59082 13.022 1.95117 9.44434 1.95117C5.52637 1.95117 2.40527 5.08887 2.40527 9.00684C2.40527 12.9248 5.53467 16.0625 9.45264 16.0625C10.3491 16.0625 11.2124 15.8882 11.9927 15.5811C12.1919 16.0127 12.4409 16.4194 12.7563 16.7847C11.7354 17.2329 10.6147 17.4736 9.45264 17.4736ZM5.10303 9.90332C4.7793 9.90332 4.53027 9.6543 4.53027 9.32227C4.53027 8.99854 4.7793 8.74951 5.10303 8.74951H8.87158V3.72754C8.87158 3.40381 9.12061 3.15479 9.44434 3.15479C9.76807 3.15479 10.0254 3.40381 10.0254 3.72754V9.32227C10.0254 9.6543 9.76807 9.90332 9.44434 9.90332H5.10303ZM16.832 17.5649C14.5244 17.5649 12.6152 15.6724 12.6152 13.3481C12.6152 11.0405 14.5244 9.13135 16.832 9.13135C19.1479 9.13135 21.0488 11.0322 21.0488 13.3481C21.0488 15.6558 19.123 17.5649 16.832 17.5649ZM15.645 15.3071L16.8652 14.0952L17.9858 15.2075C18.1934 15.4067 18.5005 15.3984 18.6997 15.2075C18.8989 15.0166 18.8906 14.7012 18.6997 14.4937L17.5791 13.373L18.7993 12.1528C19.0151 11.937 18.9819 11.6133 18.7744 11.4058C18.5669 11.2065 18.2432 11.165 18.0273 11.3809L16.8154 12.6011L15.6865 11.4805C15.4873 11.2896 15.1719 11.2979 14.9727 11.4805C14.7734 11.6714 14.7817 11.9951 14.9727 12.1943L16.0933 13.3232L14.873 14.5435C14.6572 14.7593 14.6904 15.083 14.8979 15.2822C15.1055 15.4897 15.4292 15.5229 15.645 15.3071Z"
        fill="black" />
</svg>