<svg width="12" height="12" viewBox="0 0 12 12" fill="none" xmlns="http://www.w3.org/2000/svg">
<g clip-path="url(#clip0_6196_64547)">
<path d="M10.5 6.5C9.20836 6.27626 7.92637 5.92748 7 5C6.07302 4.07446 5.72428 2.79059 5.5 1.5" stroke="black" stroke-linecap="round" stroke-linejoin="round"/>
<path d="M3 9L0.5 9.5L2.5 11.5L3 9Z" stroke="black" stroke-linecap="round" stroke-linejoin="round"/>
<path d="M11.0134 0.902992C11.0134 0.902992 6.95062 -0.451508 4.69312 1.80599C1.98412 4.51499 3.33863 8.57849 3.33863 8.57849C3.33863 8.57849 7.40213 9.92849 10.1104 7.22399C12.3964 4.93799 11.0134 0.902992 11.0134 0.902992Z" stroke="black" stroke-linecap="round" stroke-linejoin="round"/>
<path d="M8.75 3.5C9.16421 3.5 9.5 3.16421 9.5 2.75C9.5 2.33579 9.16421 2 8.75 2C8.33579 2 8 2.33579 8 2.75C8 3.16421 8.33579 3.5 8.75 3.5Z" fill="black"/>
</g>
<defs>
<clipPath id="clip0_6196_64547">
<rect width="12" height="12" fill="white"/>
</clipPath>
</defs>
</svg>
