<svg width="28" height="27" viewBox="0 0 28 27" fill="none" xmlns="http://www.w3.org/2000/svg">
    <path d="M18.2001 17.7998V8.7998" stroke="black" stroke-opacity="0.8" stroke-width="1.2"
        stroke-linecap="round" stroke-linejoin="round" />
    <path
        d="M5.00005 26.1998C3.88614 26.1998 2.81785 25.7573 2.0302 24.9697C1.24255 24.182 0.800049 23.1137 0.800049 21.9998C0.800049 20.8859 1.24255 19.8176 2.0302 19.03C2.81785 18.2423 3.88614 17.7998 5.00005 17.7998H23C24.114 17.7998 25.1822 18.2423 25.9699 19.03C26.7575 19.8176 27.2 20.8859 27.2 21.9998C27.2 23.1137 26.7575 24.182 25.9699 24.9697C25.1822 25.7573 24.114 26.1998 23 26.1998H5.00005Z"
        stroke="black" stroke-opacity="0.8" stroke-width="1.2" stroke-linecap="round"
        stroke-linejoin="round" />
    <path
        d="M5.00005 23.1998C5.66279 23.1998 6.20005 22.6625 6.20005 21.9998C6.20005 21.3371 5.66279 20.7998 5.00005 20.7998C4.33731 20.7998 3.80005 21.3371 3.80005 21.9998C3.80005 22.6625 4.33731 23.1998 5.00005 23.1998Z"
        fill="black" fill-opacity="0.8" />
    <path
        d="M9.8001 23.1998C10.4628 23.1998 11.0001 22.6625 11.0001 21.9998C11.0001 21.3371 10.4628 20.7998 9.8001 20.7998C9.13736 20.7998 8.6001 21.3371 8.6001 21.9998C8.6001 22.6625 9.13736 23.1998 9.8001 23.1998Z"
        fill="black" fill-opacity="0.8" />
    <path
        d="M18.2 8.8002C19.1941 8.8002 20 7.99431 20 7.0002C20 6.00608 19.1941 5.2002 18.2 5.2002C17.2059 5.2002 16.4 6.00608 16.4 7.0002C16.4 7.99431 17.2059 8.8002 18.2 8.8002Z"
        stroke="black" stroke-opacity="0.8" stroke-width="1.2" stroke-linecap="round"
        stroke-linejoin="round" />
    <path
        d="M22.0184 3.18164C22.5199 3.68308 22.9176 4.27837 23.189 4.93353C23.4604 5.5887 23.6001 6.2909 23.6001 7.00004C23.6001 7.70918 23.4604 8.41138 23.189 9.06655C22.9176 9.72171 22.5199 10.317 22.0184 10.8184"
        stroke="black" stroke-opacity="0.8" stroke-width="1.2" stroke-linecap="round"
        stroke-linejoin="round" />
    <path
        d="M14.3817 10.8184C13.8803 10.317 13.4825 9.72171 13.2111 9.06655C12.9397 8.41138 12.8 7.70918 12.8 7.00004C12.8 6.2909 12.9397 5.5887 13.2111 4.93353C13.4825 4.27837 13.8803 3.68308 14.3817 3.18164"
        stroke="black" stroke-opacity="0.8" stroke-width="1.2" stroke-linecap="round"
        stroke-linejoin="round" />
    <path
        d="M24.5642 0.635742C25.4 1.47148 26.063 2.46366 26.5153 3.55564C26.9677 4.64761 27.2005 5.81799 27.2005 6.99994C27.2005 8.1819 26.9677 9.35227 26.5153 10.4442C26.063 11.5362 25.4 12.5284 24.5642 13.3641"
        stroke="black" stroke-opacity="0.8" stroke-width="1.2" stroke-linecap="round"
        stroke-linejoin="round" />
    <path
        d="M11.8359 13.3641C11.0001 12.5284 10.3371 11.5362 9.88473 10.4442C9.4324 9.35227 9.19958 8.1819 9.19958 6.99994C9.19958 5.81799 9.4324 4.64761 9.88473 3.55564C10.3371 2.46366 11.0001 1.47148 11.8359 0.635742"
        stroke="black" stroke-opacity="0.8" stroke-width="1.2" stroke-linecap="round"
        stroke-linejoin="round" />
</svg>