<svg width="18" height="18" viewBox="0 0 18 18" fill="none" xmlns="http://www.w3.org/2000/svg">
    <path
        d="M11.748 17.623C11.3745 17.623 11.1753 17.4404 11.1753 17.1333C11.1753 16.8179 11.3745 16.6519 11.748 16.6519H13.6157V1.30371H11.748C11.3745 1.30371 11.1753 1.12939 11.1753 0.813965C11.1753 0.506836 11.3745 0.34082 11.748 0.34082H16.5957C16.9775 0.34082 17.1768 0.506836 17.1768 0.813965C17.1768 1.12939 16.9775 1.30371 16.5957 1.30371H14.7363V16.6519H16.5957C16.9775 16.6519 17.1768 16.8179 17.1768 17.1333C17.1768 17.4404 16.9775 17.623 16.5957 17.623H11.748ZM1.31396 15.0996C0.882324 15.0996 0.616699 14.8423 0.616699 14.4272C0.616699 14.2861 0.633301 14.1616 0.708008 13.979L4.60107 3.60303C4.78369 3.08838 5.13232 2.84766 5.64697 2.84766C6.17822 2.84766 6.51855 3.09668 6.70947 3.61133L10.6025 13.9707C10.6689 14.1533 10.6938 14.2778 10.6938 14.4189C10.6938 14.834 10.4116 15.0996 9.97168 15.0996C9.54004 15.0996 9.32422 14.9336 9.1665 14.4771L8.0957 11.5386H3.19824L2.12744 14.4771C1.96973 14.9336 1.75391 15.0996 1.31396 15.0996ZM3.62158 10.2686H7.69727L5.68018 4.68213H5.63867L3.62158 10.2686Z"
        fill="#D1D1D4" />
</svg>