<svg width="317" height="486" viewBox="0 0 317 486" fill="none" xmlns="http://www.w3.org/2000/svg">
<rect x="0.898649" y="270.69" width="283.164" height="586.315" rx="35.0806" fill="url(#paint0_linear_22323_11284)" fill-opacity="0.4" stroke="url(#paint1_linear_22323_11284)" stroke-width="1.79901"/>
<rect x="0.898649" y="270.69" width="283.164" height="586.315" rx="35.0806" stroke="url(#paint2_linear_22323_11284)" stroke-width="1.79901"/>
<g filter="url(#filter0_ddddd_22323_11284)">
<g clip-path="url(#clip0_22323_11284)">
<rect x="10.3157" y="301.856" width="296.673" height="70.8224" rx="9.43544" fill="url(#paint3_linear_22323_11284)"/>
<g clip-path="url(#clip1_22323_11284)">
<rect x="27.938" y="315.073" width="35.2442" height="35.2442" fill="#4C34B3"/>
<path d="M55.0584 340.749C52.6491 342.527 49.0352 343.617 46.1097 343.617C41.9221 343.617 38.1935 341.954 35.3253 339.372C35.0959 339.143 35.3253 338.913 35.5548 339.028C38.6524 340.806 42.1516 341.839 46.0523 341.839C48.691 341.839 52.0181 341.265 54.7142 340.118C55.1158 340.003 55.4599 340.462 55.0584 340.749ZM55.9188 339.544C55.632 339.143 53.9111 339.372 53.1654 339.43C52.9359 339.43 52.8786 339.258 53.108 339.086C54.4274 338.11 56.6646 338.397 56.894 338.741C57.1235 339.086 56.8367 341.323 55.5747 342.355C55.4026 342.527 55.1731 342.413 55.2878 342.241C55.5747 341.552 56.2057 339.946 55.9188 339.544Z" fill="#FFB300"/>
<path d="M53.5108 335.473C52.9372 334.728 52.3636 334.097 52.3636 332.662V327.901C52.3636 325.894 52.3636 324.115 50.9295 322.739C49.7822 321.649 47.8892 321.247 46.3977 321.247C43.2428 321.247 40.4893 322.509 39.8009 326.066C39.7436 326.467 40.0304 326.639 40.2598 326.697L43.1854 327.041C43.4722 327.041 43.6443 326.754 43.7017 326.467C43.9311 325.263 44.9063 324.689 46.0536 324.689C46.6846 324.689 47.8892 325.033 47.8892 326.41V328.131C46.0536 328.131 44.1032 328.131 42.497 328.819C40.604 329.622 39.2847 331.286 39.2847 333.752C39.2847 336.907 41.235 338.456 43.759 338.456C45.8815 338.456 47.1435 337.94 48.807 336.276C49.3233 337.079 49.5527 337.538 50.5279 338.399C50.7574 338.514 51.0442 338.514 51.2163 338.341C51.7899 337.825 52.8798 336.85 53.5108 336.334C53.7977 336.104 53.7403 335.76 53.5108 335.473ZM47.8318 331.056C47.8318 332.204 47.7745 335.014 44.9637 335.014C43.2428 335.014 43.2428 333.293 43.2428 333.293C43.2428 330.712 45.652 330.425 47.8318 330.425V331.056Z" fill="white"/>
</g>
<path d="M78.2165 331.456H76.7928L80.9105 320.242H82.3122L86.4299 331.456H85.0062L83.8782 328.28H79.3444L78.2165 331.456ZM79.7715 327.076H83.4511L81.6551 322.016H81.5675L79.7715 327.076ZM88.0014 331.456V323.046H89.2498V324.36H89.3593C89.7098 323.462 90.5202 322.936 91.6153 322.936C92.7214 322.936 93.4551 323.462 93.8712 324.36H93.9589C94.3914 323.489 95.273 322.936 96.4776 322.936C97.978 322.936 99.0402 323.85 99.0402 325.827V331.456H97.748V325.827C97.748 324.584 96.9595 324.097 96.0396 324.097C94.8569 324.097 94.1779 324.896 94.1779 325.98V331.456H92.8637V325.696C92.8637 324.737 92.1793 324.097 91.1991 324.097C90.1916 324.097 89.2936 324.967 89.2936 326.199V331.456H88.0014ZM103.878 331.653C102.279 331.653 101.009 330.711 101.009 329.069C101.009 327.141 102.712 326.796 104.272 326.594C105.805 326.397 106.441 326.451 106.441 325.827V325.783C106.441 324.705 105.855 324.075 104.666 324.075C103.434 324.075 102.761 324.732 102.476 325.345L101.25 324.907C101.907 323.374 103.352 322.936 104.623 322.936C105.696 322.936 107.733 323.243 107.733 325.915V331.456H106.441V330.317H106.375C106.112 330.865 105.345 331.653 103.878 331.653ZM104.075 330.492C105.608 330.492 106.441 329.463 106.441 328.412V327.229C106.221 327.492 104.754 327.645 104.206 327.711C103.199 327.842 102.301 328.149 102.301 329.134C102.301 330.032 103.046 330.492 104.075 330.492ZM109.85 331.456V330.47L114.625 324.338V324.25H110.004V323.046H116.29V324.075L111.646 330.164V330.251H116.443V331.456H109.85ZM121.609 331.631C119.331 331.631 117.798 329.901 117.798 327.295C117.798 324.666 119.331 322.936 121.609 322.936C123.887 322.936 125.42 324.666 125.42 327.295C125.42 329.901 123.887 331.631 121.609 331.631ZM121.609 330.47C123.34 330.47 124.128 328.981 124.128 327.295C124.128 325.608 123.34 324.097 121.609 324.097C119.879 324.097 119.091 325.608 119.091 327.295C119.091 328.981 119.879 330.47 121.609 330.47ZM128.685 326.397V331.456H127.393V323.046H128.641V324.36H128.751C129.145 323.505 129.934 322.936 131.204 322.936C132.907 322.936 134.051 323.965 134.051 326.112V331.456H132.759V326.199C132.759 324.88 132.031 324.097 130.832 324.097C129.594 324.097 128.685 324.929 128.685 326.397Z" fill="white"/>
<path d="M203.328 315.033H204.718L207.984 323.012H208.097L211.363 315.033H212.753V324.645H211.664V317.342H211.57L208.566 324.645H207.515L204.511 317.342H204.417V324.645H203.328V315.033ZM217.058 324.814C215.687 324.814 214.598 324.007 214.598 322.599C214.598 320.947 216.058 320.651 217.396 320.477C218.71 320.308 219.254 320.355 219.254 319.82V319.783C219.254 318.858 218.752 318.318 217.733 318.318C216.677 318.318 216.1 318.882 215.856 319.407L214.805 319.032C215.368 317.718 216.607 317.342 217.696 317.342C218.616 317.342 220.362 317.605 220.362 319.895V324.645H219.254V323.669H219.198C218.972 324.138 218.315 324.814 217.058 324.814ZM217.227 323.819C218.541 323.819 219.254 322.937 219.254 322.035V321.022C219.066 321.247 217.809 321.378 217.339 321.435C216.476 321.547 215.706 321.81 215.706 322.655C215.706 323.425 216.344 323.819 217.227 323.819ZM222.839 327.348C222.463 327.348 222.144 327.273 222.031 327.217L222.313 326.241C223.12 326.447 223.618 326.344 224.021 325.246L224.228 324.683L221.562 317.436H222.764L224.754 323.181H224.829L226.819 317.436H228.02L224.96 325.696C224.542 326.818 223.838 327.348 222.839 327.348ZM233.181 324.645V323.8L236.353 320.327C237.466 319.112 237.987 318.454 237.987 317.567C237.987 316.554 237.189 315.915 236.147 315.915C235.034 315.915 234.326 316.643 234.326 317.736H233.218C233.218 316.047 234.499 314.902 236.184 314.902C237.874 314.902 239.075 316.084 239.075 317.567C239.075 318.633 238.587 319.459 236.935 321.228L234.776 323.537V323.612H239.244V324.645H233.181ZM241.483 324.645L245.782 316.141V316.066H240.826V315.033H246.984V316.122L242.703 324.645H241.483ZM248.752 323.331L248.677 323.838C248.517 324.908 248.039 326.353 247.813 326.992H246.969C247.091 326.396 247.358 325.128 247.494 323.857L247.55 323.331H248.752ZM254.503 324.645V323.8L257.675 320.327C258.788 319.112 259.309 318.454 259.309 317.567C259.309 316.554 258.511 315.915 257.469 315.915C256.356 315.915 255.648 316.643 255.648 317.736H254.54C254.54 316.047 255.821 314.902 257.506 314.902C259.196 314.902 260.397 316.084 260.397 317.567C260.397 318.633 259.909 319.459 258.257 321.228L256.098 323.537V323.612H260.566V324.645H254.503ZM265.64 324.776C263.519 324.776 262.298 322.979 262.298 319.839C262.298 316.723 263.537 314.902 265.64 314.902C267.743 314.902 268.982 316.723 268.982 319.839C268.982 322.979 267.761 324.776 265.64 324.776ZM265.64 323.744C267.039 323.744 267.855 322.341 267.855 319.839C267.855 317.342 267.029 315.915 265.64 315.915C264.251 315.915 263.425 317.342 263.425 319.839C263.425 322.341 264.241 323.744 265.64 323.744ZM270.765 324.645V323.8L273.938 320.327C275.05 319.112 275.571 318.454 275.571 317.567C275.571 316.554 274.773 315.915 273.731 315.915C272.619 315.915 271.91 316.643 271.91 317.736H270.803C270.803 316.047 272.084 314.902 273.769 314.902C275.459 314.902 276.66 316.084 276.66 317.567C276.66 318.633 276.172 319.459 274.52 321.228L272.361 323.537V323.612H276.829V324.645H270.765ZM282.015 324.776C280.152 324.776 278.819 323.753 278.749 322.242H279.931C280.002 323.171 280.884 323.744 281.996 323.744C283.231 323.744 284.118 323.054 284.118 322.035C284.118 320.975 283.306 320.233 281.846 320.233H281.076V319.201H281.846C282.987 319.201 283.78 318.544 283.78 317.53C283.78 316.558 283.095 315.915 282.034 315.915C281.034 315.915 280.124 316.479 280.081 317.436H278.955C279.011 315.925 280.391 314.902 282.053 314.902C283.832 314.902 284.906 316.112 284.906 317.474C284.906 318.558 284.301 319.356 283.329 319.651V319.726C284.54 319.928 285.263 320.815 285.263 322.035C285.263 323.608 283.878 324.776 282.015 324.776Z" fill="white"/>
<path d="M86.6489 343.242V354.456H85.3348L79.224 345.651H79.1145V354.456H77.7565V343.242H79.0707L85.2033 352.069H85.3129V343.242H86.6489ZM92.7173 354.631C90.2861 354.631 88.7967 352.901 88.7967 350.316C88.7967 347.732 90.308 345.936 92.5858 345.936C94.338 345.936 96.1997 347.009 96.1997 350.141V350.689H90.0944C90.1547 352.49 91.2005 353.47 92.7173 353.47C93.7302 353.47 94.4914 353.032 94.8199 352.156L96.0683 352.507C95.6741 353.777 94.4256 354.631 92.7173 354.631ZM90.0944 349.572H94.8856C94.8856 348.148 93.9876 347.097 92.5858 347.097C91.1074 347.097 90.182 348.263 90.0944 349.572ZM100.071 354.456L97.5084 346.046H98.8664L100.684 352.485H100.772L102.568 346.046H103.948L105.722 352.463H105.809L107.627 346.046H108.985L106.423 354.456H105.152L103.313 347.995H103.181L101.341 354.456H100.071ZM124.229 346.746H122.871C122.543 345.191 121.207 344.359 119.718 344.359C117.681 344.359 116.082 345.936 116.082 348.849C116.082 351.762 117.681 353.339 119.718 353.339C121.207 353.339 122.543 352.507 122.871 350.952H124.229C123.813 353.251 121.973 354.609 119.718 354.609C116.848 354.609 114.768 352.397 114.768 348.849C114.768 345.301 116.848 343.089 119.718 343.089C121.973 343.089 123.813 344.447 124.229 346.746ZM129.665 354.631C127.387 354.631 125.854 352.901 125.854 350.295C125.854 347.666 127.387 345.936 129.665 345.936C131.943 345.936 133.476 347.666 133.476 350.295C133.476 352.901 131.943 354.631 129.665 354.631ZM129.665 353.47C131.396 353.47 132.184 351.981 132.184 350.295C132.184 348.608 131.396 347.097 129.665 347.097C127.935 347.097 127.147 348.608 127.147 350.295C127.147 351.981 127.935 353.47 129.665 353.47ZM136.741 343.242V354.456H135.449V343.242H136.741ZM140.4 343.242V354.456H139.108V343.242H140.4ZM146.293 354.631C143.862 354.631 142.373 352.901 142.373 350.316C142.373 347.732 143.884 345.936 146.162 345.936C147.914 345.936 149.776 347.009 149.776 350.141V350.689H143.671C143.731 352.49 144.777 353.47 146.293 353.47C147.306 353.47 148.067 353.032 148.396 352.156L149.644 352.507C149.25 353.777 148.002 354.631 146.293 354.631ZM143.671 349.572H148.462C148.462 348.148 147.564 347.097 146.162 347.097C144.684 347.097 143.758 348.263 143.671 349.572ZM155.158 354.631C152.793 354.631 151.347 352.813 151.347 350.295C151.347 347.732 152.859 345.936 155.137 345.936C156.911 345.936 158.247 346.987 158.466 348.564H157.173C156.976 347.798 156.297 347.097 155.158 347.097C153.647 347.097 152.64 348.345 152.64 350.251C152.64 352.2 153.625 353.47 155.158 353.47C156.166 353.47 156.933 352.923 157.173 352.003H158.466C158.247 353.492 157.02 354.631 155.158 354.631ZM164.012 346.046V347.141H162.216V352.047C162.216 353.142 162.764 353.317 163.333 353.317C163.618 353.317 163.793 353.273 163.903 353.251L164.166 354.412C163.991 354.478 163.684 354.566 163.202 354.566C162.107 354.566 160.924 353.865 160.924 352.397V347.141H159.654V346.046H160.924V344.03H162.216V346.046H164.012ZM165.956 354.456V346.046H167.249V354.456H165.956ZM166.613 344.644C166.11 344.644 165.693 344.25 165.693 343.768C165.693 343.286 166.11 342.892 166.613 342.892C167.117 342.892 167.533 343.286 167.533 343.768C167.533 344.25 167.117 344.644 166.613 344.644ZM173.032 354.631C170.754 354.631 169.221 352.901 169.221 350.295C169.221 347.666 170.754 345.936 173.032 345.936C175.31 345.936 176.843 347.666 176.843 350.295C176.843 352.901 175.31 354.631 173.032 354.631ZM173.032 353.47C174.762 353.47 175.551 351.981 175.551 350.295C175.551 348.608 174.762 347.097 173.032 347.097C171.302 347.097 170.513 348.608 170.513 350.295C170.513 351.981 171.302 353.47 173.032 353.47ZM180.108 349.397V354.456H178.816V346.046H180.064V347.36H180.174C180.568 346.505 181.356 345.936 182.627 345.936C184.33 345.936 185.474 346.965 185.474 349.112V354.456H184.182V349.199C184.182 347.88 183.454 347.097 182.254 347.097C181.017 347.097 180.108 347.929 180.108 349.397Z" fill="white"/>
</g>
</g>
<g opacity="0.75">
<g clip-path="url(#clip2_22323_11284)">
<g clip-path="url(#clip3_22323_11284)">
<rect opacity="0.25" x="24.8849" y="397.702" width="28.8083" height="28.8083" fill="#1B1340"/>
</g>
<g opacity="0.5">
<path d="M65.3808 408.741V401.441H69.7866V402.225H66.2649V404.692H69.5585V405.476H66.2649V407.957H69.8437V408.741H65.3808ZM73.6471 403.266V403.979H72.4779V407.173C72.4779 407.886 72.8344 408 73.2051 408C73.3904 408 73.5045 407.971 73.5758 407.957L73.7469 408.713C73.6328 408.755 73.4332 408.812 73.1195 408.812C72.4066 408.812 71.6367 408.356 71.6367 407.401V403.979H70.8097V403.266H71.6367V401.954H72.4779V403.266H73.6471ZM75.8714 405.447V408.741H75.0301V401.441H75.8714V404.121H75.9427C76.1993 403.555 76.6912 403.195 77.5538 403.195C78.6731 403.195 79.4217 403.854 79.4217 405.262V408.741H78.5804V405.319C78.5804 404.449 78.1028 403.95 77.3114 403.95C76.4809 403.95 75.8714 404.492 75.8714 405.447ZM80.9607 408.741V403.266H81.8019V408.741H80.9607ZM81.3884 402.353C81.0605 402.353 80.7896 402.097 80.7896 401.783C80.7896 401.469 81.0605 401.213 81.3884 401.213C81.7164 401.213 81.9873 401.469 81.9873 401.783C81.9873 402.097 81.7164 402.353 81.3884 402.353ZM85.567 408.855C84.0271 408.855 83.086 407.672 83.086 406.032C83.086 404.364 84.0699 403.195 85.5527 403.195C86.7076 403.195 87.5774 403.879 87.72 404.906H86.8787C86.7504 404.407 86.3084 403.95 85.567 403.95C84.5832 403.95 83.9273 404.763 83.9273 406.004C83.9273 407.272 84.5689 408.099 85.567 408.099C86.2229 408.099 86.7219 407.743 86.8787 407.144H87.72C87.5774 408.114 86.7789 408.855 85.567 408.855ZM90.5609 408.869C89.5201 408.869 88.6931 408.256 88.6931 407.187C88.6931 405.932 89.8017 405.708 90.8176 405.576C91.8157 405.447 92.2292 405.483 92.2292 405.077V405.048C92.2292 404.346 91.8478 403.936 91.0742 403.936C90.2722 403.936 89.8338 404.364 89.6484 404.763L88.85 404.478C89.2777 403.48 90.2187 403.195 91.0457 403.195C91.7444 403.195 93.0704 403.394 93.0704 405.134V408.741H92.2292V408H92.1864C92.0153 408.356 91.5162 408.869 90.5609 408.869ZM90.6893 408.114C91.6873 408.114 92.2292 407.444 92.2292 406.759V405.989C92.0866 406.16 91.1313 406.26 90.7748 406.303C90.1189 406.388 89.5343 406.588 89.5343 407.23C89.5343 407.814 90.0191 408.114 90.6893 408.114ZM95.4471 401.441V408.741H94.6058V401.441H95.4471ZM100.224 408.741H99.2977L101.978 401.441H102.891L105.571 408.741H104.645L103.91 406.674H100.959L100.224 408.741ZM101.237 405.889H103.632L102.463 402.596H102.406L101.237 405.889ZM106.594 410.794V403.266H107.407V404.136H107.507C107.692 403.851 108.02 403.195 109.09 403.195C110.473 403.195 111.428 404.293 111.428 406.018C111.428 407.757 110.473 408.855 109.104 408.855C108.049 408.855 107.692 408.199 107.507 407.9H107.436V410.794H106.594ZM107.421 406.004C107.421 407.244 107.977 408.099 108.99 408.099C110.045 408.099 110.587 407.173 110.587 406.004C110.587 404.849 110.059 403.95 108.99 403.95C107.963 403.95 107.421 404.777 107.421 406.004ZM112.711 410.794V403.266H113.524V404.136H113.624C113.809 403.851 114.137 403.195 115.206 403.195C116.589 403.195 117.545 404.293 117.545 406.018C117.545 407.757 116.589 408.855 115.221 408.855C114.166 408.855 113.809 408.199 113.624 407.9H113.552V410.794H112.711ZM113.538 406.004C113.538 407.244 114.094 408.099 115.107 408.099C116.162 408.099 116.703 407.173 116.703 406.004C116.703 404.849 116.176 403.95 115.107 403.95C114.08 403.95 113.538 404.777 113.538 406.004ZM120.439 408.869C119.398 408.869 118.571 408.256 118.571 407.187C118.571 405.932 119.68 405.708 120.696 405.576C121.694 405.447 122.107 405.483 122.107 405.077V405.048C122.107 404.346 121.726 403.936 120.952 403.936C120.15 403.936 119.712 404.364 119.527 404.763L118.728 404.478C119.156 403.48 120.097 403.195 120.924 403.195C121.623 403.195 122.949 403.394 122.949 405.134V408.741H122.107V408H122.065C121.893 408.356 121.394 408.869 120.439 408.869ZM120.567 408.114C121.566 408.114 122.107 407.444 122.107 406.759V405.989C121.965 406.16 121.009 406.26 120.653 406.303C119.997 406.388 119.413 406.588 119.413 407.23C119.413 407.814 119.897 408.114 120.567 408.114ZM124.484 408.741V403.266H125.297V404.093H125.354C125.553 403.551 126.124 403.18 126.78 403.18C126.904 403.18 127.125 403.187 127.222 403.195V404.05C127.165 404.036 126.933 403.993 126.708 403.993C125.91 403.993 125.325 404.535 125.325 405.276V408.741H124.484ZM130.348 408.855C128.765 408.855 127.796 407.729 127.796 406.046C127.796 404.364 128.779 403.195 130.262 403.195C131.403 403.195 132.615 403.893 132.615 405.932V406.289H128.64C128.68 407.461 129.36 408.099 130.348 408.099C131.007 408.099 131.503 407.814 131.717 407.244L132.529 407.472C132.273 408.299 131.46 408.855 130.348 408.855ZM128.64 405.561H131.759C131.759 404.635 131.175 403.95 130.262 403.95C129.3 403.95 128.697 404.71 128.64 405.561ZM134.736 401.441V408.741H133.895V401.441H134.736Z" fill="#1B1340"/>
<path d="M208.236 395.455H209.115L211.183 400.505H211.254L213.322 395.455H214.201V401.539H213.512V396.917H213.452L211.551 401.539H210.886L208.985 396.917H208.925V401.539H208.236V395.455ZM216.925 401.646C216.058 401.646 215.369 401.135 215.369 400.244C215.369 399.198 216.293 399.011 217.139 398.901C217.971 398.794 218.316 398.824 218.316 398.485V398.462C218.316 397.876 217.998 397.535 217.353 397.535C216.685 397.535 216.319 397.891 216.165 398.224L215.5 397.986C215.856 397.155 216.64 396.917 217.329 396.917C217.912 396.917 219.017 397.083 219.017 398.533V401.539H218.316V400.921H218.28C218.137 401.218 217.722 401.646 216.925 401.646ZM217.032 401.016C217.864 401.016 218.316 400.458 218.316 399.887V399.246C218.197 399.388 217.401 399.472 217.104 399.507C216.557 399.578 216.07 399.745 216.07 400.28C216.07 400.767 216.474 401.016 217.032 401.016ZM220.296 401.539V396.976H220.973V397.666H221.021C221.187 397.214 221.663 396.905 222.209 396.905C222.313 396.905 222.497 396.911 222.578 396.917V397.63C222.53 397.618 222.337 397.582 222.15 397.582C221.484 397.582 220.997 398.034 220.997 398.652V401.539H220.296ZM227.888 395.455V401.539H227.151V396.228H227.116L225.63 397.214V396.465L227.151 395.455H227.888ZM231.539 401.622C230.493 401.622 229.694 400.945 229.649 400.018H230.362C230.419 400.568 230.915 400.969 231.539 400.969C232.287 400.969 232.834 400.395 232.834 399.614C232.834 398.818 232.266 398.23 231.491 398.224C231.117 398.221 230.686 398.352 230.434 398.533L229.745 398.45L230.113 395.455H233.273V396.109H230.731L230.517 397.903H230.552C230.802 397.704 231.2 397.559 231.61 397.559C232.727 397.559 233.547 398.423 233.547 399.602C233.547 400.767 232.697 401.622 231.539 401.622ZM235.556 400.707L235.508 401.028C235.407 401.705 235.104 402.62 234.961 403.024H234.427C234.504 402.647 234.673 401.845 234.759 401.04L234.795 400.707H235.556ZM239.195 401.539V401.004L241.203 398.806C241.907 398.037 242.237 397.621 242.237 397.06C242.237 396.418 241.732 396.014 241.072 396.014C240.368 396.014 239.92 396.474 239.92 397.166H239.219C239.219 396.097 240.03 395.372 241.096 395.372C242.166 395.372 242.926 396.121 242.926 397.06C242.926 397.734 242.617 398.257 241.571 399.376L240.205 400.838V400.885H243.033V401.539H239.195ZM246.244 401.622C244.901 401.622 244.129 400.484 244.129 398.497C244.129 396.525 244.913 395.372 246.244 395.372C247.575 395.372 248.359 396.525 248.359 398.497C248.359 400.484 247.587 401.622 246.244 401.622ZM246.244 400.969C247.129 400.969 247.646 400.08 247.646 398.497C247.646 396.917 247.123 396.014 246.244 396.014C245.365 396.014 244.842 396.917 244.842 398.497C244.842 400.08 245.359 400.969 246.244 400.969ZM249.488 401.539V401.004L251.496 398.806C252.2 398.037 252.53 397.621 252.53 397.06C252.53 396.418 252.025 396.014 251.365 396.014C250.661 396.014 250.213 396.474 250.213 397.166H249.512C249.512 396.097 250.322 395.372 251.389 395.372C252.458 395.372 253.219 396.121 253.219 397.06C253.219 397.734 252.91 398.257 251.864 399.376L250.498 400.838V400.885H253.326V401.539H249.488ZM256.608 401.622C255.429 401.622 254.585 400.975 254.541 400.018H255.289C255.334 400.606 255.892 400.969 256.596 400.969C257.377 400.969 257.939 400.532 257.939 399.887C257.939 399.216 257.425 398.747 256.501 398.747H256.014V398.093H256.501C257.223 398.093 257.725 397.677 257.725 397.036C257.725 396.421 257.291 396.014 256.62 396.014C255.987 396.014 255.411 396.37 255.384 396.976H254.671C254.707 396.02 255.58 395.372 256.632 395.372C257.758 395.372 258.438 396.139 258.438 397C258.438 397.686 258.055 398.191 257.44 398.378V398.426C258.206 398.554 258.664 399.115 258.664 399.887C258.664 400.883 257.787 401.622 256.608 401.622Z" fill="#1B1340"/>
</g>
<path opacity="0.5" d="M66.7069 426.741L64.7107 419.441H65.609L67.1346 425.387H67.2059L68.76 419.441H69.7581L71.3123 425.387H71.3836L72.9092 419.441H73.8075L71.8113 426.741H70.8988L69.2876 420.924H69.2306L67.6194 426.741H66.7069ZM76.5807 426.855C74.998 426.855 74.0285 425.729 74.0285 424.046C74.0285 422.364 75.0123 421.195 76.4952 421.195C77.6358 421.195 78.8478 421.893 78.8478 423.932V424.289H74.8733C74.9125 425.461 75.5933 426.099 76.5807 426.099C77.2402 426.099 77.7356 425.814 77.9495 425.244L78.7622 425.472C78.5056 426.299 77.6929 426.855 76.5807 426.855ZM74.8733 423.562H77.9923C77.9923 422.635 77.4077 421.95 76.4952 421.95C75.5327 421.95 74.9303 422.71 74.8733 423.562ZM80.8689 419.441V420.083C80.8689 420.667 80.5409 421.423 79.9706 421.879L79.5144 421.508C79.8138 421.081 80.0704 420.624 80.0704 420.097V419.441H80.8689ZM86.6043 421.266L84.5796 426.741H83.7241L81.6994 421.266H82.612L84.1233 425.629H84.1804L85.6917 421.266H86.6043ZM89.8142 426.855C88.2315 426.855 87.2619 425.729 87.2619 424.046C87.2619 422.364 88.2458 421.195 89.7286 421.195C90.8693 421.195 92.0812 421.893 92.0812 423.932V424.289H88.1067C88.146 425.461 88.8268 426.099 89.8142 426.099C90.4736 426.099 90.9691 425.814 91.183 425.244L91.9957 425.472C91.739 426.299 90.9263 426.855 89.8142 426.855ZM88.1067 423.562H91.2257C91.2257 422.635 90.6411 421.95 89.7286 421.95C88.7662 421.95 88.1638 422.71 88.1067 423.562ZM98.2515 426.855C96.8827 426.855 95.9274 425.757 95.9274 424.018C95.9274 422.293 96.8827 421.195 98.2658 421.195C99.3351 421.195 99.6631 421.851 99.8484 422.136H99.9197V419.441H100.761V426.741H99.9482V425.9H99.8484C99.6631 426.199 99.3066 426.855 98.2515 426.855ZM98.3656 426.099C99.3779 426.099 99.934 425.244 99.934 424.004C99.934 422.777 99.3922 421.95 98.3656 421.95C97.2962 421.95 96.7686 422.849 96.7686 424.004C96.7686 425.173 97.3105 426.099 98.3656 426.099ZM102.418 426.741V421.266H103.26V426.741H102.418ZM102.846 420.353C102.518 420.353 102.247 420.097 102.247 419.783C102.247 419.469 102.518 419.213 102.846 419.213C103.174 419.213 103.445 419.469 103.445 419.783C103.445 420.097 103.174 420.353 102.846 420.353ZM108.679 422.492L107.923 422.706C107.777 422.328 107.474 421.922 106.74 421.922C106.069 421.922 105.57 422.264 105.57 422.735C105.57 423.155 105.863 423.373 106.511 423.533L107.324 423.733C108.301 423.971 108.779 424.453 108.779 425.215C108.779 426.16 107.912 426.855 106.64 426.855C105.521 426.855 104.754 426.36 104.558 425.429L105.357 425.23C105.506 425.818 105.938 426.114 106.626 426.114C107.41 426.114 107.909 425.729 107.909 425.258C107.909 424.88 107.649 424.617 107.096 424.488L106.184 424.274C105.178 424.039 104.729 423.533 104.729 422.777C104.729 421.851 105.585 421.195 106.74 421.195C107.823 421.195 108.415 421.715 108.679 422.492ZM110.045 428.794V421.266H110.858V422.136H110.957C111.143 421.851 111.471 421.195 112.54 421.195C113.923 421.195 114.878 422.293 114.878 424.018C114.878 425.757 113.923 426.855 112.554 426.855C111.499 426.855 111.143 426.199 110.957 425.9H110.886V428.794H110.045ZM110.872 424.004C110.872 425.244 111.428 426.099 112.44 426.099C113.495 426.099 114.037 425.173 114.037 424.004C114.037 422.849 113.51 421.95 112.44 421.95C111.414 421.95 110.872 422.777 110.872 424.004ZM117.773 426.869C116.732 426.869 115.905 426.256 115.905 425.187C115.905 423.932 117.014 423.708 118.03 423.576C119.028 423.447 119.441 423.483 119.441 423.077V423.048C119.441 422.346 119.06 421.936 118.286 421.936C117.484 421.936 117.046 422.364 116.86 422.763L116.062 422.478C116.49 421.48 117.431 421.195 118.258 421.195C118.956 421.195 120.282 421.394 120.282 423.134V426.741H119.441V426H119.398C119.227 426.356 118.728 426.869 117.773 426.869ZM117.901 426.114C118.899 426.114 119.441 425.444 119.441 424.759V423.989C119.298 424.16 118.343 424.26 117.987 424.303C117.331 424.389 116.746 424.588 116.746 425.23C116.746 425.814 117.231 426.114 117.901 426.114ZM124.199 421.266V421.979H123.03V425.173C123.03 425.886 123.386 426 123.757 426C123.942 426 124.056 425.971 124.128 425.957L124.299 426.713C124.185 426.755 123.985 426.812 123.671 426.812C122.958 426.812 122.188 426.356 122.188 425.401V421.979H121.361V421.266H122.188V419.954H123.03V421.266H124.199ZM127.63 426.855C126.09 426.855 125.149 425.672 125.149 424.032C125.149 422.364 126.133 421.195 127.616 421.195C128.77 421.195 129.64 421.879 129.783 422.906H128.942C128.813 422.407 128.371 421.95 127.63 421.95C126.646 421.95 125.99 422.763 125.99 424.004C125.99 425.273 126.632 426.099 127.63 426.099C128.286 426.099 128.785 425.743 128.942 425.144H129.783C129.64 426.114 128.842 426.855 127.63 426.855ZM131.854 423.447V426.741H131.013V419.441H131.854V422.121H131.925C132.182 421.555 132.674 421.195 133.536 421.195C134.656 421.195 135.404 421.854 135.404 423.262V426.741H134.563V423.319C134.563 422.449 134.085 421.95 133.294 421.95C132.463 421.95 131.854 422.492 131.854 423.447ZM139.239 426.855C137.656 426.855 136.686 425.729 136.686 424.046C136.686 422.364 137.67 421.195 139.153 421.195C140.294 421.195 141.506 421.893 141.506 423.932V424.289H137.531C137.57 425.461 138.251 426.099 139.239 426.099C139.898 426.099 140.394 425.814 140.607 425.244L141.42 425.472C141.164 426.299 140.351 426.855 139.239 426.855ZM137.531 423.562H140.65C140.65 422.635 140.066 421.95 139.153 421.95C138.191 421.95 137.588 422.71 137.531 423.562ZM144.853 426.855C143.484 426.855 142.529 425.757 142.529 424.018C142.529 422.293 143.484 421.195 144.867 421.195C145.937 421.195 146.264 421.851 146.45 422.136H146.521V419.441H147.362V426.741H146.55V425.9H146.45C146.264 426.199 145.908 426.855 144.853 426.855ZM144.967 426.099C145.979 426.099 146.535 425.244 146.535 424.004C146.535 422.777 145.994 421.95 144.967 421.95C143.898 421.95 143.37 422.849 143.37 424.004C143.37 425.173 143.912 426.099 144.967 426.099ZM152.385 428.794C152.1 428.794 151.857 428.737 151.772 428.695L151.986 427.953C152.599 428.11 152.977 428.031 153.283 427.197L153.44 426.77L151.415 421.266H152.328L153.839 425.629H153.896L155.408 421.266H156.32L153.996 427.54C153.679 428.392 153.144 428.794 152.385 428.794ZM159.459 426.855C157.976 426.855 156.978 425.729 156.978 424.032C156.978 422.321 157.976 421.195 159.459 421.195C160.942 421.195 161.94 422.321 161.94 424.032C161.94 425.729 160.942 426.855 159.459 426.855ZM159.459 426.099C160.585 426.099 161.098 425.13 161.098 424.032C161.098 422.934 160.585 421.95 159.459 421.95C158.332 421.95 157.819 422.934 157.819 424.032C157.819 425.13 158.332 426.099 159.459 426.099ZM166.674 424.503V421.266H167.516V426.741H166.674V425.814H166.617C166.361 426.37 165.819 426.812 164.992 426.812C163.965 426.812 163.224 426.142 163.224 424.745V421.266H164.065V424.688C164.065 425.486 164.564 426 165.263 426C165.89 426 166.674 425.529 166.674 424.503ZM169.056 426.741V421.266H169.869V422.093H169.926C170.126 421.551 170.696 421.18 171.352 421.18C171.477 421.18 171.698 421.188 171.794 421.195V422.05C171.737 422.036 171.505 421.993 171.281 421.993C170.482 421.993 169.898 422.535 169.898 423.276V426.741H169.056ZM177.838 426.855C176.356 426.855 175.358 425.729 175.358 424.032C175.358 422.321 176.356 421.195 177.838 421.195C179.321 421.195 180.319 422.321 180.319 424.032C180.319 425.729 179.321 426.855 177.838 426.855ZM177.838 426.099C178.965 426.099 179.478 425.13 179.478 424.032C179.478 422.934 178.965 421.95 177.838 421.95C176.712 421.95 176.199 422.934 176.199 424.032C176.199 425.13 176.712 426.099 177.838 426.099ZM181.604 426.741V421.266H182.416V422.093H182.473C182.673 421.551 183.243 421.18 183.899 421.18C184.024 421.18 184.245 421.188 184.341 421.195V422.05C184.284 422.036 184.052 421.993 183.828 421.993C183.029 421.993 182.445 422.535 182.445 423.276V426.741H181.604ZM187.239 426.855C185.87 426.855 184.915 425.757 184.915 424.018C184.915 422.293 185.87 421.195 187.253 421.195C188.323 421.195 188.651 421.851 188.836 422.136H188.907V419.441H189.749V426.741H188.936V425.9H188.836C188.651 426.199 188.294 426.855 187.239 426.855ZM187.353 426.099C188.366 426.099 188.922 425.244 188.922 424.004C188.922 422.777 188.38 421.95 187.353 421.95C186.284 421.95 185.756 422.849 185.756 424.004C185.756 425.173 186.298 426.099 187.353 426.099ZM193.702 426.855C192.119 426.855 191.149 425.729 191.149 424.046C191.149 422.364 192.133 421.195 193.616 421.195C194.757 421.195 195.969 421.893 195.969 423.932V424.289H191.994C192.033 425.461 192.714 426.099 193.702 426.099C194.361 426.099 194.857 425.814 195.071 425.244L195.883 425.472C195.627 426.299 194.814 426.855 193.702 426.855ZM191.994 423.562H195.113C195.113 422.635 194.529 421.95 193.616 421.95C192.654 421.95 192.051 422.71 191.994 423.562ZM197.248 426.741V421.266H198.061V422.093H198.118C198.318 421.551 198.888 421.18 199.544 421.18C199.669 421.18 199.89 421.188 199.986 421.195V422.05C199.929 422.036 199.697 421.993 199.473 421.993C198.674 421.993 198.09 422.535 198.09 423.276V426.741H197.248Z" fill="#1B1340"/>
</g>
<rect x="10.9813" y="387.399" width="264.223" height="48.4883" rx="7.21246" stroke="url(#paint4_linear_22323_11284)"/>
</g>
<g opacity="0.5">
<g clip-path="url(#clip4_22323_11284)">
<g clip-path="url(#clip5_22323_11284)">
<rect opacity="0.25" x="24.8849" y="453.88" width="28.8083" height="28.8083" fill="#1B1340"/>
</g>
<path opacity="0.5" d="M71.1697 456.141V463.441H70.3142L66.3361 457.71H66.2649V463.441H65.3808V456.141H66.2363L70.2287 461.887H70.2999V456.141H71.1697ZM75.0488 463.556C73.566 463.556 72.5679 462.429 72.5679 460.732C72.5679 459.021 73.566 457.895 75.0488 457.895C76.5317 457.895 77.5298 459.021 77.5298 460.732C77.5298 462.429 76.5317 463.556 75.0488 463.556ZM75.0488 462.8C76.1752 462.8 76.6885 461.83 76.6885 460.732C76.6885 459.635 76.1752 458.651 75.0488 458.651C73.9224 458.651 73.4091 459.635 73.4091 460.732C73.4091 461.83 73.9224 462.8 75.0488 462.8ZM78.8139 463.441V457.966H79.6266V458.793H79.6837C79.8833 458.251 80.4536 457.881 81.1095 457.881C81.2343 457.881 81.4553 457.888 81.5515 457.895V458.75C81.4945 458.736 81.2628 458.693 81.0382 458.693C80.2397 458.693 79.6552 459.235 79.6552 459.977V463.441H78.8139ZM85.2729 457.966V458.679H84.1037V461.873C84.1037 462.586 84.4602 462.7 84.8309 462.7C85.0163 462.7 85.1303 462.672 85.2016 462.657L85.3727 463.413C85.2587 463.456 85.059 463.513 84.7454 463.513C84.0324 463.513 83.2625 463.056 83.2625 462.101V458.679H82.4355V457.966H83.2625V456.655H84.1037V457.966H85.2729ZM87.4972 460.148V463.441H86.656V456.141H87.4972V458.822H87.5685C87.8251 458.255 88.3171 457.895 89.1797 457.895C90.2989 457.895 91.0475 458.554 91.0475 459.962V463.441H90.2063V460.019C90.2063 459.15 89.7286 458.651 88.9373 458.651C88.1067 458.651 87.4972 459.193 87.4972 460.148ZM93.827 463.441L92.1588 457.966H93.0428L94.2262 462.158H94.2832L95.4524 457.966H96.3507L97.5056 462.144H97.5626L98.7461 457.966H99.6301L97.9619 463.441H97.1349L95.9372 459.235H95.8517L94.654 463.441H93.827ZM102.852 463.556C101.269 463.556 100.299 462.429 100.299 460.747C100.299 459.064 101.283 457.895 102.766 457.895C103.907 457.895 105.119 458.594 105.119 460.633V460.989H101.144C101.183 462.162 101.864 462.8 102.852 462.8C103.511 462.8 104.006 462.515 104.22 461.944L105.033 462.172C104.776 462.999 103.964 463.556 102.852 463.556ZM101.144 460.262H104.263C104.263 459.335 103.679 458.651 102.766 458.651C101.804 458.651 101.201 459.41 101.144 460.262ZM110.277 459.193L109.521 459.406C109.375 459.029 109.072 458.622 108.337 458.622C107.667 458.622 107.168 458.964 107.168 459.435C107.168 459.856 107.461 460.073 108.109 460.233L108.922 460.433C109.899 460.672 110.376 461.153 110.376 461.916C110.376 462.86 109.51 463.556 108.238 463.556C107.118 463.556 106.352 463.06 106.156 462.13L106.954 461.93C107.104 462.518 107.535 462.814 108.223 462.814C109.008 462.814 109.507 462.429 109.507 461.959C109.507 461.581 109.246 461.317 108.694 461.189L107.781 460.975C106.776 460.74 106.327 460.233 106.327 459.478C106.327 458.551 107.183 457.895 108.337 457.895C109.421 457.895 110.013 458.415 110.277 459.193ZM114.024 457.966V458.679H112.855V461.873C112.855 462.586 113.211 462.7 113.582 462.7C113.767 462.7 113.881 462.672 113.953 462.657L114.124 463.413C114.01 463.456 113.81 463.513 113.496 463.513C112.783 463.513 112.013 463.056 112.013 462.101V458.679H111.186V457.966H112.013V456.655H112.855V457.966H114.024ZM118.526 463.441H117.599L120.28 456.141H121.192L123.873 463.441H122.946L122.212 461.374H119.26L118.526 463.441ZM119.538 460.59H121.934L120.764 457.296H120.707L119.538 460.59ZM124.955 463.441V457.966H125.796V463.441H124.955ZM125.382 457.054C125.054 457.054 124.783 456.797 124.783 456.483C124.783 456.17 125.054 455.913 125.382 455.913C125.71 455.913 125.981 456.17 125.981 456.483C125.981 456.797 125.71 457.054 125.382 457.054ZM127.337 463.441V457.966H128.149V458.793H128.206C128.406 458.251 128.976 457.881 129.632 457.881C129.757 457.881 129.978 457.888 130.074 457.895V458.75C130.017 458.736 129.785 458.693 129.561 458.693C128.762 458.693 128.178 459.235 128.178 459.977V463.441H127.337Z" fill="#1B1340"/>
<path opacity="0.5" d="M211.565 450.156H212.302V454.505C212.302 455.672 211.624 456.323 210.567 456.323C209.569 456.323 208.844 455.749 208.844 454.814H209.569C209.569 455.33 209.988 455.669 210.567 455.669C211.203 455.669 211.565 455.262 211.565 454.505V450.156ZM215.026 456.346C214.158 456.346 213.469 455.835 213.469 454.944C213.469 453.899 214.393 453.712 215.239 453.602C216.071 453.495 216.416 453.524 216.416 453.186V453.162C216.416 452.577 216.098 452.235 215.453 452.235C214.785 452.235 214.42 452.592 214.265 452.924L213.6 452.687C213.956 451.855 214.74 451.617 215.43 451.617C216.012 451.617 217.117 451.784 217.117 453.233V456.239H216.416V455.622H216.38C216.237 455.919 215.822 456.346 215.026 456.346ZM215.132 455.717C215.964 455.717 216.416 455.158 216.416 454.588V453.946C216.297 454.089 215.501 454.172 215.204 454.208C214.657 454.279 214.17 454.445 214.17 454.98C214.17 455.467 214.574 455.717 215.132 455.717ZM219.097 453.495V456.239H218.396V451.677H219.074V452.39H219.133C219.347 451.926 219.775 451.617 220.464 451.617C221.388 451.617 222.008 452.176 222.008 453.34V456.239H221.307V453.388C221.307 452.672 220.912 452.247 220.262 452.247C219.59 452.247 219.097 452.699 219.097 453.495ZM227.769 450.156V456.239H227.032V450.928H226.997L225.511 451.914V451.166L227.032 450.156H227.769ZM231.503 456.323C230.16 456.323 229.388 455.185 229.388 453.198C229.388 451.225 230.172 450.073 231.503 450.073C232.834 450.073 233.618 451.225 233.618 453.198C233.618 455.185 232.845 456.323 231.503 456.323ZM231.503 455.669C232.388 455.669 232.905 454.781 232.905 453.198C232.905 451.617 232.382 450.714 231.503 450.714C230.623 450.714 230.101 451.617 230.101 453.198C230.101 454.781 230.618 455.669 231.503 455.669ZM235.592 455.408L235.544 455.728C235.443 456.406 235.14 457.321 234.997 457.725H234.463C234.54 457.347 234.709 456.545 234.796 455.74L234.831 455.408H235.592ZM239.231 456.239V455.705L241.239 453.507C241.943 452.737 242.273 452.321 242.273 451.76C242.273 451.118 241.768 450.714 241.109 450.714C240.404 450.714 239.956 451.175 239.956 451.867H239.255C239.255 450.797 240.066 450.073 241.132 450.073C242.202 450.073 242.962 450.821 242.962 451.76C242.962 452.434 242.653 452.957 241.608 454.077L240.241 455.538V455.586H243.069V456.239H239.231ZM246.28 456.323C244.937 456.323 244.165 455.185 244.165 453.198C244.165 451.225 244.949 450.073 246.28 450.073C247.611 450.073 248.395 451.225 248.395 453.198C248.395 455.185 247.623 456.323 246.28 456.323ZM246.28 455.669C247.165 455.669 247.682 454.781 247.682 453.198C247.682 451.617 247.159 450.714 246.28 450.714C245.401 450.714 244.878 451.617 244.878 453.198C244.878 454.781 245.395 455.669 246.28 455.669ZM249.524 456.239V455.705L251.532 453.507C252.236 452.737 252.566 452.321 252.566 451.76C252.566 451.118 252.061 450.714 251.401 450.714C250.697 450.714 250.249 451.175 250.249 451.867H249.548C249.548 450.797 250.359 450.073 251.425 450.073C252.494 450.073 253.255 450.821 253.255 451.76C253.255 452.434 252.946 452.957 251.9 454.077L250.534 455.538V455.586H253.362V456.239H249.524ZM256.644 456.323C255.465 456.323 254.621 455.675 254.577 454.718H255.325C255.37 455.307 255.928 455.669 256.632 455.669C257.413 455.669 257.975 455.232 257.975 454.588C257.975 453.916 257.461 453.447 256.537 453.447H256.05V452.794H256.537C257.259 452.794 257.761 452.378 257.761 451.736C257.761 451.121 257.327 450.714 256.656 450.714C256.023 450.714 255.447 451.071 255.42 451.677H254.707C254.743 450.72 255.616 450.073 256.668 450.073C257.794 450.073 258.474 450.839 258.474 451.7C258.474 452.387 258.091 452.892 257.476 453.079V453.126C258.242 453.254 258.7 453.815 258.7 454.588C258.7 455.583 257.823 456.323 256.644 456.323Z" fill="#1B1340"/>
<path opacity="0.5" d="M64.7535 474.141H65.7658L67.7905 477.549H67.876L69.9007 474.141H70.913L68.2753 478.433V481.441H67.3913V478.433L64.7535 474.141ZM73.3922 481.556C71.9093 481.556 70.9113 480.429 70.9113 478.732C70.9113 477.021 71.9093 475.895 73.3922 475.895C74.8751 475.895 75.8731 477.021 75.8731 478.732C75.8731 480.429 74.8751 481.556 73.3922 481.556ZM73.3922 480.8C74.5186 480.8 75.0319 479.83 75.0319 478.732C75.0319 477.635 74.5186 476.651 73.3922 476.651C72.2658 476.651 71.7525 477.635 71.7525 478.732C71.7525 479.83 72.2658 480.8 73.3922 480.8ZM80.6078 479.203V475.966H81.449V481.441H80.6078V480.515H80.5507C80.2941 481.071 79.7523 481.513 78.9253 481.513C77.8987 481.513 77.1573 480.843 77.1573 479.445V475.966H77.9985V479.388C77.9985 480.187 78.4976 480.7 79.1962 480.7C79.8236 480.7 80.6078 480.23 80.6078 479.203ZM82.9898 481.441V475.966H83.8025V476.793H83.8596C84.0592 476.251 84.6295 475.881 85.2854 475.881C85.4101 475.881 85.6311 475.888 85.7274 475.895V476.75C85.6704 476.736 85.4387 476.693 85.2141 476.693C84.4156 476.693 83.831 477.235 83.831 477.977V481.441H82.9898ZM92.9982 479.203V475.966H93.8395V481.441H92.9982V480.515H92.9412C92.6845 481.071 92.1427 481.513 91.3157 481.513C90.2891 481.513 89.5477 480.843 89.5477 479.445V475.966H90.389V479.388C90.389 480.187 90.888 480.7 91.5867 480.7C92.214 480.7 92.9982 480.23 92.9982 479.203ZM95.3802 483.495V475.966H96.193V476.836H96.2928C96.4781 476.551 96.8061 475.895 97.8754 475.895C99.2585 475.895 100.214 476.993 100.214 478.718C100.214 480.458 99.2585 481.556 97.8897 481.556C96.8346 481.556 96.4781 480.9 96.2928 480.6H96.2215V483.495H95.3802ZM96.2072 478.704C96.2072 479.944 96.7633 480.8 97.7756 480.8C98.8307 480.8 99.3726 479.873 99.3726 478.704C99.3726 477.549 98.845 476.651 97.7756 476.651C96.749 476.651 96.2072 477.478 96.2072 478.704ZM103.721 481.556C102.181 481.556 101.24 480.372 101.24 478.732C101.24 477.064 102.224 475.895 103.707 475.895C104.862 475.895 105.732 476.579 105.874 477.606H105.033C104.905 477.107 104.463 476.651 103.721 476.651C102.738 476.651 102.082 477.463 102.082 478.704C102.082 479.973 102.723 480.8 103.721 480.8C104.377 480.8 104.876 480.443 105.033 479.845H105.874C105.732 480.814 104.933 481.556 103.721 481.556ZM109.328 481.556C107.846 481.556 106.847 480.429 106.847 478.732C106.847 477.021 107.846 475.895 109.328 475.895C110.811 475.895 111.809 477.021 111.809 478.732C111.809 480.429 110.811 481.556 109.328 481.556ZM109.328 480.8C110.455 480.8 110.968 479.83 110.968 478.732C110.968 477.635 110.455 476.651 109.328 476.651C108.202 476.651 107.689 477.635 107.689 478.732C107.689 479.83 108.202 480.8 109.328 480.8ZM113.093 481.441V475.966H113.906V476.822H113.977C114.206 476.237 114.733 475.895 115.446 475.895C116.166 475.895 116.644 476.237 116.915 476.822H116.972C117.253 476.255 117.827 475.895 118.611 475.895C119.588 475.895 120.28 476.49 120.28 477.777V481.441H119.438V477.777C119.438 476.968 118.925 476.651 118.326 476.651C117.556 476.651 117.114 477.171 117.114 477.877V481.441H116.259V477.692C116.259 477.068 115.813 476.651 115.175 476.651C114.519 476.651 113.935 477.217 113.935 478.019V481.441H113.093ZM121.818 481.441V475.966H122.659V481.441H121.818ZM122.245 475.054C121.918 475.054 121.647 474.797 121.647 474.483C121.647 474.17 121.918 473.913 122.245 473.913C122.573 473.913 122.844 474.17 122.844 474.483C122.844 474.797 122.573 475.054 122.245 475.054ZM125.041 478.148V481.441H124.2V475.966H125.012V476.822H125.084C125.34 476.266 125.854 475.895 126.681 475.895C127.789 475.895 128.534 476.565 128.534 477.962V481.441H127.693V478.019C127.693 477.16 127.219 476.651 126.438 476.651C125.633 476.651 125.041 477.193 125.041 478.148ZM132.282 483.609C131.059 483.609 130.385 483.085 130.043 482.511L130.713 482.04C130.938 482.343 131.287 482.867 132.282 482.867C133.166 482.867 133.807 482.454 133.807 481.541V480.429H133.736C133.551 480.729 133.208 481.356 132.139 481.356C130.813 481.356 129.815 480.386 129.815 478.675C129.815 476.993 130.77 475.895 132.153 475.895C133.223 475.895 133.565 476.551 133.75 476.836H133.836V475.966H134.648V481.598C134.648 483.01 133.593 483.609 132.282 483.609ZM132.253 480.6C133.265 480.6 133.821 479.873 133.821 478.661C133.821 477.478 133.28 476.651 132.253 476.651C131.184 476.651 130.656 477.549 130.656 478.661C130.656 479.802 131.198 480.6 132.253 480.6ZM141.45 475.966V476.679H140.223V481.441H139.382V476.679H138.498V475.966H139.382V475.211C139.382 474.27 140.138 473.799 140.922 473.799C141.336 473.799 141.592 473.885 141.721 473.942L141.478 474.669C141.393 474.64 141.25 474.583 141.008 474.583C140.452 474.583 140.223 474.868 140.223 475.41V475.966H141.45ZM143.47 474.141V481.441H142.629V474.141H143.47ZM145.011 481.441V475.966H145.852V481.441H145.011ZM145.438 475.054C145.11 475.054 144.84 474.797 144.84 474.483C144.84 474.17 145.11 473.913 145.438 473.913C145.766 473.913 146.037 474.17 146.037 474.483C146.037 474.797 145.766 475.054 145.438 475.054ZM149.603 483.609C148.38 483.609 147.706 483.085 147.364 482.511L148.034 482.04C148.259 482.343 148.608 482.867 149.603 482.867C150.487 482.867 151.128 482.454 151.128 481.541V480.429H151.057C150.872 480.729 150.529 481.356 149.46 481.356C148.134 481.356 147.136 480.386 147.136 478.675C147.136 476.993 148.091 475.895 149.474 475.895C150.544 475.895 150.886 476.551 151.071 476.836H151.157V475.966H151.97V481.598C151.97 483.01 150.914 483.609 149.603 483.609ZM149.574 480.6C150.586 480.6 151.143 479.873 151.143 478.661C151.143 477.478 150.601 476.651 149.574 476.651C148.505 476.651 147.977 477.549 147.977 478.661C147.977 479.802 148.519 480.6 149.574 480.6ZM154.351 478.148V481.441H153.509V474.141H154.351V476.822H154.422C154.679 476.255 155.171 475.895 156.033 475.895C157.152 475.895 157.901 476.554 157.901 477.962V481.441H157.06V478.019C157.06 477.15 156.582 476.651 155.791 476.651C154.96 476.651 154.351 477.193 154.351 478.148ZM161.821 475.966V476.679H160.652V479.873C160.652 480.586 161.008 480.7 161.379 480.7C161.564 480.7 161.679 480.672 161.75 480.657L161.921 481.413C161.807 481.456 161.607 481.513 161.294 481.513C160.581 481.513 159.811 481.056 159.811 480.101V476.679H158.984V475.966H159.811V474.655H160.652V475.966H161.821ZM168.291 475.966V476.679H167.122V479.873C167.122 480.586 167.478 480.7 167.849 480.7C168.034 480.7 168.148 480.672 168.22 480.657L168.391 481.413C168.277 481.456 168.077 481.513 167.763 481.513C167.05 481.513 166.28 481.056 166.28 480.101V476.679H165.453V475.966H166.28V474.655H167.122V475.966H168.291ZM171.722 481.556C170.239 481.556 169.241 480.429 169.241 478.732C169.241 477.021 170.239 475.895 171.722 475.895C173.205 475.895 174.203 477.021 174.203 478.732C174.203 480.429 173.205 481.556 171.722 481.556ZM171.722 480.8C172.848 480.8 173.361 479.83 173.361 478.732C173.361 477.635 172.848 476.651 171.722 476.651C170.595 476.651 170.082 477.635 170.082 478.732C170.082 479.83 170.595 480.8 171.722 480.8ZM184.213 474.141V481.441H183.357L179.379 475.71H179.308V481.441H178.424V474.141H179.279L183.272 479.887H183.343V474.141H184.213ZM188.163 481.556C186.581 481.556 185.611 480.429 185.611 478.747C185.611 477.064 186.595 475.895 188.078 475.895C189.218 475.895 190.43 476.594 190.43 478.633V478.989H186.456C186.495 480.162 187.176 480.8 188.163 480.8C188.823 480.8 189.318 480.515 189.532 479.944L190.345 480.172C190.088 480.999 189.275 481.556 188.163 481.556ZM186.456 478.262H189.575C189.575 477.335 188.99 476.651 188.078 476.651C187.115 476.651 186.513 477.41 186.456 478.262ZM192.95 481.441L191.282 475.966H192.166L193.35 480.158H193.407L194.576 475.966H195.474L196.629 480.144H196.686L197.87 475.966H198.754L197.085 481.441H196.258L195.061 477.235H194.975L193.777 481.441H192.95ZM202.176 474.141H203.188L205.213 477.549H205.298L207.323 474.141H208.335L205.697 478.433V481.441H204.813V478.433L202.176 474.141ZM210.814 481.556C209.331 481.556 208.333 480.429 208.333 478.732C208.333 477.021 209.331 475.895 210.814 475.895C212.297 475.895 213.295 477.021 213.295 478.732C213.295 480.429 212.297 481.556 210.814 481.556ZM210.814 480.8C211.941 480.8 212.454 479.83 212.454 478.732C212.454 477.635 211.941 476.651 210.814 476.651C209.688 476.651 209.175 477.635 209.175 478.732C209.175 479.83 209.688 480.8 210.814 480.8ZM214.579 481.441V475.966H215.392V476.793H215.449C215.649 476.251 216.219 475.881 216.875 475.881C217 475.881 217.221 475.888 217.317 475.895V476.75C217.26 476.736 217.028 476.693 216.804 476.693C216.005 476.693 215.421 477.235 215.421 477.977V481.441H214.579ZM218.314 481.441V474.141H219.155V478.404H219.255L221.651 475.966H222.691L220.378 478.305L222.863 481.441H221.793L219.744 478.846L219.155 479.392V481.441H218.314Z" fill="#1B1340"/>
</g>
<rect x="10.8027" y="443.399" width="264.58" height="49.4883" rx="7.3911" stroke="url(#paint5_linear_22323_11284)" stroke-width="0.642705"/>
</g>
<path d="M154 58.0409L153.759 58.2818C153.892 58.4148 154.108 58.4148 154.241 58.2818L154 58.0409ZM160.984 51.5386C161.117 51.4056 161.117 51.19 160.984 51.057C160.851 50.924 160.635 50.924 160.502 51.057L160.984 51.5386ZM147.016 51.5386L153.759 58.2818L154.241 57.8001L147.498 51.057L147.016 51.5386ZM154.241 58.2818L160.984 51.5386L160.502 51.057L153.759 57.8001L154.241 58.2818Z" fill="white"/>
<path d="M154 54.6353L153.759 54.8762C153.892 55.0091 154.108 55.0091 154.241 54.8762L154 54.6353ZM160.984 48.133C161.117 48 161.117 47.7844 160.984 47.6514C160.851 47.5184 160.635 47.5184 160.502 47.6514L160.984 48.133ZM147.016 48.133L153.759 54.8762L154.241 54.3945L147.498 47.6514L147.016 48.133ZM154.241 54.8762L160.984 48.133L160.502 47.6514L153.759 54.3945L154.241 54.8762Z" fill="white" fill-opacity="0.5"/>
<path d="M154 51.2297L153.759 51.4705C153.892 51.6035 154.108 51.6035 154.241 51.4705L154 51.2297ZM160.984 44.7274C161.117 44.5944 161.117 44.3788 160.984 44.2458C160.851 44.1128 160.635 44.1128 160.502 44.2458L160.984 44.7274ZM147.016 44.7274L153.759 51.4705L154.241 50.9889L147.498 44.2458L147.016 44.7274ZM154.241 51.4705L160.984 44.7274L160.502 44.2458L153.759 50.9889L154.241 51.4705Z" fill="white" fill-opacity="0.1"/>
<g filter="url(#filter1_bi_22323_11284)">
<rect x="44" y="68.0001" width="220" height="36.4062" rx="8.34736" fill="url(#paint6_linear_22323_11284)"/>
</g>
<rect x="50.9896" y="73.6053" width="24.5716" height="24.5716" rx="6.88639" fill="#26333D"/>
<path fill-rule="evenodd" clip-rule="evenodd" d="M64.4108 81.95C65.1761 81.6199 66.0547 82.0552 66.2556 82.8641L66.9234 85.5532H67.6652C67.8516 85.5532 68.0027 85.7043 68.0027 85.8907C68.0027 86.077 67.8516 86.2281 67.6652 86.2281H58.8912C58.7048 86.2281 58.5537 86.077 58.5537 85.8907C58.5537 85.7043 58.7048 85.5532 58.8912 85.5532H59.6329L60.3008 82.8641C60.5016 82.0552 61.3803 81.6199 62.1455 81.95L62.8771 82.2656C63.1331 82.3761 63.4233 82.3761 63.6792 82.2656L64.4108 81.95ZM65.6006 83.0268C65.5002 82.6223 65.0608 82.4046 64.6782 82.5697L63.9466 82.8854C63.52 83.0694 63.0364 83.0694 62.6098 82.8854L61.8782 82.5697C61.4956 82.4046 61.0562 82.6223 60.9558 83.0268L60.3351 85.5261H66.2213L65.6006 83.0268Z" fill="#6ABDB3"/>
<path fill-rule="evenodd" clip-rule="evenodd" d="M62.3141 87.3081C62.0108 86.86 61.4978 86.5656 60.916 86.5656C59.9841 86.5656 59.2286 87.321 59.2286 88.2529C59.2286 89.1848 59.9841 89.9402 60.916 89.9402C61.8478 89.9402 62.6033 89.1848 62.6033 88.2529C62.6033 87.8801 62.9054 87.578 63.2782 87.578C63.6509 87.578 63.9531 87.8801 63.9531 88.2529C63.9531 89.1848 64.7086 89.9402 65.6404 89.9402C66.5723 89.9402 67.3277 89.1848 67.3277 88.2529C67.3277 87.321 66.5723 86.5656 65.6404 86.5656C65.0586 86.5656 64.5456 86.86 64.2422 87.3081C63.9973 87.0581 63.6558 86.903 63.2782 86.903C62.9005 86.903 62.5591 87.0581 62.3141 87.3081ZM61.9283 88.2529C61.9283 88.812 61.4751 89.2653 60.916 89.2653C60.3568 89.2653 59.9036 88.812 59.9036 88.2529C59.9036 87.6938 60.3568 87.2405 60.916 87.2405C61.4751 87.2405 61.9283 87.6938 61.9283 88.2529ZM64.628 88.2529C64.628 88.812 65.0813 89.2653 65.6404 89.2653C66.1996 89.2653 66.6528 88.812 66.6528 88.2529C66.6528 87.6938 66.1996 87.2405 65.6404 87.2405C65.0813 87.2405 64.628 87.6938 64.628 88.2529Z" fill="#6ABDB3"/>
<path d="M89.348 90.324C88.1362 90.324 87.1734 89.6102 87.1734 88.3652C87.1734 86.9044 88.4641 86.6429 89.6468 86.4894C90.8088 86.34 91.2902 86.3815 91.2902 85.9084V85.8752C91.2902 85.0576 90.8462 84.5804 89.9456 84.5804C89.0119 84.5804 88.5014 85.0784 88.2856 85.5432L87.356 85.2112C87.854 84.0492 88.9496 83.7172 89.9124 83.7172C90.7258 83.7172 92.2697 83.9496 92.2697 85.9748V90.1746H91.2902V89.3114H91.2404C91.0412 89.7264 90.4602 90.324 89.348 90.324ZM89.4974 89.4442C90.6594 89.4442 91.2902 88.664 91.2902 87.8672V86.9708C91.1242 87.17 90.012 87.2862 89.597 87.336C88.8334 87.4356 88.1528 87.668 88.1528 88.415C88.1528 89.0956 88.7172 89.4442 89.4974 89.4442ZM94.0573 90.1746V83.8002H95.0035V84.7962H95.0865C95.3521 84.1156 95.9663 83.7172 96.7963 83.7172C97.6346 83.7172 98.1907 84.1156 98.5061 84.7962H98.5725C98.9004 84.1363 99.5685 83.7172 100.482 83.7172C101.619 83.7172 102.424 84.4102 102.424 85.9084V90.1746H101.444V85.9084C101.444 84.9663 100.847 84.597 100.15 84.597C99.2531 84.597 98.7385 85.2029 98.7385 86.0246V90.1746H97.7425V85.8088C97.7425 85.0825 97.2238 84.597 96.4809 84.597C95.7173 84.597 95.0367 85.2568 95.0367 86.1906V90.1746H94.0573ZM106.09 90.324C104.878 90.324 103.916 89.6102 103.916 88.3652C103.916 86.9044 105.206 86.6429 106.389 86.4894C107.551 86.34 108.033 86.3815 108.033 85.9084V85.8752C108.033 85.0576 107.588 84.5804 106.688 84.5804C105.754 84.5804 105.244 85.0784 105.028 85.5432L104.098 85.2112C104.596 84.0492 105.692 83.7172 106.655 83.7172C107.468 83.7172 109.012 83.9496 109.012 85.9748V90.1746H108.033V89.3114H107.983C107.784 89.7264 107.203 90.324 106.09 90.324ZM106.24 89.4442C107.402 89.4442 108.033 88.664 108.033 87.8672V86.9708C107.867 87.17 106.754 87.2862 106.339 87.336C105.576 87.4356 104.895 87.668 104.895 88.415C104.895 89.0956 105.46 89.4442 106.24 89.4442ZM110.617 90.1746V89.4276L114.236 84.7796V84.7132H110.733V83.8002H115.497V84.5804L111.978 89.1952V89.2616H115.614V90.1746H110.617ZM119.529 90.3074C117.803 90.3074 116.641 88.996 116.641 87.0206C116.641 85.0286 117.803 83.7172 119.529 83.7172C121.256 83.7172 122.418 85.0286 122.418 87.0206C122.418 88.996 121.256 90.3074 119.529 90.3074ZM119.529 89.4276C120.841 89.4276 121.438 88.2988 121.438 87.0206C121.438 85.7424 120.841 84.597 119.529 84.597C118.218 84.597 117.62 85.7424 117.62 87.0206C117.62 88.2988 118.218 89.4276 119.529 89.4276ZM124.892 86.34V90.1746H123.913V83.8002H124.859V84.7962H124.942C125.241 84.1488 125.838 83.7172 126.801 83.7172C128.092 83.7172 128.959 84.4974 128.959 86.1242V90.1746H127.98V86.1906C127.98 85.1904 127.428 84.597 126.519 84.597C125.581 84.597 124.892 85.2278 124.892 86.34ZM131.463 90.241C131.052 90.241 130.716 89.9049 130.716 89.494C130.716 89.0832 131.052 88.747 131.463 88.747C131.873 88.747 132.21 89.0832 132.21 89.494C132.21 89.9049 131.873 90.241 131.463 90.241ZM136.503 90.2908C134.855 90.2908 133.677 89.3861 133.614 88.0498H134.66C134.722 88.8715 135.503 89.3778 136.486 89.3778C137.578 89.3778 138.362 88.7678 138.362 87.8672C138.362 86.9293 137.644 86.2736 136.353 86.2736H135.673V85.3606H136.353C137.362 85.3606 138.063 84.7796 138.063 83.8832C138.063 83.0241 137.457 82.4556 136.519 82.4556C135.635 82.4556 134.83 82.9536 134.793 83.8002H133.797C133.847 82.4639 135.067 81.5592 136.536 81.5592C138.109 81.5592 139.059 82.6299 139.059 83.8334C139.059 84.792 138.524 85.4975 137.665 85.759V85.8254C138.736 86.0038 139.375 86.7882 139.375 87.8672C139.375 89.2575 138.15 90.2908 136.503 90.2908ZM141.072 90.1746V89.4276L143.877 86.3566C144.861 85.2817 145.322 84.7007 145.322 83.9164C145.322 83.02 144.616 82.4556 143.695 82.4556C142.711 82.4556 142.085 83.0988 142.085 84.0658H141.105C141.105 82.5718 142.238 81.5592 143.728 81.5592C145.222 81.5592 146.284 82.605 146.284 83.9164C146.284 84.8584 145.853 85.5888 144.392 87.1534L142.483 89.1952V89.2616H146.434V90.1746H141.072ZM150.04 90.324C148.828 90.324 147.866 89.6102 147.866 88.3652C147.866 86.9044 149.156 86.6429 150.339 86.4894C151.501 86.34 151.982 86.3815 151.982 85.9084V85.8752C151.982 85.0576 151.538 84.5804 150.638 84.5804C149.704 84.5804 149.194 85.0784 148.978 85.5432L148.048 85.2112C148.546 84.0492 149.642 83.7172 150.605 83.7172C151.418 83.7172 152.962 83.9496 152.962 85.9748V90.1746H151.982V89.3114H151.933C151.733 89.7264 151.152 90.324 150.04 90.324ZM150.19 89.4442C151.352 89.4442 151.982 88.664 151.982 87.8672V86.9708C151.816 87.17 150.704 87.2862 150.289 87.336C149.526 87.4356 148.845 87.668 148.845 88.415C148.845 89.0956 149.409 89.4442 150.19 89.4442ZM157.339 90.3074C155.546 90.3074 154.451 88.9296 154.451 87.0206C154.451 85.0784 155.596 83.7172 157.322 83.7172C158.667 83.7172 159.68 84.514 159.846 85.7092H158.866C158.717 85.1282 158.202 84.597 157.339 84.597C156.194 84.597 155.43 85.5432 155.43 86.9874C155.43 88.4648 156.177 89.4276 157.339 89.4276C158.103 89.4276 158.684 89.0126 158.866 88.3154H159.846C159.68 89.4442 158.75 90.3074 157.339 90.3074ZM163.684 90.3074C162.091 90.3074 160.979 89.0292 160.979 87.004C160.979 84.9954 162.091 83.7172 163.701 83.7172C164.946 83.7172 165.328 84.4808 165.544 84.8128H165.627V81.6754H166.606V90.1746H165.66V89.1952H165.544C165.328 89.5438 164.913 90.3074 163.684 90.3074ZM163.817 89.4276C164.996 89.4276 165.643 88.4316 165.643 86.9874C165.643 85.5598 165.013 84.597 163.817 84.597C162.572 84.597 161.958 85.6428 161.958 86.9874C161.958 88.3486 162.589 89.4276 163.817 89.4276ZM173.433 92.4156C170.047 92.4156 168.204 90.5232 168.204 87.17C168.204 83.933 170.113 81.9908 173.317 81.9908C176.421 81.9908 178.015 84.2318 178.015 86.506C178.015 88.1162 177.849 90.0086 176.089 90.0086C175.508 90.0086 174.612 89.7596 174.512 89.0458H174.462C174.263 89.5272 173.765 89.992 172.819 89.9588C171.375 89.909 170.628 88.6972 170.628 87.1202C170.628 85.6262 171.574 84.597 172.819 84.4642C173.649 84.3812 174.296 84.6966 174.412 85.0618H174.462V84.597H175.342V88.3486C175.342 88.8134 175.608 89.2284 176.106 89.2284C176.952 89.2284 177.151 88.3818 177.151 86.4894C177.151 84.6302 175.906 82.771 173.267 82.771C170.661 82.771 169.117 84.431 169.117 87.2032C169.117 90.0252 170.628 91.6188 173.466 91.6188C174.379 91.6188 175.342 91.2868 175.641 91.1872L175.873 91.9508C175.359 92.1666 174.28 92.4156 173.433 92.4156ZM172.952 89.1122C174.064 89.1122 174.512 88.4482 174.512 87.0704C174.512 85.676 173.981 85.2776 172.985 85.2776C172.039 85.2776 171.491 86.1076 171.491 87.0704C171.491 88.1328 171.873 89.1122 172.952 89.1122ZM179.481 92.565V83.8002H180.427V84.8128H180.543C180.759 84.4808 181.141 83.7172 182.386 83.7172C183.996 83.7172 185.108 84.9954 185.108 87.004C185.108 89.0292 183.996 90.3074 182.402 90.3074C181.174 90.3074 180.759 89.5438 180.543 89.1952H180.46V92.565H179.481ZM180.443 86.9874C180.443 88.4316 181.091 89.4276 182.269 89.4276C183.498 89.4276 184.129 88.3486 184.129 86.9874C184.129 85.6428 183.514 84.597 182.269 84.597C181.074 84.597 180.443 85.5598 180.443 86.9874ZM188.478 90.324C187.266 90.324 186.303 89.6102 186.303 88.3652C186.303 86.9044 187.594 86.6429 188.777 86.4894C189.939 86.34 190.42 86.3815 190.42 85.9084V85.8752C190.42 85.0576 189.976 84.5804 189.075 84.5804C188.142 84.5804 187.631 85.0784 187.415 85.5432L186.486 85.2112C186.984 84.0492 188.079 83.7172 189.042 83.7172C189.856 83.7172 191.399 83.9496 191.399 85.9748V90.1746H190.42V89.3114H190.37C190.171 89.7264 189.59 90.324 188.478 90.324ZM188.627 89.4442C189.789 89.4442 190.42 88.664 190.42 87.8672V86.9708C190.254 87.17 189.142 87.2862 188.727 87.336C187.963 87.4356 187.283 87.668 187.283 88.415C187.283 89.0956 187.847 89.4442 188.627 89.4442ZM197.702 85.2278L196.823 85.4768C196.652 85.0369 196.3 84.5638 195.445 84.5638C194.665 84.5638 194.084 84.9622 194.084 85.51C194.084 85.9997 194.424 86.2528 195.179 86.4396L196.125 86.672C197.262 86.95 197.819 87.5103 197.819 88.3984C197.819 89.4982 196.81 90.3074 195.329 90.3074C194.025 90.3074 193.133 89.7306 192.905 88.6474L193.835 88.415C194.009 89.0998 194.511 89.4442 195.312 89.4442C196.225 89.4442 196.806 88.996 196.806 88.4482C196.806 88.0083 196.503 87.7012 195.86 87.5518L194.797 87.3028C193.627 87.0289 193.104 86.4396 193.104 85.5598C193.104 84.4808 194.1 83.7172 195.445 83.7172C196.706 83.7172 197.395 84.3231 197.702 85.2278ZM203.808 85.2278L202.928 85.4768C202.758 85.0369 202.405 84.5638 201.55 84.5638C200.77 84.5638 200.189 84.9622 200.189 85.51C200.189 85.9997 200.53 86.2528 201.285 86.4396L202.231 86.672C203.368 86.95 203.924 87.5103 203.924 88.3984C203.924 89.4982 202.916 90.3074 201.434 90.3074C200.131 90.3074 199.239 89.7306 199.011 88.6474L199.94 88.415C200.115 89.0998 200.617 89.4442 201.418 89.4442C202.331 89.4442 202.912 88.996 202.912 88.4482C202.912 88.0083 202.609 87.7012 201.965 87.5518L200.903 87.3028C199.733 87.0289 199.21 86.4396 199.21 85.5598C199.21 84.4808 200.206 83.7172 201.55 83.7172C202.812 83.7172 203.501 84.3231 203.808 85.2278ZM205.399 90.1746V83.8002H206.345V84.7962H206.428C206.693 84.1156 207.308 83.7172 208.138 83.7172C208.976 83.7172 209.532 84.1156 209.847 84.7962H209.914C210.242 84.1363 210.91 83.7172 211.823 83.7172C212.96 83.7172 213.765 84.4102 213.765 85.9084V90.1746H212.786V85.9084C212.786 84.9663 212.188 84.597 211.491 84.597C210.594 84.597 210.08 85.2029 210.08 86.0246V90.1746H209.084V85.8088C209.084 85.0825 208.565 84.597 207.822 84.597C207.059 84.597 206.378 85.2568 206.378 86.1906V90.1746H205.399ZM217.432 90.324C216.22 90.324 215.257 89.6102 215.257 88.3652C215.257 86.9044 216.548 86.6429 217.73 86.4894C218.892 86.34 219.374 86.3815 219.374 85.9084V85.8752C219.374 85.0576 218.93 84.5804 218.029 84.5804C217.095 84.5804 216.585 85.0784 216.369 85.5432L215.44 85.2112C215.938 84.0492 217.033 83.7172 217.996 83.7172C218.809 83.7172 220.353 83.9496 220.353 85.9748V90.1746H219.374V89.3114H219.324C219.125 89.7264 218.544 90.324 217.432 90.324ZM217.581 89.4442C218.743 89.4442 219.374 88.664 219.374 87.8672V86.9708C219.208 87.17 218.096 87.2862 217.681 87.336C216.917 87.4356 216.236 87.668 216.236 88.415C216.236 89.0956 216.801 89.4442 217.581 89.4442ZM222.141 90.1746V83.8002H223.12V90.1746H222.141ZM222.639 82.7378C222.257 82.7378 221.942 82.439 221.942 82.0738C221.942 81.7086 222.257 81.4098 222.639 81.4098C223.021 81.4098 223.336 81.7086 223.336 82.0738C223.336 82.439 223.021 82.7378 222.639 82.7378ZM225.894 81.6754V90.1746H224.914V81.6754H225.894ZM228.401 90.241C227.99 90.241 227.654 89.9049 227.654 89.494C227.654 89.0832 227.99 88.747 228.401 88.747C228.812 88.747 229.148 89.0832 229.148 89.494C229.148 89.9049 228.812 90.241 228.401 90.241ZM233.495 90.3074C231.703 90.3074 230.607 88.9296 230.607 87.0206C230.607 85.0784 231.752 83.7172 233.479 83.7172C234.823 83.7172 235.836 84.514 236.002 85.7092H235.023C234.873 85.1282 234.359 84.597 233.495 84.597C232.35 84.597 231.586 85.5432 231.586 86.9874C231.586 88.4648 232.333 89.4276 233.495 89.4276C234.259 89.4276 234.84 89.0126 235.023 88.3154H236.002C235.836 89.4442 234.906 90.3074 233.495 90.3074ZM240.023 90.3074C238.297 90.3074 237.135 88.996 237.135 87.0206C237.135 85.0286 238.297 83.7172 240.023 83.7172C241.75 83.7172 242.912 85.0286 242.912 87.0206C242.912 88.996 241.75 90.3074 240.023 90.3074ZM240.023 89.4276C241.335 89.4276 241.932 88.2988 241.932 87.0206C241.932 85.7424 241.335 84.597 240.023 84.597C238.712 84.597 238.114 85.7424 238.114 87.0206C238.114 88.2988 238.712 89.4276 240.023 89.4276ZM244.407 90.1746V83.8002H245.353V84.7962H245.436C245.702 84.1156 246.316 83.7172 247.146 83.7172C247.984 83.7172 248.54 84.1156 248.856 84.7962H248.922C249.25 84.1363 249.918 83.7172 250.831 83.7172C251.968 83.7172 252.773 84.4102 252.773 85.9084V90.1746H251.794V85.9084C251.794 84.9663 251.196 84.597 250.499 84.597C249.603 84.597 249.088 85.2029 249.088 86.0246V90.1746H248.092V85.8088C248.092 85.0825 247.573 84.597 246.83 84.597C246.067 84.597 245.386 85.2568 245.386 86.1906V90.1746H244.407Z" fill="black"/>
<path d="M154 127.92L153.759 128.161C153.892 128.294 154.108 128.294 154.241 128.161L154 127.92ZM160.984 121.417C161.117 121.284 161.117 121.069 160.984 120.936C160.851 120.803 160.635 120.803 160.502 120.936L160.984 121.417ZM147.016 121.417L153.759 128.161L154.241 127.679L147.498 120.936L147.016 121.417ZM154.241 128.161L160.984 121.417L160.502 120.936L153.759 127.679L154.241 128.161Z" fill="white"/>
<path d="M154 124.514L153.759 124.755C153.892 124.888 154.108 124.888 154.241 124.755L154 124.514ZM160.984 118.012C161.117 117.879 161.117 117.663 160.984 117.53C160.851 117.397 160.635 117.397 160.502 117.53L160.984 118.012ZM147.016 118.012L153.759 124.755L154.241 124.273L147.498 117.53L147.016 118.012ZM154.241 124.755L160.984 118.012L160.502 117.53L153.759 124.273L154.241 124.755Z" fill="white" fill-opacity="0.5"/>
<path d="M154 121.109L153.759 121.349C153.892 121.482 154.108 121.482 154.241 121.349L154 121.109ZM160.984 114.606C161.117 114.473 161.117 114.258 160.984 114.125C160.851 113.992 160.635 113.992 160.502 114.125L160.984 114.606ZM147.016 114.606L153.759 121.349L154.241 120.868L147.498 114.125L147.016 114.606ZM154.241 121.349L160.984 114.606L160.502 114.125L153.759 120.868L154.241 121.349Z" fill="white" fill-opacity="0.1"/>
<g filter="url(#filter2_bdddddi_22323_11284)">
<rect width="57.282" height="28.1106" rx="14.0553" transform="matrix(-1 0 0 1 182.641 138.098)" fill="url(#paint7_linear_22323_11284)"/>
</g>
<g filter="url(#filter3_dddddd_22323_11284)">
<rect x="152.984" y="143.964" width="23.5129" height="23.1274" rx="11.5637" transform="rotate(-15 152.984 143.964)" fill="url(#paint8_linear_22323_11284)"/>
</g>
<g filter="url(#filter4_ddddd_22323_11284)">
<path fill-rule="evenodd" clip-rule="evenodd" d="M164.306 151.288V150.094C164.306 149.303 164.645 148.544 165.249 147.985C165.853 147.425 166.672 147.111 167.526 147.111C168.38 147.111 169.199 147.425 169.803 147.985C170.407 148.544 170.746 149.303 170.746 150.094V151.288C171.088 151.288 171.416 151.413 171.657 151.637C171.899 151.861 172.034 152.164 172.034 152.481V155.464C172.034 155.781 171.899 156.084 171.657 156.308C171.416 156.532 171.088 156.658 170.746 156.658H164.306C163.964 156.658 163.637 156.532 163.395 156.308C163.154 156.084 163.018 155.781 163.018 155.464V152.481C163.018 152.164 163.154 151.861 163.395 151.637C163.637 151.413 163.964 151.288 164.306 151.288ZM169.458 150.094V151.288H165.594V150.094C165.594 149.619 165.798 149.164 166.16 148.828C166.522 148.493 167.014 148.304 167.526 148.304C168.039 148.304 168.53 148.493 168.892 148.828C169.255 149.164 169.458 149.619 169.458 150.094Z" fill="#5C3BE7"/>
</g>
<path d="M154 189.817L153.759 190.058C153.892 190.191 154.108 190.191 154.241 190.058L154 189.817ZM160.984 183.315C161.117 183.182 161.117 182.966 160.984 182.833C160.851 182.7 160.635 182.7 160.502 182.833L160.984 183.315ZM147.016 183.315L153.759 190.058L154.241 189.577L147.498 182.833L147.016 183.315ZM154.241 190.058L160.984 183.315L160.502 182.833L153.759 189.577L154.241 190.058Z" fill="white"/>
<path d="M154 186.412L153.759 186.653C153.892 186.786 154.108 186.786 154.241 186.653L154 186.412ZM160.984 179.909C161.117 179.776 161.117 179.561 160.984 179.428C160.851 179.295 160.635 179.295 160.502 179.428L160.984 179.909ZM147.016 179.909L153.759 186.653L154.241 186.171L147.498 179.428L147.016 179.909ZM154.241 186.653L160.984 179.909L160.502 179.428L153.759 186.171L154.241 186.653Z" fill="white" fill-opacity="0.5"/>
<path d="M154 183.006L153.759 183.247C153.892 183.38 154.108 183.38 154.241 183.247L154 183.006ZM160.984 176.504C161.117 176.371 161.117 176.155 160.984 176.022C160.851 175.889 160.635 175.889 160.502 176.022L160.984 176.504ZM147.016 176.504L153.759 183.247L154.241 182.765L147.498 176.022L147.016 176.504ZM154.241 183.247L160.984 176.504L160.502 176.022L153.759 182.765L154.241 183.247Z" fill="white" fill-opacity="0.1"/>
<g filter="url(#filter5_ddddd_22323_11284)">
<g opacity="0.5" filter="url(#filter6_i_22323_11284)">
<rect x="51.7131" y="199.776" width="204.574" height="36.4195" rx="8.3475" fill="url(#paint9_linear_22323_11284)"/>
</g>
<rect x="58.5786" y="205.396" width="24.1637" height="24.1637" rx="6.88639" fill="#EFEBFF"/>
<g clip-path="url(#clip6_22323_11284)">
<path d="M74.8817 215.205V219.751C74.8817 220.289 74.4456 220.725 73.9076 220.725H67.4132C66.8752 220.725 66.4391 220.289 66.4391 219.751V215.205M74.8817 215.205C74.8817 214.667 74.4456 214.231 73.9076 214.231H67.4132C66.8752 214.231 66.4391 214.667 66.4391 215.205M74.8817 215.205V215.31C74.8817 215.649 74.7062 215.963 74.4181 216.14L71.171 218.138C70.8579 218.331 70.463 218.331 70.1499 218.138L66.9027 216.14C66.6146 215.963 66.4391 215.649 66.4391 215.31V215.205" stroke="#6D4AFF" stroke-width="0.649434" stroke-linecap="round" stroke-linejoin="round"/>
</g>
<path d="M97.738 222.092C95.8954 222.092 94.7666 220.781 94.7666 218.822C94.7666 216.863 95.912 215.502 97.6384 215.502C98.9664 215.502 100.377 216.315 100.377 218.689V219.104H95.7501C95.7958 220.469 96.5884 221.212 97.738 221.212C98.5057 221.212 99.0826 220.88 99.3316 220.216L100.278 220.482C99.979 221.445 99.0328 222.092 97.738 222.092ZM95.7501 218.257H99.3814C99.3814 217.178 98.7008 216.382 97.6384 216.382C96.5179 216.382 95.8165 217.265 95.7501 218.257ZM101.867 221.959V215.585H102.813V216.548H102.88C103.112 215.917 103.776 215.485 104.54 215.485C104.685 215.485 104.942 215.493 105.054 215.502V216.498C104.988 216.481 104.718 216.431 104.457 216.431C103.527 216.431 102.847 217.062 102.847 217.925V221.959H101.867ZM106.215 221.959V215.585H107.195V221.959H106.215ZM106.713 214.522C106.332 214.522 106.016 214.223 106.016 213.858C106.016 213.493 106.332 213.194 106.713 213.194C107.095 213.194 107.411 213.493 107.411 213.858C107.411 214.223 107.095 214.522 106.713 214.522ZM111.578 222.092C109.786 222.092 108.69 220.714 108.69 218.805C108.69 216.863 109.835 215.502 111.562 215.502C112.906 215.502 113.919 216.299 114.085 217.494H113.106C112.956 216.913 112.442 216.382 111.578 216.382C110.433 216.382 109.669 217.328 109.669 218.772C109.669 220.249 110.416 221.212 111.578 221.212C112.342 221.212 112.923 220.797 113.106 220.1H114.085C113.919 221.229 112.989 222.092 111.578 222.092ZM116.231 222.026C115.82 222.026 115.484 221.689 115.484 221.279C115.484 220.868 115.82 220.532 116.231 220.532C116.641 220.532 116.978 220.868 116.978 221.279C116.978 221.689 116.641 222.026 116.231 222.026ZM119.714 218.125V221.959H118.735V215.585H119.681V216.581H119.764C120.063 215.933 120.661 215.502 121.624 215.502C122.914 215.502 123.782 216.282 123.782 217.909V221.959H122.802V217.975C122.802 216.975 122.25 216.382 121.341 216.382C120.403 216.382 119.714 217.012 119.714 218.125ZM128.161 222.092C126.434 222.092 125.272 220.781 125.272 218.805C125.272 216.813 126.434 215.502 128.161 215.502C129.887 215.502 131.049 216.813 131.049 218.805C131.049 220.781 129.887 222.092 128.161 222.092ZM128.161 221.212C129.472 221.212 130.07 220.083 130.07 218.805C130.07 217.527 129.472 216.382 128.161 216.382C126.849 216.382 126.252 217.527 126.252 218.805C126.252 220.083 126.849 221.212 128.161 221.212ZM132.544 221.959V215.585H133.491V216.548H133.557C133.789 215.917 134.453 215.485 135.217 215.485C135.362 215.485 135.619 215.493 135.732 215.502V216.498C135.665 216.481 135.395 216.431 135.134 216.431C134.204 216.431 133.524 217.062 133.524 217.925V221.959H132.544ZM137.025 221.959V213.46H138.005V216.597H138.088C138.304 216.265 138.685 215.502 139.93 215.502C141.541 215.502 142.653 216.78 142.653 218.789C142.653 220.814 141.541 222.092 139.947 222.092C138.719 222.092 138.304 221.328 138.088 220.98H137.972V221.959H137.025ZM137.988 218.772C137.988 220.216 138.636 221.212 139.814 221.212C141.043 221.212 141.673 220.133 141.673 218.772C141.673 217.427 141.059 216.382 139.814 216.382C138.619 216.382 137.988 217.344 137.988 218.772ZM146.824 222.092C144.981 222.092 143.852 220.781 143.852 218.822C143.852 216.863 144.998 215.502 146.724 215.502C148.052 215.502 149.463 216.315 149.463 218.689V219.104H144.836C144.881 220.469 145.674 221.212 146.824 221.212C147.591 221.212 148.168 220.88 148.417 220.216L149.363 220.482C149.065 221.445 148.118 222.092 146.824 222.092ZM144.836 218.257H148.467C148.467 217.178 147.786 216.382 146.724 216.382C145.603 216.382 144.902 217.265 144.836 218.257ZM150.953 221.959V215.585H151.899V216.548H151.965C152.198 215.917 152.862 215.485 153.625 215.485C153.771 215.485 154.028 215.493 154.14 215.502V216.498C154.074 216.481 153.804 216.431 153.542 216.431C152.613 216.431 151.932 217.062 151.932 217.925V221.959H150.953ZM158.473 215.585V216.415H157.111V220.133C157.111 220.963 157.526 221.096 157.958 221.096C158.174 221.096 158.307 221.063 158.39 221.046L158.589 221.926C158.456 221.976 158.224 222.042 157.858 222.042C157.028 222.042 156.132 221.511 156.132 220.399V216.415H155.169V215.585H156.132V214.057H157.111V215.585H158.473ZM164.843 224.2C161.457 224.2 159.614 222.308 159.614 218.955C159.614 215.717 161.523 213.775 164.727 213.775C167.831 213.775 169.425 216.016 169.425 218.291C169.425 219.901 169.259 221.793 167.499 221.793C166.918 221.793 166.022 221.544 165.922 220.83H165.872C165.673 221.312 165.175 221.777 164.229 221.743C162.785 221.694 162.038 220.482 162.038 218.905C162.038 217.411 162.984 216.382 164.229 216.249C165.059 216.166 165.706 216.481 165.822 216.846H165.872V216.382H166.752V220.133C166.752 220.598 167.018 221.013 167.516 221.013C168.362 221.013 168.561 220.166 168.561 218.274C168.561 216.415 167.316 214.555 164.677 214.555C162.071 214.555 160.527 216.216 160.527 218.988C160.527 221.81 162.038 223.403 164.876 223.403C165.789 223.403 166.752 223.071 167.051 222.972L167.283 223.735C166.769 223.951 165.69 224.2 164.843 224.2ZM164.362 220.897C165.474 220.897 165.922 220.233 165.922 218.855C165.922 217.461 165.391 217.062 164.395 217.062C163.449 217.062 162.901 217.892 162.901 218.855C162.901 219.917 163.283 220.897 164.362 220.897ZM170.891 224.35V215.585H171.837V216.597H171.953C172.169 216.265 172.551 215.502 173.796 215.502C175.406 215.502 176.518 216.78 176.518 218.789C176.518 220.814 175.406 222.092 173.812 222.092C172.584 222.092 172.169 221.328 171.953 220.98H171.87V224.35H170.891ZM171.853 218.772C171.853 220.216 172.501 221.212 173.679 221.212C174.908 221.212 175.539 220.133 175.539 218.772C175.539 217.427 174.924 216.382 173.679 216.382C172.484 216.382 171.853 217.344 171.853 218.772ZM178.012 221.959V215.585H178.958V216.548H179.025C179.257 215.917 179.921 215.485 180.685 215.485C180.83 215.485 181.087 215.493 181.199 215.502V216.498C181.133 216.481 180.863 216.431 180.602 216.431C179.672 216.431 178.992 217.062 178.992 217.925V221.959H178.012ZM184.756 222.092C183.029 222.092 181.867 220.781 181.867 218.805C181.867 216.813 183.029 215.502 184.756 215.502C186.482 215.502 187.644 216.813 187.644 218.805C187.644 220.781 186.482 222.092 184.756 222.092ZM184.756 221.212C186.067 221.212 186.665 220.083 186.665 218.805C186.665 217.527 186.067 216.382 184.756 216.382C183.445 216.382 182.847 217.527 182.847 218.805C182.847 220.083 183.445 221.212 184.756 221.212ZM191.912 215.585V216.415H190.55V220.133C190.55 220.963 190.965 221.096 191.397 221.096C191.613 221.096 191.746 221.063 191.829 221.046L192.028 221.926C191.895 221.976 191.663 222.042 191.297 222.042C190.467 222.042 189.571 221.511 189.571 220.399V216.415H188.608V215.585H189.571V214.057H190.55V215.585H191.912ZM195.906 222.092C194.18 222.092 193.018 220.781 193.018 218.805C193.018 216.813 194.18 215.502 195.906 215.502C197.632 215.502 198.794 216.813 198.794 218.805C198.794 220.781 197.632 222.092 195.906 222.092ZM195.906 221.212C197.217 221.212 197.815 220.083 197.815 218.805C197.815 217.527 197.217 216.382 195.906 216.382C194.595 216.382 193.997 217.527 193.997 218.805C193.997 220.083 194.595 221.212 195.906 221.212ZM201.269 218.125V221.959H200.289V215.585H201.236V216.581H201.319C201.618 215.933 202.215 215.502 203.178 215.502C204.469 215.502 205.336 216.282 205.336 217.909V221.959H204.357V217.975C204.357 216.975 203.805 216.382 202.896 216.382C201.958 216.382 201.269 217.012 201.269 218.125ZM207.839 222.026C207.429 222.026 207.092 221.689 207.092 221.279C207.092 220.868 207.429 220.532 207.839 220.532C208.25 220.532 208.586 220.868 208.586 221.279C208.586 221.689 208.25 222.026 207.839 222.026ZM210.344 221.959V215.585H211.29V216.581H211.373C211.639 215.9 212.253 215.502 213.083 215.502C213.921 215.502 214.477 215.9 214.793 216.581H214.859C215.187 215.921 215.855 215.502 216.768 215.502C217.905 215.502 218.71 216.195 218.71 217.693V221.959H217.731V217.693C217.731 216.751 217.133 216.382 216.436 216.382C215.54 216.382 215.025 216.987 215.025 217.809V221.959H214.029V217.593C214.029 216.867 213.51 216.382 212.768 216.382C212.004 216.382 211.323 217.041 211.323 217.975V221.959H210.344ZM223.174 222.092C221.331 222.092 220.202 220.781 220.202 218.822C220.202 216.863 221.348 215.502 223.074 215.502C224.402 215.502 225.813 216.315 225.813 218.689V219.104H221.186C221.232 220.469 222.024 221.212 223.174 221.212C223.942 221.212 224.518 220.88 224.767 220.216L225.714 220.482C225.415 221.445 224.469 222.092 223.174 222.092ZM221.186 218.257H224.817C224.817 217.178 224.137 216.382 223.074 216.382C221.954 216.382 221.252 217.265 221.186 218.257Z" fill="white"/>
</g>
<g clip-path="url(#clip7_22323_11284)">
<path fill-rule="evenodd" clip-rule="evenodd" d="M163.166 23.058C158.468 26.5243 151.658 28.3695 145.793 28.3695C137.571 28.3695 130.171 25.3319 124.57 20.2731C124.13 19.8757 124.521 19.3335 125.052 19.6401C131.096 23.1574 138.571 25.2752 146.289 25.2752C151.496 25.2752 157.222 24.1936 162.488 21.9594C163.283 21.6216 163.947 22.4818 163.172 23.058H163.166Z" fill="#FF9900"/>
<path fill-rule="evenodd" clip-rule="evenodd" d="M165.12 20.8284C164.518 20.0591 161.148 20.4622 159.633 20.6439C159.173 20.6978 159.102 20.2976 159.516 20.008C162.204 18.1202 166.613 18.6652 167.124 19.2955C167.641 19.9342 166.988 24.3514 164.47 26.4607C164.081 26.7843 163.715 26.6111 163.885 26.1825C164.453 24.7659 165.722 21.5949 165.12 20.8256V20.8284Z" fill="#FF9900"/>
<path fill-rule="evenodd" clip-rule="evenodd" d="M159.743 6.661V4.82428C159.743 4.54607 159.956 4.35871 160.209 4.35871H168.436C168.7 4.35871 168.91 4.54891 168.91 4.82144V6.39415C168.91 6.65816 168.685 7.00166 168.291 7.54956L164.03 13.6332C165.611 13.5963 167.286 13.8319 168.722 14.641C169.046 14.8226 169.134 15.0923 169.159 15.3563V17.3151C169.159 17.5848 168.864 17.8971 168.555 17.7353C166.023 16.4096 162.661 16.2648 159.862 17.7523C159.576 17.9056 159.277 17.5962 159.277 17.3265V15.4642C159.277 15.1661 159.283 14.658 159.584 14.2038L164.521 7.12089H160.223C159.959 7.12089 159.749 6.93353 159.749 6.65816L159.743 6.661Z" fill="white"/>
<path fill-rule="evenodd" clip-rule="evenodd" d="M129.734 18.1273H127.23C126.992 18.1131 126.801 17.9314 126.781 17.7043V4.85859C126.781 4.60026 127 4.39586 127.267 4.39586H129.598C129.842 4.40722 130.038 4.59174 130.052 4.82737V6.50512H130.1C130.708 4.88414 131.852 4.12617 133.393 4.12617C134.935 4.12617 135.94 4.88414 136.641 6.50512C137.248 4.88414 138.625 4.12617 140.098 4.12617C141.149 4.12617 142.296 4.55768 142.994 5.5314C143.789 6.61299 143.624 8.18003 143.624 9.5597V17.6646C143.624 17.9201 143.406 18.1273 143.139 18.1273H140.638C140.388 18.1103 140.189 17.9115 140.189 17.6674V10.857C140.189 10.3177 140.235 8.96354 140.118 8.45255C139.931 7.58671 139.372 7.34541 138.648 7.34541C138.04 7.34541 137.41 7.75136 137.152 8.39862C136.893 9.04871 136.919 10.1275 136.919 10.857V17.6646C136.919 17.9201 136.703 18.1273 136.436 18.1273H133.935C133.686 18.1103 133.487 17.9115 133.487 17.6674V10.857C133.487 9.42343 133.717 7.31702 131.942 7.31702C130.168 7.31702 130.214 9.37234 130.214 10.857V17.6646C130.214 17.9201 129.998 18.1273 129.731 18.1273H129.734Z" fill="white"/>
<path fill-rule="evenodd" clip-rule="evenodd" d="M175.987 4.12617C179.7 4.12617 181.71 7.31702 181.71 11.3709C181.71 15.4247 179.49 18.3998 175.987 18.3998C172.484 18.3998 170.358 15.209 170.358 11.2374C170.358 7.26592 172.365 4.12617 175.987 4.12617ZM176.01 6.74926C174.165 6.74926 174.048 9.26162 174.048 10.8315C174.048 12.4014 174.025 15.7512 175.987 15.7512C177.949 15.7512 178.02 13.0486 178.02 11.3993C178.02 10.3177 177.974 9.02032 177.645 7.99266C177.364 7.10127 176.805 6.74926 176.01 6.74926Z" fill="white"/>
<path fill-rule="evenodd" clip-rule="evenodd" d="M186.531 18.1273H184.039C183.789 18.1103 183.59 17.9115 183.59 17.6674V4.81601C183.607 4.58039 183.814 4.39586 184.067 4.39586H186.389C186.608 4.40722 186.786 4.55484 186.835 4.7564V6.72087H186.883C187.584 4.96363 188.564 4.12617 190.292 4.12617C191.414 4.12617 192.512 4.53213 193.214 5.63927C193.867 6.66693 193.867 8.39578 193.867 9.63919V17.7213C193.838 17.9484 193.634 18.1273 193.387 18.1273H190.877C190.644 18.1131 190.46 17.9428 190.432 17.7213V10.7463C190.432 9.34111 190.596 7.28579 188.867 7.28579C188.26 7.28579 187.698 7.69175 187.42 8.31345C187.07 9.09697 187.022 9.88049 187.022 10.7463V17.6617C187.016 17.9172 186.801 18.1245 186.534 18.1245L186.531 18.1273Z" fill="white"/>
<path fill-rule="evenodd" clip-rule="evenodd" d="M153.185 11.9931C153.185 12.9696 153.208 13.7815 152.717 14.6474C152.319 15.3514 151.686 15.7857 150.985 15.7857C150.026 15.7857 149.464 15.0533 149.464 13.9717C149.464 11.8398 151.377 11.4537 153.185 11.4537V11.9959V11.9931ZM155.709 18.0937C155.544 18.2413 155.306 18.2527 155.119 18.1533C154.287 17.4635 154.139 17.1427 153.685 16.4869C152.311 17.8865 151.337 18.3066 149.557 18.3066C147.451 18.3066 145.81 17.0064 145.81 14.4061C145.81 12.3735 146.912 10.9938 148.479 10.3153C149.836 9.71916 151.732 9.61128 153.185 9.44947V9.12584C153.185 8.52969 153.234 7.82566 152.882 7.31183C152.578 6.85194 151.993 6.66174 151.476 6.66174C150.523 6.66174 149.674 7.15002 149.464 8.16348C149.421 8.38775 149.256 8.61202 149.029 8.62337L146.605 8.3622C146.401 8.31678 146.173 8.15212 146.23 7.83985C146.787 4.89599 149.447 4.00743 151.826 4.00743C153.043 4.00743 154.636 4.33106 155.596 5.25368C156.813 6.39205 156.697 7.90799 156.697 9.56019V13.4579C156.697 14.6303 157.185 15.1442 157.642 15.7772C157.801 16.0043 157.838 16.2769 157.634 16.4415C157.123 16.8702 156.214 17.6594 155.715 18.1051L155.709 18.0994V18.0937Z" fill="white"/>
<path fill-rule="evenodd" clip-rule="evenodd" d="M120.375 11.9913C120.375 12.9679 120.398 13.7798 119.906 14.6456C119.509 15.3497 118.876 15.784 118.175 15.784C117.215 15.784 116.653 15.0516 116.653 13.97C116.653 11.838 118.567 11.4519 120.375 11.4519V11.9942V11.9913ZM122.899 18.092C122.734 18.2396 122.493 18.2509 122.308 18.1516C121.476 17.4617 121.329 17.141 120.875 16.4852C119.501 17.8847 118.527 18.3049 116.75 18.3049C114.643 18.3049 113.002 17.0047 113.002 14.4043C113.002 12.3717 114.104 10.992 115.671 10.3136C117.028 9.71741 118.924 9.60954 120.378 9.44772V9.1241C120.378 8.52794 120.423 7.82391 120.074 7.31008C119.77 6.85019 119.185 6.65999 118.669 6.65999C117.715 6.65999 116.866 7.14827 116.656 8.16173C116.613 8.386 116.449 8.61027 116.222 8.62162L113.797 8.36045C113.593 8.31503 113.366 8.15038 113.423 7.83811C113.976 4.88856 116.633 4.00001 119.015 4.00001C120.233 4.00001 121.826 4.32363 122.785 5.24625C124.003 6.38463 123.887 7.90056 123.887 9.55276V13.4505C123.887 14.6229 124.375 15.1367 124.832 15.7698C124.991 15.9969 125.028 16.2694 124.823 16.4341C124.312 16.8628 123.404 17.6519 122.904 18.0976L122.899 18.092Z" fill="white"/>
</g>
<defs>
<filter id="filter0_ddddd_22323_11284" x="4.81173" y="300.283" width="311.875" height="98.6045" filterUnits="userSpaceOnUse" color-interpolation-filters="sRGB">
<feFlood flood-opacity="0" result="BackgroundImageFix"/>
<feColorMatrix in="SourceAlpha" type="matrix" values="0 0 0 0 0 0 0 0 0 0 0 0 0 0 0 0 0 0 127 0" result="hardAlpha"/>
<feOffset/>
<feColorMatrix type="matrix" values="0 0 0 0 0.2 0 0 0 0 0.00392157 0 0 0 0 0.396078 0 0 0 0.15 0"/>
<feBlend mode="normal" in2="BackgroundImageFix" result="effect1_dropShadow_22323_11284"/>
<feColorMatrix in="SourceAlpha" type="matrix" values="0 0 0 0 0 0 0 0 0 0 0 0 0 0 0 0 0 0 127 0" result="hardAlpha"/>
<feOffset dy="1.04838"/>
<feGaussianBlur stdDeviation="1.31048"/>
<feColorMatrix type="matrix" values="0 0 0 0 0.2 0 0 0 0 0.00392157 0 0 0 0 0.396078 0 0 0 0.15 0"/>
<feBlend mode="normal" in2="effect1_dropShadow_22323_11284" result="effect2_dropShadow_22323_11284"/>
<feColorMatrix in="SourceAlpha" type="matrix" values="0 0 0 0 0 0 0 0 0 0 0 0 0 0 0 0 0 0 127 0" result="hardAlpha"/>
<feOffset dx="0.524191" dy="4.71772"/>
<feGaussianBlur stdDeviation="2.35886"/>
<feColorMatrix type="matrix" values="0 0 0 0 0.2 0 0 0 0 0.00392157 0 0 0 0 0.396078 0 0 0 0.13 0"/>
<feBlend mode="normal" in2="effect2_dropShadow_22323_11284" result="effect3_dropShadow_22323_11284"/>
<feColorMatrix in="SourceAlpha" type="matrix" values="0 0 0 0 0 0 0 0 0 0 0 0 0 0 0 0 0 0 127 0" result="hardAlpha"/>
<feOffset dx="1.04838" dy="10.4838"/>
<feGaussianBlur stdDeviation="3.14515"/>
<feColorMatrix type="matrix" values="0 0 0 0 0.2 0 0 0 0 0.00392157 0 0 0 0 0.396078 0 0 0 0.08 0"/>
<feBlend mode="normal" in2="effect3_dropShadow_22323_11284" result="effect4_dropShadow_22323_11284"/>
<feColorMatrix in="SourceAlpha" type="matrix" values="0 0 0 0 0 0 0 0 0 0 0 0 0 0 0 0 0 0 127 0" result="hardAlpha"/>
<feOffset dx="2.09677" dy="18.6088"/>
<feGaussianBlur stdDeviation="3.80039"/>
<feColorMatrix type="matrix" values="0 0 0 0 0.2 0 0 0 0 0.00392157 0 0 0 0 0.396078 0 0 0 0.02 0"/>
<feBlend mode="normal" in2="effect4_dropShadow_22323_11284" result="effect5_dropShadow_22323_11284"/>
<feBlend mode="normal" in="SourceGraphic" in2="effect5_dropShadow_22323_11284" result="shape"/>
</filter>
<filter id="filter1_bi_22323_11284" x="41.5027" y="65.5027" width="224.995" height="41.4009" filterUnits="userSpaceOnUse" color-interpolation-filters="sRGB">
<feFlood flood-opacity="0" result="BackgroundImageFix"/>
<feGaussianBlur in="BackgroundImageFix" stdDeviation="1.24867"/>
<feComposite in2="SourceAlpha" operator="in" result="effect1_backgroundBlur_22323_11284"/>
<feBlend mode="normal" in="SourceGraphic" in2="effect1_backgroundBlur_22323_11284" result="shape"/>
<feColorMatrix in="SourceAlpha" type="matrix" values="0 0 0 0 0 0 0 0 0 0 0 0 0 0 0 0 0 0 127 0" result="hardAlpha"/>
<feOffset dy="0.832447"/>
<feGaussianBlur stdDeviation="0.416223"/>
<feComposite in2="hardAlpha" operator="arithmetic" k2="-1" k3="1"/>
<feColorMatrix type="matrix" values="0 0 0 0 1 0 0 0 0 1 0 0 0 0 1 0 0 0 0.25 0"/>
<feBlend mode="normal" in2="shape" result="effect2_innerShadow_22323_11284"/>
</filter>
<filter id="filter2_bdddddi_22323_11284" x="104.588" y="132.164" width="114.65" height="132.955" filterUnits="userSpaceOnUse" color-interpolation-filters="sRGB">
<feFlood flood-opacity="0" result="BackgroundImageFix"/>
<feGaussianBlur in="BackgroundImageFix" stdDeviation="2.47275"/>
<feComposite in2="SourceAlpha" operator="in" result="effect1_backgroundBlur_22323_11284"/>
<feColorMatrix in="SourceAlpha" type="matrix" values="0 0 0 0 0 0 0 0 0 0 0 0 0 0 0 0 0 0 127 0" result="hardAlpha"/>
<feOffset/>
<feColorMatrix type="matrix" values="0 0 0 0 0.2 0 0 0 0 0.00392157 0 0 0 0 0.396078 0 0 0 0.15 0"/>
<feBlend mode="normal" in2="effect1_backgroundBlur_22323_11284" result="effect2_dropShadow_22323_11284"/>
<feColorMatrix in="SourceAlpha" type="matrix" values="0 0 0 0 0 0 0 0 0 0 0 0 0 0 0 0 0 0 127 0" result="hardAlpha"/>
<feOffset dy="3.9564"/>
<feGaussianBlur stdDeviation="4.9455"/>
<feColorMatrix type="matrix" values="0 0 0 0 0.2 0 0 0 0 0.00392157 0 0 0 0 0.396078 0 0 0 0.15 0"/>
<feBlend mode="normal" in2="effect2_dropShadow_22323_11284" result="effect3_dropShadow_22323_11284"/>
<feColorMatrix in="SourceAlpha" type="matrix" values="0 0 0 0 0 0 0 0 0 0 0 0 0 0 0 0 0 0 127 0" result="hardAlpha"/>
<feOffset dx="1.9782" dy="17.8038"/>
<feGaussianBlur stdDeviation="8.90189"/>
<feColorMatrix type="matrix" values="0 0 0 0 0.2 0 0 0 0 0.00392157 0 0 0 0 0.396078 0 0 0 0.13 0"/>
<feBlend mode="normal" in2="effect3_dropShadow_22323_11284" result="effect4_dropShadow_22323_11284"/>
<feColorMatrix in="SourceAlpha" type="matrix" values="0 0 0 0 0 0 0 0 0 0 0 0 0 0 0 0 0 0 127 0" result="hardAlpha"/>
<feOffset dx="3.9564" dy="39.564"/>
<feGaussianBlur stdDeviation="11.8692"/>
<feColorMatrix type="matrix" values="0 0 0 0 0.2 0 0 0 0 0.00392157 0 0 0 0 0.396078 0 0 0 0.08 0"/>
<feBlend mode="normal" in2="effect4_dropShadow_22323_11284" result="effect5_dropShadow_22323_11284"/>
<feColorMatrix in="SourceAlpha" type="matrix" values="0 0 0 0 0 0 0 0 0 0 0 0 0 0 0 0 0 0 127 0" result="hardAlpha"/>
<feOffset dx="7.9128" dy="70.2261"/>
<feGaussianBlur stdDeviation="14.3419"/>
<feColorMatrix type="matrix" values="0 0 0 0 0.2 0 0 0 0 0.00392157 0 0 0 0 0.396078 0 0 0 0.02 0"/>
<feBlend mode="normal" in2="effect5_dropShadow_22323_11284" result="effect6_dropShadow_22323_11284"/>
<feBlend mode="normal" in="SourceGraphic" in2="effect6_dropShadow_22323_11284" result="shape"/>
<feColorMatrix in="SourceAlpha" type="matrix" values="0 0 0 0 0 0 0 0 0 0 0 0 0 0 0 0 0 0 127 0" result="hardAlpha"/>
<feOffset dy="0.57282"/>
<feGaussianBlur stdDeviation="0.28641"/>
<feComposite in2="hardAlpha" operator="arithmetic" k2="-1" k3="1"/>
<feColorMatrix type="matrix" values="0 0 0 0 1 0 0 0 0 1 0 0 0 0 1 0 0 0 0.55 0"/>
<feBlend mode="normal" in2="shape" result="effect7_innerShadow_22323_11284"/>
</filter>
<filter id="filter3_dddddd_22323_11284" x="118.92" y="138.756" width="61.8843" height="58.1749" filterUnits="userSpaceOnUse" color-interpolation-filters="sRGB">
<feFlood flood-opacity="0" result="BackgroundImageFix"/>
<feColorMatrix in="SourceAlpha" type="matrix" values="0 0 0 0 0 0 0 0 0 0 0 0 0 0 0 0 0 0 127 0" result="hardAlpha"/>
<feOffset/>
<feColorMatrix type="matrix" values="0 0 0 0 0 0 0 0 0 0 0 0 0 0 0 0 0 0 0.44 0"/>
<feBlend mode="normal" in2="BackgroundImageFix" result="effect1_dropShadow_22323_11284"/>
<feColorMatrix in="SourceAlpha" type="matrix" values="0 0 0 0 0 0 0 0 0 0 0 0 0 0 0 0 0 0 127 0" result="hardAlpha"/>
<feOffset dx="-1.14564" dy="1.14564"/>
<feGaussianBlur stdDeviation="1.43205"/>
<feColorMatrix type="matrix" values="0 0 0 0 0 0 0 0 0 0 0 0 0 0 0 0 0 0 0.43 0"/>
<feBlend mode="normal" in2="effect1_dropShadow_22323_11284" result="effect2_dropShadow_22323_11284"/>
<feColorMatrix in="SourceAlpha" type="matrix" values="0 0 0 0 0 0 0 0 0 0 0 0 0 0 0 0 0 0 127 0" result="hardAlpha"/>
<feOffset dx="-4.58256" dy="4.00974"/>
<feGaussianBlur stdDeviation="2.8641"/>
<feColorMatrix type="matrix" values="0 0 0 0 0 0 0 0 0 0 0 0 0 0 0 0 0 0 0.38 0"/>
<feBlend mode="normal" in2="effect2_dropShadow_22323_11284" result="effect3_dropShadow_22323_11284"/>
<feColorMatrix in="SourceAlpha" type="matrix" values="0 0 0 0 0 0 0 0 0 0 0 0 0 0 0 0 0 0 127 0" result="hardAlpha"/>
<feOffset dx="-9.73794" dy="8.5923"/>
<feGaussianBlur stdDeviation="3.72333"/>
<feColorMatrix type="matrix" values="0 0 0 0 0 0 0 0 0 0 0 0 0 0 0 0 0 0 0.22 0"/>
<feBlend mode="normal" in2="effect3_dropShadow_22323_11284" result="effect4_dropShadow_22323_11284"/>
<feColorMatrix in="SourceAlpha" type="matrix" values="0 0 0 0 0 0 0 0 0 0 0 0 0 0 0 0 0 0 127 0" result="hardAlpha"/>
<feOffset dx="-17.1846" dy="14.8933"/>
<feGaussianBlur stdDeviation="4.58256"/>
<feColorMatrix type="matrix" values="0 0 0 0 0 0 0 0 0 0 0 0 0 0 0 0 0 0 0.07 0"/>
<feBlend mode="normal" in2="effect4_dropShadow_22323_11284" result="effect5_dropShadow_22323_11284"/>
<feColorMatrix in="SourceAlpha" type="matrix" values="0 0 0 0 0 0 0 0 0 0 0 0 0 0 0 0 0 0 127 0" result="hardAlpha"/>
<feOffset dx="-26.9225" dy="23.4856"/>
<feGaussianBlur stdDeviation="4.86897"/>
<feColorMatrix type="matrix" values="0 0 0 0 0 0 0 0 0 0 0 0 0 0 0 0 0 0 0.01 0"/>
<feBlend mode="normal" in2="effect5_dropShadow_22323_11284" result="effect6_dropShadow_22323_11284"/>
<feBlend mode="normal" in="SourceGraphic" in2="effect6_dropShadow_22323_11284" result="shape"/>
</filter>
<filter id="filter4_ddddd_22323_11284" x="142.247" y="141.176" width="66.3844" height="114.392" filterUnits="userSpaceOnUse" color-interpolation-filters="sRGB">
<feFlood flood-opacity="0" result="BackgroundImageFix"/>
<feColorMatrix in="SourceAlpha" type="matrix" values="0 0 0 0 0 0 0 0 0 0 0 0 0 0 0 0 0 0 127 0" result="hardAlpha"/>
<feOffset/>
<feColorMatrix type="matrix" values="0 0 0 0 0.2 0 0 0 0 0.00392157 0 0 0 0 0.396078 0 0 0 0.15 0"/>
<feBlend mode="normal" in2="BackgroundImageFix" result="effect1_dropShadow_22323_11284"/>
<feColorMatrix in="SourceAlpha" type="matrix" values="0 0 0 0 0 0 0 0 0 0 0 0 0 0 0 0 0 0 127 0" result="hardAlpha"/>
<feOffset dy="3.9564"/>
<feGaussianBlur stdDeviation="4.9455"/>
<feColorMatrix type="matrix" values="0 0 0 0 0.2 0 0 0 0 0.00392157 0 0 0 0 0.396078 0 0 0 0.15 0"/>
<feBlend mode="normal" in2="effect1_dropShadow_22323_11284" result="effect2_dropShadow_22323_11284"/>
<feColorMatrix in="SourceAlpha" type="matrix" values="0 0 0 0 0 0 0 0 0 0 0 0 0 0 0 0 0 0 127 0" result="hardAlpha"/>
<feOffset dx="1.9782" dy="17.8038"/>
<feGaussianBlur stdDeviation="8.90189"/>
<feColorMatrix type="matrix" values="0 0 0 0 0.2 0 0 0 0 0.00392157 0 0 0 0 0.396078 0 0 0 0.13 0"/>
<feBlend mode="normal" in2="effect2_dropShadow_22323_11284" result="effect3_dropShadow_22323_11284"/>
<feColorMatrix in="SourceAlpha" type="matrix" values="0 0 0 0 0 0 0 0 0 0 0 0 0 0 0 0 0 0 127 0" result="hardAlpha"/>
<feOffset dx="3.9564" dy="39.564"/>
<feGaussianBlur stdDeviation="11.8692"/>
<feColorMatrix type="matrix" values="0 0 0 0 0.2 0 0 0 0 0.00392157 0 0 0 0 0.396078 0 0 0 0.08 0"/>
<feBlend mode="normal" in2="effect3_dropShadow_22323_11284" result="effect4_dropShadow_22323_11284"/>
<feColorMatrix in="SourceAlpha" type="matrix" values="0 0 0 0 0 0 0 0 0 0 0 0 0 0 0 0 0 0 127 0" result="hardAlpha"/>
<feOffset dx="7.9128" dy="70.2261"/>
<feGaussianBlur stdDeviation="14.3419"/>
<feColorMatrix type="matrix" values="0 0 0 0 0.2 0 0 0 0 0.00392157 0 0 0 0 0.396078 0 0 0 0.02 0"/>
<feBlend mode="normal" in2="effect4_dropShadow_22323_11284" result="effect5_dropShadow_22323_11284"/>
<feBlend mode="normal" in="SourceGraphic" in2="effect5_dropShadow_22323_11284" result="shape"/>
</filter>
<filter id="filter5_ddddd_22323_11284" x="50.4682" y="199.362" width="210.176" height="45.1338" filterUnits="userSpaceOnUse" color-interpolation-filters="sRGB">
<feFlood flood-opacity="0" result="BackgroundImageFix"/>
<feColorMatrix in="SourceAlpha" type="matrix" values="0 0 0 0 0 0 0 0 0 0 0 0 0 0 0 0 0 0 127 0" result="hardAlpha"/>
<feOffset/>
<feColorMatrix type="matrix" values="0 0 0 0 0.2 0 0 0 0 0.00392157 0 0 0 0 0.396078 0 0 0 0.15 0"/>
<feBlend mode="normal" in2="BackgroundImageFix" result="effect1_dropShadow_22323_11284"/>
<feColorMatrix in="SourceAlpha" type="matrix" values="0 0 0 0 0 0 0 0 0 0 0 0 0 0 0 0 0 0 127 0" result="hardAlpha"/>
<feOffset dx="0.207481" dy="0.414963"/>
<feGaussianBlur stdDeviation="0.414963"/>
<feColorMatrix type="matrix" values="0 0 0 0 0.2 0 0 0 0 0.00392157 0 0 0 0 0.396078 0 0 0 0.15 0"/>
<feBlend mode="normal" in2="effect1_dropShadow_22323_11284" result="effect2_dropShadow_22323_11284"/>
<feColorMatrix in="SourceAlpha" type="matrix" values="0 0 0 0 0 0 0 0 0 0 0 0 0 0 0 0 0 0 127 0" result="hardAlpha"/>
<feOffset dx="0.414963" dy="1.45237"/>
<feGaussianBlur stdDeviation="0.829926"/>
<feColorMatrix type="matrix" values="0 0 0 0 0.2 0 0 0 0 0.00392157 0 0 0 0 0.396078 0 0 0 0.13 0"/>
<feBlend mode="normal" in2="effect2_dropShadow_22323_11284" result="effect3_dropShadow_22323_11284"/>
<feColorMatrix in="SourceAlpha" type="matrix" values="0 0 0 0 0 0 0 0 0 0 0 0 0 0 0 0 0 0 127 0" result="hardAlpha"/>
<feOffset dx="1.03741" dy="3.3197"/>
<feGaussianBlur stdDeviation="1.03741"/>
<feColorMatrix type="matrix" values="0 0 0 0 0.2 0 0 0 0 0.00392157 0 0 0 0 0.396078 0 0 0 0.08 0"/>
<feBlend mode="normal" in2="effect3_dropShadow_22323_11284" result="effect4_dropShadow_22323_11284"/>
<feColorMatrix in="SourceAlpha" type="matrix" values="0 0 0 0 0 0 0 0 0 0 0 0 0 0 0 0 0 0 127 0" result="hardAlpha"/>
<feOffset dx="1.86733" dy="5.80948"/>
<feGaussianBlur stdDeviation="1.24489"/>
<feColorMatrix type="matrix" values="0 0 0 0 0.2 0 0 0 0 0.00392157 0 0 0 0 0.396078 0 0 0 0.02 0"/>
<feBlend mode="normal" in2="effect4_dropShadow_22323_11284" result="effect5_dropShadow_22323_11284"/>
<feBlend mode="normal" in="SourceGraphic" in2="effect5_dropShadow_22323_11284" result="shape"/>
</filter>
<filter id="filter6_i_22323_11284" x="51.7131" y="199.776" width="204.574" height="37.252" filterUnits="userSpaceOnUse" color-interpolation-filters="sRGB">
<feFlood flood-opacity="0" result="BackgroundImageFix"/>
<feBlend mode="normal" in="SourceGraphic" in2="BackgroundImageFix" result="shape"/>
<feColorMatrix in="SourceAlpha" type="matrix" values="0 0 0 0 0 0 0 0 0 0 0 0 0 0 0 0 0 0 127 0" result="hardAlpha"/>
<feOffset dy="0.832447"/>
<feGaussianBlur stdDeviation="0.416223"/>
<feComposite in2="hardAlpha" operator="arithmetic" k2="-1" k3="1"/>
<feColorMatrix type="matrix" values="0 0 0 0 1 0 0 0 0 1 0 0 0 0 1 0 0 0 0.25 0"/>
<feBlend mode="normal" in2="shape" result="effect1_innerShadow_22323_11284"/>
</filter>
<linearGradient id="paint0_linear_22323_11284" x1="93.216" y1="738.135" x2="93.216" y2="298.321" gradientUnits="userSpaceOnUse">
<stop stop-color="white"/>
<stop offset="1" stop-color="white" stop-opacity="0"/>
</linearGradient>
<linearGradient id="paint1_linear_22323_11284" x1="-65.3889" y1="185.504" x2="181.328" y2="388.952" gradientUnits="userSpaceOnUse">
<stop stop-color="white"/>
<stop offset="1" stop-color="white" stop-opacity="0.14"/>
</linearGradient>
<linearGradient id="paint2_linear_22323_11284" x1="-65.3889" y1="185.504" x2="181.328" y2="388.952" gradientUnits="userSpaceOnUse">
<stop stop-color="white"/>
<stop offset="1" stop-color="white" stop-opacity="0.14"/>
</linearGradient>
<linearGradient id="paint3_linear_22323_11284" x1="100.682" y1="234.46" x2="344.913" y2="351.348" gradientUnits="userSpaceOnUse">
<stop stop-color="#704CFF"/>
<stop offset="0.755208" stop-color="#C486CB"/>
<stop offset="1" stop-color="#FFD580"/>
</linearGradient>
<linearGradient id="paint4_linear_22323_11284" x1="237.359" y1="379.195" x2="235.44" y2="404.283" gradientUnits="userSpaceOnUse">
<stop offset="0.00461249" stop-color="white"/>
<stop offset="1" stop-color="white" stop-opacity="0.19"/>
</linearGradient>
<linearGradient id="paint5_linear_22323_11284" x1="237.359" y1="435.275" x2="235.39" y2="460.684" gradientUnits="userSpaceOnUse">
<stop offset="0.00461249" stop-color="white"/>
<stop offset="1" stop-color="white" stop-opacity="0.19"/>
</linearGradient>
<linearGradient id="paint6_linear_22323_11284" x1="38.8525" y1="72.0568" x2="40.8127" y2="128.31" gradientUnits="userSpaceOnUse">
<stop stop-color="#FFD5A1"/>
<stop offset="1" stop-color="#B994FF" stop-opacity="0"/>
</linearGradient>
<linearGradient id="paint7_linear_22323_11284" x1="44.1071" y1="27.8504" x2="16.039" y2="-16.8295" gradientUnits="userSpaceOnUse">
<stop stop-color="#3A1EA9"/>
<stop offset="0.755208" stop-color="#BD73C6"/>
<stop offset="1" stop-color="#FFD580"/>
</linearGradient>
<linearGradient id="paint8_linear_22323_11284" x1="173.02" y1="148.37" x2="153.005" y2="161.094" gradientUnits="userSpaceOnUse">
<stop stop-color="#F9FAFB"/>
<stop offset="0.748906" stop-color="#C7BBFB"/>
<stop offset="1" stop-color="#9A87EB"/>
</linearGradient>
<linearGradient id="paint9_linear_22323_11284" x1="47.3428" y1="193.533" x2="258.888" y2="244.104" gradientUnits="userSpaceOnUse">
<stop stop-color="#C1A1FF"/>
<stop offset="1" stop-color="#9292F9"/>
</linearGradient>
<clipPath id="clip0_22323_11284">
<rect x="10.3157" y="301.856" width="296.673" height="70.8224" rx="9.43544" fill="white"/>
</clipPath>
<clipPath id="clip1_22323_11284">
<rect x="27.9379" y="315.072" width="35.2442" height="35.2442" rx="8.81104" fill="white"/>
</clipPath>
<clipPath id="clip2_22323_11284">
<rect x="10.4813" y="386.899" width="265.223" height="49.4883" rx="7.71246" fill="white"/>
</clipPath>
<clipPath id="clip3_22323_11284">
<rect x="24.8855" y="397.702" width="28.8083" height="28.8083" rx="7.20208" fill="white"/>
</clipPath>
<clipPath id="clip4_22323_11284">
<rect x="10.4813" y="443.078" width="265.223" height="50.131" rx="7.71246" fill="white"/>
</clipPath>
<clipPath id="clip5_22323_11284">
<rect x="24.8855" y="453.881" width="28.8083" height="28.8083" rx="7.20208" fill="white"/>
</clipPath>
<clipPath id="clip6_22323_11284">
<rect width="10.3909" height="10.3909" fill="white" transform="translate(65.465 212.283)"/>
</clipPath>
<clipPath id="clip7_22323_11284">
<rect width="80.8613" height="24.3685" fill="white" transform="translate(113 4.00002)"/>
</clipPath>
</defs>
</svg>
