<svg width="22" height="28" viewBox="0 0 22 28" fill="none" xmlns="http://www.w3.org/2000/svg">
    <path
        d="M7.99998 7.39941V13.9994L1.55778 23.4476C1.31193 23.8083 1.16909 24.2292 1.14464 24.665C1.12019 25.1008 1.21505 25.535 1.41902 25.9209C1.62299 26.3068 1.92834 26.6298 2.3022 26.8551C2.67607 27.0803 3.10429 27.1994 3.54078 27.1994H18.4586C18.8951 27.1994 19.3233 27.0803 19.6972 26.8551C20.071 26.6298 20.3764 26.3068 20.5803 25.9209C20.7843 25.535 20.8792 25.1008 20.8547 24.665C20.8303 24.2292 20.6874 23.8083 20.4416 23.4476L14 13.9994V7.39941"
        stroke="black" stroke-opacity="0.8" stroke-width="1.2" stroke-miterlimit="10"
        stroke-linecap="square" />
    <path d="M17.6 0.799805H4.40002V4.3998H17.6V0.799805Z" stroke="black" stroke-opacity="0.8"
        stroke-width="1.2" stroke-miterlimit="10" stroke-linecap="square" />
    <path
        d="M7.99995 24.1996C8.99406 24.1996 9.79995 23.3937 9.79995 22.3996C9.79995 21.4055 8.99406 20.5996 7.99995 20.5996C7.00584 20.5996 6.19995 21.4055 6.19995 22.3996C6.19995 23.3937 7.00584 24.1996 7.99995 24.1996Z"
        stroke="black" stroke-opacity="0.8" stroke-width="1.2" stroke-miterlimit="10"
        stroke-linecap="square" />
    <path
        d="M13.4 21.1998C14.0627 21.1998 14.6 20.6625 14.6 19.9998C14.6 19.3371 14.0627 18.7998 13.4 18.7998C12.7372 18.7998 12.2 19.3371 12.2 19.9998C12.2 20.6625 12.7372 21.1998 13.4 21.1998Z"
        stroke="black" stroke-opacity="0.8" stroke-width="1.2" stroke-miterlimit="10"
        stroke-linecap="square" />
</svg>