<svg width="12" height="12" viewBox="0 0 12 12" fill="none" xmlns="http://www.w3.org/2000/svg">
<g clip-path="url(#clip0_6189_64054)">
<path d="M6 11.5C9.03757 11.5 11.5 9.03757 11.5 6C11.5 2.96243 9.03757 0.5 6 0.5C2.96243 0.5 0.5 2.96243 0.5 6C0.5 9.03757 2.96243 11.5 6 11.5Z" stroke="black" stroke-linecap="round" stroke-linejoin="round"/>
<path d="M8.23616 8C7.95477 8.31459 7.61016 8.56625 7.22486 8.73856C6.83956 8.91086 6.42223 8.99992 6.00016 8.99992C5.57809 8.99992 5.16076 8.91086 4.77546 8.73856C4.39016 8.56625 4.04555 8.31459 3.76416 8" stroke="black" stroke-linecap="round" stroke-linejoin="round"/>
<path d="M4 6C4.55228 6 5 5.55228 5 5C5 4.44772 4.55228 4 4 4C3.44772 4 3 4.44772 3 5C3 5.55228 3.44772 6 4 6Z" fill="black"/>
<path d="M8 6C8.55228 6 9 5.55228 9 5C9 4.44772 8.55228 4 8 4C7.44772 4 7 4.44772 7 5C7 5.55228 7.44772 6 8 6Z" fill="black"/>
</g>
<defs>
<clipPath id="clip0_6189_64054">
<rect width="12" height="12" fill="white"/>
</clipPath>
</defs>
</svg>
