<svg width="246" height="244" viewBox="0 0 246 244" fill="none" xmlns="http://www.w3.org/2000/svg">
    <g style="mix-blend-mode:overlay">
        <path
            d="M74.375 211.516C91.2838 228.247 99.7382 236.613 109.487 239.747C118.063 242.504 127.3 242.504 135.876 239.747C145.625 236.613 154.079 228.247 170.988 211.516L213.256 169.691C230.165 152.959 238.619 144.594 241.787 134.947C244.573 126.461 244.573 117.321 241.787 108.835C238.619 99.1884 230.165 90.8226 213.256 74.0911L170.988 32.2663C154.079 15.5348 145.625 7.16905 135.876 4.03463C127.3 1.27752 118.063 1.27752 109.487 4.03463C99.7383 7.16905 91.7305 15.5348 74.8216 32.2663"
            stroke="white" stroke-width="2.90319" />
        <path
            d="M118.413 35.1307L182.13 98.8612C186.395 103.127 189.531 106.266 191.807 108.947C194.071 111.615 195.399 113.735 196.112 115.93C197.417 119.949 197.417 124.277 196.112 128.296C195.399 130.491 194.071 132.611 191.807 135.279C189.531 137.96 186.395 141.099 182.13 145.365L118.413 209.095C114.148 213.362 111.01 216.499 108.33 218.775C105.662 221.04 103.543 222.367 101.348 223.081C97.3309 224.386 93.0034 224.386 88.9861 223.081C86.7916 222.367 84.6723 221.04 82.0045 218.775C79.3238 216.498 76.186 213.361 71.9209 209.095L32.4775 169.643C23.9643 161.128 17.6419 154.803 13.0431 149.384C8.45538 143.979 5.66828 139.572 4.15939 134.927C1.45394 126.599 1.45395 117.627 4.15939 109.299C5.66828 104.654 8.45538 100.247 13.0431 94.8418C17.6419 89.4234 23.9643 83.098 32.4775 74.5829L71.9209 35.1307C76.186 30.8647 79.3238 27.7277 82.0046 25.4515C84.6723 23.1862 86.7916 21.8588 88.9861 21.1456C93.0034 19.84 97.3309 19.84 101.348 21.1456C103.543 21.8588 105.662 23.1862 108.33 25.4515C111.01 27.7277 114.148 30.8647 118.413 35.1307Z"
            stroke="white" stroke-width="2.90319" />
    </g>
</svg>