<svg width="115" height="116" viewBox="0 0 115 116" fill="none" xmlns="http://www.w3.org/2000/svg">
    <path
        d="M100.584 74.3621C102.91 72.0201 104.721 70.1447 106.129 68.4864C107.875 66.4302 108.899 64.8233 109.477 63.2307L109.586 62.9124C110.566 59.9086 110.633 56.6861 109.787 53.6516L109.606 53.0474C109.058 51.3464 108.025 49.6596 106.172 47.4589C104.303 45.2402 101.718 42.6328 98.1573 39.0441L77.2714 17.9911C73.501 14.1906 70.7567 11.4265 68.4181 9.425C66.242 7.56275 64.5323 6.46448 62.8309 5.84182L62.4912 5.72305C59.0812 4.60009 55.4028 4.58573 51.984 5.68161C50.1638 6.26513 48.3653 7.36833 46.0289 9.33592C43.6744 11.3188 40.9082 14.0611 37.1079 17.8316L18.1776 36.6127C14.1354 40.6231 11.1905 43.5467 9.05975 46.0385C6.94425 48.5126 5.75082 50.4277 5.11749 52.3741L4.90895 53.0605C3.93771 56.5065 4.01567 60.1704 5.14028 63.5808L5.26665 63.9447C5.93454 65.7654 7.11423 67.5891 9.10671 69.9006C11.2473 72.3839 14.2045 75.2956 18.2625 79.2898L38.3197 99.0321C41.9096 102.565 44.5178 105.13 46.736 106.984C48.9361 108.823 50.6214 109.847 52.3196 110.389L52.9232 110.568C55.952 111.404 59.165 111.331 62.1597 110.35L62.4781 110.24C64.066 109.662 65.6677 108.641 67.7165 106.901C69.9199 105.029 72.5076 102.444 76.0692 98.8823L98.082 76.8694L100.584 74.3621ZM78.8976 101.711C75.3823 105.226 72.6624 107.949 70.306 109.95C68.0801 111.841 66.0643 113.19 63.8509 113.997L63.4048 114.151C59.5364 115.418 55.3765 115.474 51.4806 114.316L51.105 114.2C48.7076 113.435 46.561 112.052 44.1706 110.054C41.7984 108.071 39.0565 105.37 35.5134 101.883L15.4569 82.141C11.4461 78.1934 8.35074 75.1487 6.07803 72.5122C3.93309 70.0238 2.41475 67.7827 1.51291 65.3272L1.34096 64.8334C-0.0793177 60.5264 -0.132605 55.8889 1.18214 51.5559L1.31403 51.1367C2.17795 48.4815 3.74285 46.1025 6.02002 43.4393C8.28221 40.7937 11.3652 37.7368 15.3602 33.7732L34.2905 14.9921C38.0439 11.2681 40.9434 8.38939 43.4518 6.27685C45.9782 4.14921 48.2397 2.68155 50.7632 1.87263L51.1602 1.7504C55.2702 0.521976 59.6617 0.57988 63.7424 1.92373L64.2113 2.08738C66.5415 2.94136 68.6661 4.37199 71.0186 6.38527C73.5103 8.51767 76.3869 11.4199 80.1109 15.1737L103.485 38.7402C105.827 41.1165 107.733 43.1032 109.231 44.8825C111.245 47.2728 112.64 49.4208 113.413 51.8224L113.531 52.1994C114.702 56.102 114.654 60.2729 113.388 64.1526L113.234 64.5993C112.428 66.8197 111.075 68.8424 109.179 71.0759C107.171 73.4403 104.438 76.1699 100.91 79.6979L78.8976 101.711Z"
        fill="url(#paint0_radial_24964_42316)" />
    <path
        d="M55.1633 15.6446L86.8187 47.6204C88.3522 49.1694 89.5874 50.415 90.5034 51.504C91.4348 52.6113 92.1513 53.686 92.5571 54.9387L92.6696 55.3137C93.1992 57.1973 93.1653 59.1981 92.5674 61.0672L92.4894 61.2999C92.0773 62.4558 91.3969 63.4676 90.5276 64.5088C89.6155 65.6012 88.3846 66.8516 86.8567 68.4062L55.2006 100.616C53.65 102.194 52.4034 103.464 51.3122 104.406C50.2726 105.304 49.2591 106.009 48.0957 106.441L47.8609 106.524C45.98 107.151 43.958 107.205 42.0514 106.682L41.6716 106.57C40.4023 106.167 39.3122 105.446 38.1893 104.505C37.0842 103.578 35.8194 102.326 34.2456 100.772L15.5149 82.2749C11.4952 78.3052 8.39336 75.243 6.11741 72.5929C3.96961 70.0921 2.45182 67.8406 1.55436 65.3754L1.38311 64.8796C-0.0283791 60.5563 -0.0646285 55.9051 1.274 51.5661L1.40797 51.1477C2.28676 48.4888 3.86919 46.1102 6.16989 43.451C8.45546 40.8092 11.5692 37.7599 15.6033 33.8049L35.4057 14.3919C36.4741 13.3515 37.3906 12.4826 38.2169 11.7948C39.3366 10.8629 40.4227 10.1483 41.6861 9.74948L42.0638 9.63831C43.9623 9.12036 45.9747 9.17371 47.8478 9.79575L48.0812 9.87723C49.2396 10.305 50.2499 11.0028 51.2866 11.8922C52.3745 12.8255 53.6174 14.0831 55.1633 15.6446ZM52.321 18.4592C50.7287 16.8508 49.6167 15.731 48.6812 14.9285C47.7638 14.1414 47.1462 13.7781 46.5868 13.5923C45.3883 13.1943 44.0948 13.184 42.8904 13.564C42.3283 13.7414 41.7045 14.0964 40.7753 14.8698C40.0649 15.4611 39.253 16.2291 38.21 17.2445L37.0844 18.3452L18.4034 36.6603C14.3218 40.6619 11.3481 43.5803 9.19512 46.0688C7.0574 48.5397 5.84998 50.4543 5.2059 52.4031L4.99391 53.0902C4.00434 56.541 4.06765 60.215 5.18519 63.6381L5.31155 64.0034C5.97608 65.831 7.15582 67.663 9.15161 69.9868C11.2955 72.4831 14.2583 75.412 18.3254 79.4285L37.0561 97.9258C38.6769 99.5265 39.8081 100.641 40.7587 101.438C41.6915 102.22 42.3172 102.578 42.8814 102.757L43.1093 102.824C44.2532 103.138 45.4666 103.106 46.5951 102.729L46.8085 102.65C47.316 102.443 47.8919 102.075 48.6978 101.379C49.6365 100.568 50.7512 99.4366 52.348 97.8119L84.0034 65.6026C85.5774 64.0012 86.6736 62.8844 87.4575 61.9456C88.1298 61.1402 88.4839 60.5661 88.6818 60.0611L88.7578 59.8484C89.1165 58.727 89.1369 57.5265 88.8192 56.3964L88.7515 56.1713C88.5708 55.6134 88.215 54.9962 87.443 54.0783C86.6557 53.1424 85.5555 52.03 83.9758 50.4344L52.321 18.4592Z"
        fill="url(#paint1_radial_24964_42316)" />
    <defs>
        <radialGradient id="paint0_radial_24964_42316" cx="0" cy="0" r="1"
            gradientUnits="userSpaceOnUse"
            gradientTransform="translate(32.3393 114.266) rotate(-57.0334) scale(91.517 145.741)">
            <stop stop-color="#FFD580" />
            <stop offset="0.09375" stop-color="#F6C592" />
            <stop offset="0.205" stop-color="#EBB6A2" />
            <stop offset="0.324466" stop-color="#DFA5AF" />
            <stop offset="0.42875" stop-color="#D397BE" />
            <stop offset="0.53375" stop-color="#C486CB" />
            <stop offset="0.64875" stop-color="#B578D9" />
            <stop offset="0.77125" stop-color="#A166E5" />
            <stop offset="0.89125" stop-color="#8B57F2" />
            <stop offset="1" stop-color="#704CFF" />
        </radialGradient>
        <radialGradient id="paint1_radial_24964_42316" cx="0" cy="0" r="1"
            gradientUnits="userSpaceOnUse"
            gradientTransform="translate(32.3393 114.266) rotate(-57.0334) scale(91.517 145.741)">
            <stop stop-color="#FFD580" />
            <stop offset="0.09375" stop-color="#F6C592" />
            <stop offset="0.205" stop-color="#EBB6A2" />
            <stop offset="0.324466" stop-color="#DFA5AF" />
            <stop offset="0.42875" stop-color="#D397BE" />
            <stop offset="0.53375" stop-color="#C486CB" />
            <stop offset="0.64875" stop-color="#B578D9" />
            <stop offset="0.77125" stop-color="#A166E5" />
            <stop offset="0.89125" stop-color="#8B57F2" />
            <stop offset="1" stop-color="#704CFF" />
        </radialGradient>
    </defs>
</svg>