<svg width="175" height="125" viewBox="0 0 175 125" fill="none" xmlns="http://www.w3.org/2000/svg">
    <g filter="url(#filter0_i_22295_74351)">
        <path fill-rule="evenodd" clip-rule="evenodd"
            d="M141.442 46.3007C141.442 48.5725 141.186 50.7878 140.702 52.9224C153.234 53.2534 163.286 62.9917 163.286 74.9563C163.286 86.3847 154.115 95.7817 142.371 96.8899V97H44.7451V96.8422C33.2204 95.5372 24.2856 86.2362 24.2856 74.9561C24.2856 63.0056 34.3148 53.2761 46.8271 52.9233C48.4013 42.45 57.8964 34.3976 69.3768 34.3976C72.1804 34.3976 74.867 34.878 77.3461 35.7568C81.9112 23.6573 94.1071 15 108.435 15C126.664 15 141.442 29.0138 141.442 46.3007Z"
            fill="url(#paint0_radial_22295_74351)" fill-opacity="0.6" />
    </g>
    <g filter="url(#filter1_d_22295_74351)">
        <rect x="8.28564" y="73" width="40" height="40" rx="16" fill="#ECDFFA"
            shape-rendering="crispEdges" />
        <path fill-rule="evenodd" clip-rule="evenodd"
            d="M30.7856 89.25C30.7856 90.6307 29.6664 91.75 28.2856 91.75C26.9049 91.75 25.7856 90.6307 25.7856 89.25C25.7856 87.8693 26.9049 86.75 28.2856 86.75C29.6664 86.75 30.7856 87.8693 30.7856 89.25ZM32.0356 89.25C32.0356 91.3211 30.3567 93 28.2856 93C26.2146 93 24.5356 91.3211 24.5356 89.25C24.5356 87.1789 26.2146 85.5 28.2856 85.5C30.3567 85.5 32.0356 87.1789 32.0356 89.25ZM23.105 96.7255C23.5672 95.974 24.4108 95.5 25.3366 95.5H31.2347C32.1605 95.5 33.0041 95.974 33.4663 96.7255L34.444 98.3152C34.6716 98.6852 34.4324 99.25 33.8606 99.25H22.7107C22.1388 99.25 21.8997 98.6852 22.1272 98.3152L23.105 96.7255ZM22.0403 96.0706C22.735 94.9411 23.9863 94.25 25.3366 94.25H31.2347C32.585 94.25 33.8363 94.9411 34.531 96.0706L35.5088 97.6603C36.2774 98.9101 35.3546 100.5 33.8606 100.5H22.7107C21.2167 100.5 20.2939 98.9101 21.0625 97.6603L22.0403 96.0706Z"
            fill="#7328C5" />
    </g>
    <path
        d="M144.961 17.544C147.001 14.152 151.918 14.152 153.958 17.544L173.875 50.6639C175.979 54.1625 173.459 58.6182 169.376 58.6182H129.543C125.46 58.6182 122.941 54.1625 125.044 50.6639L144.961 17.544Z"
        fill="url(#paint1_linear_22295_74351)" />
    <path
        d="M147.237 29.9897C147.243 28.7666 148.236 27.7783 149.46 27.7783C150.683 27.7783 151.676 28.7666 151.682 29.9897L151.745 41.8855C151.751 43.1519 150.726 44.1819 149.46 44.1819C148.193 44.1819 147.168 43.1519 147.175 41.8855L147.237 29.9897Z"
        fill="white" />
    <path
        d="M151.756 49.103C151.756 50.3714 150.728 51.3995 149.46 51.3995C148.191 51.3995 147.163 50.3714 147.163 49.103C147.163 47.8347 148.191 46.8065 149.46 46.8065C150.728 46.8065 151.756 47.8347 151.756 49.103Z"
        fill="white" />
    <g filter="url(#filter2_d_22295_74351)">
        <rect x="108.286" y="73" width="40" height="40" rx="16" fill="#FFE7D6"
            shape-rendering="crispEdges" />
        <path fill-rule="evenodd" clip-rule="evenodd"
            d="M134.536 90.5H131.411C130.375 90.5 129.536 89.6605 129.536 88.625V85.5H123.286C122.595 85.5 122.036 86.0596 122.036 86.75V99.25C122.036 99.9404 122.595 100.5 123.286 100.5H133.286C133.976 100.5 134.536 99.9404 134.536 99.25V90.5ZM130.786 86.0178L134.018 89.25H131.411C131.065 89.25 130.786 88.9702 130.786 88.625V86.0178ZM123.286 84.25C121.905 84.25 120.786 85.3693 120.786 86.75V99.25C120.786 100.631 121.905 101.75 123.286 101.75H133.286C134.666 101.75 135.786 100.631 135.786 99.25V90.2855C135.786 89.6225 135.522 88.9866 135.053 88.5178L131.518 84.9822C131.049 84.5134 130.413 84.25 129.75 84.25H123.286ZM124.536 91.75C124.19 91.75 123.911 92.0298 123.911 92.375C123.911 92.7202 124.19 93 124.536 93H131.411C131.756 93 132.036 92.7202 132.036 92.375C132.036 92.0298 131.756 91.75 131.411 91.75H124.536ZM123.911 94.875C123.911 94.5298 124.19 94.25 124.536 94.25H128.911C129.256 94.25 129.536 94.5298 129.536 94.875C129.536 95.2202 129.256 95.5 128.911 95.5H124.536C124.19 95.5 123.911 95.2202 123.911 94.875ZM124.536 96.75C124.19 96.75 123.911 97.0298 123.911 97.375C123.911 97.7202 124.19 98 124.536 98H131.411C131.756 98 132.036 97.7202 132.036 97.375C132.036 97.0298 131.756 96.75 131.411 96.75H124.536Z"
            fill="#A14300" />
    </g>
    <g filter="url(#filter3_d_22295_74351)">
        <rect x="58.2856" y="73" width="40" height="40" rx="16" fill="#D9F4EB"
            shape-rendering="crispEdges" />
        <path fill-rule="evenodd" clip-rule="evenodd"
            d="M80.3834 85.7057C81.8007 85.0943 83.428 85.9006 83.8 87.3987L85.0369 92.379H86.4106C86.7558 92.379 87.0356 92.6589 87.0356 93.004C87.0356 93.3492 86.7558 93.629 86.4106 93.629H70.1606C69.8155 93.629 69.5356 93.3492 69.5356 93.004C69.5356 92.6589 69.8155 92.379 70.1606 92.379H71.5344L72.7713 87.3987C73.1433 85.9006 74.7706 85.0943 76.1879 85.7057L77.5429 86.2903C78.0169 86.4948 78.5543 86.4948 79.0284 86.2903L80.3834 85.7057ZM82.5869 87.6999C82.4008 86.9509 81.5872 86.5478 80.8785 86.8535L79.5236 87.4381C78.7335 87.7789 77.8378 87.7789 77.0477 87.4381L75.6927 86.8535C74.9841 86.5478 74.1704 86.9509 73.9844 87.6999L72.8348 92.3289H83.7364L82.5869 87.6999Z"
            fill="#136C4F" />
        <path fill-rule="evenodd" clip-rule="evenodd"
            d="M76.5002 95.6292C75.9383 94.7994 74.9882 94.254 73.9106 94.254C72.1848 94.254 70.7856 95.6532 70.7856 97.379C70.7856 99.1049 72.1848 100.504 73.9106 100.504C75.6365 100.504 77.0356 99.1049 77.0356 97.379C77.0356 96.6887 77.5953 96.129 78.2856 96.129C78.976 96.129 79.5356 96.6887 79.5356 97.379C79.5356 99.1049 80.9348 100.504 82.6606 100.504C84.3865 100.504 85.7856 99.1049 85.7856 97.379C85.7856 95.6532 84.3865 94.254 82.6606 94.254C81.5831 94.254 80.6329 94.7994 80.0711 95.6292C79.6174 95.1663 78.9851 94.879 78.2856 94.879C77.5862 94.879 76.9539 95.1663 76.5002 95.6292ZM75.7856 97.379C75.7856 98.4146 74.9462 99.254 73.9106 99.254C72.8751 99.254 72.0356 98.4146 72.0356 97.379C72.0356 96.3435 72.8751 95.504 73.9106 95.504C74.9462 95.504 75.7856 96.3435 75.7856 97.379ZM80.7856 97.379C80.7856 98.4146 81.6251 99.254 82.6606 99.254C83.6962 99.254 84.5356 98.4146 84.5356 97.379C84.5356 96.3435 83.6962 95.504 82.6606 95.504C81.6251 95.504 80.7856 96.3435 80.7856 97.379Z"
            fill="#136C4F" />
    </g>
    <defs>
        <filter id="filter0_i_22295_74351" x="24.2856" y="15" width="139" height="85.4286"
            filterUnits="userSpaceOnUse" color-interpolation-filters="sRGB">
            <feFlood flood-opacity="0" result="BackgroundImageFix" />
            <feBlend mode="normal" in="SourceGraphic" in2="BackgroundImageFix" result="shape" />
            <feColorMatrix in="SourceAlpha" type="matrix"
                values="0 0 0 0 0 0 0 0 0 0 0 0 0 0 0 0 0 0 127 0" result="hardAlpha" />
            <feOffset dy="3.42857" />
            <feGaussianBlur stdDeviation="1.71429" />
            <feComposite in2="hardAlpha" operator="arithmetic" k2="-1" k3="1" />
            <feColorMatrix type="matrix" values="0 0 0 0 1 0 0 0 0 1 0 0 0 0 1 0 0 0 0.15 0" />
            <feBlend mode="normal" in2="shape" result="effect1_innerShadow_22295_74351" />
        </filter>
        <filter id="filter1_d_22295_74351" x="0.285645" y="69" width="56" height="56"
            filterUnits="userSpaceOnUse" color-interpolation-filters="sRGB">
            <feFlood flood-opacity="0" result="BackgroundImageFix" />
            <feColorMatrix in="SourceAlpha" type="matrix"
                values="0 0 0 0 0 0 0 0 0 0 0 0 0 0 0 0 0 0 127 0" result="hardAlpha" />
            <feOffset dy="4" />
            <feGaussianBlur stdDeviation="4" />
            <feComposite in2="hardAlpha" operator="out" />
            <feColorMatrix type="matrix" values="0 0 0 0 0 0 0 0 0 0 0 0 0 0 0 0 0 0 0.05 0" />
            <feBlend mode="normal" in2="BackgroundImageFix" result="effect1_dropShadow_22295_74351" />
            <feBlend mode="normal" in="SourceGraphic" in2="effect1_dropShadow_22295_74351"
                result="shape" />
        </filter>
        <filter id="filter2_d_22295_74351" x="100.286" y="69" width="56" height="56"
            filterUnits="userSpaceOnUse" color-interpolation-filters="sRGB">
            <feFlood flood-opacity="0" result="BackgroundImageFix" />
            <feColorMatrix in="SourceAlpha" type="matrix"
                values="0 0 0 0 0 0 0 0 0 0 0 0 0 0 0 0 0 0 127 0" result="hardAlpha" />
            <feOffset dy="4" />
            <feGaussianBlur stdDeviation="4" />
            <feComposite in2="hardAlpha" operator="out" />
            <feColorMatrix type="matrix" values="0 0 0 0 0 0 0 0 0 0 0 0 0 0 0 0 0 0 0.05 0" />
            <feBlend mode="normal" in2="BackgroundImageFix" result="effect1_dropShadow_22295_74351" />
            <feBlend mode="normal" in="SourceGraphic" in2="effect1_dropShadow_22295_74351"
                result="shape" />
        </filter>
        <filter id="filter3_d_22295_74351" x="50.2856" y="69" width="56" height="56"
            filterUnits="userSpaceOnUse" color-interpolation-filters="sRGB">
            <feFlood flood-opacity="0" result="BackgroundImageFix" />
            <feColorMatrix in="SourceAlpha" type="matrix"
                values="0 0 0 0 0 0 0 0 0 0 0 0 0 0 0 0 0 0 127 0" result="hardAlpha" />
            <feOffset dy="4" />
            <feGaussianBlur stdDeviation="4" />
            <feComposite in2="hardAlpha" operator="out" />
            <feColorMatrix type="matrix" values="0 0 0 0 0 0 0 0 0 0 0 0 0 0 0 0 0 0 0.05 0" />
            <feBlend mode="normal" in2="BackgroundImageFix" result="effect1_dropShadow_22295_74351" />
            <feBlend mode="normal" in="SourceGraphic" in2="effect1_dropShadow_22295_74351"
                result="shape" />
        </filter>
        <radialGradient id="paint0_radial_22295_74351" cx="0" cy="0" r="1"
            gradientUnits="userSpaceOnUse"
            gradientTransform="translate(64.1567 107.892) rotate(-43.1397) scale(135.851 755.302)">
            <stop stop-color="#B1A4CD" />
            <stop offset="1" stop-color="#7E40A6" stop-opacity="0" />
        </radialGradient>
        <linearGradient id="paint1_linear_22295_74351" x1="149.46" y1="17.2957" x2="149.46"
            y2="61.2009" gradientUnits="userSpaceOnUse">
            <stop stop-color="#FF7171" />
            <stop offset="1" stop-color="#E63757" />
        </linearGradient>
    </defs>
</svg>