<svg width="24" height="24" viewBox="0 0 24 24" fill="none" xmlns="http://www.w3.org/2000/svg">
    <path fill-rule="evenodd" clip-rule="evenodd"
        d="M12 21C16.9706 21 21 16.9706 21 12C21 7.02944 16.9706 3 12 3C7.02944 3 3 7.02944 3 12C3 16.9706 7.02944 21 12 21ZM12 22.5C17.799 22.5 22.5 17.799 22.5 12C22.5 6.20101 17.799 1.5 12 1.5C6.20101 1.5 1.5 6.20101 1.5 12C1.5 17.799 6.20101 22.5 12 22.5Z"
        fill="black" />
    <path fill-rule="evenodd" clip-rule="evenodd"
        d="M12 4.875C12.4142 4.875 12.75 5.21079 12.75 5.625V6H13.5C15.1569 6 16.5 7.34315 16.5 9C16.5 9.8393 16.1553 10.5981 15.5998 11.1426C16.5956 11.8168 17.25 12.957 17.25 14.25C17.25 16.3211 15.5711 18 13.5 18H12.75V18.375C12.75 18.7892 12.4142 19.125 12 19.125C11.5858 19.125 11.25 18.7892 11.25 18.375V18H8.25C7.83579 18 7.5 17.6642 7.5 17.25C7.5 16.8358 7.83579 16.5 8.25 16.5H9V7.5H8.25C7.83579 7.5 7.5 7.16421 7.5 6.75C7.5 6.33579 7.83579 6 8.25 6H11.25V5.625C11.25 5.21079 11.5858 4.875 12 4.875ZM10.5 7.5V10.5H13.5C14.3284 10.5 15 9.82843 15 9C15 8.17157 14.3284 7.5 13.5 7.5H10.5ZM10.5 12V16.5H13.5C14.7426 16.5 15.75 15.4926 15.75 14.25C15.75 13.0074 14.7426 12 13.5 12H10.5Z"
        fill="black" />
</svg>