<svg width="21" height="21" viewBox="0 0 21 21" xmlns="http://www.w3.org/2000/svg">
  <path
    d="M11.7007 17.6556L12.2972 16.0649L13.4622 17.23L12.7865 19.0321C12.5527 19.6556 11.7526 19.8289 11.2818 19.358L7.05873 15.135L1.92577 20.2679C1.56822 20.6255 0.988509 20.6255 0.630957 20.2679C0.273405 19.9104 0.273405 19.3307 0.630957 18.9731L5.76392 13.8402L1.63934 9.71557C1.16849 9.24472 1.34178 8.4447 1.96526 8.21089L3.76735 7.53511L4.93244 8.70021L3.34178 9.2967L11.7007 17.6556Z" />
  <path fill-rule="evenodd" clip-rule="evenodd"
    d="M14.5064 14.4457L19.0303 18.9697C19.3232 19.2626 19.3232 19.7374 19.0303 20.0303C18.7374 20.3232 18.2626 20.3232 17.9697 20.0303L0.96967 3.03033C0.676777 2.73744 0.676777 2.26256 0.96967 1.96967C1.26256 1.67678 1.73744 1.67678 2.03033 1.96967L6.55166 6.491L9.80422 5.27129C10.5189 5.00328 10.9924 4.32004 10.9924 3.55674V1.85686C10.9924 1.04117 11.9786 0.632676 12.5554 1.20945L19.7879 8.44199C20.3647 9.01877 19.9562 10.005 19.1405 10.005H17.4406C16.6773 10.005 15.9941 10.4784 15.7261 11.1931L14.5064 14.4457ZM7.71675 7.65609L10.3309 6.67578C11.6311 6.18822 12.4924 4.94531 12.4924 3.55674V3.2678L17.7296 8.50496H17.4406C16.0521 8.50496 14.8091 9.3663 14.3216 10.6665L13.3413 13.2806L7.71675 7.65609Z" />
</svg>