<svg width="30" height="30" viewBox="0 0 30 30" fill="none" xmlns="http://www.w3.org/2000/svg">
    <path fill-rule="evenodd" clip-rule="evenodd"
        d="M9.66622 9.6033H10.0218H19.9773H20.3329C20.3329 6.65778 17.9451 4.26997 14.9996 4.26997C12.054 4.26997 9.66622 6.65778 9.66622 9.6033ZM7.88844 9.6033V9.63741C7.19117 9.67999 6.69649 9.77569 6.27425 9.99083C5.60523 10.3317 5.0613 10.8756 4.72042 11.5447C4.33289 12.3052 4.33289 13.3009 4.33289 15.2922V21.6922C4.33289 23.6835 4.33289 24.6791 4.72042 25.4397C5.0613 26.1087 5.60523 26.6527 6.27425 26.9935C7.03483 27.3811 8.03048 27.3811 10.0218 27.3811H19.9773C21.9686 27.3811 22.9643 27.3811 23.7249 26.9935C24.3939 26.6527 24.9378 26.1087 25.2787 25.4397C25.6662 24.6791 25.6662 23.6835 25.6662 21.6922V15.2922C25.6662 13.3009 25.6662 12.3052 25.2787 11.5447C24.9378 10.8756 24.3939 10.3317 23.7249 9.99083C23.3026 9.77569 22.8079 9.67999 22.1107 9.63741V9.6033C22.1107 5.67594 18.9269 2.49219 14.9996 2.49219C11.0722 2.49219 7.88844 5.67594 7.88844 9.6033ZM7.83126 11.4236C8.33497 11.3825 8.99679 11.3811 10.0218 11.3811H19.9773C21.0023 11.3811 21.6641 11.3825 22.1678 11.4236C22.6508 11.4631 22.8299 11.5301 22.9178 11.5748C23.2523 11.7453 23.5242 12.0172 23.6947 12.3518C23.7395 12.4397 23.8064 12.6187 23.8459 13.1017C23.8871 13.6054 23.8884 14.2672 23.8884 15.2922V21.6922C23.8884 22.7172 23.8871 23.379 23.8459 23.8827C23.8064 24.3657 23.7395 24.5447 23.6947 24.6326C23.5242 24.9671 23.2523 25.2391 22.9178 25.4095C22.8299 25.4543 22.6508 25.5213 22.1678 25.5608C21.6641 25.6019 21.0023 25.6033 19.9773 25.6033H10.0218C8.99679 25.6033 8.33497 25.6019 7.83126 25.5608C7.3483 25.5213 7.16925 25.4543 7.08135 25.4095C6.74684 25.2391 6.47487 24.9671 6.30443 24.6326C6.25964 24.5447 6.19266 24.3657 6.1532 23.8827C6.11205 23.379 6.11066 22.7172 6.11066 21.6922V15.2922C6.11066 14.2672 6.11205 13.6054 6.1532 13.1017C6.19266 12.6187 6.25964 12.4397 6.30443 12.3518C6.47487 12.0172 6.74684 11.7453 7.08135 11.5748C7.16925 11.5301 7.3483 11.4631 7.83126 11.4236ZM16.7773 16.7144C16.7773 17.3938 16.3963 17.9841 15.8362 18.2834L16.6117 21.3851C16.6958 21.7217 16.4412 22.0477 16.0942 22.0477H13.9049C13.5579 22.0477 13.3033 21.7217 13.3874 21.3851L14.1629 18.2834C13.6028 17.9841 13.2218 17.3938 13.2218 16.7144C13.2218 15.7326 14.0177 14.9366 14.9996 14.9366C15.9814 14.9366 16.7773 15.7326 16.7773 16.7144Z"
        fill="#A779FF" />
</svg>