<svg width="24" height="24" viewBox="0 0 24 24" fill="none" xmlns="http://www.w3.org/2000/svg">
<path d="M8.66517 5.91C9.38217 2.944 10.6082 1 12.0002 1C14.2092 1 16.0002 5.925 16.0002 12C16.0002 18.075 14.2092 23 12.0002 23C10.0572 23 8.43817 19.197 8.07617 14.147" stroke="black" stroke-width="2" stroke-linecap="round" stroke-linejoin="round"/>
<path d="M8.66115 18.092C5.78515 19.082 3.48515 19.101 2.73615 17.931C1.54515 16.07 4.72715 11.907 9.84315 8.63098C14.9591 5.35498 20.0731 4.20798 21.2641 6.06898C22.3121 7.70598 19.9761 11.124 15.9161 14.153" stroke="black" stroke-width="2" stroke-linecap="round" stroke-linejoin="round"/>
<path d="M11.9911 7.36798C7.66915 5.09098 3.75815 4.47198 2.73615 6.06898C1.54515 7.92998 4.72715 12.093 9.84315 15.369C14.9591 18.645 20.0731 19.792 21.2641 17.931C22.0691 16.673 20.8681 14.399 18.4291 12.022" stroke="black" stroke-width="2" stroke-linecap="round" stroke-linejoin="round"/>
<path d="M12 13C12.5523 13 13 12.5523 13 12C13 11.4477 12.5523 11 12 11C11.4477 11 11 11.4477 11 12C11 12.5523 11.4477 13 12 13Z" fill="black"/>
</svg>
