<svg width="28" height="23" viewBox="0 0 28 23" fill="none" xmlns="http://www.w3.org/2000/svg">
    <path
        d="M17.3907 4.18681L21.2001 15.4002H24.5001C25.2162 15.4002 25.9029 15.6847 26.4093 16.191C26.9156 16.6974 27.2001 17.3841 27.2001 18.1002V20.2002C27.2001 20.6776 27.0105 21.1354 26.6729 21.473C26.3353 21.8106 25.8775 22.0002 25.4001 22.0002H17.6001L1.5357 11.247C1.1569 10.9749 0.901171 10.564 0.824387 10.1039C0.747602 9.64391 0.856001 9.17218 1.1259 8.79182L6.6123 1.11181C6.78441 0.870251 7.04528 0.706801 7.33773 0.65731C7.63017 0.60782 7.9303 0.67633 8.1723 0.847815L8.1801 0.853215C8.3287 0.961577 8.44887 1.10428 8.53036 1.26915C8.61186 1.43402 8.65225 1.61615 8.6481 1.80001C8.63028 2.60732 8.81203 3.40655 9.17721 4.12676C9.5424 4.84697 10.0797 5.4659 10.7415 5.92861C11.2686 6.31628 11.8689 6.59303 12.506 6.74215C13.1431 6.89128 13.8039 6.90967 14.4483 6.79621"
        stroke="black" stroke-opacity="0.8" stroke-width="1.2" stroke-linecap="round"
        stroke-linejoin="round" />
    <path d="M0.800049 22H9.20005" stroke="black" stroke-opacity="0.8" stroke-width="1.2"
        stroke-linecap="round" stroke-linejoin="round" />
    <path d="M0.800049 17.2002H3.80005" stroke="black" stroke-opacity="0.8" stroke-width="1.2"
        stroke-linecap="round" stroke-linejoin="round" />
</svg>