<svg width="185" height="72" viewBox="0 0 185 72" fill="none" xmlns="http://www.w3.org/2000/svg">
<g filter="url(#filter0_bdi_22445_6720)">
<rect x="8.5" y="8" width="168" height="56" rx="28" fill="white" fill-opacity="0.1" shape-rendering="crispEdges"/>
<path fill-rule="evenodd" clip-rule="evenodd" d="M34 27.75C34 26.5074 35.0074 25.5 36.25 25.5H52.75C53.9926 25.5 55 26.5074 55 27.75V36.7501C55 37.9927 53.9926 39.0001 52.75 39.0001H45.25V42H49C49.4142 42 49.75 42.3358 49.75 42.75C49.75 43.1642 49.4142 43.5 49 43.5H40C39.5858 43.5 39.25 43.1642 39.25 42.75C39.25 42.3358 39.5858 42 40 42H43.75V39.0001H36.25C35.0074 39.0001 34 37.9927 34 36.7501V27.75ZM52.75 37.5L36.25 37.5001C35.8358 37.5001 35.5 37.1643 35.5 36.7501V27.75C35.5 27.3358 35.8358 27 36.25 27H52.75C53.1642 27 53.5 27.3358 53.5 27.75V36.7501C53.5 37.1643 53.1642 37.5 52.75 37.5ZM34 45.75C34 45.3358 34.3358 45 34.75 45H54.25C54.6642 45 55 45.3358 55 45.75C55 46.1642 54.6642 46.5 54.25 46.5H34.75C34.3358 46.5 34 46.1642 34 45.75Z" fill="white"/>
<path fill-rule="evenodd" clip-rule="evenodd" d="M91.1817 27.0959C91.3645 27.069 91.5492 27.0477 91.7355 27.032L91.7355 35.2518L87.2733 35.2603C87.458 32.2818 88.7608 29.3544 91.1817 27.0959ZM85.7706 35.2632C85.9107 32.7067 86.7814 30.1801 88.3827 27.9949C85.6881 29.3836 83.7851 32.093 83.5294 35.2675L85.7706 35.2632ZM83.5323 36.7675L85.7721 36.7632C85.9171 39.311 86.7878 41.828 88.3843 44.006C85.6987 42.6225 83.7991 39.9275 83.5323 36.7675ZM87.2747 36.7603L91.7355 36.7518L91.7354 44.968C91.5497 44.9524 91.3655 44.9311 91.1832 44.9044C88.7674 42.651 87.4646 39.7318 87.2747 36.7603ZM93.2355 36.749L93.2354 44.9704C93.4468 44.9533 93.6561 44.9289 93.8631 44.8974C96.2792 42.6399 97.5798 39.7156 97.7647 36.7403L93.2355 36.749ZM99.2674 36.7375C99.1277 39.2814 98.2646 41.7957 96.678 43.9736C99.3403 42.5757 101.217 39.8835 101.471 36.7333L99.2674 36.7375ZM101.468 35.2333L99.266 35.2375C99.1221 32.702 98.2593 30.197 96.6778 28.0264C99.3308 29.4193 101.203 32.0974 101.468 35.2333ZM97.7635 35.2403L93.2355 35.249L93.2355 27.0296C93.4467 27.0467 93.6559 27.0711 93.8628 27.1025C96.2739 29.355 97.5742 32.2716 97.7635 35.2403ZM90.5097 25.6884L90.5064 25.6846L90.5 25.6902C85.6576 26.6241 82 30.8849 82 36C82 41.1157 85.6584 45.3769 90.5017 46.3101L90.5066 46.3144L90.5091 46.3115C91.1537 46.4352 91.8193 46.5 92.5 46.5C93.192 46.5 93.8683 46.4331 94.5229 46.3053L94.5315 46.3151L94.5483 46.3003C99.3668 45.3475 103 41.098 103 36C103 30.9018 99.3665 26.6522 94.5479 25.6996L94.5316 25.6853L94.5234 25.6948C93.8686 25.567 93.1921 25.5 92.5 25.5C91.8195 25.5 91.1542 25.5647 90.5097 25.6884Z" fill="white"/>
<path fill-rule="evenodd" clip-rule="evenodd" d="M136 27H145C145.828 27 146.5 27.6716 146.5 28.5V43.5C146.5 44.3284 145.828 45 145 45H136C135.172 45 134.5 44.3284 134.5 43.5V28.5C134.5 27.6716 135.172 27 136 27ZM133 28.5C133 26.8431 134.343 25.5 136 25.5H145C146.657 25.5 148 26.8431 148 28.5V43.5C148 45.1569 146.657 46.5 145 46.5H136C134.343 46.5 133 45.1569 133 43.5V28.5ZM142 43.5C142.414 43.5 142.75 43.1642 142.75 42.75C142.75 42.3358 142.414 42 142 42H139C138.586 42 138.25 42.3358 138.25 42.75C138.25 43.1642 138.586 43.5 139 43.5H142Z" fill="white"/>
</g>
<defs>
<filter id="filter0_bdi_22445_6720" x="0.5" y="0" width="184" height="72" filterUnits="userSpaceOnUse" color-interpolation-filters="sRGB">
<feFlood flood-opacity="0" result="BackgroundImageFix"/>
<feGaussianBlur in="BackgroundImageFix" stdDeviation="2"/>
<feComposite in2="SourceAlpha" operator="in" result="effect1_backgroundBlur_22445_6720"/>
<feColorMatrix in="SourceAlpha" type="matrix" values="0 0 0 0 0 0 0 0 0 0 0 0 0 0 0 0 0 0 127 0" result="hardAlpha"/>
<feOffset/>
<feGaussianBlur stdDeviation="4"/>
<feComposite in2="hardAlpha" operator="out"/>
<feColorMatrix type="matrix" values="0 0 0 0 0 0 0 0 0 0 0 0 0 0 0 0 0 0 0.15 0"/>
<feBlend mode="normal" in2="effect1_backgroundBlur_22445_6720" result="effect2_dropShadow_22445_6720"/>
<feBlend mode="normal" in="SourceGraphic" in2="effect2_dropShadow_22445_6720" result="shape"/>
<feColorMatrix in="SourceAlpha" type="matrix" values="0 0 0 0 0 0 0 0 0 0 0 0 0 0 0 0 0 0 127 0" result="hardAlpha"/>
<feOffset/>
<feGaussianBlur stdDeviation="2"/>
<feComposite in2="hardAlpha" operator="arithmetic" k2="-1" k3="1"/>
<feColorMatrix type="matrix" values="0 0 0 0 1 0 0 0 0 1 0 0 0 0 1 0 0 0 0.15 0"/>
<feBlend mode="normal" in2="shape" result="effect3_innerShadow_22445_6720"/>
</filter>
</defs>
</svg>
