<svg width="24" height="24" viewBox="0 0 24 24" fill="none" xmlns="http://www.w3.org/2000/svg">
<g clip-path="url(#clip0_6196_66055)">
<path d="M12 14C13.1046 14 14 13.1046 14 12C14 10.8954 13.1046 10 12 10C10.8954 10 10 10.8954 10 12C10 13.1046 10.8954 14 12 14Z" stroke="black" stroke-width="2" stroke-linecap="round" stroke-linejoin="round"/>
<path d="M23 12C23 10.7136 20.8901 9.61951 18.7764 9.19312C19.9695 7.3971 20.6879 5.13147 19.7782 4.22181C18.8685 3.31215 16.603 4.03053 14.8069 5.22358C14.3805 3.10992 13.2864 1 12 1C10.7136 1 9.61951 3.10992 9.19312 5.22357C7.39703 4.03052 5.13147 3.31213 4.2218 4.2218C3.31213 5.13147 4.03052 7.39709 5.22357 9.19312C3.10992 9.61951 1 10.7136 1 12C1 13.2864 3.10992 14.3805 5.22351 14.8069C4.03046 16.603 3.31219 18.8685 4.2218 19.7781C5.13147 20.6878 7.39703 19.9695 9.19311 18.7764C9.61951 20.8901 10.7136 23 12 23C13.2864 23 14.3805 20.8901 14.8069 18.7764C16.603 19.9695 18.8685 20.6878 19.7782 19.7781C20.6878 18.8685 19.9695 16.603 18.7765 14.8069C20.8901 14.3805 23 13.2864 23 12Z" stroke="black" stroke-width="2" stroke-linecap="round" stroke-linejoin="round"/>
</g>
<defs>
<clipPath id="clip0_6196_66055">
<rect width="24" height="24" fill="white"/>
</clipPath>
</defs>
</svg>
