<svg width="20" height="20" viewBox="0 0 20 20" fill="none" xmlns="http://www.w3.org/2000/svg">
    <path d="M14 2H16C17.1046 2 18 2.89543 18 4V6" stroke="#000000" stroke-linecap="round"
        stroke-linejoin="round" />
    <path d="M14 18H16C17.1046 18 18 17.1046 18 16V14" stroke="#000000" stroke-linecap="round"
        stroke-linejoin="round" />
    <path d="M6 18H4C2.89543 18 2 17.1046 2 16V14" stroke="#000000" stroke-linecap="round"
        stroke-linejoin="round" />
    <path d="M6 2H4C2.89543 2 2 2.89543 2 4V6" stroke="#000000" stroke-linecap="round"
        stroke-linejoin="round" />
    <rect x="6" y="5" width="8" height="1" rx="0.5" fill="#000000" />
    <rect x="6" y="8" width="8" height="1" rx="0.5" fill="#000000" />
    <rect x="6" y="11" width="8" height="1" rx="0.5" fill="#000000" />
    <rect x="6" y="14" width="8" height="1" rx="0.5" fill="#000000" />
</svg>