<svg width="21" height="21" viewBox="0 0 21 21" xmlns="http://www.w3.org/2000/svg">
  <path
    d="M12.5554 1.20945C11.9786 0.632676 10.9924 1.04117 10.9924 1.85686V3.55674C10.9924 4.32004 10.5189 5.00328 9.80422 5.27129L1.96526 8.21089C1.34178 8.4447 1.16849 9.24472 1.63934 9.71557L5.76392 13.8402L0.630957 18.9731C0.273405 19.3307 0.273405 19.9104 0.630957 20.2679C0.988509 20.6255 1.56822 20.6255 1.92577 20.2679L7.05873 15.135L11.2818 19.358C11.7526 19.8289 12.5527 19.6556 12.7865 19.0321L15.7261 11.1931C15.9941 10.4784 16.6773 10.005 17.4406 10.005H19.1405C19.9562 10.005 20.3647 9.01877 19.7879 8.44199L12.5554 1.20945Z" />
</svg>