<svg width="23" height="28" viewBox="0 0 23 28" fill="none" xmlns="http://www.w3.org/2000/svg">
    <path
        d="M14.2742 23.5111C14.6071 22.0003 14.7755 20.4579 14.7764 18.9109C14.7812 14.2377 13.2472 9.69295 10.4114 5.97852L10.1456 6.19992C11.2235 8.7937 11.7778 11.5751 11.7764 14.3839C11.7795 17.3712 11.1542 20.3258 9.94104 23.0557"
        stroke="black" stroke-opacity="0.8" stroke-width="1.2" stroke-linecap="round"
        stroke-linejoin="round" />
    <path
        d="M19.4036 27.2001C18.422 25.9002 17.1521 24.8457 15.6939 24.1196C14.2357 23.3935 12.629 23.0156 11 23.0156C9.37108 23.0156 7.76433 23.3935 6.30614 24.1196C4.84796 24.8457 3.5781 25.9002 2.59644 27.2001H19.4036Z"
        stroke="black" stroke-opacity="0.8" stroke-width="1.2" stroke-linecap="round"
        stroke-linejoin="round" />
    <path d="M3.20007 15.8003L10.3455 6.04492C4.85427 6.80032 0.800068 9.20032 3.20007 15.8003Z"
        stroke="black" stroke-opacity="0.8" stroke-width="1.2" stroke-linecap="round"
        stroke-linejoin="round" />
    <path d="M21.8001 12.8006L10.3455 6.04515C10.3455 6.04515 21.2001 2.60055 21.8001 12.8006Z"
        stroke="black" stroke-opacity="0.8" stroke-width="1.2" stroke-linecap="round"
        stroke-linejoin="round" />
    <path d="M10.3454 6.04514L1.40002 4.99514C1.40002 4.99514 7.40002 -1.03606 10.3454 6.04514Z"
        stroke="black" stroke-opacity="0.8" stroke-width="1.2" stroke-linecap="round"
        stroke-linejoin="round" />
    <path d="M10.3455 6.04482L18.8001 2.00022C18.8001 2.00022 11.0001 -2.40978 10.3455 6.04482Z"
        stroke="black" stroke-opacity="0.8" stroke-width="1.2" stroke-linecap="round"
        stroke-linejoin="round" />
</svg>
    