<svg width="24" height="28" viewBox="0 0 24 28" fill="none" xmlns="http://www.w3.org/2000/svg">
    <path
        d="M9.6 8.60039C9.93137 8.60039 10.2 8.33176 10.2 8.00039C10.2 7.66902 9.93137 7.40039 9.6 7.40039C9.26863 7.40039 9 7.66902 9 8.00039C9 8.33176 9.26863 8.60039 9.6 8.60039Z"
        stroke="black" stroke-opacity="0.8" stroke-width="1.2" stroke-linecap="round"
        stroke-linejoin="round" />
    <path
        d="M14.3999 8.60039C14.7313 8.60039 14.9999 8.33176 14.9999 8.00039C14.9999 7.66902 14.7313 7.40039 14.3999 7.40039C14.0686 7.40039 13.7999 7.66902 13.7999 8.00039C13.7999 8.33176 14.0686 8.60039 14.3999 8.60039Z"
        stroke="black" stroke-opacity="0.8" stroke-width="1.2" stroke-linecap="round"
        stroke-linejoin="round" />
    <path
        d="M6.58795 14.0605C5.11347 14.207 3.7459 14.8958 2.75039 15.9933C1.75488 17.0908 1.20236 18.5188 1.19995 20.0005C1.19995 20.6371 1.45281 21.2475 1.90289 21.6976C2.35298 22.1477 2.96343 22.4005 3.59995 22.4005H4.19995"
        stroke="black" stroke-opacity="0.8" stroke-width="1.2" stroke-linecap="round"
        stroke-linejoin="round" />
    <path
        d="M18.2238 5.57792C18.6772 5.53658 19.1095 5.36679 19.4698 5.08847C19.8302 4.81014 20.1037 4.43483 20.2583 4.00655C20.4128 3.57827 20.4421 3.11479 20.3425 2.67048C20.243 2.22617 20.0188 1.81946 19.6963 1.49806C19.3738 1.17666 18.9663 0.953897 18.5217 0.855905C18.077 0.757913 17.6136 0.788756 17.1859 0.944816C16.7582 1.10088 16.3838 1.37568 16.1067 1.73699C15.8296 2.0983 15.6613 2.53114 15.6216 2.98472"
        stroke="black" stroke-opacity="0.8" stroke-width="1.2" stroke-linecap="round"
        stroke-linejoin="round" />
    <path
        d="M8.37834 2.98472C8.33857 2.53114 8.17028 2.0983 7.89321 1.73699C7.61613 1.37568 7.24177 1.10088 6.81403 0.944816C6.38629 0.788756 5.92291 0.757913 5.47826 0.855905C5.03361 0.953897 4.62613 1.17666 4.30361 1.49806C3.98109 1.81946 3.75692 2.22617 3.65739 2.67048C3.55785 3.11479 3.58709 3.57827 3.74167 4.00655C3.89625 4.43483 4.16975 4.81014 4.5301 5.08847C4.89045 5.36679 5.3227 5.53658 5.77614 5.57792"
        stroke="black" stroke-opacity="0.8" stroke-width="1.2" stroke-linecap="round"
        stroke-linejoin="round" />
    <path
        d="M18.6774 21.4849C19.1807 20.2401 19.3242 18.8791 19.0915 17.5567C18.8589 16.2344 18.2595 15.0041 17.3616 14.0059"
        stroke="black" stroke-opacity="0.8" stroke-width="1.2" stroke-linecap="round"
        stroke-linejoin="round" />
    <path
        d="M6.63836 14.0059C5.74041 15.0042 5.14096 16.2346 4.90832 17.5571C4.67568 18.8795 4.81921 20.2406 5.32256 21.4855"
        stroke="black" stroke-opacity="0.8" stroke-width="1.2" stroke-linecap="round"
        stroke-linejoin="round" />
    <path
        d="M11.9999 16.4C15.9764 16.4 19.1999 13.1764 19.1999 9.2C19.1999 5.22355 15.9764 2 11.9999 2C8.02348 2 4.79993 5.22355 4.79993 9.2C4.79993 13.1764 8.02348 16.4 11.9999 16.4Z"
        stroke="black" stroke-opacity="0.8" stroke-width="1.2" stroke-linecap="round"
        stroke-linejoin="round" />
    <path
        d="M12 11.6006C12 11.9188 12.1264 12.2241 12.3515 12.4491C12.5765 12.6742 12.8817 12.8006 13.2 12.8006"
        stroke="black" stroke-opacity="0.8" stroke-width="1.2" stroke-linecap="round"
        stroke-linejoin="round" />
    <path
        d="M10.7999 12.8006C11.1182 12.8006 11.4234 12.6742 11.6485 12.4491C11.8735 12.2241 11.9999 11.9188 11.9999 11.6006"
        stroke="black" stroke-opacity="0.8" stroke-width="1.2" stroke-linecap="round"
        stroke-linejoin="round" />
    <path
        d="M17.3999 27.2002C19.0568 27.2002 20.3999 25.857 20.3999 24.2002C20.3999 22.5433 19.0568 21.2002 17.3999 21.2002C15.743 21.2002 14.3999 22.5433 14.3999 24.2002C14.3999 25.857 15.743 27.2002 17.3999 27.2002Z"
        stroke="black" stroke-opacity="0.8" stroke-width="1.2" stroke-linecap="round"
        stroke-linejoin="round" />
    <path
        d="M6.59998 27.2002C8.25683 27.2002 9.59998 25.857 9.59998 24.2002C9.59998 22.5433 8.25683 21.2002 6.59998 21.2002C4.94312 21.2002 3.59998 22.5433 3.59998 24.2002C3.59998 25.857 4.94312 27.2002 6.59998 27.2002Z"
        stroke="black" stroke-opacity="0.8" stroke-width="1.2" stroke-linecap="round"
        stroke-linejoin="round" />
    <path d="M9.31494 25.4775C11.0371 26.1744 12.9628 26.1744 14.6849 25.4775" stroke="black"
        stroke-opacity="0.8" stroke-width="1.2" stroke-linecap="round" stroke-linejoin="round" />
    <path
        d="M17.412 14.0605C18.8865 14.207 20.254 14.8958 21.2495 15.9933C22.2451 17.0908 22.7976 18.5188 22.8 20.0005C22.8 20.6371 22.5471 21.2475 22.097 21.6976C21.647 22.1477 21.0365 22.4005 20.4 22.4005H19.8"
        stroke="black" stroke-opacity="0.8" stroke-width="1.2" stroke-linecap="round"
        stroke-linejoin="round" />
    <path d="M11.9999 11.6004L11.3999 10.4004H12.5999L11.9999 11.6004Z" stroke="black"
        stroke-opacity="0.8" stroke-width="1.2" stroke-linecap="round" stroke-linejoin="round" />
</svg>