<svg width="25" height="24" viewBox="0 0 25 24" fill="none" xmlns="http://www.w3.org/2000/svg">
    <path fill-rule="evenodd" clip-rule="evenodd"
        d="M14.9509 3.89509C15.2668 3.50777 15.4879 3.04006 15.5788 2.52734L21.1313 4.54643C21.4277 4.65421 21.625 4.93589 21.625 5.25127V13.6895C21.625 16.1596 20.2758 18.4324 18.1073 19.6153L16.241 20.6332C16.0538 20.1697 15.7451 19.7481 15.3616 19.4043L17.389 18.2984C19.0756 17.3785 20.125 15.6107 20.125 13.6895V5.77659L14.9509 3.89509ZM11.158 20.0968L7.86103 18.2984C6.17441 17.3785 5.125 15.6107 5.125 13.6895V5.77659L10.2991 3.89509C9.98319 3.50777 9.76207 3.04006 9.67117 2.52734L4.11869 4.54643C3.8223 4.65421 3.625 4.93589 3.625 5.25127V13.6895C3.625 16.1596 4.97424 18.4324 7.14275 19.6153L10.7912 21.6053C10.744 21.1199 10.8663 20.5924 11.158 20.0968Z"
        fill="#9292F9" />
    <path
        d="M12.0718 2.42642L8.32457 3.82576M12.0718 2.42642L9.49853 1.25247M12.0718 2.42642L10.8979 4.99971"
        stroke="#9292F9" stroke-width="1.5" stroke-linecap="round" stroke-linejoin="round" />
    <path
        d="M13.5959 21.2485L17.093 19.3068M13.5959 21.2485L16.3153 22.0262M13.5959 21.2485L14.3735 18.5291"
        stroke="#9292F9" stroke-width="1.5" stroke-linecap="round" stroke-linejoin="round" />
    <path d="M9.625 11.5L12.125 14L16.125 8" stroke="#9292F9" stroke-width="1.5"
        stroke-linecap="round" stroke-linejoin="round" />
</svg>