<svg width="36" height="36" viewBox="0 0 36 36" fill="none" xmlns="http://www.w3.org/2000/svg">
    <rect x="0.00012207" width="36" height="36" rx="10" fill="#E5E5E8" />
    <path fill-rule="evenodd" clip-rule="evenodd" d="M20.1531 17.6021C22.4032 16.7367 24 14.5549 24 12C24 8.68629 21.3137 6 18 6C14.6863 6 12 8.68629 12 12C12 14.4381 13.4543 16.5366 15.5427 17.4753C15.5147 17.6041 15.5 17.7378 15.5 17.875V26.4296C15.5 27.0983 15.8342 27.7228 16.3906 28.0937L18.5 29.5L20.0787 28.0967C20.5057 27.7172 20.75 27.1731 20.75 26.6019V25.9741C20.75 25.6779 20.602 25.4013 20.3556 25.237L20 25C19.6432 24.7621 19.6432 24.2379 20 24C20.3568 23.7621 20.3568 23.2379 20 23L19.6056 22.737C19.0796 22.3864 19.0796 21.6136 19.6056 21.263C19.852 21.0987 20 20.8221 20 20.5259V19.9741C20 19.6779 20.148 19.4013 20.3944 19.237C20.9204 18.8864 20.9204 18.1136 20.3944 17.763L20.1531 17.6021Z" fill="#AFAFAF" />
</svg>