<svg width="394" height="260" viewBox="0 0 394 260" fill="none" xmlns="http://www.w3.org/2000/svg">
    <path fill-rule="evenodd" clip-rule="evenodd"
        d="M39 35C42.3137 35 45 32.3137 45 29C45 25.6863 42.3137 23 39 23C35.6863 23 33 25.6863 33 29C33 32.3137 35.6863 35 39 35ZM65 29C65 32.3137 62.3137 35 59 35C55.6863 35 53 32.3137 53 29C53 25.6863 55.6863 23 59 23C62.3137 23 65 25.6863 65 29ZM85 29C85 32.3137 82.3137 35 79 35C75.6863 35 73 32.3137 73 29C73 25.6863 75.6863 23 79 23C82.3137 23 85 25.6863 85 29ZM105 29C105 32.3137 102.314 35 99 35C95.6863 35 93 32.3137 93 29C93 25.6863 95.6863 23 99 23C102.314 23 105 25.6863 105 29ZM119 35C122.314 35 125 32.3137 125 29C125 25.6863 122.314 23 119 23C115.686 23 113 25.6863 113 29C113 32.3137 115.686 35 119 35ZM145 29C145 32.3137 142.314 35 139 35C135.686 35 133 32.3137 133 29C133 25.6863 135.686 23 139 23C142.314 23 145 25.6863 145 29ZM159 35C162.314 35 165 32.3137 165 29C165 25.6863 162.314 23 159 23C155.686 23 153 25.6863 153 29C153 32.3137 155.686 35 159 35Z"
        fill="#6D4AFF" />
    <path opacity="0.3" fill-rule="evenodd" clip-rule="evenodd"
        d="M222 10C224.761 10 227 7.76142 227 5C227 2.23858 224.761 0 222 0C219.239 0 217 2.23858 217 5C217 7.76142 219.239 10 222 10ZM238 10C240.761 10 243 7.76142 243 5C243 2.23858 240.761 0 238 0C235.239 0 233 2.23858 233 5C233 7.76142 235.239 10 238 10ZM254 10C256.761 10 259 7.76142 259 5C259 2.23858 256.761 0 254 0C251.239 0 249 2.23858 249 5C249 7.76142 251.239 10 254 10ZM275 5C275 7.76142 272.761 10 270 10C267.239 10 265 7.76142 265 5C265 2.23858 267.239 0 270 0C272.761 0 275 2.23858 275 5ZM286 10C288.761 10 291 7.76142 291 5C291 2.23858 288.761 0 286 0C283.239 0 281 2.23858 281 5C281 7.76142 283.239 10 286 10ZM307 5C307 7.76142 304.761 10 302 10C299.239 10 297 7.76142 297 5C297 2.23858 299.239 0 302 0C304.761 0 307 2.23858 307 5ZM318 10C320.761 10 323 7.76142 323 5C323 2.23858 320.761 0 318 0C315.239 0 313 2.23858 313 5C313 7.76142 315.239 10 318 10ZM339 5C339 7.76142 336.761 10 334 10C331.239 10 329 7.76142 329 5C329 2.23858 331.239 0 334 0C336.761 0 339 2.23858 339 5Z"
        fill="#6D4AFF" />
    <path fill-rule="evenodd" clip-rule="evenodd"
        d="M7 136C10.866 136 14 132.866 14 129C14 125.134 10.866 122 7 122C3.13401 122 0 125.134 0 129C0 132.866 3.13401 136 7 136ZM41 136C44.866 136 48 132.866 48 129C48 125.134 44.866 122 41 122C37.134 122 34 125.134 34 129C34 132.866 37.134 136 41 136ZM82 129C82 132.866 78.866 136 75 136C71.134 136 68 132.866 68 129C68 125.134 71.134 122 75 122C78.866 122 82 125.134 82 129ZM109 136C112.866 136 116 132.866 116 129C116 125.134 112.866 122 109 122C105.134 122 102 125.134 102 129C102 132.866 105.134 136 109 136Z"
        fill="#6D4AFF" />
    <path fill-rule="evenodd" clip-rule="evenodd"
        d="M285 136C288.866 136 292 132.866 292 129C292 125.134 288.866 122 285 122C281.134 122 278 125.134 278 129C278 132.866 281.134 136 285 136ZM319 136C322.866 136 326 132.866 326 129C326 125.134 322.866 122 319 122C315.134 122 312 125.134 312 129C312 132.866 315.134 136 319 136ZM360 129C360 132.866 356.866 136 353 136C349.134 136 346 132.866 346 129C346 125.134 349.134 122 353 122C356.866 122 360 125.134 360 129ZM387 136C390.866 136 394 132.866 394 129C394 125.134 390.866 122 387 122C383.134 122 380 125.134 380 129C380 132.866 383.134 136 387 136Z"
        fill="#6D4AFF" />
    <path opacity="0.6" fill-rule="evenodd" clip-rule="evenodd"
        d="M204 260C207.314 260 210 257.314 210 254C210 250.686 207.314 248 204 248C200.686 248 198 250.686 198 254C198 257.314 200.686 260 204 260ZM230 254C230 257.314 227.314 260 224 260C220.686 260 218 257.314 218 254C218 250.686 220.686 248 224 248C227.314 248 230 250.686 230 254ZM244 260C247.314 260 250 257.314 250 254C250 250.686 247.314 248 244 248C240.686 248 238 250.686 238 254C238 257.314 240.686 260 244 260ZM270 254C270 257.314 267.314 260 264 260C260.686 260 258 257.314 258 254C258 250.686 260.686 248 264 248C267.314 248 270 250.686 270 254ZM284 260C287.314 260 290 257.314 290 254C290 250.686 287.314 248 284 248C280.686 248 278 250.686 278 254C278 257.314 280.686 260 284 260ZM304 260C307.314 260 310 257.314 310 254C310 250.686 307.314 248 304 248C300.686 248 298 250.686 298 254C298 257.314 300.686 260 304 260ZM330 254C330 257.314 327.314 260 324 260C320.686 260 318 257.314 318 254C318 250.686 320.686 248 324 248C327.314 248 330 250.686 330 254ZM344 260C347.314 260 350 257.314 350 254C350 250.686 347.314 248 344 248C340.686 248 338 250.686 338 254C338 257.314 340.686 260 344 260ZM370 254C370 257.314 367.314 260 364 260C360.686 260 358 257.314 358 254C358 250.686 360.686 248 364 248C367.314 248 370 250.686 370 254ZM384 260C387.314 260 390 257.314 390 254C390 250.686 387.314 248 384 248C380.686 248 378 250.686 378 254C378 257.314 380.686 260 384 260Z"
        fill="#6D4AFF" />
    <path opacity="0.3" fill-rule="evenodd" clip-rule="evenodd"
        d="M27 244C29.7614 244 32 241.761 32 239C32 236.239 29.7614 234 27 234C24.2386 234 22 236.239 22 239C22 241.761 24.2386 244 27 244ZM43 244C45.7614 244 48 241.761 48 239C48 236.239 45.7614 234 43 234C40.2386 234 38 236.239 38 239C38 241.761 40.2386 244 43 244ZM59 244C61.7614 244 64 241.761 64 239C64 236.239 61.7614 234 59 234C56.2386 234 54 236.239 54 239C54 241.761 56.2386 244 59 244ZM80 239C80 241.761 77.7614 244 75 244C72.2386 244 70 241.761 70 239C70 236.239 72.2386 234 75 234C77.7614 234 80 236.239 80 239ZM91 244C93.7614 244 96 241.761 96 239C96 236.239 93.7614 234 91 234C88.2386 234 86 236.239 86 239C86 241.761 88.2386 244 91 244ZM112 239C112 241.761 109.761 244 107 244C104.239 244 102 241.761 102 239C102 236.239 104.239 234 107 234C109.761 234 112 236.239 112 239ZM123 244C125.761 244 128 241.761 128 239C128 236.239 125.761 234 123 234C120.239 234 118 236.239 118 239C118 241.761 120.239 244 123 244ZM144 239C144 241.761 141.761 244 139 244C136.239 244 134 241.761 134 239C134 236.239 136.239 234 139 234C141.761 234 144 236.239 144 239Z"
        fill="#6D4AFF" />
</svg>
    