<svg width="23" height="19" viewBox="0 0 23 19" fill="none" xmlns="http://www.w3.org/2000/svg">
    <path
        d="M2.34424 13.7173L0.98291 6.00586C0.684082 4.3208 1.39795 3.32471 3.09961 3.01758L14.2725 1.05029C15.9824 0.751465 16.9785 1.44873 17.2856 3.13379L17.6924 5.44141H19.4771C21.2036 5.44141 22.0835 6.30469 22.0835 8.01465V15.8423C22.0835 17.5522 21.2036 18.4155 19.4771 18.4155H8.13818C6.39502 18.4155 5.53174 17.5605 5.53174 15.8423V15.7676L5.35742 15.8008C3.63916 16.0913 2.65137 15.4023 2.34424 13.7173ZM3.64746 13.4185C3.79688 14.2651 4.32812 14.6221 5.1499 14.481L5.53174 14.4146V8.01465C5.53174 6.30469 6.39502 5.44141 8.13818 5.44141H16.3394L15.9824 3.43262C15.833 2.58594 15.2852 2.2373 14.48 2.37012L3.35693 4.3291C2.53516 4.47021 2.16162 4.99316 2.31104 5.84814L3.64746 13.4185ZM6.86816 8.08936V15.0039L8.74414 13.3687C9.06787 13.0947 9.375 12.9619 9.69873 12.9619C10.0557 12.9619 10.396 13.0947 10.7197 13.3853L12.0479 14.5889L15.4014 11.6172C15.75 11.3101 16.1069 11.1772 16.522 11.1772C16.9287 11.1772 17.3188 11.3267 17.6426 11.6255L20.7471 14.5557V8.08936C20.7471 7.22607 20.2739 6.77783 19.4521 6.77783H8.15479C7.32471 6.77783 6.86816 7.22607 6.86816 8.08936ZM11.4502 11.8081C10.479 11.8081 9.69043 11.0029 9.69043 10.0317C9.69043 9.07715 10.479 8.27197 11.4502 8.27197C12.4214 8.27197 13.21 9.07715 13.21 10.0317C13.21 11.0029 12.4214 11.8081 11.4502 11.8081Z"
        fill="#D1D1D4" />
</svg>