<svg width="28" height="26" viewBox="0 0 28 26" fill="none" xmlns="http://www.w3.org/2000/svg">
    <path d="M11.6001 24.9998V17.7998H16.4001V24.9998" stroke="black" stroke-opacity="0.8"
        stroke-width="1.2" stroke-linecap="round" stroke-linejoin="round" />
    <path d="M4.40002 14.7998V24.9998H23.6V14.7998" stroke="black" stroke-opacity="0.8"
        stroke-width="1.2" stroke-linecap="round" stroke-linejoin="round" />
    <path
        d="M27.2 8.2C27.1768 9.17736 26.7665 10.1055 26.0593 10.7805C25.3521 11.4555 24.4058 11.8222 23.4284 11.8C22.8135 11.8044 22.2066 11.6602 21.6594 11.3796C21.1122 11.099 20.6409 10.6903 20.2856 10.1884C19.9273 10.6872 19.4553 11.0935 18.9088 11.3737C18.3624 11.654 17.757 11.8001 17.1428 11.8001C16.5287 11.8001 15.9233 11.654 15.3769 11.3737C14.8304 11.0935 14.3584 10.6872 14 10.1884C13.6417 10.6872 13.1697 11.0935 12.6232 11.3737C12.0768 11.654 11.4714 11.8001 10.8572 11.8001C10.2431 11.8001 9.63774 11.654 9.09126 11.3737C8.54477 11.0935 8.07283 10.6872 7.71445 10.1884C7.35918 10.6903 6.88789 11.099 6.34069 11.3796C5.79349 11.6602 5.18658 11.8044 4.57165 11.8C3.59426 11.8222 2.64803 11.4555 1.94084 10.7805C1.23364 10.1055 0.823331 9.17736 0.800049 8.2L5.60005 1H22.4L27.2 8.2Z"
        stroke="black" stroke-opacity="0.8" stroke-width="1.2" stroke-linecap="round"
        stroke-linejoin="round" />
</svg>
    