<svg width="12" height="12" viewBox="0 0 12 12" fill="none" xmlns="http://www.w3.org/2000/svg">
<path d="M1.5 2.5C2.05228 2.5 2.5 2.05228 2.5 1.5C2.5 0.947715 2.05228 0.5 1.5 0.5C0.947715 0.5 0.5 0.947715 0.5 1.5C0.5 2.05228 0.947715 2.5 1.5 2.5Z" stroke="black" stroke-linecap="round" stroke-linejoin="round"/>
<path d="M1.5 6.5C2.05228 6.5 2.5 6.05228 2.5 5.5C2.5 4.94772 2.05228 4.5 1.5 4.5C0.947715 4.5 0.5 4.94772 0.5 5.5C0.5 6.05228 0.947715 6.5 1.5 6.5Z" stroke="black" stroke-linecap="round" stroke-linejoin="round"/>
<path d="M1.5 10.5C2.05228 10.5 2.5 10.0523 2.5 9.5C2.5 8.94772 2.05228 8.5 1.5 8.5C0.947715 8.5 0.5 8.94772 0.5 9.5C0.5 10.0523 0.947715 10.5 1.5 10.5Z" stroke="black" stroke-linecap="round" stroke-linejoin="round"/>
<path d="M5.5 2.5C6.05228 2.5 6.5 2.05228 6.5 1.5C6.5 0.947715 6.05228 0.5 5.5 0.5C4.94772 0.5 4.5 0.947715 4.5 1.5C4.5 2.05228 4.94772 2.5 5.5 2.5Z" stroke="black" stroke-linecap="round" stroke-linejoin="round"/>
<path d="M5.5 6.5C6.05228 6.5 6.5 6.05228 6.5 5.5C6.5 4.94772 6.05228 4.5 5.5 4.5C4.94772 4.5 4.5 4.94772 4.5 5.5C4.5 6.05228 4.94772 6.5 5.5 6.5Z" stroke="black" stroke-linecap="round" stroke-linejoin="round"/>
<path d="M5.5 10.5C6.05228 10.5 6.5 10.0523 6.5 9.5C6.5 8.94772 6.05228 8.5 5.5 8.5C4.94772 8.5 4.5 8.94772 4.5 9.5C4.5 10.0523 4.94772 10.5 5.5 10.5Z" stroke="black" stroke-linecap="round" stroke-linejoin="round"/>
<path d="M9.5 2.5C10.0523 2.5 10.5 2.05228 10.5 1.5C10.5 0.947715 10.0523 0.5 9.5 0.5C8.94772 0.5 8.5 0.947715 8.5 1.5C8.5 2.05228 8.94772 2.5 9.5 2.5Z" stroke="black" stroke-linecap="round" stroke-linejoin="round"/>
<path d="M9.5 6.5C10.0523 6.5 10.5 6.05228 10.5 5.5C10.5 4.94772 10.0523 4.5 9.5 4.5C8.94772 4.5 8.5 4.94772 8.5 5.5C8.5 6.05228 8.94772 6.5 9.5 6.5Z" stroke="black" stroke-linecap="round" stroke-linejoin="round"/>
<path d="M9.5 10.5C10.0523 10.5 10.5 10.0523 10.5 9.5C10.5 8.94772 10.0523 8.5 9.5 8.5C8.94772 8.5 8.5 8.94772 8.5 9.5C8.5 10.0523 8.94772 10.5 9.5 10.5Z" stroke="black" stroke-linecap="round" stroke-linejoin="round"/>
</svg>
