<svg width="183" height="183" viewBox="0 0 183 183" fill="none" xmlns="http://www.w3.org/2000/svg">
    <g opacity="0.2">
        <path d="M126.5 5H154C167.255 5 178 15.7452 178 29V56.5" stroke="white" stroke-width="10"
            stroke-linecap="round" stroke-linejoin="round" />
        <path d="M126.5 178H154C167.255 178 178 167.255 178 154V126.5" stroke="white"
            stroke-width="10" stroke-linecap="round" stroke-linejoin="round" />
        <path d="M56.5 5H29C15.7452 5 5 15.7452 5 29V56.5" stroke="white" stroke-width="10"
            stroke-linecap="round" stroke-linejoin="round" />
        <path d="M56.5 178H29C15.7452 178 5 167.255 5 154V126.5" stroke="white" stroke-width="10"
            stroke-linecap="round" stroke-linejoin="round" />
    </g>
    <path
        d="M91.4988 125.998C113.866 125.998 131.998 107.866 131.998 85.4988C131.998 63.1319 113.866 45 91.4988 45C69.1319 45 51 63.1319 51 85.4988C51 107.866 69.1319 125.998 91.4988 125.998Z"
        fill="url(#paint0_linear_2139_28139)" />
    <path fill-rule="evenodd" clip-rule="evenodd"
        d="M111.258 75.1437C112.273 76.159 112.273 77.8049 111.258 78.8202L89.4312 100.646C88.416 101.662 86.77 101.662 85.7548 100.646L74.5861 89.478C73.5709 88.4628 73.5709 86.8168 74.5861 85.8016C75.6013 84.7864 77.2473 84.7863 78.2625 85.8016L87.593 95.1318L107.581 75.1437C108.596 74.1285 110.242 74.1285 111.258 75.1437Z"
        fill="#FEFEFF" />
    <defs>
        <linearGradient id="paint0_linear_2139_28139" x1="95.6965" y1="39.0939" x2="96.0748"
            y2="125.998" gradientUnits="userSpaceOnUse">
            <stop stop-color="#2AF091" />
            <stop offset="1" stop-color="#00C5A1" />
        </linearGradient>
    </defs>
</svg>