<svg width="28" height="28" viewBox="0 0 28 28" fill="none" xmlns="http://www.w3.org/2000/svg">
    <path
        d="M7.42082 18.2422C3.47625 19.0722 0.800049 20.6233 0.800049 22.3997C0.800049 25.0506 6.70989 27.1997 14 27.1997C21.2902 27.1997 27.2 25.0506 27.2 22.3997C27.2 20.6233 24.5886 19.0812 20.644 18.2511"
        stroke="black" stroke-opacity="0.8" stroke-width="1.2" stroke-linecap="round"
        stroke-linejoin="round" />
    <path d="M7.85535 16.3174C10.0303 17.8549 17.4598 18.1666 20.3098 16.4791" stroke="black"
        stroke-opacity="0.8" stroke-width="1.2" stroke-linecap="round" stroke-linejoin="round" />
    <path
        d="M15.2 7.9998C15.2 7.9998 24.95 10.1748 26 7.9998C26.6 6.4248 17.225 0.799805 14 0.799805C10.775 0.799805 6.80005 21.1998 6.80005 21.1998C6.80005 21.1998 8.70005 22.3998 14 22.3998C19.3 22.3998 21.2 21.1998 21.2 21.1998L18.8325 8.64511"
        stroke="black" stroke-opacity="0.8" stroke-width="1.2" stroke-linecap="round"
        stroke-linejoin="round" />
</svg>