<svg width="28" height="24" viewBox="0 0 28 24" fill="none" xmlns="http://www.w3.org/2000/svg">
    <path
        d="M24.8 8.40047C24.5983 8.40285 24.3976 8.43108 24.203 8.48447C23.4723 6.35991 22.0966 4.5165 20.2677 3.21151C18.4389 1.90652 16.2482 1.20508 14.0015 1.20508C11.7549 1.20508 9.56421 1.90652 7.73537 3.21151C5.90653 4.5165 4.53075 6.35991 3.80005 8.48447C3.60448 8.43083 3.40283 8.4026 3.20005 8.40047C2.56353 8.40047 1.95308 8.65332 1.50299 9.10341C1.05291 9.5535 0.800049 10.1639 0.800049 10.8005C0.800049 11.437 1.05291 12.0474 1.50299 12.4975C1.95308 12.9476 2.56353 13.2005 3.20005 13.2005C3.22405 13.2005 3.24565 13.1945 3.26905 13.1933C3.5624 15.8342 4.81928 18.2742 6.79917 20.0463C8.77906 21.8184 11.3429 22.7983 14 22.7983C16.6572 22.7983 19.221 21.8184 21.2009 20.0463C23.1808 18.2742 24.4377 15.8342 24.731 13.1933C24.7544 13.1933 24.776 13.2005 24.8 13.2005C25.4366 13.2005 26.047 12.9476 26.4971 12.4975C26.9472 12.0474 27.2 11.437 27.2 10.8005C27.2 10.1639 26.9472 9.5535 26.4971 9.10341C26.047 8.65332 25.4366 8.40047 24.8 8.40047Z"
        stroke="black" stroke-opacity="0.8" stroke-width="1.2" stroke-linecap="round"
        stroke-linejoin="round" />
    <path
        d="M9.80007 10.8006C10.1314 10.8006 10.4001 10.532 10.4001 10.2006C10.4001 9.86922 10.1314 9.60059 9.80007 9.60059C9.4687 9.60059 9.20007 9.86922 9.20007 10.2006C9.20007 10.532 9.4687 10.8006 9.80007 10.8006Z"
        stroke="black" stroke-opacity="0.8" stroke-width="1.2" stroke-linecap="round"
        stroke-linejoin="round" />
    <path
        d="M18.2001 10.8006C18.5315 10.8006 18.8001 10.532 18.8001 10.2006C18.8001 9.86922 18.5315 9.60059 18.2001 9.60059C17.8687 9.60059 17.6001 9.86922 17.6001 10.2006C17.6001 10.532 17.8687 10.8006 18.2001 10.8006Z"
        stroke="black" stroke-opacity="0.8" stroke-width="1.2" stroke-linecap="round"
        stroke-linejoin="round" />
    <path
        d="M11.1506 17.25C12.0198 17.7423 13.0017 18.001 14.0006 18.001C14.9995 18.001 15.9814 17.7423 16.8506 17.25"
        stroke="black" stroke-opacity="0.8" stroke-width="1.2" stroke-linecap="round"
        stroke-linejoin="round" />
    <path
        d="M14 1.2002C13.6053 1.20011 13.2166 1.29738 12.8685 1.48339C12.5203 1.66941 12.2235 1.93841 12.0041 2.26658C11.7848 2.59475 11.6498 2.97195 11.6111 3.36477C11.5723 3.75759 11.6311 4.15389 11.7821 4.51857C11.9332 4.88324 12.1718 5.20504 12.477 5.45544C12.7821 5.70585 13.1443 5.87713 13.5314 5.95411C13.9186 6.03109 14.3187 6.0114 14.6964 5.89678C15.0741 5.78216 15.4177 5.57615 15.6968 5.297"
        stroke="black" stroke-opacity="0.8" stroke-width="1.2" stroke-linecap="round"
        stroke-linejoin="round" />
</svg>