<svg width="26" height="28" viewBox="0 0 26 28" fill="none" xmlns="http://www.w3.org/2000/svg">
    <path
        d="M13 11.5998C15.9823 11.5998 18.4 9.18214 18.4 6.1998C18.4 3.21747 15.9823 0.799805 13 0.799805C10.0176 0.799805 7.59998 3.21747 7.59998 6.1998C7.59998 9.18214 10.0176 11.5998 13 11.5998Z"
        stroke="black" stroke-opacity="0.8" stroke-width="1.2" stroke-linecap="round"
        stroke-linejoin="round" />
    <path d="M7 20H19L17.8 27.2H8.2L7 20Z" stroke="black" stroke-opacity="0.8" stroke-width="1.2"
        stroke-linecap="round" stroke-linejoin="round" />
    <path
        d="M10.5514 14.5996C9.24033 15.7594 7.55038 16.3996 5.79998 16.3996C4.04959 16.3996 2.35963 15.7594 1.04858 14.5996C2.08699 13.6832 3.36793 13.086 4.73751 12.8799C6.10708 12.6738 7.50704 12.8675 8.76918 13.4378C10.0313 14.0081 11.102 14.9306 11.8525 16.0946C12.603 17.2587 13.0015 18.6146 13 19.9996"
        stroke="black" stroke-opacity="0.8" stroke-width="1.2" stroke-linecap="round"
        stroke-linejoin="round" />
    <path
        d="M15.4486 14.5996C16.7597 15.7594 18.4496 16.3996 20.2 16.3996C21.9504 16.3996 23.6404 15.7594 24.9514 14.5996C23.913 13.6832 22.6321 13.086 21.2625 12.8799C19.8929 12.6738 18.4929 12.8675 17.2308 13.4378C15.9687 14.0081 14.898 14.9306 14.1475 16.0946C13.397 17.2587 12.9985 18.6146 13 19.9996"
        stroke="black" stroke-opacity="0.8" stroke-width="1.2" stroke-linecap="round"
        stroke-linejoin="round" />
    <path d="M13.0003 3.79916L10.6002 6.19922L13.0003 8.59928L15.4003 6.19922L13.0003 3.79916Z"
        stroke="black" stroke-opacity="0.8" stroke-width="1.2" stroke-linecap="round"
        stroke-linejoin="round" />
</svg>
    