<svg width="24" height="24" viewBox="0 0 24 24" fill="none" xmlns="http://www.w3.org/2000/svg">
<path d="M14.1818 9.966C14.1818 9.966 15.1248 4.412 11.2728 2C11.2152 2.95424 10.9572 3.88562 10.5154 4.73338C10.0736 5.58114 9.45798 6.32622 8.70877 6.92C7.06277 8.368 3.96677 11.616 3.99977 15.089C3.98875 16.5714 4.39179 18.0274 5.1635 19.2931C5.93522 20.5588 7.04496 21.5839 8.36777 22.253C8.41532 21.5836 8.59591 20.9304 8.89897 20.3317C9.20204 19.7329 9.62149 19.2007 10.1328 18.766C10.5663 18.4329 10.929 18.0167 11.1998 17.5418C11.4706 17.0669 11.6439 16.5427 11.7098 16C12.8431 16.602 13.8007 17.4879 14.4889 18.571C15.1771 19.6541 15.5723 20.8973 15.6358 22.179V22.2C16.8841 21.6272 17.9498 20.7204 18.715 19.5798C19.4802 18.4392 19.9151 17.1093 19.9718 15.737C20.0558 12.9198 19.1089 10.1687 17.3088 8" stroke="black" stroke-width="2" stroke-linecap="round" stroke-linejoin="round"/>
</svg>
