<svg width="102" height="116" viewBox="0 0 102 116" fill="none" xmlns="http://www.w3.org/2000/svg">
	<path fill-rule="evenodd" clip-rule="evenodd" d="M50.2551 0H4.36996C1.96425 0 0.0140381 1.95021 0.0140381 4.35592V94.6289C0.0140381 97.0346 1.96426 98.9848 4.36997 98.9848H74.846C77.2517 98.9848 79.2019 97.0346 79.2019 94.6289V28.9468L50.2551 0Z" fill="#F2EFE9" />
	<path fill-rule="evenodd" clip-rule="evenodd" d="M50.2568 0.000350329L79.2001 28.9436L54.6128 28.9436C52.2071 28.9436 50.2568 26.9934 50.2568 24.5877L50.2568 0.000350329Z" fill="#FAF7F0" />
	<g opacity="0.31" filter="url(#filter0_f_1764_25431)">
		<path d="M44.0452 78.0054C39.4378 78.9044 34.6616 78.2075 30.5033 76.0293C25.3964 73.3542 21.6396 68.6669 20.1409 63.1001L20.0898 62.9105C18.5542 57.2067 19.479 51.1204 22.6395 46.1302L30.7408 33.3386L28.379 49.0838C27.9079 52.2246 28.6095 55.4289 30.35 58.0854C32.7386 61.7312 36.8038 63.9278 41.1625 63.9278H43.9694C46.9715 63.9278 49.8803 64.9714 52.1978 66.8799L54.456 68.7396L65.7981 79.3943L79.8898 98.9851H74.7343L51.019 76.6447L44.0452 78.0054Z" fill="#221548" />
	</g>
	<path d="M56.4151 78.4747C55.8715 77.9312 55.8715 77.0498 56.4151 76.5062L61.7376 71.1838C62.2811 70.6402 63.1625 70.6402 63.7061 71.1838L84.9481 92.4258C86.9615 94.4392 86.9615 97.7035 84.9481 99.7168C82.9348 101.73 79.6705 101.73 77.6571 99.7168L56.4151 78.4747Z" fill="url(#paint0_linear_1764_25431)" />
	<rect x="52.0283" y="70.1996" width="4.81179" height="7.56138" transform="rotate(-45 52.0283 70.1996)" fill="#807C75" />
	<path fill-rule="evenodd" clip-rule="evenodd" d="M55.9168 70.1996C65.044 61.0724 65.044 46.2744 55.9168 37.1472C46.7897 28.0201 31.9916 28.0201 22.8645 37.1472C13.7373 46.2744 13.7373 61.0724 22.8645 70.1996C31.9916 79.3267 46.7897 79.3267 55.9168 70.1996ZM53.4865 67.7692C61.2714 59.9843 61.2714 47.3624 53.4865 39.5775C45.7015 31.7926 33.0797 31.7926 25.2948 39.5775C17.5098 47.3624 17.5098 59.9843 25.2948 67.7692C33.0797 75.5542 45.7015 75.5542 53.4865 67.7692Z" fill="url(#paint1_linear_1764_25431)" />
	<circle cx="39.3906" cy="53.6734" r="19.9345" transform="rotate(-45 39.3906 53.6734)" fill="url(#paint2_linear_1764_25431)" />
	<defs>
		<filter id="filter0_f_1764_25431" x="8.9244" y="22.899" width="81.405" height="86.5258" filterUnits="userSpaceOnUse" color-interpolation-filters="sRGB">
			<feFlood flood-opacity="0" result="BackgroundImageFix" />
			<feBlend mode="normal" in="SourceGraphic" in2="BackgroundImageFix" result="shape" />
			<feGaussianBlur stdDeviation="5.21981" result="effect1_foregroundBlur_1764_25431" />
		</filter>
		<linearGradient id="paint0_linear_1764_25431" x1="72.3287" y1="84.2054" x2="62.3002" y2="95.0004" gradientUnits="userSpaceOnUse">
			<stop stop-color="#FFA180" />
			<stop offset="1" stop-color="#840D0D" />
		</linearGradient>
		<linearGradient id="paint1_linear_1764_25431" x1="57.5732" y1="68.9847" x2="12.3344" y2="47.1115" gradientUnits="userSpaceOnUse">
			<stop stop-color="#959189" />
			<stop offset="1" stop-color="#E3E0DA" />
		</linearGradient>
		<linearGradient id="paint2_linear_1764_25431" x1="50.6751" y1="71.4887" x2="26.2354" y2="32.1166" gradientUnits="userSpaceOnUse">
			<stop stop-color="#F3F1EE" />
			<stop offset="1" stop-color="#FFFCF5" stop-opacity="0.74" />
		</linearGradient>
	</defs>
</svg>
