<svg width="24" height="28" viewBox="0 0 24 28" fill="none" xmlns="http://www.w3.org/2000/svg">
    <path
        d="M20.6814 27.2H3.31856C2.97804 27.2 2.64141 27.1276 2.33104 26.9875C2.02066 26.8474 1.74365 26.6429 1.51841 26.3875C1.29316 26.1322 1.12484 25.8318 1.02463 25.5063C0.92441 25.1809 0.894594 24.8378 0.937159 24.5L2.99996 8H21L23.0628 24.5C23.1053 24.8378 23.0755 25.1809 22.9753 25.5063C22.8751 25.8318 22.7068 26.1322 22.4815 26.3875C22.2563 26.6429 21.9793 26.8474 21.6689 26.9875C21.3585 27.1276 21.0219 27.2 20.6814 27.2Z"
        stroke="black" stroke-opacity="0.8" stroke-width="1.2" stroke-miterlimit="10"
        stroke-linecap="square" />
    <path
        d="M7.79993 11.5998V4.9998C7.79993 3.8859 8.24243 2.81761 9.03008 2.02996C9.81773 1.2423 10.886 0.799805 11.9999 0.799805C13.1138 0.799805 14.1821 1.2423 14.9698 2.02996C15.7574 2.81761 16.1999 3.8859 16.1999 4.9998V11.5998"
        stroke="black" stroke-opacity="0.8" stroke-width="1.2" stroke-miterlimit="10"
        stroke-linecap="square" />
</svg>