<svg width="43" height="43" viewBox="0 0 43 43" fill="none" xmlns="http://www.w3.org/2000/svg">
    <path d="M17.2499 1.75736C19.593 -0.585786 23.392 -0.585787 25.7352 1.75736L41.2277 17.2499C43.5709 19.593 43.5709 23.392 41.2277 25.7352L25.7352 41.2277C23.392 43.5709 19.593 43.5709 17.2499 41.2277L1.75736 25.7352C-0.585785 23.392 -0.585787 19.593 1.75736 17.2499L17.2499 1.75736Z" fill="url(#paint0_linear_1769_9617)" />
    <path d="M14.5947 4.97162C16.1568 3.40952 18.6895 3.40952 20.2516 4.97162L33.732 18.4521C35.2941 20.0142 35.2941 22.5468 33.732 24.1089L20.0931 37.7478C18.531 39.3099 15.9984 39.3099 14.4363 37.7478L1.66295 24.9745C-0.289667 23.0218 -0.289671 19.856 1.66295 17.9034L14.5947 4.97162Z" fill="url(#paint1_linear_1769_9617)" />
    <path d="M14.6763 17.2283C16.2384 15.6662 18.771 15.6662 20.3331 17.2283L21.6073 18.5025C23.1694 20.0646 23.1694 22.5973 21.6073 24.1594L20.2758 25.4909C18.7137 27.053 16.181 27.053 14.6189 25.4909L14.0518 24.9238C12.0992 22.9712 12.0992 19.8054 14.0518 17.8528L14.6763 17.2283Z" fill="url(#paint2_linear_1769_9617)" />
    <defs>
        <linearGradient id="paint0_linear_1769_9617" x1="104.558" y1="94.3326" x2="81.5426" y2="-45.6836" gradientUnits="userSpaceOnUse">
            <stop offset="0.271019" stop-color="#E2DBFF" />
            <stop offset="1" stop-color="#6D4AFF" />
        </linearGradient>
        <linearGradient id="paint1_linear_1769_9617" x1="20.5124" y1="-8.51208" x2="22.4713" y2="20.8488" gradientUnits="userSpaceOnUse">
            <stop offset="0.988738" stop-color="#6D4AFF" />
        </linearGradient>
        <linearGradient id="paint2_linear_1769_9617" x1="18.5528" y1="12.3386" x2="19.161" y2="21.2031" gradientUnits="userSpaceOnUse">
            <stop offset="0.988738" stop-color="#6D4AFF" />
        </linearGradient>
    </defs>
</svg>