<svg width="375" height="351" viewBox="0 0 375 351" fill="none" xmlns="http://www.w3.org/2000/svg">
    <path fill-rule="evenodd" clip-rule="evenodd" d="M58 12C61.3137 12 64 9.31371 64 6C64 2.68629 61.3137 0 58 0C54.6863 0 52 2.68629 52 6C52 9.31371 54.6863 12 58 12ZM84 6C84 9.31371 81.3137 12 78 12C74.6863 12 72 9.31371 72 6C72 2.68629 74.6863 0 78 0C81.3137 0 84 2.68629 84 6ZM104 6C104 9.31371 101.314 12 98 12C94.6863 12 92 9.31371 92 6C92 2.68629 94.6863 0 98 0C101.314 0 104 2.68629 104 6ZM124 6C124 9.31371 121.314 12 118 12C114.686 12 112 9.31371 112 6C112 2.68629 114.686 0 118 0C121.314 0 124 2.68629 124 6ZM138 12C141.314 12 144 9.31371 144 6C144 2.68629 141.314 0 138 0C134.686 0 132 2.68629 132 6C132 9.31371 134.686 12 138 12ZM164 6C164 9.31371 161.314 12 158 12C154.686 12 152 9.31371 152 6C152 2.68629 154.686 0 158 0C161.314 0 164 2.68629 164 6ZM178 12C181.314 12 184 9.31371 184 6C184 2.68629 181.314 0 178 0C174.686 0 172 2.68629 172 6C172 9.31371 174.686 12 178 12Z" fill="#6D4AFF" />
    <path opacity="0.3" fill-rule="evenodd" clip-rule="evenodd" d="M221 57C223.761 57 226 54.7614 226 52C226 49.2386 223.761 47 221 47C218.239 47 216 49.2386 216 52C216 54.7614 218.239 57 221 57ZM237 57C239.761 57 242 54.7614 242 52C242 49.2386 239.761 47 237 47C234.239 47 232 49.2386 232 52C232 54.7614 234.239 57 237 57ZM253 57C255.761 57 258 54.7614 258 52C258 49.2386 255.761 47 253 47C250.239 47 248 49.2386 248 52C248 54.7614 250.239 57 253 57ZM274 52C274 54.7614 271.761 57 269 57C266.239 57 264 54.7614 264 52C264 49.2386 266.239 47 269 47C271.761 47 274 49.2386 274 52ZM285 57C287.761 57 290 54.7614 290 52C290 49.2386 287.761 47 285 47C282.239 47 280 49.2386 280 52C280 54.7614 282.239 57 285 57ZM306 52C306 54.7614 303.761 57 301 57C298.239 57 296 54.7614 296 52C296 49.2386 298.239 47 301 47C303.761 47 306 49.2386 306 52ZM317 57C319.761 57 322 54.7614 322 52C322 49.2386 319.761 47 317 47C314.239 47 312 49.2386 312 52C312 54.7614 314.239 57 317 57ZM338 52C338 54.7614 335.761 57 333 57C330.239 57 328 54.7614 328 52C328 49.2386 330.239 47 333 47C335.761 47 338 49.2386 338 52Z" fill="#6D4AFF" />
    <path fill-rule="evenodd" clip-rule="evenodd" d="M-1 193C2.86599 193 6 189.866 6 186C6 182.134 2.86599 179 -1 179C-4.86599 179 -8 182.134 -8 186C-8 189.866 -4.86599 193 -1 193ZM33 193C36.866 193 40 189.866 40 186C40 182.134 36.866 179 33 179C29.134 179 26 182.134 26 186C26 189.866 29.134 193 33 193ZM74 186C74 189.866 70.866 193 67 193C63.134 193 60 189.866 60 186C60 182.134 63.134 179 67 179C70.866 179 74 182.134 74 186ZM101 193C104.866 193 108 189.866 108 186C108 182.134 104.866 179 101 179C97.134 179 94 182.134 94 186C94 189.866 97.134 193 101 193Z" fill="#6D4AFF" />
    <path fill-rule="evenodd" clip-rule="evenodd" d="M276 193C279.866 193 283 189.866 283 186C283 182.134 279.866 179 276 179C272.134 179 269 182.134 269 186C269 189.866 272.134 193 276 193ZM310 193C313.866 193 317 189.866 317 186C317 182.134 313.866 179 310 179C306.134 179 303 182.134 303 186C303 189.866 306.134 193 310 193ZM351 186C351 189.866 347.866 193 344 193C340.134 193 337 189.866 337 186C337 182.134 340.134 179 344 179C347.866 179 351 182.134 351 186ZM378 193C381.866 193 385 189.866 385 186C385 182.134 381.866 179 378 179C374.134 179 371 182.134 371 186C371 189.866 374.134 193 378 193Z" fill="#6D4AFF" />
    <path opacity="0.6" fill-rule="evenodd" clip-rule="evenodd" d="M213 317C216.314 317 219 314.314 219 311C219 307.686 216.314 305 213 305C209.686 305 207 307.686 207 311C207 314.314 209.686 317 213 317ZM239 311C239 314.314 236.314 317 233 317C229.686 317 227 314.314 227 311C227 307.686 229.686 305 233 305C236.314 305 239 307.686 239 311ZM253 317C256.314 317 259 314.314 259 311C259 307.686 256.314 305 253 305C249.686 305 247 307.686 247 311C247 314.314 249.686 317 253 317ZM279 311C279 314.314 276.314 317 273 317C269.686 317 267 314.314 267 311C267 307.686 269.686 305 273 305C276.314 305 279 307.686 279 311ZM293 317C296.314 317 299 314.314 299 311C299 307.686 296.314 305 293 305C289.686 305 287 307.686 287 311C287 314.314 289.686 317 293 317ZM313 317C316.314 317 319 314.314 319 311C319 307.686 316.314 305 313 305C309.686 305 307 307.686 307 311C307 314.314 309.686 317 313 317ZM339 311C339 314.314 336.314 317 333 317C329.686 317 327 314.314 327 311C327 307.686 329.686 305 333 305C336.314 305 339 307.686 339 311ZM353 317C356.314 317 359 314.314 359 311C359 307.686 356.314 305 353 305C349.686 305 347 307.686 347 311C347 314.314 349.686 317 353 317ZM379 311C379 314.314 376.314 317 373 317C369.686 317 367 314.314 367 311C367 307.686 369.686 305 373 305C376.314 305 379 307.686 379 311ZM393 317C396.314 317 399 314.314 399 311C399 307.686 396.314 305 393 305C389.686 305 387 307.686 387 311C387 314.314 389.686 317 393 317Z" fill="#6D4AFF" />
    <path opacity="0.3" fill-rule="evenodd" clip-rule="evenodd" d="M36 351C38.7614 351 41 348.761 41 346C41 343.239 38.7614 341 36 341C33.2386 341 31 343.239 31 346C31 348.761 33.2386 351 36 351ZM52 351C54.7614 351 57 348.761 57 346C57 343.239 54.7614 341 52 341C49.2386 341 47 343.239 47 346C47 348.761 49.2386 351 52 351ZM68 351C70.7614 351 73 348.761 73 346C73 343.239 70.7614 341 68 341C65.2386 341 63 343.239 63 346C63 348.761 65.2386 351 68 351ZM89 346C89 348.761 86.7614 351 84 351C81.2386 351 79 348.761 79 346C79 343.239 81.2386 341 84 341C86.7614 341 89 343.239 89 346ZM100 351C102.761 351 105 348.761 105 346C105 343.239 102.761 341 100 341C97.2386 341 95 343.239 95 346C95 348.761 97.2386 351 100 351ZM121 346C121 348.761 118.761 351 116 351C113.239 351 111 348.761 111 346C111 343.239 113.239 341 116 341C118.761 341 121 343.239 121 346ZM132 351C134.761 351 137 348.761 137 346C137 343.239 134.761 341 132 341C129.239 341 127 343.239 127 346C127 348.761 129.239 351 132 351ZM153 346C153 348.761 150.761 351 148 351C145.239 351 143 348.761 143 346C143 343.239 145.239 341 148 341C150.761 341 153 343.239 153 346Z" fill="#6D4AFF" />
    <g opacity="0.1">
        <path d="M222.5 102H250C263.255 102 274 112.745 274 126V153.5" stroke="black" stroke-width="10" stroke-linecap="round" stroke-linejoin="round" />
        <path d="M222.5 275H250C263.255 275 274 264.255 274 251V223.5" stroke="black" stroke-width="10" stroke-linecap="round" stroke-linejoin="round" />
        <path d="M152.5 102H125C111.745 102 101 112.745 101 126V153.5" stroke="black" stroke-width="10" stroke-linecap="round" stroke-linejoin="round" />
        <path d="M152.5 275H125C111.745 275 101 264.255 101 251V223.5" stroke="black" stroke-width="10" stroke-linecap="round" stroke-linejoin="round" />
    </g>
    <path d="M187.499 222.998C209.866 222.998 227.998 204.866 227.998 182.499C227.998 160.132 209.866 142 187.499 142C165.132 142 147 160.132 147 182.499C147 204.866 165.132 222.998 187.499 222.998Z" fill="url(#paint0_linear_2139_28139)" />
    <path fill-rule="evenodd" clip-rule="evenodd" d="M207.258 172.144C208.273 173.159 208.273 174.805 207.258 175.82L185.431 197.646C184.416 198.662 182.77 198.662 181.755 197.646L170.586 186.478C169.571 185.463 169.571 183.817 170.586 182.802C171.601 181.786 173.247 181.786 174.263 182.802L183.593 192.132L203.581 172.144C204.596 171.129 206.242 171.129 207.258 172.144Z" fill="#FEFEFF" />
    <defs>
        <linearGradient id="paint0_linear_2139_28139" x1="191.696" y1="136.094" x2="192.075" y2="222.998" gradientUnits="userSpaceOnUse">
            <stop stop-color="#2AF091" />
            <stop offset="1" stop-color="#00C5A1" />
        </linearGradient>
    </defs>
</svg>
    