<svg width="40" height="40" viewBox="0 0 40 40" fill="none" xmlns="http://www.w3.org/2000/svg">
<g id="Proton Sentinel logo 1">
<path id="Vector" d="M39.375 20C39.375 30.7005 30.7005 39.375 20 39.375C9.29948 39.375 0.625 30.7005 0.625 20C0.625 9.29948 9.29948 0.625 20 0.625C30.7005 0.625 39.375 9.29948 39.375 20Z" stroke="url(#paint0_linear_11275_63937)" stroke-width="1.25"/>
<g id="Group 14504">
<path id="Vector_2" d="M28.5572 12.0347L20.1827 9.52235C20.0655 9.48718 19.9405 9.48718 19.8232 9.52235L11.4487 12.0347C11.1841 12.1141 11.0029 12.3576 11.0029 12.6338V21.8458C11.0029 23.0439 11.488 24.2705 12.4446 25.4913C13.1752 26.4237 14.1861 27.36 15.4489 28.2741C17.5705 29.8097 19.6595 30.7519 19.7474 30.7912C19.8287 30.8275 19.9158 30.8458 20.003 30.8458C20.0901 30.8458 20.1773 30.8275 20.2586 30.7912C20.3464 30.7519 22.4355 29.8097 24.557 28.2741C25.8198 27.36 26.8306 26.4237 27.5613 25.4913C28.5179 24.2705 29.0029 23.044 29.0029 21.8458V12.6338C29.0029 12.3576 28.8218 12.1141 28.5572 12.0347Z" fill="white"/>
<path id="Vector_3" d="M28.5571 12.0347L20.1826 9.52235C20.124 9.50476 20.0633 9.49597 20.0028 9.49597V30.8458C20.09 30.8458 20.1771 30.8275 20.2585 30.7912C20.3463 30.7519 22.4353 29.8097 24.5569 28.2741C25.8197 27.36 26.8305 26.4237 27.5611 25.4913C28.5178 24.2705 29.0028 23.044 29.0028 21.8458V12.6338C29.0028 12.3576 28.8216 12.1141 28.5571 12.0347Z" fill="url(#paint1_linear_11275_63937)"/>
</g>
</g>
<defs>
<linearGradient id="paint0_linear_11275_63937" x1="40.625" y1="-21.5676" x2="-3.59885" y2="-21.7181" gradientUnits="userSpaceOnUse">
<stop stop-color="#FFCA8A"/>
<stop offset="1" stop-color="#704CFF"/>
</linearGradient>
<linearGradient id="paint1_linear_11275_63937" x1="20.1049" y1="17.2734" x2="28.0348" y2="17.2734" gradientUnits="userSpaceOnUse">
<stop stop-color="#A792FF"/>
<stop offset="1" stop-color="white"/>
</linearGradient>
</defs>
</svg>
