<svg width="28" height="28" viewBox="0 0 28 28" fill="none" xmlns="http://www.w3.org/2000/svg">
    <path
        d="M16.3997 18.156C22.7129 14.5109 26.7563 9.69492 25.4309 7.39918C24.1054 5.10345 17.9129 6.1973 11.5997 9.84238C5.28638 13.4875 1.24297 18.3034 2.56846 20.5992C3.89394 22.8949 10.0864 21.8011 16.3997 18.156Z"
        stroke="black" stroke-opacity="0.8" stroke-width="1.2" stroke-linecap="round"
        stroke-linejoin="round" />
    <path
        d="M14 15.1998C14.6628 15.1998 15.2 14.6625 15.2 13.9998C15.2 13.3371 14.6628 12.7998 14 12.7998C13.3373 12.7998 12.8 13.3371 12.8 13.9998C12.8 14.6625 13.3373 15.1998 14 15.1998Z"
        stroke="black" stroke-opacity="0.8" stroke-width="1.2" stroke-linecap="round"
        stroke-linejoin="round" />
    <path
        d="M14 15.1998C14.6628 15.1998 15.2 14.6625 15.2 13.9998C15.2 13.3371 14.6628 12.7998 14 12.7998C13.3373 12.7998 12.8 13.3371 12.8 13.9998C12.8 14.6625 13.3373 15.1998 14 15.1998Z"
        fill="black" fill-opacity="0.8" />
    <path
        d="M14.0001 27.1998C16.651 27.1998 18.8001 21.29 18.8001 13.9998C18.8001 6.70965 16.651 0.799805 14.0001 0.799805C11.3491 0.799805 9.20007 6.70965 9.20007 13.9998C9.20007 21.29 11.3491 27.1998 14.0001 27.1998Z"
        stroke="black" stroke-opacity="0.8" stroke-width="1.2" stroke-linecap="round"
        stroke-linejoin="round" />
    <path
        d="M25.4309 20.5998C26.7563 18.3041 22.7129 13.4881 16.3997 9.84304C10.0864 6.19796 3.89394 5.1041 2.56846 7.39984C1.24297 9.69558 5.28638 14.5116 11.5997 18.1566C17.9129 21.8017 24.1054 22.8956 25.4309 20.5998Z"
        stroke="black" stroke-opacity="0.8" stroke-width="1.2" stroke-linecap="round"
        stroke-linejoin="round" />
</svg>