<svg width="122" height="122" viewBox="0 0 122 122" fill="none" xmlns="http://www.w3.org/2000/svg">
  <defs>
    <mask id="lock-hole">
      <rect width="122" height="122" fill="white" />
      <path d="M60.873 61.6224C64.4629 61.6224 67.373 58.7122 67.373 55.1224C67.373 51.5325 64.4629 48.6224 60.873 48.6224C57.2832 48.6224 54.373 51.5325 54.373 55.1224C54.373 58.7122 57.2832 61.6224 60.873 61.6224Z" fill="black"/>
      <path d="M67.2381 69.754C67.7551 71.0582 66.8035 72.4757 65.4006 72.4909L56.2894 72.59C54.8679 72.6054 53.8845 71.1746 54.4084 69.853L58.9837 58.3122C59.6512 56.6283 62.0345 56.6283 62.7021 58.3122L67.2381 69.754Z" fill="black"/>
    </mask>

    <radialGradient id="paint0_radial_25038_51428" cx="0" cy="0" r="1" gradientTransform="matrix(-14.3278 -67.3911 106.472 -27.0589 77.448 104.05)" gradientUnits="userSpaceOnUse">
      <stop stop-color="#FFD580"/><stop offset="1" stop-color="#704CFF"/>
    </radialGradient>
  </defs>

  <path d="M45.2548 12.7279C53.8464 4.1364 67.776 4.13639 76.3675 12.7279L108.894 45.2548C117.486 53.8464 117.486 67.776 108.894 76.3675L76.3675 108.894C67.776 117.486 53.8464 117.486 45.2548 108.894L12.7279 76.3675C4.13639 67.776 4.13639 53.8464 12.7279 45.2548L45.2548 12.7279Z" 
    fill="url(#paint0_radial_25038_51428)" 
    fill-opacity="0.3" 
    stroke="url(#paint0_radial_25038_51428)" 
    stroke-width="4"
    mask="url(#lock-hole)"/>
</svg>