<svg width="375" height="812" viewBox="0 0 375 812" fill="none" xmlns="http://www.w3.org/2000/svg">
    <g clip-path="url(#clip0_6842_72111)">
        <rect x="-488" width="1651.69" height="812" rx="17.8658"
            fill="url(#paint0_radial_6842_72111)" />
        <g style="mix-blend-mode:overlay" opacity="0.3">
            <g style="mix-blend-mode:color-dodge">
                <path
                    d="M410.616 -22.0109C419.476 -30.8728 426.069 -37.4663 431.72 -42.2644C437.359 -47.0532 441.979 -49.9814 446.864 -51.5688C455.589 -54.4045 464.988 -54.4045 473.714 -51.5688C478.598 -49.9814 483.218 -47.0532 488.857 -42.2644C494.508 -37.4662 501.101 -30.8727 509.961 -22.0108L642.633 110.69C651.493 119.552 658.085 126.147 662.882 131.799C667.669 137.44 670.597 142.061 672.184 146.946C675.019 155.674 675.019 165.075 672.184 173.803C670.597 178.688 667.669 183.309 662.882 188.95C658.085 194.602 651.493 201.197 642.633 210.059L509.961 342.76C501.101 351.622 494.508 358.215 488.857 363.013C483.218 367.802 478.598 370.73 473.714 372.318C464.988 375.153 455.589 375.153 446.864 372.318C441.979 370.73 437.359 367.802 431.72 363.013C426.069 358.215 419.476 351.622 410.616 342.76L328.486 260.612C310.78 242.902 297.554 229.672 287.92 218.321C278.295 206.981 272.328 197.597 269.084 187.61C263.333 169.909 263.333 150.84 269.084 133.139C272.328 123.152 278.295 113.768 287.92 102.428C297.554 91.0774 310.78 77.8468 328.486 60.1374L410.616 -22.0109Z"
                    stroke="url(#paint1_linear_6842_72111)" stroke-width="2.45655" />
            </g>
            <g style="mix-blend-mode:color-dodge">
                <path
                    d="M-207.609 356.947C-177.236 387.32 -162.05 402.507 -144.538 408.197C-129.134 413.202 -112.541 413.202 -97.1372 408.197C-79.6254 402.507 -64.4389 387.32 -34.066 356.947L41.8591 281.022C72.232 250.649 87.4185 235.463 93.1085 217.951C98.1135 202.547 98.1135 185.954 93.1085 170.55C87.4185 153.038 72.2321 137.852 41.8592 107.479L-34.066 31.5539C-64.4389 1.18095 -79.6253 -14.0055 -97.1372 -19.6955C-112.541 -24.7005 -129.134 -24.7005 -144.538 -19.6955C-162.05 -14.0055 -177.236 1.18095 -207.609 31.5539"
                    stroke="url(#paint2_linear_6842_72111)" stroke-width="2.45655" />
                <path
                    d="M-212.787 36.6208C-205.122 28.9547 -199.426 23.2581 -194.545 19.114C-189.675 14.9791 -185.699 12.4619 -181.504 11.0985C-173.991 8.65694 -165.899 8.65694 -158.386 11.0985C-154.191 12.4619 -150.215 14.9791 -145.345 19.114C-140.465 23.2581 -134.768 28.9547 -127.104 36.6208L-12.3647 151.385C-4.70044 159.051 0.994873 164.749 5.13812 169.631C9.27206 174.502 11.7887 178.479 13.1518 182.675C15.5929 190.189 15.5929 198.284 13.1518 205.799C11.7887 209.995 9.27206 213.972 5.13812 218.843C0.994873 223.724 -4.70044 229.422 -12.3647 237.088L-127.104 351.853C-134.768 359.519 -140.465 365.215 -145.345 369.36C-150.215 373.494 -154.191 376.012 -158.386 377.375C-165.899 379.817 -173.991 379.817 -181.504 377.375C-185.699 376.012 -189.675 373.494 -194.545 369.359C-199.426 365.215 -205.122 359.519 -212.787 351.853L-283.815 280.808C-299.13 265.49 -310.562 254.054 -318.889 244.243C-327.206 234.444 -332.352 226.348 -335.148 217.74C-340.11 202.464 -340.11 186.009 -335.148 170.733C-332.352 162.126 -327.206 154.03 -318.889 144.23C-310.562 134.42 -299.13 122.983 -283.815 107.665L-212.787 36.6208Z"
                    stroke="url(#paint3_linear_6842_72111)" stroke-width="2.45655" />
            </g>
            <g style="mix-blend-mode:color-dodge">
                <path
                    d="M-188.239 1149.35C-133.147 1204.44 -105.601 1231.99 -73.8374 1242.31C-45.8972 1251.39 -15.8002 1251.39 12.14 1242.31C43.9038 1231.99 71.4498 1204.44 126.541 1149.35L264.258 1011.64C319.35 956.545 346.895 928.999 357.216 897.235C366.294 869.295 366.294 839.198 357.216 811.258C346.895 779.494 319.35 751.948 264.258 696.856L126.541 559.14C71.4498 504.048 43.9039 476.502 12.1401 466.182C-15.8001 457.103 -45.8972 457.103 -73.8374 466.182C-105.601 476.502 -133.147 504.048 -188.239 559.14"
                    stroke="white" stroke-width="2.45655" />
                <path
                    d="M-202.783 573.663C-188.893 559.77 -178.527 549.403 -169.636 541.853C-160.756 534.313 -153.429 529.656 -145.644 527.126C-131.816 522.632 -116.921 522.632 -103.093 527.126C-95.3088 529.656 -87.9814 534.313 -79.1014 541.853C-70.2105 549.403 -59.8445 559.77 -45.9543 573.663L162.164 781.828C176.054 795.722 186.419 806.09 193.967 814.983C201.505 823.865 206.162 831.194 208.691 838.981C213.184 852.812 213.184 867.71 208.691 881.541C206.162 889.328 201.505 896.657 193.967 905.539C186.419 914.432 176.054 924.8 162.164 938.694L-45.9543 1146.86C-59.8445 1160.75 -70.2106 1171.12 -79.1015 1178.67C-87.9814 1186.21 -95.3088 1190.87 -103.094 1193.4C-116.921 1197.89 -131.816 1197.89 -145.644 1193.4C-153.429 1190.87 -160.756 1186.21 -169.636 1178.67C-178.527 1171.12 -188.893 1160.75 -202.783 1146.86L-331.619 1017.99C-359.385 990.222 -380.156 969.444 -395.292 951.612C-410.418 933.79 -419.843 918.99 -424.972 903.201C-434.038 875.292 -434.038 845.229 -424.972 817.321C-419.843 801.532 -410.418 786.732 -395.292 768.91C-380.156 751.077 -359.385 730.3 -331.619 702.527L-202.783 573.663Z"
                    stroke="white" stroke-width="2.45655" />
            </g>
        </g>
    </g>
    <defs>
        <radialGradient id="paint0_radial_6842_72111" cx="0" cy="0" r="1"
            gradientUnits="userSpaceOnUse"
            gradientTransform="translate(55.3433 853.315) rotate(-72.5352) scale(792.478 1429.56)">
            <stop stop-color="#FFD580" />
            <stop offset="0.09375" stop-color="#F6C592" />
            <stop offset="0.205" stop-color="#EBB6A2" />
            <stop offset="0.324466" stop-color="#DFA5AF" />
            <stop offset="0.42875" stop-color="#D397BE" />
            <stop offset="0.53375" stop-color="#C486CB" />
            <stop offset="0.64875" stop-color="#B578D9" />
            <stop offset="0.77125" stop-color="#A166E5" />
            <stop offset="0.89125" stop-color="#8B57F2" />
            <stop offset="1" stop-color="#704CFF" />
        </radialGradient>
        <linearGradient id="paint1_linear_6842_72111" x1="440.637" y1="333.308" x2="305.639"
            y2="125.283" gradientUnits="userSpaceOnUse">
            <stop stop-color="white" />
            <stop offset="1" stop-color="white" stop-opacity="0" />
        </linearGradient>
        <linearGradient id="paint2_linear_6842_72111" x1="39.2148" y1="421.521" x2="76.2863"
            y2="151.077" gradientUnits="userSpaceOnUse">
            <stop stop-color="white" />
            <stop offset="1" stop-color="white" stop-opacity="0" />
        </linearGradient>
        <linearGradient id="paint3_linear_6842_72111" x1="-87.8556" y1="388.463" x2="16.101"
            y2="194.285" gradientUnits="userSpaceOnUse">
            <stop stop-color="white" />
            <stop offset="1" stop-color="white" stop-opacity="0" />
        </linearGradient>
        <clipPath id="clip0_6842_72111">
            <rect x="-488" width="1651.69" height="812" rx="17.8658" fill="white" />
        </clipPath>
    </defs>
</svg>