<svg width="12" height="12" viewBox="0 0 12 12" fill="none" xmlns="http://www.w3.org/2000/svg">
<g clip-path="url(#clip0_6189_64071)">
<path d="M10.6402 2.40002C10.3749 2.11549 10.0538 1.8886 9.69701 1.73347C9.34021 1.57835 8.95531 1.49829 8.56624 1.49829C8.17718 1.49829 7.79227 1.57835 7.43547 1.73347C7.07867 1.8886 6.7576 2.11549 6.49224 2.40002C6.29506 2.6141 6.12939 2.85519 6.00024 3.11602C5.87103 2.85498 5.705 2.61385 5.50724 2.40002C5.24173 2.11575 4.92061 1.8891 4.56383 1.73414C4.20705 1.57918 3.82222 1.49922 3.43324 1.49922C3.04426 1.49922 2.65944 1.57918 2.30265 1.73414C1.94587 1.8891 1.62476 2.11575 1.35924 2.40002C0.807456 2.99004 0.500488 3.76769 0.500488 4.57552C0.500488 5.38335 0.807456 6.161 1.35924 6.75102L6.00024 11.5L10.6402 6.75202C11.1934 6.1625 11.5013 5.38443 11.5013 4.57602C11.5013 3.7676 11.1934 2.98953 10.6402 2.40002Z" stroke="black" stroke-linecap="round" stroke-linejoin="round"/>
</g>
<defs>
<clipPath id="clip0_6189_64071">
<rect width="12" height="12" fill="white"/>
</clipPath>
</defs>
</svg>
