<svg width="48" height="49" viewBox="0 0 48 49" fill="none" xmlns="http://www.w3.org/2000/svg">
<path fill-rule="evenodd" clip-rule="evenodd" d="M39 16.5758C42.866 16.5758 46 13.4418 46 9.57581C46 5.70981 42.866 2.57581 39 2.57581C35.134 2.57581 32 5.70981 32 9.57581C32 13.4418 35.134 16.5758 39 16.5758ZM39 18.5758C40.0519 18.5758 41.0617 18.3953 42 18.0637V28.5149C42 32.873 39.6373 36.8884 35.8277 39.0048L24.9713 45.0362C24.3672 45.3718 23.6328 45.3718 23.0287 45.0362L12.1723 39.0048C8.3627 36.8884 6 32.873 6 28.5149V10.3858C6 9.35826 6.77442 8.49303 7.79072 8.34177C10.7023 7.90841 16.6914 6.79932 22.1867 4.41934C23.3421 3.91898 24.6579 3.91898 25.8133 4.41934C27.4157 5.11332 29.06 5.69923 30.6578 6.19185C30.2337 7.23651 30 8.37886 30 9.57579C30 14.5464 34.0294 18.5758 39 18.5758Z" fill="url(#paint0_linear_12957_7484)"/>
<path d="M21.5111 30.9711C21.4615 31.2023 21.5808 31.4367 21.7969 31.5327C22.013 31.6288 22.2669 31.5603 22.4053 31.3686L28.9053 22.3686C29.0153 22.2164 29.0307 22.0154 28.9452 21.8482C28.8597 21.681 28.6878 21.5758 28.5 21.5758L25.0902 21.5758L25.9932 16.158C26.0311 15.9307 25.9086 15.7068 25.6967 15.6162C25.4848 15.5255 25.2383 15.5914 25.1 15.7758L19.1 23.7758C18.9864 23.9274 18.9681 24.1301 19.0528 24.2994C19.1375 24.4688 19.3106 24.5758 19.5 24.5758H22.8815L21.5111 30.9711Z" fill="white"/>
<path fill-rule="evenodd" clip-rule="evenodd" d="M38.0081 6.70273L38.4605 10.2377C38.4956 10.5127 38.7297 10.7187 39.0069 10.7187C39.2842 10.7187 39.5182 10.5126 39.5534 10.2376L40.0055 6.70268C40.082 6.1049 39.6095 5.57581 39.0068 5.57581C38.4042 5.57581 37.9316 6.10493 38.0081 6.70273ZM39.0063 13.5757C39.4884 13.5757 39.8792 13.192 39.8792 12.7186C39.8792 12.2452 39.4884 11.8615 39.0063 11.8615C38.5243 11.8615 38.1335 12.2452 38.1335 12.7186C38.1335 13.192 38.5243 13.5757 39.0063 13.5757Z" fill="white"/>
<defs>
<linearGradient id="paint0_linear_12957_7484" x1="46" y1="2.5758" x2="-0.931647" y2="36.7288" gradientUnits="userSpaceOnUse">
<stop stop-color="#FF5977"/>
<stop offset="1" stop-color="#DC3251"/>
</linearGradient>
</defs>
</svg>
