<svg width="342" height="193" viewBox="0 0 342 193" fill="none" xmlns="http://www.w3.org/2000/svg">
<g clip-path="url(#clip0_9062_28802)">
<rect x="18.4824" y="13.9844" width="296.034" height="52" rx="16.4874" fill="white"/>
<path d="M43.7402 44.9844V35.1201H49.8516V36.2275H44.9707V39.3926H49.5986V40.4863H44.9707V43.877H49.8516V44.9844H43.7402ZM51.7797 44.9844V37.6152H52.9691V38.7363H53.0785C53.4066 37.9434 54.1039 37.4854 55.0678 37.4854C56.0658 37.4854 56.7631 38.0117 57.1049 38.7773H57.2143C57.6107 37.998 58.4516 37.4854 59.4701 37.4854C60.974 37.4854 61.8148 38.3467 61.8148 39.8916V44.9844H60.6254V40.165C60.6254 39.0781 60.1264 38.5381 59.0873 38.5381C58.0619 38.5381 57.3852 39.3105 57.3852 40.2471V44.9844H56.1957V39.9805C56.1957 39.1055 55.5941 38.5381 54.6645 38.5381C53.7006 38.5381 52.9691 39.3789 52.9691 40.418V44.9844H51.7797ZM65.8348 45.1143C64.4334 45.1143 63.3738 44.2666 63.3738 42.9268V42.9131C63.3738 41.6006 64.3445 40.8418 66.0604 40.7393L68.1727 40.6094V39.9395C68.1727 39.0303 67.6189 38.5381 66.5184 38.5381C65.6365 38.5381 65.0555 38.8662 64.8641 39.4404L64.8572 39.4609H63.6678L63.6746 39.4199C63.866 38.2646 64.9871 37.4854 66.5594 37.4854C68.3572 37.4854 69.3621 38.4082 69.3621 39.9395V44.9844H68.1727V43.8975H68.0633C67.5984 44.6836 66.826 45.1143 65.8348 45.1143ZM64.5906 42.8994C64.5906 43.6445 65.2264 44.082 66.0809 44.082C67.2908 44.082 68.1727 43.2891 68.1727 42.2363V41.5664L66.2039 41.6895C65.0828 41.7578 64.5906 42.1543 64.5906 42.8857V42.8994ZM72.0148 36.1934C71.5637 36.1934 71.1945 35.8242 71.1945 35.373C71.1945 34.9219 71.5637 34.5527 72.0148 34.5527C72.466 34.5527 72.8352 34.9219 72.8352 35.373C72.8352 35.8242 72.466 36.1934 72.0148 36.1934ZM71.4133 44.9844V37.6152H72.6027V44.9844H71.4133ZM74.7633 44.9844V34.6895H75.9527V44.9844H74.7633Z" fill="#666666"/>
<rect x="18.4824" y="84.9844" width="296.034" height="52" rx="16.4874" fill="white"/>
<path d="M43.7402 115.984V106.12H47.459C49.3115 106.12 50.624 107.398 50.624 109.271V109.285C50.624 111.158 49.3115 112.464 47.459 112.464H44.9707V115.984H43.7402ZM47.1445 107.214H44.9707V111.37H47.1445C48.5527 111.37 49.3662 110.598 49.3662 109.299V109.285C49.3662 107.986 48.5527 107.214 47.1445 107.214ZM54.0902 116.114C52.6889 116.114 51.6293 115.267 51.6293 113.927V113.913C51.6293 112.601 52.6 111.842 54.3158 111.739L56.4281 111.609V110.939C56.4281 110.03 55.8744 109.538 54.7738 109.538C53.892 109.538 53.3109 109.866 53.1195 110.44L53.1127 110.461H51.9232L51.9301 110.42C52.1215 109.265 53.2426 108.485 54.8148 108.485C56.6127 108.485 57.6176 109.408 57.6176 110.939V115.984H56.4281V114.897H56.3188C55.8539 115.684 55.0814 116.114 54.0902 116.114ZM52.8461 113.899C52.8461 114.645 53.4818 115.082 54.3363 115.082C55.5463 115.082 56.4281 114.289 56.4281 113.236V112.566L54.4594 112.689C53.3383 112.758 52.8461 113.154 52.8461 113.886V113.899ZM62.1707 116.114C60.5301 116.114 59.4021 115.321 59.2654 114.104H60.4822C60.6805 114.72 61.2684 115.123 62.2117 115.123C63.2029 115.123 63.907 114.651 63.907 113.981V113.968C63.907 113.469 63.5311 113.12 62.6219 112.901L61.4803 112.628C60.0994 112.3 59.4773 111.698 59.4773 110.639V110.632C59.4773 109.408 60.6531 108.485 62.2186 108.485C63.7635 108.485 64.8367 109.258 65.0008 110.461H63.8318C63.6746 109.88 63.1004 109.477 62.2117 109.477C61.3367 109.477 60.6941 109.928 60.6941 110.577V110.591C60.6941 111.09 61.0633 111.404 61.9314 111.616L63.0662 111.89C64.4539 112.225 65.1238 112.826 65.1238 113.879V113.893C65.1238 115.205 63.8455 116.114 62.1707 116.114ZM69.2121 116.114C67.5715 116.114 66.4436 115.321 66.3068 114.104H67.5236C67.7219 114.72 68.3098 115.123 69.2531 115.123C70.2443 115.123 70.9484 114.651 70.9484 113.981V113.968C70.9484 113.469 70.5725 113.12 69.6633 112.901L68.5217 112.628C67.1408 112.3 66.5187 111.698 66.5187 110.639V110.632C66.5187 109.408 67.6945 108.485 69.26 108.485C70.8049 108.485 71.8781 109.258 72.0422 110.461H70.8732C70.716 109.88 70.1418 109.477 69.2531 109.477C68.3781 109.477 67.7355 109.928 67.7355 110.577V110.591C67.7355 111.09 68.1047 111.404 68.9729 111.616L70.1076 111.89C71.4953 112.225 72.1652 112.826 72.1652 113.879V113.893C72.1652 115.205 70.8869 116.114 69.2121 116.114ZM75.0777 115.984L73.0133 108.615H74.2027L75.652 114.508H75.7613L77.4088 108.615H78.5367L80.1842 114.508H80.2936L81.7428 108.615H82.9254L80.8609 115.984H79.6646L78.0172 110.283H77.9078L76.2672 115.984H75.0777ZM87.1025 116.114C85.0039 116.114 83.7051 114.665 83.7051 112.307V112.293C83.7051 109.928 85.0039 108.485 87.1025 108.485C89.2012 108.485 90.5 109.928 90.5 112.293V112.307C90.5 114.665 89.2012 116.114 87.1025 116.114ZM87.1025 115.062C88.4971 115.062 89.2832 114.043 89.2832 112.307V112.293C89.2832 110.55 88.4971 109.538 87.1025 109.538C85.708 109.538 84.9219 110.55 84.9219 112.293V112.307C84.9219 114.043 85.708 115.062 87.1025 115.062ZM92.1957 115.984V108.615H93.3852V109.709H93.4945C93.7748 108.937 94.4652 108.485 95.4633 108.485C95.6889 108.485 95.9418 108.513 96.058 108.533V109.688C95.8119 109.647 95.5863 109.62 95.3266 109.62C94.1918 109.62 93.3852 110.338 93.3852 111.418V115.984H92.1957ZM99.8934 116.114C98.0271 116.114 96.8035 114.604 96.8035 112.307V112.293C96.8035 109.982 98.0203 108.485 99.8934 108.485C100.905 108.485 101.787 108.991 102.19 109.777H102.3V105.689H103.489V115.984H102.3V114.809H102.19C101.739 115.629 100.919 116.114 99.8934 116.114ZM100.167 115.062C101.507 115.062 102.327 114.009 102.327 112.307V112.293C102.327 110.591 101.507 109.538 100.167 109.538C98.8201 109.538 98.0203 110.577 98.0203 112.293V112.307C98.0203 114.022 98.8201 115.062 100.167 115.062Z" fill="#8C8C93"/>
<path d="M296.885 32.7792L300.721 36.6156C302.256 38.1503 303.023 38.9176 303.31 39.8025C303.563 40.5808 303.563 41.4192 303.31 42.1975C303.023 43.0824 302.256 43.8497 300.721 45.3844L296.885 49.2208C295.35 50.7555 294.583 51.5228 293.698 51.8103C292.919 52.0632 292.081 52.0632 291.303 51.8103C290.418 51.5228 289.65 50.7555 288.116 49.2208L284.279 45.384C282.745 43.8493 281.977 43.082 281.69 42.1971C281.437 41.4188 281.437 40.5804 281.69 39.8021C281.977 38.9172 282.745 38.1499 284.279 36.6152L288.116 32.7792C289.65 31.2445 290.418 30.4772 291.303 30.1897C292.081 29.9368 292.919 29.9368 293.698 30.1897C294.583 30.4772 295.35 31.2445 296.885 32.7792Z" fill="url(#paint0_radial_9062_28802)"/>
<g filter="url(#filter0_d_9062_28802)">
<path d="M289.332 46V44.6289L292.536 41.6626C293.353 40.876 293.793 40.3838 293.793 39.6675C293.793 38.8765 293.204 38.3843 292.413 38.3843C291.591 38.3843 291.046 38.9116 291.05 39.7729H289.244C289.24 38.0063 290.536 36.877 292.426 36.877C294.355 36.877 295.629 37.98 295.629 39.54C295.629 40.564 295.133 41.4077 293.283 43.0952L291.969 44.3828V44.4443H295.748V46H289.332Z" fill="white"/>
</g>
<g filter="url(#filter1_d_9062_28802)">
<rect x="64.5" y="63" width="250" height="112" rx="12" fill="#F6F5F8" shape-rendering="crispEdges"/>
<rect x="64.5" y="63" width="250" height="112" rx="12" fill="url(#paint1_linear_9062_28802)" shape-rendering="crispEdges"/>
<rect x="64.5" y="63" width="250" height="112" rx="12" fill="url(#paint2_radial_9062_28802)" style="mix-blend-mode:soft-light" shape-rendering="crispEdges"/>
<rect x="76.5" y="73" width="36" height="36" rx="12" fill="black"/>
<path d="M89.5 101V82H93V100.5C91 100.5 90 100.833 89.5 101Z" fill="#B30106"/>
<path d="M99.5 82H96V99L99.5 101V82Z" fill="#B30106"/>
<g filter="url(#filter2_d_9062_28802)">
<path d="M93 82H89.5L96 100.5C97.6 100.5 98.8333 100.833 99.5 101L93 82Z" fill="#E6020C"/>
</g>
<path d="M133.807 77.8182V88H132.614L127.065 80.0057H126.966V88H125.733V77.8182H126.926L132.494 85.8324H132.594V77.8182H133.807ZM139.317 88.1591C137.109 88.1591 135.757 86.5881 135.757 84.2415C135.757 81.8949 137.129 80.2642 139.197 80.2642C140.788 80.2642 142.479 81.2386 142.479 84.0824V84.5795H136.935C136.99 86.2152 137.939 87.1051 139.317 87.1051C140.236 87.1051 140.927 86.7074 141.226 85.9119L142.359 86.2301C142.001 87.3835 140.868 88.1591 139.317 88.1591ZM136.935 83.5653H141.285C141.285 82.2727 140.47 81.3182 139.197 81.3182C137.855 81.3182 137.015 82.3771 136.935 83.5653ZM147.584 80.3636V81.358H145.954V85.8125C145.954 86.8068 146.451 86.9659 146.968 86.9659C147.226 86.9659 147.385 86.9261 147.485 86.9062L147.724 87.9602C147.564 88.0199 147.286 88.0994 146.849 88.0994C145.854 88.0994 144.78 87.4631 144.78 86.1307V81.358H143.627V80.3636H144.78V78.5341H145.954V80.3636H147.584ZM152.75 80.3636V81.358H151.04V88H149.866V81.358H148.633V80.3636H149.866V79.3097C149.866 77.9972 150.92 77.3409 152.014 77.3409C152.591 77.3409 152.949 77.4602 153.128 77.5398L152.79 78.554C152.67 78.5142 152.471 78.4347 152.133 78.4347C151.358 78.4347 151.04 78.8324 151.04 79.5881V80.3636H152.75ZM155.567 77.8182V88H154.394V77.8182H155.567ZM157.716 88V80.3636H158.89V88H157.716ZM158.313 79.0909C157.856 79.0909 157.478 78.733 157.478 78.2955C157.478 77.858 157.856 77.5 158.313 77.5C158.77 77.5 159.148 77.858 159.148 78.2955C159.148 78.733 158.77 79.0909 158.313 79.0909ZM161.914 80.3636L163.743 83.4858L165.573 80.3636H166.925L164.459 84.1818L166.925 88H165.573L163.743 85.0369L161.914 88H160.561L162.988 84.1818L160.561 80.3636H161.914Z" fill="#333333"/>
<path d="M126.426 101.062V105H125.42V98.4545H126.392V99.4773H126.477C126.784 98.8125 127.398 98.3693 128.386 98.3693C129.712 98.3693 130.602 99.1705 130.602 100.841V105H129.597V100.909C129.597 99.8821 129.03 99.2727 128.097 99.2727C127.134 99.2727 126.426 99.9205 126.426 101.062ZM135.184 105.136C133.292 105.136 132.133 103.79 132.133 101.778C132.133 99.767 133.309 98.3693 135.082 98.3693C136.446 98.3693 137.895 99.2045 137.895 101.642V102.068H133.143C133.19 103.47 134.004 104.233 135.184 104.233C135.973 104.233 136.565 103.892 136.821 103.21L137.792 103.483C137.485 104.472 136.514 105.136 135.184 105.136ZM133.143 101.199H136.872C136.872 100.091 136.173 99.2727 135.082 99.2727C133.931 99.2727 133.211 100.18 133.143 101.199ZM142.271 98.4545V99.3068H140.873V103.125C140.873 103.977 141.299 104.114 141.743 104.114C141.964 104.114 142.1 104.08 142.186 104.062L142.39 104.966C142.254 105.017 142.015 105.085 141.64 105.085C140.788 105.085 139.868 104.54 139.868 103.398V99.3068H138.879V98.4545H139.868V96.8864H140.873V98.4545H142.271ZM146.699 98.4545V99.3068H145.233V105H144.227V99.3068H143.17V98.4545H144.227V97.5511C144.227 96.4261 145.13 95.8636 146.068 95.8636C146.562 95.8636 146.869 95.9659 147.022 96.0341L146.733 96.9034C146.63 96.8693 146.46 96.8011 146.17 96.8011C145.505 96.8011 145.233 97.142 145.233 97.7898V98.4545H146.699ZM149.114 96.2727V105H148.108V96.2727H149.114ZM150.956 105V98.4545H151.961V105H150.956ZM151.467 97.3636C151.075 97.3636 150.751 97.0568 150.751 96.6818C150.751 96.3068 151.075 96 151.467 96C151.859 96 152.183 96.3068 152.183 96.6818C152.183 97.0568 151.859 97.3636 151.467 97.3636ZM154.553 98.4545L156.121 101.131L157.69 98.4545H158.849L156.735 101.727L158.849 105H157.69L156.121 102.46L154.553 105H153.394L155.474 101.727L153.394 98.4545H154.553ZM161.017 105.068C160.595 105.068 160.25 104.723 160.25 104.301C160.25 103.879 160.595 103.534 161.017 103.534C161.439 103.534 161.784 103.879 161.784 104.301C161.784 104.723 161.439 105.068 161.017 105.068ZM163.725 105V96.2727H164.73V99.4943H164.816C165.037 99.1534 165.429 98.3693 166.708 98.3693C168.361 98.3693 169.503 99.6818 169.503 101.744C169.503 103.824 168.361 105.136 166.725 105.136C165.463 105.136 165.037 104.352 164.816 103.994H164.696V105H163.725ZM164.713 101.727C164.713 103.21 165.378 104.233 166.588 104.233C167.85 104.233 168.498 103.125 168.498 101.727C168.498 100.347 167.867 99.2727 166.588 99.2727C165.361 99.2727 164.713 100.261 164.713 101.727ZM173.684 107.591C172.222 107.591 171.417 106.964 171.007 106.278L171.809 105.716C172.077 106.078 172.495 106.705 173.684 106.705C174.74 106.705 175.507 106.21 175.507 105.119V103.79H175.422C175.201 104.148 174.792 104.898 173.513 104.898C171.928 104.898 170.735 103.739 170.735 101.693C170.735 99.6818 171.877 98.3693 173.53 98.3693C174.809 98.3693 175.218 99.1534 175.439 99.4943H175.542V98.4545H176.513V105.188C176.513 106.875 175.252 107.591 173.684 107.591ZM173.65 103.994C174.86 103.994 175.525 103.125 175.525 101.676C175.525 100.261 174.877 99.2727 173.65 99.2727C172.371 99.2727 171.74 100.347 171.74 101.676C171.74 103.04 172.388 103.994 173.65 103.994ZM181.235 105.119C179.803 105.102 178.201 104.203 178.201 100.977C178.201 97.892 179.407 96.1534 181.371 96.1534C182.837 96.1534 183.868 97.0994 184.081 98.4545H183.042C182.846 97.6705 182.292 97.0909 181.371 97.0909C180.02 97.0909 179.194 98.3224 179.189 100.449H179.257C179.735 99.7287 180.506 99.2898 181.405 99.2898C182.901 99.2898 184.15 100.5 184.15 102.188C184.15 103.811 182.999 105.141 181.235 105.119ZM181.235 104.182C182.304 104.182 183.127 103.295 183.127 102.188C183.127 101.105 182.338 100.227 181.269 100.227C180.186 100.227 179.347 101.161 179.343 102.205C179.338 103.249 180.14 104.182 181.235 104.182ZM188.757 98.4545V99.3068H187.291V105H186.286V99.3068H185.229V98.4545H186.286V97.5511C186.286 96.4261 187.189 95.8636 188.126 95.8636C188.621 95.8636 188.928 95.9659 189.081 96.0341L188.791 96.9034C188.689 96.8693 188.518 96.8011 188.229 96.8011C187.564 96.8011 187.291 97.142 187.291 97.7898V98.4545H188.757ZM191.905 105.153C190.661 105.153 189.672 104.42 189.672 103.142C189.672 101.642 190.998 101.374 192.212 101.216C193.405 101.062 193.9 101.105 193.9 100.619V100.585C193.9 99.7457 193.444 99.2557 192.519 99.2557C191.56 99.2557 191.036 99.767 190.814 100.244L189.86 99.9034C190.371 98.7102 191.496 98.3693 192.485 98.3693C193.32 98.3693 194.905 98.608 194.905 100.688V105H193.9V104.114H193.848C193.644 104.54 193.047 105.153 191.905 105.153ZM192.059 104.25C193.252 104.25 193.9 103.449 193.9 102.631V101.71C193.729 101.915 192.587 102.034 192.161 102.085C191.377 102.188 190.678 102.426 190.678 103.193C190.678 103.892 191.257 104.25 192.059 104.25ZM201.769 107.301C198.292 107.301 196.4 105.358 196.4 101.915C196.4 98.5909 198.36 96.5966 201.65 96.5966C204.837 96.5966 206.474 98.8977 206.474 101.233C206.474 102.886 206.303 104.83 204.496 104.83C203.9 104.83 202.979 104.574 202.877 103.841H202.826C202.621 104.335 202.11 104.812 201.138 104.778C199.656 104.727 198.888 103.483 198.888 101.864C198.888 100.33 199.86 99.2727 201.138 99.1364C201.991 99.0511 202.656 99.375 202.775 99.75H202.826V99.2727H203.729V103.125C203.729 103.602 204.002 104.028 204.513 104.028C205.383 104.028 205.587 103.159 205.587 101.216C205.587 99.3068 204.309 97.3977 201.599 97.3977C198.923 97.3977 197.337 99.1023 197.337 101.949C197.337 104.847 198.888 106.483 201.803 106.483C202.741 106.483 203.729 106.142 204.036 106.04L204.275 106.824C203.746 107.045 202.638 107.301 201.769 107.301ZM201.275 103.909C202.417 103.909 202.877 103.227 202.877 101.812C202.877 100.381 202.332 99.9716 201.309 99.9716C200.337 99.9716 199.775 100.824 199.775 101.812C199.775 102.903 200.167 103.909 201.275 103.909ZM207.979 107.455V98.4545H208.951V99.4943H209.07C209.292 99.1534 209.684 98.3693 210.962 98.3693C212.615 98.3693 213.757 99.6818 213.757 101.744C213.757 103.824 212.615 105.136 210.979 105.136C209.718 105.136 209.292 104.352 209.07 103.994H208.985V107.455H207.979ZM208.968 101.727C208.968 103.21 209.632 104.233 210.843 104.233C212.104 104.233 212.752 103.125 212.752 101.727C212.752 100.347 212.121 99.2727 210.843 99.2727C209.615 99.2727 208.968 100.261 208.968 101.727ZM217.218 105.153C215.973 105.153 214.985 104.42 214.985 103.142C214.985 101.642 216.31 101.374 217.525 101.216C218.718 101.062 219.212 101.105 219.212 100.619V100.585C219.212 99.7457 218.756 99.2557 217.831 99.2557C216.873 99.2557 216.348 99.767 216.127 100.244L215.172 99.9034C215.684 98.7102 216.809 98.3693 217.797 98.3693C218.632 98.3693 220.218 98.608 220.218 100.688V105H219.212V104.114H219.161C218.956 104.54 218.36 105.153 217.218 105.153ZM217.371 104.25C218.564 104.25 219.212 103.449 219.212 102.631V101.71C219.042 101.915 217.9 102.034 217.473 102.085C216.689 102.188 215.99 102.426 215.99 103.193C215.99 103.892 216.57 104.25 217.371 104.25ZM226.69 99.9205L225.786 100.176C225.612 99.7244 225.249 99.2386 224.371 99.2386C223.57 99.2386 222.974 99.6477 222.974 100.21C222.974 100.713 223.323 100.973 224.099 101.165L225.07 101.403C226.238 101.689 226.809 102.264 226.809 103.176C226.809 104.305 225.773 105.136 224.252 105.136C222.914 105.136 221.998 104.544 221.763 103.432L222.718 103.193C222.897 103.896 223.413 104.25 224.235 104.25C225.173 104.25 225.769 103.79 225.769 103.227C225.769 102.776 225.458 102.46 224.798 102.307L223.707 102.051C222.505 101.77 221.968 101.165 221.968 100.261C221.968 99.1534 222.991 98.3693 224.371 98.3693C225.667 98.3693 226.374 98.9915 226.69 99.9205ZM232.959 99.9205L232.056 100.176C231.881 99.7244 231.519 99.2386 230.641 99.2386C229.84 99.2386 229.243 99.6477 229.243 100.21C229.243 100.713 229.593 100.973 230.368 101.165L231.34 101.403C232.507 101.689 233.078 102.264 233.078 103.176C233.078 104.305 232.043 105.136 230.522 105.136C229.184 105.136 228.267 104.544 228.033 103.432L228.988 103.193C229.167 103.896 229.682 104.25 230.505 104.25C231.442 104.25 232.039 103.79 232.039 103.227C232.039 102.776 231.728 102.46 231.067 102.307L229.976 102.051C228.775 101.77 228.238 101.165 228.238 100.261C228.238 99.1534 229.26 98.3693 230.641 98.3693C231.936 98.3693 232.644 98.9915 232.959 99.9205ZM234.592 105V98.4545H235.564V99.4773H235.649C235.922 98.7784 236.553 98.3693 237.405 98.3693C238.266 98.3693 238.837 98.7784 239.161 99.4773H239.229C239.565 98.7997 240.251 98.3693 241.189 98.3693C242.357 98.3693 243.183 99.081 243.183 100.619V105H242.178V100.619C242.178 99.652 241.564 99.2727 240.848 99.2727C239.928 99.2727 239.399 99.8949 239.399 100.739V105H238.376V100.517C238.376 99.7713 237.844 99.2727 237.081 99.2727C236.297 99.2727 235.598 99.9503 235.598 100.909V105H234.592ZM246.948 105.153C245.704 105.153 244.715 104.42 244.715 103.142C244.715 101.642 246.04 101.374 247.255 101.216C248.448 101.062 248.942 101.105 248.942 100.619V100.585C248.942 99.7457 248.487 99.2557 247.562 99.2557C246.603 99.2557 246.079 99.767 245.857 100.244L244.903 99.9034C245.414 98.7102 246.539 98.3693 247.528 98.3693C248.363 98.3693 249.948 98.608 249.948 100.688V105H248.942V104.114H248.891C248.687 104.54 248.09 105.153 246.948 105.153ZM247.102 104.25C248.295 104.25 248.942 103.449 248.942 102.631V101.71C248.772 101.915 247.63 102.034 247.204 102.085C246.42 102.188 245.721 102.426 245.721 103.193C245.721 103.892 246.3 104.25 247.102 104.25ZM251.784 105V98.4545H252.789V105H251.784ZM252.295 97.3636C251.903 97.3636 251.579 97.0568 251.579 96.6818C251.579 96.3068 251.903 96 252.295 96C252.687 96 253.011 96.3068 253.011 96.6818C253.011 97.0568 252.687 97.3636 252.295 97.3636ZM255.637 96.2727V105H254.631V96.2727H255.637ZM258.212 105.068C257.79 105.068 257.445 104.723 257.445 104.301C257.445 103.879 257.79 103.534 258.212 103.534C258.634 103.534 258.979 103.879 258.979 104.301C258.979 104.723 258.634 105.068 258.212 105.068ZM263.443 105.136C261.602 105.136 260.477 103.722 260.477 101.761C260.477 99.767 261.653 98.3693 263.426 98.3693C264.806 98.3693 265.846 99.1875 266.017 100.415H265.011C264.858 99.8182 264.329 99.2727 263.443 99.2727C262.267 99.2727 261.483 100.244 261.483 101.727C261.483 103.244 262.25 104.233 263.443 104.233C264.227 104.233 264.824 103.807 265.011 103.091H266.017C265.846 104.25 264.892 105.136 263.443 105.136ZM270.146 105.136C268.373 105.136 267.18 103.79 267.18 101.761C267.18 99.7159 268.373 98.3693 270.146 98.3693C271.919 98.3693 273.112 99.7159 273.112 101.761C273.112 103.79 271.919 105.136 270.146 105.136ZM270.146 104.233C271.493 104.233 272.106 103.074 272.106 101.761C272.106 100.449 271.493 99.2727 270.146 99.2727C268.799 99.2727 268.186 100.449 268.186 101.761C268.186 103.074 268.799 104.233 270.146 104.233ZM274.647 105V98.4545H275.619V99.4773H275.704C275.977 98.7784 276.607 98.3693 277.46 98.3693C278.32 98.3693 278.891 98.7784 279.215 99.4773H279.283C279.62 98.7997 280.306 98.3693 281.244 98.3693C282.411 98.3693 283.238 99.081 283.238 100.619V105H282.232V100.619C282.232 99.652 281.619 99.2727 280.903 99.2727C279.982 99.2727 279.454 99.8949 279.454 100.739V105H278.431V100.517C278.431 99.7713 277.898 99.2727 277.136 99.2727C276.352 99.2727 275.653 99.9503 275.653 100.909V105H274.647Z" fill="#666666"/>
<rect x="76.5" y="129" width="36" height="36" rx="12" fill="black"/>
<path d="M89.5 157V138H93V156.5C91 156.5 90 156.833 89.5 157Z" fill="#B30106"/>
<path d="M99.5 138H96V155L99.5 157V138Z" fill="#B30106"/>
<g filter="url(#filter3_d_9062_28802)">
<path d="M93 138H89.5L96 156.5C97.6 156.5 98.8333 156.833 99.5 157L93 138Z" fill="#E6020C"/>
</g>
<path d="M133.807 133.818V144H132.614L127.065 136.006H126.966V144H125.733V133.818H126.926L132.494 141.832H132.594V133.818H133.807ZM139.317 144.159C137.109 144.159 135.757 142.588 135.757 140.241C135.757 137.895 137.129 136.264 139.197 136.264C140.788 136.264 142.479 137.239 142.479 140.082V140.58H136.935C136.99 142.215 137.939 143.105 139.317 143.105C140.236 143.105 140.927 142.707 141.226 141.912L142.359 142.23C142.001 143.384 140.868 144.159 139.317 144.159ZM136.935 139.565H141.285C141.285 138.273 140.47 137.318 139.197 137.318C137.855 137.318 137.015 138.377 136.935 139.565ZM147.584 136.364V137.358H145.954V141.812C145.954 142.807 146.451 142.966 146.968 142.966C147.226 142.966 147.385 142.926 147.485 142.906L147.724 143.96C147.564 144.02 147.286 144.099 146.849 144.099C145.854 144.099 144.78 143.463 144.78 142.131V137.358H143.627V136.364H144.78V134.534H145.954V136.364H147.584ZM152.75 136.364V137.358H151.04V144H149.866V137.358H148.633V136.364H149.866V135.31C149.866 133.997 150.92 133.341 152.014 133.341C152.591 133.341 152.949 133.46 153.128 133.54L152.79 134.554C152.67 134.514 152.471 134.435 152.133 134.435C151.358 134.435 151.04 134.832 151.04 135.588V136.364H152.75ZM155.567 133.818V144H154.394V133.818H155.567ZM157.716 144V136.364H158.89V144H157.716ZM158.313 135.091C157.856 135.091 157.478 134.733 157.478 134.295C157.478 133.858 157.856 133.5 158.313 133.5C158.77 133.5 159.148 133.858 159.148 134.295C159.148 134.733 158.77 135.091 158.313 135.091ZM161.914 136.364L163.743 139.486L165.573 136.364H166.925L164.459 140.182L166.925 144H165.573L163.743 141.037L161.914 144H160.561L162.988 140.182L160.561 136.364H161.914ZM172.696 144V133.818H178.841V134.912H173.929V138.352H178.523V139.446H173.929V142.906H178.92V144H172.696ZM180.904 144V136.364H182.037V137.557H182.137C182.455 136.741 183.191 136.264 184.185 136.264C185.189 136.264 185.856 136.741 186.233 137.557H186.313C186.706 136.766 187.506 136.264 188.6 136.264C189.962 136.264 190.927 137.094 190.927 138.889V144H189.753V138.889C189.753 137.761 189.037 137.318 188.202 137.318C187.128 137.318 186.512 138.044 186.512 139.028V144H185.319V138.77C185.319 137.9 184.697 137.318 183.807 137.318C182.893 137.318 182.077 138.109 182.077 139.227V144H180.904ZM193.072 144V136.364H194.205V137.557H194.305C194.623 136.741 195.359 136.264 196.353 136.264C197.357 136.264 198.024 136.741 198.401 137.557H198.481C198.874 136.766 199.674 136.264 200.768 136.264C202.13 136.264 203.095 137.094 203.095 138.889V144H201.921V138.889C201.921 137.761 201.205 137.318 200.37 137.318C199.296 137.318 198.68 138.044 198.68 139.028V144H197.487V138.77C197.487 137.9 196.865 137.318 195.975 137.318C195.061 137.318 194.245 138.109 194.245 139.227V144H193.072ZM207.487 144.179C206.035 144.179 204.882 143.324 204.882 141.832C204.882 140.082 206.428 139.769 207.845 139.585C209.237 139.406 209.814 139.456 209.814 138.889V138.849C209.814 137.87 209.282 137.298 208.203 137.298C207.084 137.298 206.473 137.895 206.214 138.452L205.101 138.054C205.697 136.662 207.01 136.264 208.163 136.264C209.138 136.264 210.987 136.543 210.987 138.969V144H209.814V142.966H209.754C209.515 143.463 208.819 144.179 207.487 144.179ZM207.666 143.125C209.058 143.125 209.814 142.19 209.814 141.236V140.162C209.615 140.401 208.282 140.54 207.785 140.599C206.871 140.719 206.055 140.997 206.055 141.892C206.055 142.707 206.731 143.125 207.666 143.125Z" fill="#333333"/>
<path d="M126.426 157.062V161H125.42V154.455H126.392V155.477H126.477C126.784 154.812 127.398 154.369 128.386 154.369C129.712 154.369 130.602 155.17 130.602 156.841V161H129.597V156.909C129.597 155.882 129.03 155.273 128.097 155.273C127.134 155.273 126.426 155.92 126.426 157.062ZM135.184 161.136C133.292 161.136 132.133 159.79 132.133 157.778C132.133 155.767 133.309 154.369 135.082 154.369C136.446 154.369 137.895 155.205 137.895 157.642V158.068H133.143C133.19 159.47 134.004 160.233 135.184 160.233C135.973 160.233 136.565 159.892 136.821 159.21L137.792 159.483C137.485 160.472 136.514 161.136 135.184 161.136ZM133.143 157.199H136.872C136.872 156.091 136.173 155.273 135.082 155.273C133.931 155.273 133.211 156.18 133.143 157.199ZM142.271 154.455V155.307H140.873V159.125C140.873 159.977 141.299 160.114 141.743 160.114C141.964 160.114 142.1 160.08 142.186 160.062L142.39 160.966C142.254 161.017 142.015 161.085 141.64 161.085C140.788 161.085 139.868 160.54 139.868 159.398V155.307H138.879V154.455H139.868V152.886H140.873V154.455H142.271ZM146.699 154.455V155.307H145.233V161H144.227V155.307H143.17V154.455H144.227V153.551C144.227 152.426 145.13 151.864 146.068 151.864C146.562 151.864 146.869 151.966 147.022 152.034L146.733 152.903C146.63 152.869 146.46 152.801 146.17 152.801C145.505 152.801 145.233 153.142 145.233 153.79V154.455H146.699ZM149.114 152.273V161H148.108V152.273H149.114ZM150.956 161V154.455H151.961V161H150.956ZM151.467 153.364C151.075 153.364 150.751 153.057 150.751 152.682C150.751 152.307 151.075 152 151.467 152C151.859 152 152.183 152.307 152.183 152.682C152.183 153.057 151.859 153.364 151.467 153.364ZM154.553 154.455L156.121 157.131L157.69 154.455H158.849L156.735 157.727L158.849 161H157.69L156.121 158.46L154.553 161H153.394L155.474 157.727L153.394 154.455H154.553ZM161.017 161.068C160.595 161.068 160.25 160.723 160.25 160.301C160.25 159.879 160.595 159.534 161.017 159.534C161.439 159.534 161.784 159.879 161.784 160.301C161.784 160.723 161.439 161.068 161.017 161.068ZM163.401 161V160.233L167.117 155.46V155.392H163.52V154.455H168.412V155.256L164.799 159.994V160.062H168.532V161H163.401ZM170.081 161V154.455H171.086V161H170.081ZM170.592 153.364C170.2 153.364 169.876 153.057 169.876 152.682C169.876 152.307 170.2 152 170.592 152C170.984 152 171.308 152.307 171.308 152.682C171.308 153.057 170.984 153.364 170.592 153.364ZM175.587 161.136C173.815 161.136 172.621 159.79 172.621 157.761C172.621 155.716 173.815 154.369 175.587 154.369C177.36 154.369 178.553 155.716 178.553 157.761C178.553 159.79 177.36 161.136 175.587 161.136ZM175.587 160.233C176.934 160.233 177.548 159.074 177.548 157.761C177.548 156.449 176.934 155.273 175.587 155.273C174.241 155.273 173.627 156.449 173.627 157.761C173.627 159.074 174.241 160.233 175.587 160.233ZM180.344 161L184.248 153.278V153.21H179.748V152.273H185.338V153.261L181.452 161H180.344ZM186.019 159.21V158.341L189.854 152.273H191.133V158.273H192.326V159.21H191.133V161H190.127V159.21H186.019ZM190.127 158.273V153.619H190.059L187.161 158.205V158.273H190.127ZM198.968 163.301C195.491 163.301 193.599 161.358 193.599 157.915C193.599 154.591 195.559 152.597 198.849 152.597C202.037 152.597 203.673 154.898 203.673 157.233C203.673 158.886 203.502 160.83 201.696 160.83C201.099 160.83 200.179 160.574 200.076 159.841H200.025C199.821 160.335 199.309 160.812 198.338 160.778C196.855 160.727 196.088 159.483 196.088 157.864C196.088 156.33 197.059 155.273 198.338 155.136C199.19 155.051 199.855 155.375 199.974 155.75H200.025V155.273H200.929V159.125C200.929 159.602 201.201 160.028 201.713 160.028C202.582 160.028 202.787 159.159 202.787 157.216C202.787 155.307 201.508 153.398 198.798 153.398C196.122 153.398 194.537 155.102 194.537 157.949C194.537 160.847 196.088 162.483 199.002 162.483C199.94 162.483 200.929 162.142 201.235 162.04L201.474 162.824C200.946 163.045 199.838 163.301 198.968 163.301ZM198.474 159.909C199.616 159.909 200.076 159.227 200.076 157.812C200.076 156.381 199.531 155.972 198.508 155.972C197.537 155.972 196.974 156.824 196.974 157.812C196.974 158.903 197.366 159.909 198.474 159.909ZM205.178 163.455V154.455H206.15V155.494H206.269C206.491 155.153 206.883 154.369 208.161 154.369C209.815 154.369 210.957 155.682 210.957 157.744C210.957 159.824 209.815 161.136 208.178 161.136C206.917 161.136 206.491 160.352 206.269 159.994H206.184V163.455H205.178ZM206.167 157.727C206.167 159.21 206.832 160.233 208.042 160.233C209.303 160.233 209.951 159.125 209.951 157.727C209.951 156.347 209.32 155.273 208.042 155.273C206.815 155.273 206.167 156.261 206.167 157.727ZM214.417 161.153C213.173 161.153 212.184 160.42 212.184 159.142C212.184 157.642 213.509 157.374 214.724 157.216C215.917 157.062 216.411 157.105 216.411 156.619V156.585C216.411 155.746 215.955 155.256 215.031 155.256C214.072 155.256 213.548 155.767 213.326 156.244L212.371 155.903C212.883 154.71 214.008 154.369 214.996 154.369C215.832 154.369 217.417 154.608 217.417 156.688V161H216.411V160.114H216.36C216.156 160.54 215.559 161.153 214.417 161.153ZM214.57 160.25C215.763 160.25 216.411 159.449 216.411 158.631V157.71C216.241 157.915 215.099 158.034 214.673 158.085C213.888 158.188 213.19 158.426 213.19 159.193C213.19 159.892 213.769 160.25 214.57 160.25ZM223.889 155.92L222.985 156.176C222.811 155.724 222.449 155.239 221.571 155.239C220.77 155.239 220.173 155.648 220.173 156.21C220.173 156.713 220.522 156.973 221.298 157.165L222.27 157.403C223.437 157.689 224.008 158.264 224.008 159.176C224.008 160.305 222.973 161.136 221.451 161.136C220.113 161.136 219.197 160.544 218.963 159.432L219.917 159.193C220.096 159.896 220.612 160.25 221.434 160.25C222.372 160.25 222.968 159.79 222.968 159.227C222.968 158.776 222.657 158.46 221.997 158.307L220.906 158.051C219.704 157.77 219.167 157.165 219.167 156.261C219.167 155.153 220.19 154.369 221.571 154.369C222.866 154.369 223.574 154.991 223.889 155.92ZM230.158 155.92L229.255 156.176C229.08 155.724 228.718 155.239 227.84 155.239C227.039 155.239 226.442 155.648 226.442 156.21C226.442 156.713 226.792 156.973 227.567 157.165L228.539 157.403C229.707 157.689 230.278 158.264 230.278 159.176C230.278 160.305 229.242 161.136 227.721 161.136C226.383 161.136 225.467 160.544 225.232 159.432L226.187 159.193C226.366 159.896 226.881 160.25 227.704 160.25C228.641 160.25 229.238 159.79 229.238 159.227C229.238 158.776 228.927 158.46 228.266 158.307L227.175 158.051C225.974 157.77 225.437 157.165 225.437 156.261C225.437 155.153 226.46 154.369 227.84 154.369C229.136 154.369 229.843 154.991 230.158 155.92ZM231.792 161V154.455H232.763V155.477H232.848C233.121 154.778 233.752 154.369 234.604 154.369C235.465 154.369 236.036 154.778 236.36 155.477H236.428C236.765 154.8 237.451 154.369 238.388 154.369C239.556 154.369 240.382 155.081 240.382 156.619V161H239.377V156.619C239.377 155.652 238.763 155.273 238.047 155.273C237.127 155.273 236.598 155.895 236.598 156.739V161H235.576V156.517C235.576 155.771 235.043 155.273 234.28 155.273C233.496 155.273 232.797 155.95 232.797 156.909V161H231.792ZM244.147 161.153C242.903 161.153 241.914 160.42 241.914 159.142C241.914 157.642 243.24 157.374 244.454 157.216C245.647 157.062 246.142 157.105 246.142 156.619V156.585C246.142 155.746 245.686 155.256 244.761 155.256C243.802 155.256 243.278 155.767 243.056 156.244L242.102 155.903C242.613 154.71 243.738 154.369 244.727 154.369C245.562 154.369 247.147 154.608 247.147 156.688V161H246.142V160.114H246.091C245.886 160.54 245.289 161.153 244.147 161.153ZM244.301 160.25C245.494 160.25 246.142 159.449 246.142 158.631V157.71C245.971 157.915 244.829 158.034 244.403 158.085C243.619 158.188 242.92 158.426 242.92 159.193C242.92 159.892 243.5 160.25 244.301 160.25ZM248.983 161V154.455H249.989V161H248.983ZM249.494 153.364C249.102 153.364 248.778 153.057 248.778 152.682C248.778 152.307 249.102 152 249.494 152C249.886 152 250.21 152.307 250.21 152.682C250.21 153.057 249.886 153.364 249.494 153.364ZM252.836 152.273V161H251.831V152.273H252.836ZM255.411 161.068C254.989 161.068 254.644 160.723 254.644 160.301C254.644 159.879 254.989 159.534 255.411 159.534C255.833 159.534 256.178 159.879 256.178 160.301C256.178 160.723 255.833 161.068 255.411 161.068ZM260.642 161.136C258.801 161.136 257.676 159.722 257.676 157.761C257.676 155.767 258.852 154.369 260.625 154.369C262.006 154.369 263.045 155.188 263.216 156.415H262.21C262.057 155.818 261.528 155.273 260.642 155.273C259.466 155.273 258.682 156.244 258.682 157.727C258.682 159.244 259.449 160.233 260.642 160.233C261.426 160.233 262.023 159.807 262.21 159.091H263.216C263.045 160.25 262.091 161.136 260.642 161.136ZM267.345 161.136C265.572 161.136 264.379 159.79 264.379 157.761C264.379 155.716 265.572 154.369 267.345 154.369C269.118 154.369 270.311 155.716 270.311 157.761C270.311 159.79 269.118 161.136 267.345 161.136ZM267.345 160.233C268.692 160.233 269.305 159.074 269.305 157.761C269.305 156.449 268.692 155.273 267.345 155.273C265.999 155.273 265.385 156.449 265.385 157.761C265.385 159.074 265.999 160.233 267.345 160.233ZM271.846 161V154.455H272.818V155.477H272.903C273.176 154.778 273.806 154.369 274.659 154.369C275.52 154.369 276.091 154.778 276.414 155.477H276.483C276.819 154.8 277.505 154.369 278.443 154.369C279.61 154.369 280.437 155.081 280.437 156.619V161H279.431V156.619C279.431 155.652 278.818 155.273 278.102 155.273C277.181 155.273 276.653 155.895 276.653 156.739V161H275.63V156.517C275.63 155.771 275.098 155.273 274.335 155.273C273.551 155.273 272.852 155.95 272.852 156.909V161H271.846Z" fill="#666666"/>
</g>
</g>
<defs>
<filter id="filter0_d_9062_28802" x="285.115" y="33.4375" width="14.7578" height="17.375" filterUnits="userSpaceOnUse" color-interpolation-filters="sRGB">
<feFlood flood-opacity="0" result="BackgroundImageFix"/>
<feColorMatrix in="SourceAlpha" type="matrix" values="0 0 0 0 0 0 0 0 0 0 0 0 0 0 0 0 0 0 127 0" result="hardAlpha"/>
<feOffset dy="0.6875"/>
<feGaussianBlur stdDeviation="2.0625"/>
<feComposite in2="hardAlpha" operator="out"/>
<feColorMatrix type="matrix" values="0 0 0 0 0.195278 0 0 0 0 0.0513889 0 0 0 0 0.770833 0 0 0 1 0"/>
<feBlend mode="normal" in2="BackgroundImageFix" result="effect1_dropShadow_9062_28802"/>
<feBlend mode="normal" in="SourceGraphic" in2="effect1_dropShadow_9062_28802" result="shape"/>
</filter>
<filter id="filter1_d_9062_28802" x="54.5" y="55" width="350" height="132" filterUnits="userSpaceOnUse" color-interpolation-filters="sRGB">
<feFlood flood-opacity="0" result="BackgroundImageFix"/>
<feColorMatrix in="SourceAlpha" type="matrix" values="0 0 0 0 0 0 0 0 0 0 0 0 0 0 0 0 0 0 127 0" result="hardAlpha"/>
<feOffset dy="2"/>
<feGaussianBlur stdDeviation="5"/>
<feComposite in2="hardAlpha" operator="out"/>
<feColorMatrix type="matrix" values="0 0 0 0 0 0 0 0 0 0 0 0 0 0 0 0 0 0 0.3 0"/>
<feBlend mode="normal" in2="BackgroundImageFix" result="effect1_dropShadow_9062_28802"/>
<feBlend mode="normal" in="SourceGraphic" in2="effect1_dropShadow_9062_28802" result="shape"/>
</filter>
<filter id="filter2_d_9062_28802" x="87.5" y="80" width="14" height="23" filterUnits="userSpaceOnUse" color-interpolation-filters="sRGB">
<feFlood flood-opacity="0" result="BackgroundImageFix"/>
<feColorMatrix in="SourceAlpha" type="matrix" values="0 0 0 0 0 0 0 0 0 0 0 0 0 0 0 0 0 0 127 0" result="hardAlpha"/>
<feOffset/>
<feGaussianBlur stdDeviation="1"/>
<feComposite in2="hardAlpha" operator="out"/>
<feColorMatrix type="matrix" values="0 0 0 0 0 0 0 0 0 0 0 0 0 0 0 0 0 0 0.3 0"/>
<feBlend mode="normal" in2="BackgroundImageFix" result="effect1_dropShadow_9062_28802"/>
<feBlend mode="normal" in="SourceGraphic" in2="effect1_dropShadow_9062_28802" result="shape"/>
</filter>
<filter id="filter3_d_9062_28802" x="87.5" y="136" width="14" height="23" filterUnits="userSpaceOnUse" color-interpolation-filters="sRGB">
<feFlood flood-opacity="0" result="BackgroundImageFix"/>
<feColorMatrix in="SourceAlpha" type="matrix" values="0 0 0 0 0 0 0 0 0 0 0 0 0 0 0 0 0 0 127 0" result="hardAlpha"/>
<feOffset/>
<feGaussianBlur stdDeviation="1"/>
<feComposite in2="hardAlpha" operator="out"/>
<feColorMatrix type="matrix" values="0 0 0 0 0 0 0 0 0 0 0 0 0 0 0 0 0 0 0.3 0"/>
<feBlend mode="normal" in2="BackgroundImageFix" result="effect1_dropShadow_9062_28802"/>
<feBlend mode="normal" in="SourceGraphic" in2="effect1_dropShadow_9062_28802" result="shape"/>
</filter>
<radialGradient id="paint0_radial_9062_28802" cx="0" cy="0" r="1" gradientUnits="userSpaceOnUse" gradientTransform="translate(288.14 52.4288) rotate(-58.1418) scale(18.3647 28.7187)">
<stop stop-color="#FFD580"/>
<stop offset="0.09375" stop-color="#F6C592"/>
<stop offset="0.205" stop-color="#EBB6A2"/>
<stop offset="0.324466" stop-color="#DFA5AF"/>
<stop offset="0.42875" stop-color="#D397BE"/>
<stop offset="0.53375" stop-color="#C486CB"/>
<stop offset="0.64875" stop-color="#B578D9"/>
<stop offset="0.77125" stop-color="#A166E5"/>
<stop offset="0.89125" stop-color="#8B57F2"/>
<stop offset="1" stop-color="#704CFF"/>
</radialGradient>
<linearGradient id="paint1_linear_9062_28802" x1="189.5" y1="63" x2="189.5" y2="175" gradientUnits="userSpaceOnUse">
<stop offset="0.0001" stop-color="white" stop-opacity="0.09"/>
<stop offset="1" stop-color="white" stop-opacity="0"/>
</linearGradient>
<radialGradient id="paint2_radial_9062_28802" cx="0" cy="0" r="1" gradientUnits="userSpaceOnUse" gradientTransform="translate(362.5 23.5) rotate(150.654) scale(133.651 133.621)">
<stop stop-color="white"/>
<stop offset="1" stop-color="white" stop-opacity="0"/>
</radialGradient>
<clipPath id="clip0_9062_28802">
<rect width="341" height="193" fill="white" transform="translate(0.5)"/>
</clipPath>
</defs>
</svg>
