<svg width="341" height="193" viewBox="0 0 341 193" fill="none" xmlns="http://www.w3.org/2000/svg">
<g clip-path="url(#clip0_9062_28414)">
<rect x="17.9824" y="13.9844" width="296.034" height="52" rx="16.4874" fill="black" fill-opacity="0.4"/>
<path d="M43.2402 44.9844V35.1201H49.3516V36.2275H44.4707V39.3926H49.0986V40.4863H44.4707V43.877H49.3516V44.9844H43.2402ZM51.2797 44.9844V37.6152H52.4691V38.7363H52.5785C52.9066 37.9434 53.6039 37.4854 54.5678 37.4854C55.5658 37.4854 56.2631 38.0117 56.6049 38.7773H56.7143C57.1107 37.998 57.9516 37.4854 58.9701 37.4854C60.474 37.4854 61.3148 38.3467 61.3148 39.8916V44.9844H60.1254V40.165C60.1254 39.0781 59.6264 38.5381 58.5873 38.5381C57.5619 38.5381 56.8852 39.3105 56.8852 40.2471V44.9844H55.6957V39.9805C55.6957 39.1055 55.0941 38.5381 54.1645 38.5381C53.2006 38.5381 52.4691 39.3789 52.4691 40.418V44.9844H51.2797ZM65.3348 45.1143C63.9334 45.1143 62.8738 44.2666 62.8738 42.9268V42.9131C62.8738 41.6006 63.8445 40.8418 65.5604 40.7393L67.6727 40.6094V39.9395C67.6727 39.0303 67.1189 38.5381 66.0184 38.5381C65.1365 38.5381 64.5555 38.8662 64.3641 39.4404L64.3572 39.4609H63.1678L63.1746 39.4199C63.366 38.2646 64.4871 37.4854 66.0594 37.4854C67.8572 37.4854 68.8621 38.4082 68.8621 39.9395V44.9844H67.6727V43.8975H67.5633C67.0984 44.6836 66.326 45.1143 65.3348 45.1143ZM64.0906 42.8994C64.0906 43.6445 64.7264 44.082 65.5809 44.082C66.7908 44.082 67.6727 43.2891 67.6727 42.2363V41.5664L65.7039 41.6895C64.5828 41.7578 64.0906 42.1543 64.0906 42.8857V42.8994ZM71.5148 36.1934C71.0637 36.1934 70.6945 35.8242 70.6945 35.373C70.6945 34.9219 71.0637 34.5527 71.5148 34.5527C71.966 34.5527 72.3352 34.9219 72.3352 35.373C72.3352 35.8242 71.966 36.1934 71.5148 36.1934ZM70.9133 44.9844V37.6152H72.1027V44.9844H70.9133ZM74.2633 44.9844V34.6895H75.4527V44.9844H74.2633Z" fill="#8C8C93"/>
<rect x="17.9824" y="84.9844" width="296.034" height="52" rx="16.4874" fill="black" fill-opacity="0.4"/>
<path d="M43.2402 115.984V106.12H46.959C48.8115 106.12 50.124 107.398 50.124 109.271V109.285C50.124 111.158 48.8115 112.464 46.959 112.464H44.4707V115.984H43.2402ZM46.6445 107.214H44.4707V111.37H46.6445C48.0527 111.37 48.8662 110.598 48.8662 109.299V109.285C48.8662 107.986 48.0527 107.214 46.6445 107.214ZM53.5902 116.114C52.1889 116.114 51.1293 115.267 51.1293 113.927V113.913C51.1293 112.601 52.1 111.842 53.8158 111.739L55.9281 111.609V110.939C55.9281 110.03 55.3744 109.538 54.2738 109.538C53.392 109.538 52.8109 109.866 52.6195 110.44L52.6127 110.461H51.4232L51.4301 110.42C51.6215 109.265 52.7426 108.485 54.3148 108.485C56.1127 108.485 57.1176 109.408 57.1176 110.939V115.984H55.9281V114.897H55.8188C55.3539 115.684 54.5814 116.114 53.5902 116.114ZM52.3461 113.899C52.3461 114.645 52.9818 115.082 53.8363 115.082C55.0463 115.082 55.9281 114.289 55.9281 113.236V112.566L53.9594 112.689C52.8383 112.758 52.3461 113.154 52.3461 113.886V113.899ZM61.6707 116.114C60.0301 116.114 58.9021 115.321 58.7654 114.104H59.9822C60.1805 114.72 60.7684 115.123 61.7117 115.123C62.7029 115.123 63.407 114.651 63.407 113.981V113.968C63.407 113.469 63.0311 113.12 62.1219 112.901L60.9803 112.628C59.5994 112.3 58.9773 111.698 58.9773 110.639V110.632C58.9773 109.408 60.1531 108.485 61.7186 108.485C63.2635 108.485 64.3367 109.258 64.5008 110.461H63.3318C63.1746 109.88 62.6004 109.477 61.7117 109.477C60.8367 109.477 60.1941 109.928 60.1941 110.577V110.591C60.1941 111.09 60.5633 111.404 61.4314 111.616L62.5662 111.89C63.9539 112.225 64.6238 112.826 64.6238 113.879V113.893C64.6238 115.205 63.3455 116.114 61.6707 116.114ZM68.7121 116.114C67.0715 116.114 65.9436 115.321 65.8068 114.104H67.0236C67.2219 114.72 67.8098 115.123 68.7531 115.123C69.7443 115.123 70.4484 114.651 70.4484 113.981V113.968C70.4484 113.469 70.0725 113.12 69.1633 112.901L68.0217 112.628C66.6408 112.3 66.0187 111.698 66.0187 110.639V110.632C66.0187 109.408 67.1945 108.485 68.76 108.485C70.3049 108.485 71.3781 109.258 71.5422 110.461H70.3732C70.216 109.88 69.6418 109.477 68.7531 109.477C67.8781 109.477 67.2355 109.928 67.2355 110.577V110.591C67.2355 111.09 67.6047 111.404 68.4729 111.616L69.6076 111.89C70.9953 112.225 71.6652 112.826 71.6652 113.879V113.893C71.6652 115.205 70.3869 116.114 68.7121 116.114ZM74.5777 115.984L72.5133 108.615H73.7027L75.152 114.508H75.2613L76.9088 108.615H78.0367L79.6842 114.508H79.7936L81.2428 108.615H82.4254L80.3609 115.984H79.1646L77.5172 110.283H77.4078L75.7672 115.984H74.5777ZM86.6025 116.114C84.5039 116.114 83.2051 114.665 83.2051 112.307V112.293C83.2051 109.928 84.5039 108.485 86.6025 108.485C88.7012 108.485 90 109.928 90 112.293V112.307C90 114.665 88.7012 116.114 86.6025 116.114ZM86.6025 115.062C87.9971 115.062 88.7832 114.043 88.7832 112.307V112.293C88.7832 110.55 87.9971 109.538 86.6025 109.538C85.208 109.538 84.4219 110.55 84.4219 112.293V112.307C84.4219 114.043 85.208 115.062 86.6025 115.062ZM91.6957 115.984V108.615H92.8852V109.709H92.9945C93.2748 108.937 93.9652 108.485 94.9633 108.485C95.1889 108.485 95.4418 108.513 95.558 108.533V109.688C95.3119 109.647 95.0863 109.62 94.8266 109.62C93.6918 109.62 92.8852 110.338 92.8852 111.418V115.984H91.6957ZM99.3934 116.114C97.5271 116.114 96.3035 114.604 96.3035 112.307V112.293C96.3035 109.982 97.5203 108.485 99.3934 108.485C100.405 108.485 101.287 108.991 101.69 109.777H101.8V105.689H102.989V115.984H101.8V114.809H101.69C101.239 115.629 100.419 116.114 99.3934 116.114ZM99.6668 115.062C101.007 115.062 101.827 114.009 101.827 112.307V112.293C101.827 110.591 101.007 109.538 99.6668 109.538C98.3201 109.538 97.5203 110.577 97.5203 112.293V112.307C97.5203 114.022 98.3201 115.062 99.6668 115.062Z" fill="#8C8C93"/>
<path d="M296.385 32.7792L300.221 36.6156C301.756 38.1503 302.523 38.9176 302.81 39.8025C303.063 40.5808 303.063 41.4192 302.81 42.1975C302.523 43.0824 301.756 43.8497 300.221 45.3844L296.385 49.2208C294.85 50.7555 294.083 51.5228 293.198 51.8103C292.419 52.0632 291.581 52.0632 290.803 51.8103C289.918 51.5228 289.15 50.7555 287.616 49.2208L283.779 45.384C282.245 43.8493 281.477 43.082 281.19 42.1971C280.937 41.4188 280.937 40.5804 281.19 39.8021C281.477 38.9172 282.245 38.1499 283.779 36.6152L287.616 32.7792C289.15 31.2445 289.918 30.4772 290.803 30.1897C291.581 29.9368 292.419 29.9368 293.198 30.1897C294.083 30.4772 294.85 31.2445 296.385 32.7792Z" fill="url(#paint0_radial_9062_28414)"/>
<g filter="url(#filter0_d_9062_28414)">
<path d="M288.832 46V44.6289L292.036 41.6626C292.853 40.876 293.293 40.3838 293.293 39.6675C293.293 38.8765 292.704 38.3843 291.913 38.3843C291.091 38.3843 290.546 38.9116 290.55 39.7729H288.744C288.74 38.0063 290.036 36.877 291.926 36.877C293.855 36.877 295.129 37.98 295.129 39.54C295.129 40.564 294.633 41.4077 292.783 43.0952L291.469 44.3828V44.4443H295.248V46H288.832Z" fill="white"/>
</g>
<g filter="url(#filter1_d_9062_28414)">
<rect x="64" y="63" width="250" height="112" rx="12" fill="#1F1F31" shape-rendering="crispEdges"/>
<rect x="64" y="63" width="250" height="112" rx="12" fill="url(#paint1_linear_9062_28414)" shape-rendering="crispEdges"/>
<rect x="64" y="63" width="250" height="112" rx="12" fill="url(#paint2_radial_9062_28414)" style="mix-blend-mode:soft-light" shape-rendering="crispEdges"/>
<rect x="76" y="73" width="36" height="36" rx="12" fill="black"/>
<path d="M89 101V82H92.5V100.5C90.5 100.5 89.5 100.833 89 101Z" fill="#B30106"/>
<path d="M99 82H95.5V99L99 101V82Z" fill="#B30106"/>
<g filter="url(#filter2_d_9062_28414)">
<path d="M92.5 82H89L95.5 100.5C97.1 100.5 98.3333 100.833 99 101L92.5 82Z" fill="#E6020C"/>
</g>
<path d="M133.307 77.8182V88H132.114L126.565 80.0057H126.466V88H125.233V77.8182H126.426L131.994 85.8324H132.094V77.8182H133.307ZM138.817 88.1591C136.609 88.1591 135.257 86.5881 135.257 84.2415C135.257 81.8949 136.629 80.2642 138.697 80.2642C140.288 80.2642 141.979 81.2386 141.979 84.0824V84.5795H136.435C136.49 86.2152 137.439 87.1051 138.817 87.1051C139.736 87.1051 140.427 86.7074 140.726 85.9119L141.859 86.2301C141.501 87.3835 140.368 88.1591 138.817 88.1591ZM136.435 83.5653H140.785C140.785 82.2727 139.97 81.3182 138.697 81.3182C137.355 81.3182 136.515 82.3771 136.435 83.5653ZM147.084 80.3636V81.358H145.454V85.8125C145.454 86.8068 145.951 86.9659 146.468 86.9659C146.726 86.9659 146.885 86.9261 146.985 86.9062L147.224 87.9602C147.064 88.0199 146.786 88.0994 146.349 88.0994C145.354 88.0994 144.28 87.4631 144.28 86.1307V81.358H143.127V80.3636H144.28V78.5341H145.454V80.3636H147.084ZM152.25 80.3636V81.358H150.54V88H149.366V81.358H148.133V80.3636H149.366V79.3097C149.366 77.9972 150.42 77.3409 151.514 77.3409C152.091 77.3409 152.449 77.4602 152.628 77.5398L152.29 78.554C152.17 78.5142 151.971 78.4347 151.633 78.4347C150.858 78.4347 150.54 78.8324 150.54 79.5881V80.3636H152.25ZM155.067 77.8182V88H153.894V77.8182H155.067ZM157.216 88V80.3636H158.39V88H157.216ZM157.813 79.0909C157.356 79.0909 156.978 78.733 156.978 78.2955C156.978 77.858 157.356 77.5 157.813 77.5C158.27 77.5 158.648 77.858 158.648 78.2955C158.648 78.733 158.27 79.0909 157.813 79.0909ZM161.414 80.3636L163.243 83.4858L165.073 80.3636H166.425L163.959 84.1818L166.425 88H165.073L163.243 85.0369L161.414 88H160.061L162.488 84.1818L160.061 80.3636H161.414Z" fill="#D1D1D4"/>
<path d="M125.926 101.062V105H124.92V98.4545H125.892V99.4773H125.977C126.284 98.8125 126.898 98.3693 127.886 98.3693C129.212 98.3693 130.102 99.1705 130.102 100.841V105H129.097V100.909C129.097 99.8821 128.53 99.2727 127.597 99.2727C126.634 99.2727 125.926 99.9205 125.926 101.062ZM134.684 105.136C132.792 105.136 131.633 103.79 131.633 101.778C131.633 99.767 132.809 98.3693 134.582 98.3693C135.946 98.3693 137.395 99.2045 137.395 101.642V102.068H132.643C132.69 103.47 133.504 104.233 134.684 104.233C135.473 104.233 136.065 103.892 136.321 103.21L137.292 103.483C136.985 104.472 136.014 105.136 134.684 105.136ZM132.643 101.199H136.372C136.372 100.091 135.673 99.2727 134.582 99.2727C133.431 99.2727 132.711 100.18 132.643 101.199ZM141.771 98.4545V99.3068H140.373V103.125C140.373 103.977 140.799 104.114 141.243 104.114C141.464 104.114 141.6 104.08 141.686 104.062L141.89 104.966C141.754 105.017 141.515 105.085 141.14 105.085C140.288 105.085 139.368 104.54 139.368 103.398V99.3068H138.379V98.4545H139.368V96.8864H140.373V98.4545H141.771ZM146.199 98.4545V99.3068H144.733V105H143.727V99.3068H142.67V98.4545H143.727V97.5511C143.727 96.4261 144.63 95.8636 145.568 95.8636C146.062 95.8636 146.369 95.9659 146.522 96.0341L146.233 96.9034C146.13 96.8693 145.96 96.8011 145.67 96.8011C145.005 96.8011 144.733 97.142 144.733 97.7898V98.4545H146.199ZM148.614 96.2727V105H147.608V96.2727H148.614ZM150.456 105V98.4545H151.461V105H150.456ZM150.967 97.3636C150.575 97.3636 150.251 97.0568 150.251 96.6818C150.251 96.3068 150.575 96 150.967 96C151.359 96 151.683 96.3068 151.683 96.6818C151.683 97.0568 151.359 97.3636 150.967 97.3636ZM154.053 98.4545L155.621 101.131L157.19 98.4545H158.349L156.235 101.727L158.349 105H157.19L155.621 102.46L154.053 105H152.894L154.974 101.727L152.894 98.4545H154.053ZM160.517 105.068C160.095 105.068 159.75 104.723 159.75 104.301C159.75 103.879 160.095 103.534 160.517 103.534C160.939 103.534 161.284 103.879 161.284 104.301C161.284 104.723 160.939 105.068 160.517 105.068ZM163.225 105V96.2727H164.23V99.4943H164.316C164.537 99.1534 164.929 98.3693 166.208 98.3693C167.861 98.3693 169.003 99.6818 169.003 101.744C169.003 103.824 167.861 105.136 166.225 105.136C164.963 105.136 164.537 104.352 164.316 103.994H164.196V105H163.225ZM164.213 101.727C164.213 103.21 164.878 104.233 166.088 104.233C167.35 104.233 167.998 103.125 167.998 101.727C167.998 100.347 167.367 99.2727 166.088 99.2727C164.861 99.2727 164.213 100.261 164.213 101.727ZM173.184 107.591C171.722 107.591 170.917 106.964 170.507 106.278L171.309 105.716C171.577 106.078 171.995 106.705 173.184 106.705C174.24 106.705 175.007 106.21 175.007 105.119V103.79H174.922C174.701 104.148 174.292 104.898 173.013 104.898C171.428 104.898 170.235 103.739 170.235 101.693C170.235 99.6818 171.377 98.3693 173.03 98.3693C174.309 98.3693 174.718 99.1534 174.939 99.4943H175.042V98.4545H176.013V105.188C176.013 106.875 174.752 107.591 173.184 107.591ZM173.15 103.994C174.36 103.994 175.025 103.125 175.025 101.676C175.025 100.261 174.377 99.2727 173.15 99.2727C171.871 99.2727 171.24 100.347 171.24 101.676C171.24 103.04 171.888 103.994 173.15 103.994ZM180.735 105.119C179.303 105.102 177.701 104.203 177.701 100.977C177.701 97.892 178.907 96.1534 180.871 96.1534C182.337 96.1534 183.368 97.0994 183.581 98.4545H182.542C182.346 97.6705 181.792 97.0909 180.871 97.0909C179.52 97.0909 178.694 98.3224 178.689 100.449H178.757C179.235 99.7287 180.006 99.2898 180.905 99.2898C182.401 99.2898 183.65 100.5 183.65 102.188C183.65 103.811 182.499 105.141 180.735 105.119ZM180.735 104.182C181.804 104.182 182.627 103.295 182.627 102.188C182.627 101.105 181.838 100.227 180.769 100.227C179.686 100.227 178.847 101.161 178.843 102.205C178.838 103.249 179.64 104.182 180.735 104.182ZM188.257 98.4545V99.3068H186.791V105H185.786V99.3068H184.729V98.4545H185.786V97.5511C185.786 96.4261 186.689 95.8636 187.626 95.8636C188.121 95.8636 188.428 95.9659 188.581 96.0341L188.291 96.9034C188.189 96.8693 188.018 96.8011 187.729 96.8011C187.064 96.8011 186.791 97.142 186.791 97.7898V98.4545H188.257ZM191.405 105.153C190.161 105.153 189.172 104.42 189.172 103.142C189.172 101.642 190.498 101.374 191.712 101.216C192.905 101.062 193.4 101.105 193.4 100.619V100.585C193.4 99.7457 192.944 99.2557 192.019 99.2557C191.06 99.2557 190.536 99.767 190.314 100.244L189.36 99.9034C189.871 98.7102 190.996 98.3693 191.985 98.3693C192.82 98.3693 194.405 98.608 194.405 100.688V105H193.4V104.114H193.348C193.144 104.54 192.547 105.153 191.405 105.153ZM191.559 104.25C192.752 104.25 193.4 103.449 193.4 102.631V101.71C193.229 101.915 192.087 102.034 191.661 102.085C190.877 102.188 190.178 102.426 190.178 103.193C190.178 103.892 190.757 104.25 191.559 104.25ZM201.269 107.301C197.792 107.301 195.9 105.358 195.9 101.915C195.9 98.5909 197.86 96.5966 201.15 96.5966C204.337 96.5966 205.974 98.8977 205.974 101.233C205.974 102.886 205.803 104.83 203.996 104.83C203.4 104.83 202.479 104.574 202.377 103.841H202.326C202.121 104.335 201.61 104.812 200.638 104.778C199.156 104.727 198.388 103.483 198.388 101.864C198.388 100.33 199.36 99.2727 200.638 99.1364C201.491 99.0511 202.156 99.375 202.275 99.75H202.326V99.2727H203.229V103.125C203.229 103.602 203.502 104.028 204.013 104.028C204.883 104.028 205.087 103.159 205.087 101.216C205.087 99.3068 203.809 97.3977 201.099 97.3977C198.423 97.3977 196.837 99.1023 196.837 101.949C196.837 104.847 198.388 106.483 201.303 106.483C202.241 106.483 203.229 106.142 203.536 106.04L203.775 106.824C203.246 107.045 202.138 107.301 201.269 107.301ZM200.775 103.909C201.917 103.909 202.377 103.227 202.377 101.812C202.377 100.381 201.832 99.9716 200.809 99.9716C199.837 99.9716 199.275 100.824 199.275 101.812C199.275 102.903 199.667 103.909 200.775 103.909ZM207.479 107.455V98.4545H208.451V99.4943H208.57C208.792 99.1534 209.184 98.3693 210.462 98.3693C212.115 98.3693 213.257 99.6818 213.257 101.744C213.257 103.824 212.115 105.136 210.479 105.136C209.218 105.136 208.792 104.352 208.57 103.994H208.485V107.455H207.479ZM208.468 101.727C208.468 103.21 209.132 104.233 210.343 104.233C211.604 104.233 212.252 103.125 212.252 101.727C212.252 100.347 211.621 99.2727 210.343 99.2727C209.115 99.2727 208.468 100.261 208.468 101.727ZM216.718 105.153C215.473 105.153 214.485 104.42 214.485 103.142C214.485 101.642 215.81 101.374 217.025 101.216C218.218 101.062 218.712 101.105 218.712 100.619V100.585C218.712 99.7457 218.256 99.2557 217.331 99.2557C216.373 99.2557 215.848 99.767 215.627 100.244L214.672 99.9034C215.184 98.7102 216.309 98.3693 217.297 98.3693C218.132 98.3693 219.718 98.608 219.718 100.688V105H218.712V104.114H218.661C218.456 104.54 217.86 105.153 216.718 105.153ZM216.871 104.25C218.064 104.25 218.712 103.449 218.712 102.631V101.71C218.542 101.915 217.4 102.034 216.973 102.085C216.189 102.188 215.49 102.426 215.49 103.193C215.49 103.892 216.07 104.25 216.871 104.25ZM226.19 99.9205L225.286 100.176C225.112 99.7244 224.749 99.2386 223.871 99.2386C223.07 99.2386 222.474 99.6477 222.474 100.21C222.474 100.713 222.823 100.973 223.599 101.165L224.57 101.403C225.738 101.689 226.309 102.264 226.309 103.176C226.309 104.305 225.273 105.136 223.752 105.136C222.414 105.136 221.498 104.544 221.263 103.432L222.218 103.193C222.397 103.896 222.913 104.25 223.735 104.25C224.673 104.25 225.269 103.79 225.269 103.227C225.269 102.776 224.958 102.46 224.298 102.307L223.207 102.051C222.005 101.77 221.468 101.165 221.468 100.261C221.468 99.1534 222.491 98.3693 223.871 98.3693C225.167 98.3693 225.874 98.9915 226.19 99.9205ZM232.459 99.9205L231.556 100.176C231.381 99.7244 231.019 99.2386 230.141 99.2386C229.34 99.2386 228.743 99.6477 228.743 100.21C228.743 100.713 229.093 100.973 229.868 101.165L230.84 101.403C232.007 101.689 232.578 102.264 232.578 103.176C232.578 104.305 231.543 105.136 230.022 105.136C228.684 105.136 227.767 104.544 227.533 103.432L228.488 103.193C228.667 103.896 229.182 104.25 230.005 104.25C230.942 104.25 231.539 103.79 231.539 103.227C231.539 102.776 231.228 102.46 230.567 102.307L229.476 102.051C228.275 101.77 227.738 101.165 227.738 100.261C227.738 99.1534 228.76 98.3693 230.141 98.3693C231.436 98.3693 232.144 98.9915 232.459 99.9205ZM234.092 105V98.4545H235.064V99.4773H235.149C235.422 98.7784 236.053 98.3693 236.905 98.3693C237.766 98.3693 238.337 98.7784 238.661 99.4773H238.729C239.065 98.7997 239.751 98.3693 240.689 98.3693C241.857 98.3693 242.683 99.081 242.683 100.619V105H241.678V100.619C241.678 99.652 241.064 99.2727 240.348 99.2727C239.428 99.2727 238.899 99.8949 238.899 100.739V105H237.876V100.517C237.876 99.7713 237.344 99.2727 236.581 99.2727C235.797 99.2727 235.098 99.9503 235.098 100.909V105H234.092ZM246.448 105.153C245.204 105.153 244.215 104.42 244.215 103.142C244.215 101.642 245.54 101.374 246.755 101.216C247.948 101.062 248.442 101.105 248.442 100.619V100.585C248.442 99.7457 247.987 99.2557 247.062 99.2557C246.103 99.2557 245.579 99.767 245.357 100.244L244.403 99.9034C244.914 98.7102 246.039 98.3693 247.028 98.3693C247.863 98.3693 249.448 98.608 249.448 100.688V105H248.442V104.114H248.391C248.187 104.54 247.59 105.153 246.448 105.153ZM246.602 104.25C247.795 104.25 248.442 103.449 248.442 102.631V101.71C248.272 101.915 247.13 102.034 246.704 102.085C245.92 102.188 245.221 102.426 245.221 103.193C245.221 103.892 245.8 104.25 246.602 104.25ZM251.284 105V98.4545H252.289V105H251.284ZM251.795 97.3636C251.403 97.3636 251.079 97.0568 251.079 96.6818C251.079 96.3068 251.403 96 251.795 96C252.187 96 252.511 96.3068 252.511 96.6818C252.511 97.0568 252.187 97.3636 251.795 97.3636ZM255.137 96.2727V105H254.131V96.2727H255.137ZM257.712 105.068C257.29 105.068 256.945 104.723 256.945 104.301C256.945 103.879 257.29 103.534 257.712 103.534C258.134 103.534 258.479 103.879 258.479 104.301C258.479 104.723 258.134 105.068 257.712 105.068ZM262.943 105.136C261.102 105.136 259.977 103.722 259.977 101.761C259.977 99.767 261.153 98.3693 262.926 98.3693C264.306 98.3693 265.346 99.1875 265.517 100.415H264.511C264.358 99.8182 263.829 99.2727 262.943 99.2727C261.767 99.2727 260.983 100.244 260.983 101.727C260.983 103.244 261.75 104.233 262.943 104.233C263.727 104.233 264.324 103.807 264.511 103.091H265.517C265.346 104.25 264.392 105.136 262.943 105.136ZM269.646 105.136C267.873 105.136 266.68 103.79 266.68 101.761C266.68 99.7159 267.873 98.3693 269.646 98.3693C271.419 98.3693 272.612 99.7159 272.612 101.761C272.612 103.79 271.419 105.136 269.646 105.136ZM269.646 104.233C270.993 104.233 271.606 103.074 271.606 101.761C271.606 100.449 270.993 99.2727 269.646 99.2727C268.299 99.2727 267.686 100.449 267.686 101.761C267.686 103.074 268.299 104.233 269.646 104.233ZM274.147 105V98.4545H275.119V99.4773H275.204C275.477 98.7784 276.107 98.3693 276.96 98.3693C277.82 98.3693 278.391 98.7784 278.715 99.4773H278.783C279.12 98.7997 279.806 98.3693 280.744 98.3693C281.911 98.3693 282.738 99.081 282.738 100.619V105H281.732V100.619C281.732 99.652 281.119 99.2727 280.403 99.2727C279.482 99.2727 278.954 99.8949 278.954 100.739V105H277.931V100.517C277.931 99.7713 277.398 99.2727 276.636 99.2727C275.852 99.2727 275.153 99.9503 275.153 100.909V105H274.147Z" fill="#8C8C93"/>
<rect x="76" y="129" width="36" height="36" rx="12" fill="black"/>
<path d="M89 157V138H92.5V156.5C90.5 156.5 89.5 156.833 89 157Z" fill="#B30106"/>
<path d="M99 138H95.5V155L99 157V138Z" fill="#B30106"/>
<g filter="url(#filter3_d_9062_28414)">
<path d="M92.5 138H89L95.5 156.5C97.1 156.5 98.3333 156.833 99 157L92.5 138Z" fill="#E6020C"/>
</g>
<path d="M133.307 133.818V144H132.114L126.565 136.006H126.466V144H125.233V133.818H126.426L131.994 141.832H132.094V133.818H133.307ZM138.817 144.159C136.609 144.159 135.257 142.588 135.257 140.241C135.257 137.895 136.629 136.264 138.697 136.264C140.288 136.264 141.979 137.239 141.979 140.082V140.58H136.435C136.49 142.215 137.439 143.105 138.817 143.105C139.736 143.105 140.427 142.707 140.726 141.912L141.859 142.23C141.501 143.384 140.368 144.159 138.817 144.159ZM136.435 139.565H140.785C140.785 138.273 139.97 137.318 138.697 137.318C137.355 137.318 136.515 138.377 136.435 139.565ZM147.084 136.364V137.358H145.454V141.812C145.454 142.807 145.951 142.966 146.468 142.966C146.726 142.966 146.885 142.926 146.985 142.906L147.224 143.96C147.064 144.02 146.786 144.099 146.349 144.099C145.354 144.099 144.28 143.463 144.28 142.131V137.358H143.127V136.364H144.28V134.534H145.454V136.364H147.084ZM152.25 136.364V137.358H150.54V144H149.366V137.358H148.133V136.364H149.366V135.31C149.366 133.997 150.42 133.341 151.514 133.341C152.091 133.341 152.449 133.46 152.628 133.54L152.29 134.554C152.17 134.514 151.971 134.435 151.633 134.435C150.858 134.435 150.54 134.832 150.54 135.588V136.364H152.25ZM155.067 133.818V144H153.894V133.818H155.067ZM157.216 144V136.364H158.39V144H157.216ZM157.813 135.091C157.356 135.091 156.978 134.733 156.978 134.295C156.978 133.858 157.356 133.5 157.813 133.5C158.27 133.5 158.648 133.858 158.648 134.295C158.648 134.733 158.27 135.091 157.813 135.091ZM161.414 136.364L163.243 139.486L165.073 136.364H166.425L163.959 140.182L166.425 144H165.073L163.243 141.037L161.414 144H160.061L162.488 140.182L160.061 136.364H161.414ZM172.196 144V133.818H178.341V134.912H173.429V138.352H178.023V139.446H173.429V142.906H178.42V144H172.196ZM180.404 144V136.364H181.537V137.557H181.637C181.955 136.741 182.691 136.264 183.685 136.264C184.689 136.264 185.356 136.741 185.733 137.557H185.813C186.206 136.766 187.006 136.264 188.1 136.264C189.462 136.264 190.427 137.094 190.427 138.889V144H189.253V138.889C189.253 137.761 188.537 137.318 187.702 137.318C186.628 137.318 186.012 138.044 186.012 139.028V144H184.819V138.77C184.819 137.9 184.197 137.318 183.307 137.318C182.393 137.318 181.577 138.109 181.577 139.227V144H180.404ZM192.572 144V136.364H193.705V137.557H193.805C194.123 136.741 194.859 136.264 195.853 136.264C196.857 136.264 197.524 136.741 197.901 137.557H197.981C198.374 136.766 199.174 136.264 200.268 136.264C201.63 136.264 202.595 137.094 202.595 138.889V144H201.421V138.889C201.421 137.761 200.705 137.318 199.87 137.318C198.796 137.318 198.18 138.044 198.18 139.028V144H196.987V138.77C196.987 137.9 196.365 137.318 195.475 137.318C194.561 137.318 193.745 138.109 193.745 139.227V144H192.572ZM206.987 144.179C205.535 144.179 204.382 143.324 204.382 141.832C204.382 140.082 205.928 139.769 207.345 139.585C208.737 139.406 209.314 139.456 209.314 138.889V138.849C209.314 137.87 208.782 137.298 207.703 137.298C206.584 137.298 205.973 137.895 205.714 138.452L204.601 138.054C205.197 136.662 206.51 136.264 207.663 136.264C208.638 136.264 210.487 136.543 210.487 138.969V144H209.314V142.966H209.254C209.015 143.463 208.319 144.179 206.987 144.179ZM207.166 143.125C208.558 143.125 209.314 142.19 209.314 141.236V140.162C209.115 140.401 207.782 140.54 207.285 140.599C206.371 140.719 205.555 140.997 205.555 141.892C205.555 142.707 206.231 143.125 207.166 143.125Z" fill="#D1D1D4"/>
<path d="M125.926 157.062V161H124.92V154.455H125.892V155.477H125.977C126.284 154.812 126.898 154.369 127.886 154.369C129.212 154.369 130.102 155.17 130.102 156.841V161H129.097V156.909C129.097 155.882 128.53 155.273 127.597 155.273C126.634 155.273 125.926 155.92 125.926 157.062ZM134.684 161.136C132.792 161.136 131.633 159.79 131.633 157.778C131.633 155.767 132.809 154.369 134.582 154.369C135.946 154.369 137.395 155.205 137.395 157.642V158.068H132.643C132.69 159.47 133.504 160.233 134.684 160.233C135.473 160.233 136.065 159.892 136.321 159.21L137.292 159.483C136.985 160.472 136.014 161.136 134.684 161.136ZM132.643 157.199H136.372C136.372 156.091 135.673 155.273 134.582 155.273C133.431 155.273 132.711 156.18 132.643 157.199ZM141.771 154.455V155.307H140.373V159.125C140.373 159.977 140.799 160.114 141.243 160.114C141.464 160.114 141.6 160.08 141.686 160.062L141.89 160.966C141.754 161.017 141.515 161.085 141.14 161.085C140.288 161.085 139.368 160.54 139.368 159.398V155.307H138.379V154.455H139.368V152.886H140.373V154.455H141.771ZM146.199 154.455V155.307H144.733V161H143.727V155.307H142.67V154.455H143.727V153.551C143.727 152.426 144.63 151.864 145.568 151.864C146.062 151.864 146.369 151.966 146.522 152.034L146.233 152.903C146.13 152.869 145.96 152.801 145.67 152.801C145.005 152.801 144.733 153.142 144.733 153.79V154.455H146.199ZM148.614 152.273V161H147.608V152.273H148.614ZM150.456 161V154.455H151.461V161H150.456ZM150.967 153.364C150.575 153.364 150.251 153.057 150.251 152.682C150.251 152.307 150.575 152 150.967 152C151.359 152 151.683 152.307 151.683 152.682C151.683 153.057 151.359 153.364 150.967 153.364ZM154.053 154.455L155.621 157.131L157.19 154.455H158.349L156.235 157.727L158.349 161H157.19L155.621 158.46L154.053 161H152.894L154.974 157.727L152.894 154.455H154.053ZM160.517 161.068C160.095 161.068 159.75 160.723 159.75 160.301C159.75 159.879 160.095 159.534 160.517 159.534C160.939 159.534 161.284 159.879 161.284 160.301C161.284 160.723 160.939 161.068 160.517 161.068ZM162.901 161V160.233L166.617 155.46V155.392H163.02V154.455H167.912V155.256L164.299 159.994V160.062H168.032V161H162.901ZM169.581 161V154.455H170.586V161H169.581ZM170.092 153.364C169.7 153.364 169.376 153.057 169.376 152.682C169.376 152.307 169.7 152 170.092 152C170.484 152 170.808 152.307 170.808 152.682C170.808 153.057 170.484 153.364 170.092 153.364ZM175.087 161.136C173.315 161.136 172.121 159.79 172.121 157.761C172.121 155.716 173.315 154.369 175.087 154.369C176.86 154.369 178.053 155.716 178.053 157.761C178.053 159.79 176.86 161.136 175.087 161.136ZM175.087 160.233C176.434 160.233 177.048 159.074 177.048 157.761C177.048 156.449 176.434 155.273 175.087 155.273C173.741 155.273 173.127 156.449 173.127 157.761C173.127 159.074 173.741 160.233 175.087 160.233ZM179.844 161L183.748 153.278V153.21H179.248V152.273H184.838V153.261L180.952 161H179.844ZM185.519 159.21V158.341L189.354 152.273H190.633V158.273H191.826V159.21H190.633V161H189.627V159.21H185.519ZM189.627 158.273V153.619H189.559L186.661 158.205V158.273H189.627ZM198.468 163.301C194.991 163.301 193.099 161.358 193.099 157.915C193.099 154.591 195.059 152.597 198.349 152.597C201.537 152.597 203.173 154.898 203.173 157.233C203.173 158.886 203.002 160.83 201.196 160.83C200.599 160.83 199.679 160.574 199.576 159.841H199.525C199.321 160.335 198.809 160.812 197.838 160.778C196.355 160.727 195.588 159.483 195.588 157.864C195.588 156.33 196.559 155.273 197.838 155.136C198.69 155.051 199.355 155.375 199.474 155.75H199.525V155.273H200.429V159.125C200.429 159.602 200.701 160.028 201.213 160.028C202.082 160.028 202.287 159.159 202.287 157.216C202.287 155.307 201.008 153.398 198.298 153.398C195.622 153.398 194.037 155.102 194.037 157.949C194.037 160.847 195.588 162.483 198.502 162.483C199.44 162.483 200.429 162.142 200.735 162.04L200.974 162.824C200.446 163.045 199.338 163.301 198.468 163.301ZM197.974 159.909C199.116 159.909 199.576 159.227 199.576 157.812C199.576 156.381 199.031 155.972 198.008 155.972C197.037 155.972 196.474 156.824 196.474 157.812C196.474 158.903 196.866 159.909 197.974 159.909ZM204.678 163.455V154.455H205.65V155.494H205.769C205.991 155.153 206.383 154.369 207.661 154.369C209.315 154.369 210.457 155.682 210.457 157.744C210.457 159.824 209.315 161.136 207.678 161.136C206.417 161.136 205.991 160.352 205.769 159.994H205.684V163.455H204.678ZM205.667 157.727C205.667 159.21 206.332 160.233 207.542 160.233C208.803 160.233 209.451 159.125 209.451 157.727C209.451 156.347 208.82 155.273 207.542 155.273C206.315 155.273 205.667 156.261 205.667 157.727ZM213.917 161.153C212.673 161.153 211.684 160.42 211.684 159.142C211.684 157.642 213.009 157.374 214.224 157.216C215.417 157.062 215.911 157.105 215.911 156.619V156.585C215.911 155.746 215.455 155.256 214.531 155.256C213.572 155.256 213.048 155.767 212.826 156.244L211.871 155.903C212.383 154.71 213.508 154.369 214.496 154.369C215.332 154.369 216.917 154.608 216.917 156.688V161H215.911V160.114H215.86C215.656 160.54 215.059 161.153 213.917 161.153ZM214.07 160.25C215.263 160.25 215.911 159.449 215.911 158.631V157.71C215.741 157.915 214.599 158.034 214.173 158.085C213.388 158.188 212.69 158.426 212.69 159.193C212.69 159.892 213.269 160.25 214.07 160.25ZM223.389 155.92L222.485 156.176C222.311 155.724 221.949 155.239 221.071 155.239C220.27 155.239 219.673 155.648 219.673 156.21C219.673 156.713 220.022 156.973 220.798 157.165L221.77 157.403C222.937 157.689 223.508 158.264 223.508 159.176C223.508 160.305 222.473 161.136 220.951 161.136C219.613 161.136 218.697 160.544 218.463 159.432L219.417 159.193C219.596 159.896 220.112 160.25 220.934 160.25C221.872 160.25 222.468 159.79 222.468 159.227C222.468 158.776 222.157 158.46 221.497 158.307L220.406 158.051C219.204 157.77 218.667 157.165 218.667 156.261C218.667 155.153 219.69 154.369 221.071 154.369C222.366 154.369 223.074 154.991 223.389 155.92ZM229.658 155.92L228.755 156.176C228.58 155.724 228.218 155.239 227.34 155.239C226.539 155.239 225.942 155.648 225.942 156.21C225.942 156.713 226.292 156.973 227.067 157.165L228.039 157.403C229.207 157.689 229.778 158.264 229.778 159.176C229.778 160.305 228.742 161.136 227.221 161.136C225.883 161.136 224.967 160.544 224.732 159.432L225.687 159.193C225.866 159.896 226.381 160.25 227.204 160.25C228.141 160.25 228.738 159.79 228.738 159.227C228.738 158.776 228.427 158.46 227.766 158.307L226.675 158.051C225.474 157.77 224.937 157.165 224.937 156.261C224.937 155.153 225.96 154.369 227.34 154.369C228.636 154.369 229.343 154.991 229.658 155.92ZM231.292 161V154.455H232.263V155.477H232.348C232.621 154.778 233.252 154.369 234.104 154.369C234.965 154.369 235.536 154.778 235.86 155.477H235.928C236.265 154.8 236.951 154.369 237.888 154.369C239.056 154.369 239.882 155.081 239.882 156.619V161H238.877V156.619C238.877 155.652 238.263 155.273 237.547 155.273C236.627 155.273 236.098 155.895 236.098 156.739V161H235.076V156.517C235.076 155.771 234.543 155.273 233.78 155.273C232.996 155.273 232.297 155.95 232.297 156.909V161H231.292ZM243.647 161.153C242.403 161.153 241.414 160.42 241.414 159.142C241.414 157.642 242.74 157.374 243.954 157.216C245.147 157.062 245.642 157.105 245.642 156.619V156.585C245.642 155.746 245.186 155.256 244.261 155.256C243.302 155.256 242.778 155.767 242.556 156.244L241.602 155.903C242.113 154.71 243.238 154.369 244.227 154.369C245.062 154.369 246.647 154.608 246.647 156.688V161H245.642V160.114H245.591C245.386 160.54 244.789 161.153 243.647 161.153ZM243.801 160.25C244.994 160.25 245.642 159.449 245.642 158.631V157.71C245.471 157.915 244.329 158.034 243.903 158.085C243.119 158.188 242.42 158.426 242.42 159.193C242.42 159.892 243 160.25 243.801 160.25ZM248.483 161V154.455H249.489V161H248.483ZM248.994 153.364C248.602 153.364 248.278 153.057 248.278 152.682C248.278 152.307 248.602 152 248.994 152C249.386 152 249.71 152.307 249.71 152.682C249.71 153.057 249.386 153.364 248.994 153.364ZM252.336 152.273V161H251.331V152.273H252.336ZM254.911 161.068C254.489 161.068 254.144 160.723 254.144 160.301C254.144 159.879 254.489 159.534 254.911 159.534C255.333 159.534 255.678 159.879 255.678 160.301C255.678 160.723 255.333 161.068 254.911 161.068ZM260.142 161.136C258.301 161.136 257.176 159.722 257.176 157.761C257.176 155.767 258.352 154.369 260.125 154.369C261.506 154.369 262.545 155.188 262.716 156.415H261.71C261.557 155.818 261.028 155.273 260.142 155.273C258.966 155.273 258.182 156.244 258.182 157.727C258.182 159.244 258.949 160.233 260.142 160.233C260.926 160.233 261.523 159.807 261.71 159.091H262.716C262.545 160.25 261.591 161.136 260.142 161.136ZM266.845 161.136C265.072 161.136 263.879 159.79 263.879 157.761C263.879 155.716 265.072 154.369 266.845 154.369C268.618 154.369 269.811 155.716 269.811 157.761C269.811 159.79 268.618 161.136 266.845 161.136ZM266.845 160.233C268.192 160.233 268.805 159.074 268.805 157.761C268.805 156.449 268.192 155.273 266.845 155.273C265.499 155.273 264.885 156.449 264.885 157.761C264.885 159.074 265.499 160.233 266.845 160.233ZM271.346 161V154.455H272.318V155.477H272.403C272.676 154.778 273.306 154.369 274.159 154.369C275.02 154.369 275.591 154.778 275.914 155.477H275.983C276.319 154.8 277.005 154.369 277.943 154.369C279.11 154.369 279.937 155.081 279.937 156.619V161H278.931V156.619C278.931 155.652 278.318 155.273 277.602 155.273C276.681 155.273 276.153 155.895 276.153 156.739V161H275.13V156.517C275.13 155.771 274.598 155.273 273.835 155.273C273.051 155.273 272.352 155.95 272.352 156.909V161H271.346Z" fill="#8C8C93"/>
</g>
</g>
<defs>
<filter id="filter0_d_9062_28414" x="284.615" y="33.4375" width="14.7578" height="17.375" filterUnits="userSpaceOnUse" color-interpolation-filters="sRGB">
<feFlood flood-opacity="0" result="BackgroundImageFix"/>
<feColorMatrix in="SourceAlpha" type="matrix" values="0 0 0 0 0 0 0 0 0 0 0 0 0 0 0 0 0 0 127 0" result="hardAlpha"/>
<feOffset dy="0.6875"/>
<feGaussianBlur stdDeviation="2.0625"/>
<feComposite in2="hardAlpha" operator="out"/>
<feColorMatrix type="matrix" values="0 0 0 0 0.195278 0 0 0 0 0.0513889 0 0 0 0 0.770833 0 0 0 1 0"/>
<feBlend mode="normal" in2="BackgroundImageFix" result="effect1_dropShadow_9062_28414"/>
<feBlend mode="normal" in="SourceGraphic" in2="effect1_dropShadow_9062_28414" result="shape"/>
</filter>
<filter id="filter1_d_9062_28414" x="54" y="55" width="350" height="132" filterUnits="userSpaceOnUse" color-interpolation-filters="sRGB">
<feFlood flood-opacity="0" result="BackgroundImageFix"/>
<feColorMatrix in="SourceAlpha" type="matrix" values="0 0 0 0 0 0 0 0 0 0 0 0 0 0 0 0 0 0 127 0" result="hardAlpha"/>
<feOffset dy="2"/>
<feGaussianBlur stdDeviation="5"/>
<feComposite in2="hardAlpha" operator="out"/>
<feColorMatrix type="matrix" values="0 0 0 0 0 0 0 0 0 0 0 0 0 0 0 0 0 0 0.3 0"/>
<feBlend mode="normal" in2="BackgroundImageFix" result="effect1_dropShadow_9062_28414"/>
<feBlend mode="normal" in="SourceGraphic" in2="effect1_dropShadow_9062_28414" result="shape"/>
</filter>
<filter id="filter2_d_9062_28414" x="87" y="80" width="14" height="23" filterUnits="userSpaceOnUse" color-interpolation-filters="sRGB">
<feFlood flood-opacity="0" result="BackgroundImageFix"/>
<feColorMatrix in="SourceAlpha" type="matrix" values="0 0 0 0 0 0 0 0 0 0 0 0 0 0 0 0 0 0 127 0" result="hardAlpha"/>
<feOffset/>
<feGaussianBlur stdDeviation="1"/>
<feComposite in2="hardAlpha" operator="out"/>
<feColorMatrix type="matrix" values="0 0 0 0 0 0 0 0 0 0 0 0 0 0 0 0 0 0 0.3 0"/>
<feBlend mode="normal" in2="BackgroundImageFix" result="effect1_dropShadow_9062_28414"/>
<feBlend mode="normal" in="SourceGraphic" in2="effect1_dropShadow_9062_28414" result="shape"/>
</filter>
<filter id="filter3_d_9062_28414" x="87" y="136" width="14" height="23" filterUnits="userSpaceOnUse" color-interpolation-filters="sRGB">
<feFlood flood-opacity="0" result="BackgroundImageFix"/>
<feColorMatrix in="SourceAlpha" type="matrix" values="0 0 0 0 0 0 0 0 0 0 0 0 0 0 0 0 0 0 127 0" result="hardAlpha"/>
<feOffset/>
<feGaussianBlur stdDeviation="1"/>
<feComposite in2="hardAlpha" operator="out"/>
<feColorMatrix type="matrix" values="0 0 0 0 0 0 0 0 0 0 0 0 0 0 0 0 0 0 0.3 0"/>
<feBlend mode="normal" in2="BackgroundImageFix" result="effect1_dropShadow_9062_28414"/>
<feBlend mode="normal" in="SourceGraphic" in2="effect1_dropShadow_9062_28414" result="shape"/>
</filter>
<radialGradient id="paint0_radial_9062_28414" cx="0" cy="0" r="1" gradientUnits="userSpaceOnUse" gradientTransform="translate(287.64 52.4288) rotate(-58.1418) scale(18.3647 28.7187)">
<stop stop-color="#FFD580"/>
<stop offset="0.09375" stop-color="#F6C592"/>
<stop offset="0.205" stop-color="#EBB6A2"/>
<stop offset="0.324466" stop-color="#DFA5AF"/>
<stop offset="0.42875" stop-color="#D397BE"/>
<stop offset="0.53375" stop-color="#C486CB"/>
<stop offset="0.64875" stop-color="#B578D9"/>
<stop offset="0.77125" stop-color="#A166E5"/>
<stop offset="0.89125" stop-color="#8B57F2"/>
<stop offset="1" stop-color="#704CFF"/>
</radialGradient>
<linearGradient id="paint1_linear_9062_28414" x1="189" y1="63" x2="189" y2="175" gradientUnits="userSpaceOnUse">
<stop offset="0.0001" stop-color="white" stop-opacity="0.09"/>
<stop offset="1" stop-color="white" stop-opacity="0"/>
</linearGradient>
<radialGradient id="paint2_radial_9062_28414" cx="0" cy="0" r="1" gradientUnits="userSpaceOnUse" gradientTransform="translate(362 23.5) rotate(150.654) scale(133.651 133.621)">
<stop stop-color="white"/>
<stop offset="1" stop-color="white" stop-opacity="0"/>
</radialGradient>
<clipPath id="clip0_9062_28414">
<rect width="341" height="193" fill="white"/>
</clipPath>
</defs>
</svg>
