<svg width="25" height="24" viewBox="0 0 25 24" fill="none" xmlns="http://www.w3.org/2000/svg">
    <path fill-rule="evenodd" clip-rule="evenodd"
        d="M11.3435 1.91913C12.1713 1.6181 13.0787 1.6181 13.9065 1.91913L21.1313 4.54632C21.4277 4.6541 21.625 4.93579 21.625 5.25117V13.6894C21.625 16.1595 20.2758 18.4323 18.1073 19.6152L12.9841 22.4096C12.7603 22.5317 12.4897 22.5317 12.2659 22.4096L7.14275 19.6152C4.97424 18.4323 3.625 16.1595 3.625 13.6894V5.25117C3.625 4.93579 3.8223 4.6541 4.11869 4.54632L11.3435 1.91913ZM13.3939 3.32882C12.8972 3.1482 12.3528 3.1482 11.8561 3.32882L5.125 5.77649V13.6894C5.125 15.6106 6.17441 17.3783 7.86103 18.2983L12.625 20.8969L17.389 18.2983C19.0756 17.3783 20.125 15.6106 20.125 13.6894V5.77649L13.3939 3.32882Z"
        fill="#9292F9" />
    <path d="M9.625 12L12.125 14.5L16.125 8.5" stroke="#9292F9" stroke-width="1.5"
        stroke-linecap="round" stroke-linejoin="round" />
</svg>