<svg width="32" height="33" viewBox="0 0 32 33" fill="none" xmlns="http://www.w3.org/2000/svg">
    <path fill-rule="evenodd" clip-rule="evenodd"
        d="M4 10.9375C5.10457 10.9375 6 10.0421 6 8.9375C6 7.83293 5.10457 6.9375 4 6.9375C2.89543 6.9375 2 7.83293 2 8.9375C2 10.0421 2.89543 10.9375 4 10.9375ZM12 7.9375C11.4477 7.9375 11 8.38521 11 8.9375C11 9.48978 11.4477 9.9375 12 9.9375L27 9.9375C27.5523 9.9375 28 9.48979 28 8.9375C28 8.38522 27.5523 7.9375 27 7.9375L12 7.9375ZM12 17.9375L27 17.9375C27.5523 17.9375 28 17.4898 28 16.9375C28 16.3852 27.5523 15.9375 27 15.9375H12C11.4477 15.9375 11 16.3852 11 16.9375C11 17.4898 11.4477 17.9375 12 17.9375ZM11 24.9375C11 24.3852 11.4477 23.9375 12 23.9375L27 23.9375C27.5523 23.9375 28 24.3852 28 24.9375C28 25.4898 27.5523 25.9375 27 25.9375L12 25.9375C11.4477 25.9375 11 25.4898 11 24.9375ZM6 16.9375C6 18.0421 5.10457 18.9375 4 18.9375C2.89543 18.9375 2 18.0421 2 16.9375C2 15.8329 2.89543 14.9375 4 14.9375C5.10457 14.9375 6 15.8329 6 16.9375ZM4 26.9375C5.10457 26.9375 6 26.0421 6 24.9375C6 23.8329 5.10457 22.9375 4 22.9375C2.89543 22.9375 2 23.8329 2 24.9375C2 26.0421 2.89543 26.9375 4 26.9375Z"
        fill="#88CAC2" />
</svg>