<svg width="12" height="12" viewBox="0 0 12 12" fill="none" xmlns="http://www.w3.org/2000/svg">
<path d="M3.5 6L6.00018 11.5L8.5 6" stroke="black" stroke-linecap="round" stroke-linejoin="round"/>
<path d="M8.86364 2.85924C8.84973 2.85924 8.83664 2.85924 8.82273 2.85924C8.72824 2.20524 8.39041 1.60612 7.87159 1.17249C7.35277 0.738864 6.688 0.5 6 0.5C5.312 0.5 4.64723 0.738864 4.12841 1.17249C3.60959 1.60612 3.27176 2.20524 3.17727 2.85924C3.16336 2.85924 3.15027 2.85924 3.13636 2.85924C2.70237 2.85924 2.28616 3.02469 1.97928 3.3192C1.6724 3.6137 1.5 4.01313 1.5 4.42962C1.5 4.84611 1.6724 5.24554 1.97928 5.54005C2.28616 5.83455 2.70237 6 3.13636 6H8.86364C9.29763 6 9.71384 5.83455 10.0207 5.54005C10.3276 5.24554 10.5 4.84611 10.5 4.42962C10.5 4.01313 10.3276 3.6137 10.0207 3.3192C9.71384 3.02469 9.29763 2.85924 8.86364 2.85924Z" stroke="black" stroke-linecap="round" stroke-linejoin="round"/>
</svg>
