<svg width="243" height="70" viewBox="0 0 243 70" fill="none" xmlns="http://www.w3.org/2000/svg">
    <g clip-path="url(#clip0_16846_4438)">
        <path
            d="M0.5 23C0.5 14.7157 7.21573 8 15.5 8H39.5C47.7843 8 54.5 14.7157 54.5 23V47C54.5 55.2843 47.7843 62 39.5 62H15.5C7.21573 62 0.5 55.2843 0.5 47V23Z"
            fill="white" />
        <path
            d="M20.9234 22.6688C23.2254 20.3668 24.3764 19.2158 25.7037 18.7845C26.8712 18.4052 28.1288 18.4052 29.2963 18.7845C30.6236 19.2158 31.7746 20.3668 34.0766 22.6688L39.8312 28.4234C42.1332 30.7254 43.2842 31.8764 43.7155 33.2037C44.0948 34.3712 44.0948 35.6288 43.7155 36.7963C43.2842 38.1236 42.1332 39.2746 39.8312 41.5766L34.0766 47.3312C31.7746 49.6332 30.6236 50.7842 29.2963 51.2155C28.1288 51.5948 26.8712 51.5948 25.7037 51.2155C24.3764 50.7842 23.2254 49.6332 20.9234 47.3312L19.8414 46.1182C19.1867 45.3842 18.8594 45.0172 18.626 44.5998C18.419 44.2296 18.2671 43.8312 18.1752 43.4171C18.0715 42.9503 18.0715 42.4585 18.0715 41.4749L18.0715 28.5251C18.0715 27.5415 18.0715 27.0497 18.1751 26.5829C18.2671 26.1688 18.419 25.7704 18.626 25.4002C18.8594 24.9828 19.1867 24.6158 19.8414 23.8818L20.9234 22.6688Z"
            fill="url(#paint0_radial_16846_4438)" />
        <path
            d="M20.9234 22.6688C23.2254 20.3668 24.3764 19.2158 25.7037 18.7845C26.8712 18.4052 28.1288 18.4052 29.2963 18.7845C30.6236 19.2158 31.7746 20.3668 34.0766 22.6688L39.8312 28.4234C42.1332 30.7254 43.2842 31.8764 43.7155 33.2037C44.0948 34.3712 44.0948 35.6288 43.7155 36.7963C43.2842 38.1236 42.1332 39.2746 39.8312 41.5766L34.0766 47.3312C31.7746 49.6332 30.6236 50.7842 29.2963 51.2155C28.1288 51.5948 26.8712 51.5948 25.7037 51.2155C24.3764 50.7842 23.2254 49.6332 20.9234 47.3312L19.8414 46.1182C19.1867 45.3842 18.8594 45.0172 18.626 44.5998C18.419 44.2296 18.2671 43.8312 18.1752 43.4171C18.0715 42.9503 18.0715 42.4585 18.0715 41.4749L18.0715 28.5251C18.0715 27.5415 18.0715 27.0497 18.1751 26.5829C18.2671 26.1688 18.419 25.7704 18.626 25.4002C18.8594 24.9828 19.1867 24.6158 19.8414 23.8818L20.9234 22.6688Z"
            fill="url(#paint1_linear_16846_4438)" />
        <path
            d="M20.5123 23.0795C21.6634 21.9285 22.2389 21.353 22.9025 21.1374C23.4862 20.9477 24.1151 20.9477 24.6988 21.1374C25.3624 21.353 25.9379 21.9285 27.089 23.0795L35.7208 31.7114C36.8718 32.8624 37.4473 33.4379 37.6629 34.1015C37.8526 34.6853 37.8526 35.3141 37.6629 35.8978C37.4473 36.5615 36.8718 37.137 35.7208 38.288L27.089 46.9198C25.9379 48.0708 25.3624 48.6463 24.6988 48.862C24.1151 49.0516 23.4862 49.0516 22.9025 48.862C22.2389 48.6463 21.6634 48.0708 20.5123 46.9198L15.1688 41.5763C12.8668 39.2743 11.7158 38.1232 11.2845 36.796C10.9052 35.6285 10.9052 34.3709 11.2845 33.2034C11.7158 31.8761 12.8668 30.7251 15.1688 28.423L20.5123 23.0795Z"
            fill="url(#paint2_radial_16846_4438)" />
    </g>
    <path
        d="M67.7929 34.2929C67.4024 34.6834 67.4024 35.3166 67.7929 35.7071L74.1569 42.0711C74.5474 42.4616 75.1805 42.4616 75.5711 42.0711C75.9616 41.6805 75.9616 41.0474 75.5711 40.6569L69.9142 35L75.5711 29.3431C75.9616 28.9526 75.9616 28.3195 75.5711 27.9289C75.1805 27.5384 74.5474 27.5384 74.1569 27.9289L67.7929 34.2929ZM175.207 35.7071C175.598 35.3166 175.598 34.6834 175.207 34.2929L168.843 27.9289C168.453 27.5384 167.819 27.5384 167.429 27.9289C167.038 28.3195 167.038 28.9526 167.429 29.3431L173.086 35L167.429 40.6569C167.038 41.0474 167.038 41.6805 167.429 42.0711C167.819 42.4616 168.453 42.4616 168.843 42.0711L175.207 35.7071ZM69.0048 36C69.557 36 70.0048 35.5523 70.0048 35C70.0048 34.4477 69.557 34 69.0048 34V36ZM75.0619 34C74.5096 34 74.0619 34.4477 74.0619 35C74.0619 35.5523 74.5096 36 75.0619 36V34ZM76.0714 36C76.6237 36 77.0714 35.5523 77.0714 35C77.0714 34.4477 76.6237 34 76.0714 34V36ZM82.1286 34C81.5763 34 81.1286 34.4477 81.1286 35C81.1286 35.5523 81.5763 36 82.1286 36V34ZM83.1381 36C83.6904 36 84.1381 35.5523 84.1381 35C84.1381 34.4477 83.6904 34 83.1381 34V36ZM89.1952 34C88.643 34 88.1952 34.4477 88.1952 35C88.1952 35.5523 88.643 36 89.1952 36V34ZM90.2048 36C90.757 36 91.2048 35.5523 91.2048 35C91.2048 34.4477 90.757 34 90.2048 34V36ZM96.2619 34C95.7096 34 95.2619 34.4477 95.2619 35C95.2619 35.5523 95.7096 36 96.2619 36V34ZM97.2714 36C97.8237 36 98.2714 35.5523 98.2714 35C98.2714 34.4477 97.8237 34 97.2714 34V36ZM103.329 34C102.776 34 102.329 34.4477 102.329 35C102.329 35.5523 102.776 36 103.329 36V34ZM104.338 36C104.89 36 105.338 35.5523 105.338 35C105.338 34.4477 104.89 34 104.338 34V36ZM110.395 34C109.843 34 109.395 34.4477 109.395 35C109.395 35.5523 109.843 36 110.395 36V34ZM111.405 36C111.957 36 112.405 35.5523 112.405 35C112.405 34.4477 111.957 34 111.405 34V36ZM117.462 34C116.91 34 116.462 34.4477 116.462 35C116.462 35.5523 116.91 36 117.462 36V34ZM118.471 36C119.024 36 119.471 35.5523 119.471 35C119.471 34.4477 119.024 34 118.471 34V36ZM124.529 34C123.976 34 123.529 34.4477 123.529 35C123.529 35.5523 123.976 36 124.529 36V34ZM125.538 36C126.09 36 126.538 35.5523 126.538 35C126.538 34.4477 126.09 34 125.538 34V36ZM131.595 34C131.043 34 130.595 34.4477 130.595 35C130.595 35.5523 131.043 36 131.595 36V34ZM132.605 36C133.157 36 133.605 35.5523 133.605 35C133.605 34.4477 133.157 34 132.605 34V36ZM138.662 34C138.11 34 137.662 34.4477 137.662 35C137.662 35.5523 138.11 36 138.662 36V34ZM139.671 36C140.224 36 140.671 35.5523 140.671 35C140.671 34.4477 140.224 34 139.671 34V36ZM145.729 34C145.176 34 144.729 34.4477 144.729 35C144.729 35.5523 145.176 36 145.729 36V34ZM146.738 36C147.29 36 147.738 35.5523 147.738 35C147.738 34.4477 147.29 34 146.738 34V36ZM152.795 34C152.243 34 151.795 34.4477 151.795 35C151.795 35.5523 152.243 36 152.795 36V34ZM153.805 36C154.357 36 154.805 35.5523 154.805 35C154.805 34.4477 154.357 34 153.805 34V36ZM159.862 34C159.31 34 158.862 34.4477 158.862 35C158.862 35.5523 159.31 36 159.862 36V34ZM160.871 36C161.424 36 161.871 35.5523 161.871 35C161.871 34.4477 161.424 34 160.871 34V36ZM166.929 34C166.376 34 165.929 34.4477 165.929 35C165.929 35.5523 166.376 36 166.929 36V34ZM167.938 36C168.49 36 168.938 35.5523 168.938 35C168.938 34.4477 168.49 34 167.938 34V36ZM173.995 34C173.443 34 172.995 34.4477 172.995 35C172.995 35.5523 173.443 36 173.995 36V34ZM68.5 36H69.0048V34H68.5V36ZM75.0619 36H76.0714V34H75.0619V36ZM82.1286 36H83.1381V34H82.1286V36ZM89.1952 36H90.2048V34H89.1952V36ZM96.2619 36H97.2714V34H96.2619V36ZM103.329 36H104.338V34H103.329V36ZM110.395 36H111.405V34H110.395V36ZM117.462 36H118.471V34H117.462V36ZM124.529 36H125.538V34H124.529V36ZM131.595 36H132.605V34H131.595V36ZM138.662 36H139.671V34H138.662V36ZM145.729 36H146.738V34H145.729V36ZM152.795 36H153.805V34H152.795V36ZM159.862 36H160.871V34H159.862V36ZM166.929 36H167.938V34H166.929V36ZM173.995 36H174.5V34H173.995V36Z"
        fill="#6ABDB3" fill-opacity="0.6" />
    <g clip-path="url(#clip1_16846_4438)">
        <rect x="101.5" y="14.9998" width="40" height="40" rx="10.8" fill="#26333D" />
        <rect x="101.5" y="14.9998" width="40" height="40" rx="10.8"
            fill="url(#paint3_linear_16846_4438)" fill-opacity="0.2" style="mix-blend-mode:overlay" />
        <path fill-rule="evenodd" clip-rule="evenodd"
            d="M124.436 24.7885C126.421 23.9325 128.699 25.0613 129.22 27.1586L130.951 34.1312H132.875C133.358 34.1312 133.75 34.5229 133.75 35.0062C133.75 35.4894 133.358 35.8812 132.875 35.8812H110.125C109.641 35.8812 109.25 35.4894 109.25 35.0062C109.25 34.5229 109.641 34.1312 110.125 34.1312H112.048L113.779 27.1586C114.3 25.0613 116.578 23.9325 118.563 24.7885L120.46 25.6069C121.123 25.8933 121.876 25.8933 122.539 25.6069L124.436 24.7885ZM127.521 27.5804C127.261 26.5318 126.122 25.9673 125.13 26.3954L123.233 27.2138C122.126 27.691 120.873 27.691 119.766 27.2138L117.869 26.3954C116.877 25.9673 115.738 26.5318 115.478 27.5804L113.868 34.061H129.131L127.521 27.5804Z"
            fill="#6ABDB3" />
        <path fill-rule="evenodd" clip-rule="evenodd"
            d="M119 38.6813C118.213 37.5197 116.883 36.7562 115.375 36.7562C112.958 36.7562 111 38.7149 111 41.1312C111 43.5474 112.958 45.5062 115.375 45.5062C117.791 45.5062 119.75 43.5474 119.75 41.1312C119.75 40.1647 120.533 39.3812 121.5 39.3812C122.466 39.3812 123.25 40.1647 123.25 41.1312C123.25 43.5474 125.208 45.5062 127.625 45.5062C130.041 45.5062 132 43.5474 132 41.1312C132 38.7149 130.041 36.7562 127.625 36.7562C126.116 36.7562 124.786 37.5197 123.999 38.6813C123.364 38.0333 122.479 37.6312 121.5 37.6312C120.52 37.6312 119.635 38.0333 119 38.6813ZM118 41.1312C118 42.5809 116.824 43.7562 115.375 43.7562C113.925 43.7562 112.75 42.5809 112.75 41.1312C112.75 39.6814 113.925 38.5062 115.375 38.5062C116.824 38.5062 118 39.6814 118 41.1312ZM125 41.1312C125 42.5809 126.175 43.7562 127.625 43.7562C129.074 43.7562 130.25 42.5809 130.25 41.1312C130.25 39.6814 129.074 38.5062 127.625 38.5062C126.175 38.5062 125 39.6814 125 41.1312Z"
            fill="#6ABDB3" />
    </g>
    <g clip-path="url(#clip2_16846_4438)">
        <path
            d="M188.5 23C188.5 14.7157 195.216 8 203.5 8H227.5C235.784 8 242.5 14.7157 242.5 23V47C242.5 55.2843 235.784 62 227.5 62H203.5C195.216 62 188.5 55.2843 188.5 47V23Z"
            fill="white" />
        <path
            d="M205.644 24.5186L205.639 24.524H205.65L205.644 24.5186ZM231.096 24.524H205.639L205.317 24.8562L205.263 24.9161C205.018 25.1721 204.762 25.4171 204.506 25.6486C202.57 27.4593 200.22 28.769 197.664 29.4661C197.59 29.4879 197.52 29.5042 197.446 29.526L197.125 29.605L197.051 29.9263C197.024 30.0434 197.002 30.1604 196.978 30.283C196.82 31.1107 196.738 31.9494 196.738 32.7908C196.738 38.0705 199.858 42.8547 204.691 44.9813C204.746 45.0085 204.808 45.0357 204.868 45.0602C205.002 45.1201 205.135 45.1719 205.268 45.2263L205.429 45.2862L205.451 45.2917L205.462 45.2862C205.462 45.2862 205.486 45.2917 205.5 45.2917H231.091C231.641 45.2917 232.09 44.8451 232.09 44.2951V25.5151C232.093 24.9706 231.655 24.5267 231.113 24.524C231.107 24.524 231.102 24.524 231.096 24.524ZM229.367 26.1196L218.713 35.4075C218.493 35.5954 218.169 35.5954 217.951 35.4021L214.477 32.3224C214.46 31.5818 214.381 30.8439 214.237 30.1169C214.226 30.057 214.215 29.9943 214.205 29.929L214.131 29.6077L213.81 29.5233C213.731 29.5069 213.655 29.4852 213.576 29.4688C211.806 28.9841 210.131 28.1972 208.628 27.1407L207.477 26.1224H229.367V26.1196ZM215.027 34.882L214.153 35.6553C214.254 35.2142 214.332 34.7649 214.387 34.3156L215.027 34.882ZM205.473 44.1589C205.146 44.0255 204.822 43.8758 204.506 43.7151C200.411 41.613 197.827 37.4007 197.808 32.7962C197.808 32.0202 197.882 31.2469 198.031 30.4845C200.4 29.8473 202.608 28.7146 204.506 27.1598C204.901 26.8439 205.279 26.5036 205.644 26.1469C207.433 27.8922 209.579 29.2265 211.931 30.0651C212.353 30.2203 212.781 30.3538 213.222 30.4708C213.271 30.7486 213.317 31.0318 213.344 31.315C213.396 31.7697 213.42 32.2299 213.423 32.6873C213.423 32.9378 213.418 33.1883 213.396 33.4388C213.325 34.6587 213.066 35.8595 212.633 37.0031C211.384 40.306 208.775 42.9146 205.473 44.1617V44.1589ZM208.579 43.7478C210.453 42.4898 211.977 40.7744 213.009 38.7676L216.206 35.9439L217.94 37.496C218.161 37.6893 218.487 37.6893 218.708 37.496L220.475 35.9276L229.346 43.7369L208.579 43.7478ZM221.681 34.8765L230.557 26.991L230.574 42.7212L221.681 34.8792V34.8765ZM207.869 41.1964C208.291 40.886 208.686 40.5375 209.048 40.1563L207.869 41.1964ZM211.825 32.0529C211.798 31.8296 211.765 31.609 211.724 31.3857C211.373 31.2904 211.03 31.1788 210.689 31.0536C210.687 31.0536 210.684 31.0536 210.684 31.0481C210.594 31.0209 210.512 30.9828 210.423 30.9474C210.229 30.8684 210.033 30.7867 209.84 30.6914C209.707 30.6315 209.568 30.5689 209.434 30.4981C209.339 30.4545 209.241 30.4028 209.146 30.3483C208.841 30.1877 208.538 30.008 208.244 29.8201C208.062 29.7084 207.882 29.5859 207.711 29.4634C207.697 29.4579 207.684 29.447 207.673 29.4361C207.485 29.3082 207.3 29.1693 207.117 29.0304C206.755 28.7527 206.407 28.4586 206.066 28.1455C205.922 28.0175 205.778 27.8841 205.639 27.7452C205.277 28.0965 204.898 28.4341 204.506 28.7581C203.047 29.9753 201.348 30.8766 199.521 31.3994C199.404 32.012 199.344 32.6356 199.344 33.2618C199.355 36.9051 201.329 40.257 204.509 42.0324C204.83 42.2093 205.162 42.3673 205.503 42.5061C205.701 42.4272 205.903 42.3455 206.096 42.2556C206.102 42.2556 206.104 42.2556 206.107 42.2502C206.268 42.1767 206.428 42.1004 206.586 42.016C206.731 41.9425 206.872 41.8635 207.008 41.7764C207.055 41.7519 207.098 41.7274 207.142 41.6974C207.215 41.6539 207.286 41.6076 207.354 41.564C207.37 41.5558 207.387 41.5449 207.398 41.5313C207.523 41.4551 207.643 41.3707 207.76 41.2808C207.801 41.259 207.839 41.2291 207.871 41.1964L209.05 40.1563C209.05 40.1563 209.061 40.1563 209.061 40.1508C210.237 38.9282 211.087 37.4306 211.533 35.7941C211.77 34.9392 211.89 34.0569 211.89 33.1693C211.887 32.7962 211.866 32.4232 211.825 32.0529ZM206.085 37.7655L205.179 38.6723H205.173L201.421 34.9201L202.573 33.7574L205.179 36.3632L206.085 35.4565L209.249 32.287L210.406 33.4443L206.085 37.7655Z"
            fill="url(#paint4_linear_16846_4438)" />
    </g>
    <defs>
        <radialGradient id="paint0_radial_16846_4438" cx="0" cy="0" r="1"
            gradientUnits="userSpaceOnUse"
            gradientTransform="translate(20.9594 52.1431) rotate(-58.142) scale(27.5469 43.0778)">
            <stop stop-color="#FFD580" />
            <stop offset="0.09375" stop-color="#F6C592" />
            <stop offset="0.205" stop-color="#EBB6A2" />
            <stop offset="0.324466" stop-color="#DFA5AF" />
            <stop offset="0.42875" stop-color="#D397BE" />
            <stop offset="0.53375" stop-color="#C486CB" />
            <stop offset="0.64875" stop-color="#B578D9" />
            <stop offset="0.77125" stop-color="#A166E5" />
            <stop offset="0.89125" stop-color="#8B57F2" />
            <stop offset="1" stop-color="#704CFF" />
        </radialGradient>
        <linearGradient id="paint1_linear_16846_4438" x1="19.8228" y1="11.9475" x2="26.2403"
            y2="51.1211" gradientUnits="userSpaceOnUse">
            <stop stop-color="#6D4AFF" />
            <stop offset="0.392009" stop-color="#B39FFB" stop-opacity="0.978022" />
            <stop offset="1" stop-color="#FFE8DB" stop-opacity="0.8" />
        </linearGradient>
        <radialGradient id="paint2_radial_16846_4438" cx="0" cy="0" r="1"
            gradientUnits="userSpaceOnUse"
            gradientTransform="translate(18.5397 48.7887) rotate(-58.142) scale(22.1573 34.6495)">
            <stop stop-color="#FFD580" />
            <stop offset="0.09375" stop-color="#F6C592" />
            <stop offset="0.205" stop-color="#EBB6A2" />
            <stop offset="0.324466" stop-color="#DFA5AF" />
            <stop offset="0.42875" stop-color="#D397BE" />
            <stop offset="0.53375" stop-color="#C486CB" />
            <stop offset="0.64875" stop-color="#B578D9" />
            <stop offset="0.77125" stop-color="#A166E5" />
            <stop offset="0.89125" stop-color="#8B57F2" />
            <stop offset="1" stop-color="#704CFF" />
        </radialGradient>
        <linearGradient id="paint3_linear_16846_4438" x1="121.5" y1="14.9998" x2="121.5"
            y2="54.9998" gradientUnits="userSpaceOnUse">
            <stop stop-color="white" stop-opacity="0" />
            <stop offset="1" stop-color="white" />
        </linearGradient>
        <linearGradient id="paint4_linear_16846_4438" x1="196.537" y1="34.9462" x2="289.511"
            y2="34.9462" gradientUnits="userSpaceOnUse">
            <stop stop-color="#ED2E7C" />
            <stop offset="1" stop-color="#A8288F" />
        </linearGradient>
        <clipPath id="clip0_16846_4438">
            <rect width="54" height="54" fill="white" transform="translate(0.5 8)" />
        </clipPath>
        <clipPath id="clip1_16846_4438">
            <rect x="101.5" y="14.9998" width="40" height="40" rx="10.8" fill="white" />
        </clipPath>
        <clipPath id="clip2_16846_4438">
            <rect width="54" height="54" fill="white" transform="translate(188.5 8)" />
        </clipPath>
    </defs>
</svg>