<svg width="242" height="70" viewBox="0 0 242 70" fill="none" xmlns="http://www.w3.org/2000/svg">
    <g clip-path="url(#clip0_16846_4438)">
        <path
            d="M0 23C0 14.7157 6.71573 8 15 8H39C47.2843 8 54 14.7157 54 23V47C54 55.2843 47.2843 62 39 62H15C6.71573 62 0 55.2843 0 47V23Z"
            fill="white" />
        <path
            d="M15 8.5H39C47.0081 8.5 53.5 14.9919 53.5 23V47C53.5 55.0081 47.0081 61.5 39 61.5H15C6.99187 61.5 0.5 55.0081 0.5 47V23C0.5 14.9919 6.99187 8.5 15 8.5Z"
            stroke="#69647A" stroke-opacity="0.12" />
        <path
            d="M20.4234 22.6688C22.7255 20.3668 23.8765 19.2158 25.2037 18.7845C26.3712 18.4052 27.6289 18.4052 28.7964 18.7845C30.1236 19.2158 31.2747 20.3668 33.5767 22.6688L39.3312 28.4234C41.6333 30.7254 42.7843 31.8764 43.2156 33.2037C43.5949 34.3712 43.5949 35.6288 43.2156 36.7963C42.7843 38.1236 41.6333 39.2746 39.3312 41.5766L33.5767 47.3312C31.2747 49.6332 30.1236 50.7842 28.7964 51.2155C27.6289 51.5948 26.3712 51.5948 25.2037 51.2155C23.8765 50.7842 22.7255 49.6332 20.4234 47.3312L19.3415 46.1182C18.6868 45.3842 18.3594 45.0172 18.126 44.5998C17.919 44.2296 17.7672 43.8312 17.6752 43.4171C17.5715 42.9503 17.5715 42.4585 17.5715 41.4749L17.5715 28.5251C17.5715 27.5415 17.5715 27.0497 17.6752 26.5829C17.7671 26.1688 17.919 25.7704 18.126 25.4002C18.3594 24.9828 18.6868 24.6158 19.3415 23.8818L20.4234 22.6688Z"
            fill="url(#paint0_radial_16846_4438)" />
        <path
            d="M20.4234 22.6688C22.7255 20.3668 23.8765 19.2158 25.2037 18.7845C26.3712 18.4052 27.6289 18.4052 28.7964 18.7845C30.1236 19.2158 31.2747 20.3668 33.5767 22.6688L39.3312 28.4234C41.6333 30.7254 42.7843 31.8764 43.2156 33.2037C43.5949 34.3712 43.5949 35.6288 43.2156 36.7963C42.7843 38.1236 41.6333 39.2746 39.3312 41.5766L33.5767 47.3312C31.2747 49.6332 30.1236 50.7842 28.7964 51.2155C27.6289 51.5948 26.3712 51.5948 25.2037 51.2155C23.8765 50.7842 22.7255 49.6332 20.4234 47.3312L19.3415 46.1182C18.6868 45.3842 18.3594 45.0172 18.126 44.5998C17.919 44.2296 17.7672 43.8312 17.6752 43.4171C17.5715 42.9503 17.5715 42.4585 17.5715 41.4749L17.5715 28.5251C17.5715 27.5415 17.5715 27.0497 17.6752 26.5829C17.7671 26.1688 17.919 25.7704 18.126 25.4002C18.3594 24.9828 18.6868 24.6158 19.3415 23.8818L20.4234 22.6688Z"
            fill="url(#paint1_linear_16846_4438)" />
        <path
            d="M20.0123 23.0795C21.1634 21.9285 21.7389 21.353 22.4025 21.1374C22.9862 20.9477 23.6151 20.9477 24.1988 21.1374C24.8624 21.353 25.4379 21.9285 26.589 23.0795L35.2208 31.7114C36.3718 32.8624 36.9473 33.4379 37.1629 34.1015C37.3526 34.6853 37.3526 35.3141 37.1629 35.8978C36.9473 36.5615 36.3718 37.137 35.2208 38.288L26.589 46.9198C25.4379 48.0708 24.8624 48.6463 24.1988 48.862C23.6151 49.0516 22.9862 49.0516 22.4025 48.862C21.7389 48.6463 21.1634 48.0708 20.0123 46.9198L14.6688 41.5763C12.3668 39.2743 11.2158 38.1232 10.7845 36.796C10.4052 35.6285 10.4052 34.3709 10.7845 33.2034C11.2158 31.8761 12.3668 30.7251 14.6688 28.423L20.0123 23.0795Z"
            fill="url(#paint2_radial_16846_4438)" />
    </g>
    <path
        d="M67.2929 34.2929C66.9024 34.6834 66.9024 35.3166 67.2929 35.7071L73.6569 42.0711C74.0474 42.4616 74.6805 42.4616 75.0711 42.0711C75.4616 41.6805 75.4616 41.0474 75.0711 40.6569L69.4142 35L75.0711 29.3431C75.4616 28.9526 75.4616 28.3195 75.0711 27.9289C74.6805 27.5384 74.0474 27.5384 73.6569 27.9289L67.2929 34.2929ZM174.707 35.7071C175.098 35.3166 175.098 34.6834 174.707 34.2929L168.343 27.9289C167.953 27.5384 167.319 27.5384 166.929 27.9289C166.538 28.3195 166.538 28.9526 166.929 29.3431L172.586 35L166.929 40.6569C166.538 41.0474 166.538 41.6805 166.929 42.0711C167.319 42.4616 167.953 42.4616 168.343 42.0711L174.707 35.7071ZM68.5048 36C69.057 36 69.5048 35.5523 69.5048 35C69.5048 34.4477 69.057 34 68.5048 34V36ZM74.5619 34C74.0096 34 73.5619 34.4477 73.5619 35C73.5619 35.5523 74.0096 36 74.5619 36V34ZM75.5714 36C76.1237 36 76.5714 35.5523 76.5714 35C76.5714 34.4477 76.1237 34 75.5714 34V36ZM81.6286 34C81.0763 34 80.6286 34.4477 80.6286 35C80.6286 35.5523 81.0763 36 81.6286 36V34ZM82.6381 36C83.1904 36 83.6381 35.5523 83.6381 35C83.6381 34.4477 83.1904 34 82.6381 34V36ZM88.6952 34C88.143 34 87.6952 34.4477 87.6952 35C87.6952 35.5523 88.143 36 88.6952 36V34ZM89.7048 36C90.257 36 90.7048 35.5523 90.7048 35C90.7048 34.4477 90.257 34 89.7048 34V36ZM95.7619 34C95.2096 34 94.7619 34.4477 94.7619 35C94.7619 35.5523 95.2096 36 95.7619 36V34ZM96.7714 36C97.3237 36 97.7714 35.5523 97.7714 35C97.7714 34.4477 97.3237 34 96.7714 34V36ZM102.829 34C102.276 34 101.829 34.4477 101.829 35C101.829 35.5523 102.276 36 102.829 36V34ZM103.838 36C104.39 36 104.838 35.5523 104.838 35C104.838 34.4477 104.39 34 103.838 34V36ZM109.895 34C109.343 34 108.895 34.4477 108.895 35C108.895 35.5523 109.343 36 109.895 36V34ZM110.905 36C111.457 36 111.905 35.5523 111.905 35C111.905 34.4477 111.457 34 110.905 34V36ZM116.962 34C116.41 34 115.962 34.4477 115.962 35C115.962 35.5523 116.41 36 116.962 36V34ZM117.971 36C118.524 36 118.971 35.5523 118.971 35C118.971 34.4477 118.524 34 117.971 34V36ZM124.029 34C123.476 34 123.029 34.4477 123.029 35C123.029 35.5523 123.476 36 124.029 36V34ZM125.038 36C125.59 36 126.038 35.5523 126.038 35C126.038 34.4477 125.59 34 125.038 34V36ZM131.095 34C130.543 34 130.095 34.4477 130.095 35C130.095 35.5523 130.543 36 131.095 36V34ZM132.105 36C132.657 36 133.105 35.5523 133.105 35C133.105 34.4477 132.657 34 132.105 34V36ZM138.162 34C137.61 34 137.162 34.4477 137.162 35C137.162 35.5523 137.61 36 138.162 36V34ZM139.171 36C139.724 36 140.171 35.5523 140.171 35C140.171 34.4477 139.724 34 139.171 34V36ZM145.229 34C144.676 34 144.229 34.4477 144.229 35C144.229 35.5523 144.676 36 145.229 36V34ZM146.238 36C146.79 36 147.238 35.5523 147.238 35C147.238 34.4477 146.79 34 146.238 34V36ZM152.295 34C151.743 34 151.295 34.4477 151.295 35C151.295 35.5523 151.743 36 152.295 36V34ZM153.305 36C153.857 36 154.305 35.5523 154.305 35C154.305 34.4477 153.857 34 153.305 34V36ZM159.362 34C158.81 34 158.362 34.4477 158.362 35C158.362 35.5523 158.81 36 159.362 36V34ZM160.371 36C160.924 36 161.371 35.5523 161.371 35C161.371 34.4477 160.924 34 160.371 34V36ZM166.429 34C165.876 34 165.429 34.4477 165.429 35C165.429 35.5523 165.876 36 166.429 36V34ZM167.438 36C167.99 36 168.438 35.5523 168.438 35C168.438 34.4477 167.99 34 167.438 34V36ZM173.495 34C172.943 34 172.495 34.4477 172.495 35C172.495 35.5523 172.943 36 173.495 36V34ZM68 36H68.5048V34H68V36ZM74.5619 36H75.5714V34H74.5619V36ZM81.6286 36H82.6381V34H81.6286V36ZM88.6952 36H89.7048V34H88.6952V36ZM95.7619 36H96.7714V34H95.7619V36ZM102.829 36H103.838V34H102.829V36ZM109.895 36H110.905V34H109.895V36ZM116.962 36H117.971V34H116.962V36ZM124.029 36H125.038V34H124.029V36ZM131.095 36H132.105V34H131.095V36ZM138.162 36H139.171V34H138.162V36ZM145.229 36H146.238V34H145.229V36ZM152.295 36H153.305V34H152.295V36ZM159.362 36H160.371V34H159.362V36ZM166.429 36H167.438V34H166.429V36ZM173.495 36H174V34H173.495V36Z"
        fill="#6ABDB3" fill-opacity="0.6" />
    <g clip-path="url(#clip1_16846_4438)">
        <rect x="101" y="14.9998" width="40" height="40" rx="10.8" fill="#DBF0ED" />
        <rect x="101" y="14.9998" width="40" height="40" rx="10.8"
            fill="url(#paint3_linear_16846_4438)" fill-opacity="0.2" style="mix-blend-mode:overlay" />
        <path fill-rule="evenodd" clip-rule="evenodd"
            d="M123.936 24.7885C125.921 23.9325 128.199 25.0613 128.72 27.1586L130.451 34.1312H132.375C132.858 34.1312 133.25 34.5229 133.25 35.0062C133.25 35.4894 132.858 35.8812 132.375 35.8812H109.625C109.141 35.8812 108.75 35.4894 108.75 35.0062C108.75 34.5229 109.141 34.1312 109.625 34.1312H111.548L113.279 27.1586C113.8 25.0613 116.078 23.9325 118.063 24.7885L119.96 25.6069C120.623 25.8933 121.376 25.8933 122.039 25.6069L123.936 24.7885ZM127.021 27.5804C126.761 26.5318 125.622 25.9673 124.63 26.3954L122.733 27.2138C121.626 27.691 120.373 27.691 119.266 27.2138L117.369 26.3954C116.377 25.9673 115.238 26.5318 114.978 27.5804L113.368 34.061H128.631L127.021 27.5804Z"
            fill="#10B981" />
        <path fill-rule="evenodd" clip-rule="evenodd"
            d="M118.5 38.6813C117.713 37.5197 116.383 36.7562 114.875 36.7562C112.458 36.7562 110.5 38.7149 110.5 41.1312C110.5 43.5474 112.458 45.5062 114.875 45.5062C117.291 45.5062 119.25 43.5474 119.25 41.1312C119.25 40.1647 120.033 39.3812 121 39.3812C121.966 39.3812 122.75 40.1647 122.75 41.1312C122.75 43.5474 124.708 45.5062 127.125 45.5062C129.541 45.5062 131.5 43.5474 131.5 41.1312C131.5 38.7149 129.541 36.7562 127.125 36.7562C125.616 36.7562 124.286 37.5197 123.499 38.6813C122.864 38.0333 121.979 37.6312 121 37.6312C120.02 37.6312 119.135 38.0333 118.5 38.6813ZM117.5 41.1312C117.5 42.5809 116.324 43.7562 114.875 43.7562C113.425 43.7562 112.25 42.5809 112.25 41.1312C112.25 39.6814 113.425 38.5062 114.875 38.5062C116.324 38.5062 117.5 39.6814 117.5 41.1312ZM124.5 41.1312C124.5 42.5809 125.675 43.7562 127.125 43.7562C128.574 43.7562 129.75 42.5809 129.75 41.1312C129.75 39.6814 128.574 38.5062 127.125 38.5062C125.675 38.5062 124.5 39.6814 124.5 41.1312Z"
            fill="#10B981" />
    </g>
    <g clip-path="url(#clip2_16846_4438)">
        <path
            d="M188 23C188 14.7157 194.716 8 203 8H227C235.284 8 242 14.7157 242 23V47C242 55.2843 235.284 62 227 62H203C194.716 62 188 55.2843 188 47V23Z"
            fill="white" />
        <path
            d="M203 8.5H227C235.008 8.5 241.5 14.9919 241.5 23V47C241.5 55.0081 235.008 61.5 227 61.5H203C194.992 61.5 188.5 55.0081 188.5 47V23C188.5 14.9919 194.992 8.5 203 8.5Z"
            stroke="#69647A" stroke-opacity="0.12" />
        <path
            d="M205.144 24.5186L205.139 24.524H205.15L205.144 24.5186ZM230.596 24.524H205.139L204.817 24.8562L204.763 24.9161C204.518 25.1721 204.262 25.4171 204.006 25.6486C202.07 27.4593 199.72 28.769 197.164 29.4661C197.09 29.4879 197.019 29.5042 196.946 29.526L196.625 29.605L196.551 29.9263C196.524 30.0434 196.502 30.1604 196.478 30.283C196.32 31.1107 196.238 31.9494 196.238 32.7908C196.238 38.0705 199.358 42.8547 204.191 44.9813C204.246 45.0085 204.308 45.0357 204.368 45.0602C204.502 45.1201 204.635 45.1719 204.768 45.2263L204.929 45.2862L204.951 45.2917L204.962 45.2862C204.962 45.2862 204.986 45.2917 205 45.2917H230.591C231.141 45.2917 231.59 44.8451 231.59 44.2951V25.5151C231.593 24.9706 231.155 24.5267 230.613 24.524C230.607 24.524 230.602 24.524 230.596 24.524ZM228.867 26.1196L218.213 35.4075C217.993 35.5954 217.669 35.5954 217.451 35.4021L213.977 32.3224C213.96 31.5818 213.881 30.8439 213.737 30.1169C213.726 30.057 213.715 29.9943 213.704 29.929L213.631 29.6077L213.31 29.5233C213.231 29.5069 213.154 29.4852 213.075 29.4688C211.306 28.9841 209.631 28.1972 208.128 27.1407L206.977 26.1224H228.867V26.1196ZM214.527 34.882L213.653 35.6553C213.753 35.2142 213.832 34.7649 213.887 34.3156L214.527 34.882ZM204.973 44.1589C204.646 44.0255 204.322 43.8758 204.006 43.7151C199.911 41.613 197.327 37.4007 197.308 32.7962C197.308 32.0202 197.382 31.2469 197.531 30.4845C199.9 29.8473 202.108 28.7146 204.006 27.1598C204.401 26.8439 204.779 26.5036 205.144 26.1469C206.933 27.8922 209.079 29.2265 211.431 30.0651C211.853 30.2203 212.28 30.3538 212.722 30.4708C212.771 30.7486 212.817 31.0318 212.844 31.315C212.896 31.7697 212.92 32.2299 212.923 32.6873C212.923 32.9378 212.918 33.1883 212.896 33.4388C212.825 34.6587 212.566 35.8595 212.133 37.0031C210.884 40.306 208.275 42.9146 204.973 44.1617V44.1589ZM208.079 43.7478C209.953 42.4898 211.477 40.7744 212.509 38.7676L215.706 35.9439L217.44 37.496C217.661 37.6893 217.987 37.6893 218.208 37.496L219.975 35.9276L228.846 43.7369L208.079 43.7478ZM221.181 34.8765L230.057 26.991L230.074 42.7212L221.181 34.8792V34.8765ZM207.369 41.1964C207.791 40.886 208.185 40.5375 208.548 40.1563L207.369 41.1964ZM211.325 32.0529C211.298 31.8296 211.265 31.609 211.224 31.3857C210.873 31.2904 210.53 31.1788 210.189 31.0536C210.187 31.0536 210.184 31.0536 210.184 31.0481C210.094 31.0209 210.012 30.9828 209.923 30.9474C209.729 30.8684 209.533 30.7867 209.34 30.6914C209.206 30.6315 209.068 30.5689 208.934 30.4981C208.839 30.4545 208.741 30.4028 208.646 30.3483C208.341 30.1877 208.038 30.008 207.744 29.8201C207.562 29.7084 207.382 29.5859 207.211 29.4634C207.197 29.4579 207.183 29.447 207.173 29.4361C206.985 29.3082 206.8 29.1693 206.617 29.0304C206.255 28.7527 205.907 28.4586 205.566 28.1455C205.422 28.0175 205.278 27.8841 205.139 27.7452C204.777 28.0965 204.398 28.4341 204.006 28.7581C202.547 29.9753 200.848 30.8766 199.021 31.3994C198.904 32.012 198.844 32.6356 198.844 33.2618C198.855 36.9051 200.829 40.257 204.009 42.0324C204.33 42.2093 204.662 42.3673 205.003 42.5061C205.201 42.4272 205.403 42.3455 205.596 42.2556C205.602 42.2556 205.604 42.2556 205.607 42.2502C205.768 42.1767 205.928 42.1004 206.086 42.016C206.231 41.9425 206.372 41.8635 206.508 41.7764C206.555 41.7519 206.598 41.7274 206.642 41.6974C206.715 41.6539 206.786 41.6076 206.854 41.564C206.87 41.5558 206.887 41.5449 206.898 41.5313C207.023 41.4551 207.143 41.3707 207.26 41.2808C207.301 41.259 207.339 41.2291 207.371 41.1964L208.55 40.1563C208.55 40.1563 208.561 40.1563 208.561 40.1508C209.737 38.9282 210.587 37.4306 211.033 35.7941C211.27 34.9392 211.39 34.0569 211.39 33.1693C211.387 32.7962 211.366 32.4232 211.325 32.0529ZM205.585 37.7655L204.679 38.6723H204.673L200.921 34.9201L202.073 33.7574L204.679 36.3632L205.585 35.4565L208.749 32.287L209.906 33.4443L205.585 37.7655Z"
            fill="url(#paint4_linear_16846_4438)" />
    </g>
    <defs>
        <radialGradient id="paint0_radial_16846_4438" cx="0" cy="0" r="1"
            gradientUnits="userSpaceOnUse"
            gradientTransform="translate(20.4594 52.1431) rotate(-58.142) scale(27.5469 43.0778)">
            <stop stop-color="#FFD580" />
            <stop offset="0.09375" stop-color="#F6C592" />
            <stop offset="0.205" stop-color="#EBB6A2" />
            <stop offset="0.324466" stop-color="#DFA5AF" />
            <stop offset="0.42875" stop-color="#D397BE" />
            <stop offset="0.53375" stop-color="#C486CB" />
            <stop offset="0.64875" stop-color="#B578D9" />
            <stop offset="0.77125" stop-color="#A166E5" />
            <stop offset="0.89125" stop-color="#8B57F2" />
            <stop offset="1" stop-color="#704CFF" />
        </radialGradient>
        <linearGradient id="paint1_linear_16846_4438" x1="19.3229" y1="11.9475" x2="25.7404"
            y2="51.1211" gradientUnits="userSpaceOnUse">
            <stop stop-color="#6D4AFF" />
            <stop offset="0.392009" stop-color="#B39FFB" stop-opacity="0.978022" />
            <stop offset="1" stop-color="#FFE8DB" stop-opacity="0.8" />
        </linearGradient>
        <radialGradient id="paint2_radial_16846_4438" cx="0" cy="0" r="1"
            gradientUnits="userSpaceOnUse"
            gradientTransform="translate(18.0397 48.7887) rotate(-58.142) scale(22.1573 34.6495)">
            <stop stop-color="#FFD580" />
            <stop offset="0.09375" stop-color="#F6C592" />
            <stop offset="0.205" stop-color="#EBB6A2" />
            <stop offset="0.324466" stop-color="#DFA5AF" />
            <stop offset="0.42875" stop-color="#D397BE" />
            <stop offset="0.53375" stop-color="#C486CB" />
            <stop offset="0.64875" stop-color="#B578D9" />
            <stop offset="0.77125" stop-color="#A166E5" />
            <stop offset="0.89125" stop-color="#8B57F2" />
            <stop offset="1" stop-color="#704CFF" />
        </radialGradient>
        <linearGradient id="paint3_linear_16846_4438" x1="121" y1="14.9998" x2="121" y2="54.9998"
            gradientUnits="userSpaceOnUse">
            <stop stop-color="white" stop-opacity="0" />
            <stop offset="1" stop-color="white" />
        </linearGradient>
        <linearGradient id="paint4_linear_16846_4438" x1="196.037" y1="34.9462" x2="289.011"
            y2="34.9462" gradientUnits="userSpaceOnUse">
            <stop stop-color="#ED2E7C" />
            <stop offset="1" stop-color="#A8288F" />
        </linearGradient>
        <clipPath id="clip0_16846_4438">
            <rect width="54" height="54" fill="white" transform="translate(0 8)" />
        </clipPath>
        <clipPath id="clip1_16846_4438">
            <rect x="101" y="14.9998" width="40" height="40" rx="10.8" fill="white" />
        </clipPath>
        <clipPath id="clip2_16846_4438">
            <rect width="54" height="54" fill="white" transform="translate(188 8)" />
        </clipPath>
    </defs>
</svg>