<svg width="24" height="24" viewBox="0 0 24 24" fill="none" xmlns="http://www.w3.org/2000/svg">
    <path
        d="M11.4468 2.42642L7.69957 3.82576M11.4468 2.42642L8.87353 1.25247M11.4468 2.42642L10.2729 4.99971"
        stroke="#6243E6" stroke-width="1.5" stroke-linecap="round" stroke-linejoin="round" />
    <path
        d="M12.9709 21.2485L16.468 19.3068M12.9709 21.2485L15.6903 22.0262M12.9709 21.2485L13.7485 18.5291"
        stroke="#6243E6" stroke-width="1.5" stroke-linecap="round" stroke-linejoin="round" />
    <path fill-rule="evenodd" clip-rule="evenodd"
        d="M21 8.58396C20.5329 8.78805 20.0285 8.92283 19.5 8.97531V13.6892C19.5 15.6104 18.4506 17.3782 16.764 18.2982L14.7366 19.404C15.1201 19.7478 15.4288 20.1695 15.616 20.633L17.4823 19.615C19.6508 18.4322 21 16.1594 21 13.6892V8.58396ZM7.23603 18.2982L10.533 20.0965C10.2413 20.5921 10.119 21.1196 10.1662 21.6051L6.51775 19.615C4.34924 18.4322 3 16.1594 3 13.6892V5.25103C3 4.93565 3.1973 4.65396 3.49369 4.54618L9.04617 2.5271C9.13707 3.03981 9.35819 3.50753 9.67413 3.89485L4.5 5.77635V13.6892C4.5 15.6104 5.54941 17.3782 7.23603 18.2982ZM10.8075 7.72433L11.3859 12.2446C11.4255 12.5539 11.6888 12.7857 12.0007 12.7857C12.3126 12.7857 12.5759 12.5539 12.6155 12.2445L13.1937 7.72429C13.2428 7.34 12.9434 6.99986 12.556 6.99986H11.4452C11.0578 6.99986 10.7584 7.34002 10.8075 7.72433ZM12.9806 15.0355C12.9806 15.568 12.541 15.9998 11.9986 15.9998C11.4563 15.9998 11.0166 15.568 11.0166 15.0355C11.0166 14.5029 11.4563 14.0711 11.9986 14.0711C12.541 14.0711 12.9806 14.5029 12.9806 15.0355Z"
        fill="#6243E6" />
    <path
        d="M22 4C22 5.65685 20.6569 7 19 7C17.3431 7 16 5.65685 16 4C16 2.34315 17.3431 1 19 1C20.6569 1 22 2.34315 22 4Z"
        fill="#FC9C9F" />
</svg>