<svg width="24" height="24" viewBox="0 0 24 24" fill="none" xmlns="http://www.w3.org/2000/svg">
    <path fill-rule="evenodd" clip-rule="evenodd"
        d="M11.6409 3.09158C11.8647 2.96947 12.1353 2.96947 12.3591 3.09158L20.6091 7.59157C20.8501 7.723 21 7.97554 21 8.24999V9.74999C21 10.1642 20.6642 10.5 20.25 10.5H3.75C3.33579 10.5 3 10.1642 3 9.74999V8.24999C3 7.97554 3.14992 7.723 3.39086 7.59157L11.6409 3.09158ZM4.5 8.69522V8.99999H19.5V8.69522L12 4.60431L4.5 8.69522Z"
        fill="black" />
    <path fill-rule="evenodd" clip-rule="evenodd"
        d="M17.25 12C17.6642 12 18 12.3358 18 12.75V19.5H20.25C20.6642 19.5 21 19.8358 21 20.25C21 20.6642 20.6642 21 20.25 21H3.75C3.33579 21 3 20.6642 3 20.25C3 19.8358 3.33579 19.5 3.75 19.5L6 19.5V12.75C6 12.3358 6.33578 12 6.75 12C7.16421 12 7.49999 12.3358 7.49999 12.75V19.5H11.25V12.75C11.25 12.3358 11.5858 12 12 12C12.4142 12 12.75 12.3358 12.75 12.75V19.5L16.5 19.5V12.75C16.5 12.3358 16.8358 12 17.25 12Z"
        fill="black" />
</svg>