<svg width="24" height="24" viewBox="0 0 24 24" fill="none" xmlns="http://www.w3.org/2000/svg">
    <mask id="path-1-inside-1_12547_5487" fill="white">
        <path fill-rule="evenodd" clip-rule="evenodd" d="M10 2.1547C11.2376 1.44017 12.7624 1.44017 14 2.1547L19.5263 5.3453C20.7639 6.05983 21.5263 7.38034 21.5263 8.8094V15.1906C21.5263 16.6197 20.7639 17.9402 19.5263 18.6547L15.5155 20.9703L12.6705 14.9248C14.0046 14.6202 15 13.4264 15 12C15 10.3432 13.6569 9.00001 12 9.00001C10.3432 9.00001 9.00001 10.3432 9.00001 12C9.00001 13.4264 9.99545 14.6202 11.3295 14.9248L8.48455 20.9704L4.47372 18.6547C3.23612 17.9402 2.47372 16.6197 2.47372 15.1906V8.8094C2.47372 7.38034 3.23612 6.05983 4.47372 5.3453L10 2.1547Z"/>
    </mask>
        <path d="M14 2.1547L13.35 3.28054L14 2.1547ZM10 2.1547L9.35 1.02887L9.35 1.02887L10 2.1547ZM19.5263 5.3453L20.1763 4.21947V4.21947L19.5263 5.3453ZM19.5263 18.6547L18.8763 17.5289V17.5289L19.5263 18.6547ZM15.5155 20.9703L14.3392 21.5239L14.9412 22.803L16.1655 22.0962L15.5155 20.9703ZM12.6705 14.9248L12.3812 13.6574L10.8065 14.0169L11.4942 15.4783L12.6705 14.9248ZM11.3295 14.9248L12.5058 15.4783L13.1935 14.0169L11.6189 13.6574L11.3295 14.9248ZM8.48455 20.9704L7.83455 22.0962L9.05886 22.803L9.66081 21.5239L8.48455 20.9704ZM4.47372 18.6547L5.12372 17.5289L5.12372 17.5289L4.47372 18.6547ZM4.47372 5.3453L3.82372 4.21947L4.47372 5.3453ZM14.65 1.02887C13.0102 0.0821167 10.9898 0.0821164 9.35 1.02887L10.65 3.28054C11.4854 2.79823 12.5146 2.79823 13.35 3.28054L14.65 1.02887ZM20.1763 4.21947L14.65 1.02887L13.35 3.28054L18.8763 6.47114L20.1763 4.21947ZM22.8263 8.8094C22.8263 6.9159 21.8161 5.16622 20.1763 4.21947L18.8763 6.47114C19.7117 6.95344 20.2263 7.84479 20.2263 8.8094H22.8263ZM22.8263 15.1906V8.8094H20.2263V15.1906H22.8263ZM20.1763 19.7805C21.8161 18.8338 22.8263 17.0841 22.8263 15.1906H20.2263C20.2263 16.1552 19.7117 17.0466 18.8763 17.5289L20.1763 19.7805ZM16.1655 22.0962L20.1763 19.7805L18.8763 17.5289L14.8655 19.8445L16.1655 22.0962ZM16.6917 20.4168L13.8468 14.3713L11.4942 15.4783L14.3392 21.5239L16.6917 20.4168ZM12.9598 16.1922C14.8722 15.7556 16.3 14.0461 16.3 12H13.7C13.7 12.8066 13.137 13.4849 12.3812 13.6574L12.9598 16.1922ZM16.3 12C16.3 9.62518 14.3748 7.70001 12 7.70001V10.3C12.9389 10.3 13.7 11.0611 13.7 12H16.3ZM12 7.70001C9.62518 7.70001 7.70001 9.62518 7.70001 12H10.3C10.3 11.0611 11.0611 10.3 12 10.3V7.70001ZM7.70001 12C7.70001 14.0461 9.12783 15.7556 11.0402 16.1922L11.6189 13.6574C10.8631 13.4849 10.3 12.8066 10.3 12H7.70001ZM10.1533 14.3713L7.30828 20.4168L9.66081 21.5239L12.5058 15.4783L10.1533 14.3713ZM3.82372 19.7805L7.83455 22.0962L9.13455 19.8445L5.12372 17.5289L3.82372 19.7805ZM1.17372 15.1906C1.17372 17.0841 2.1839 18.8338 3.82372 19.7805L5.12372 17.5289C4.28834 17.0466 3.77372 16.1552 3.77372 15.1906H1.17372ZM1.17372 8.8094V15.1906H3.77372V8.8094H1.17372ZM3.82372 4.21947C2.1839 5.16622 1.17372 6.9159 1.17372 8.8094H3.77372C3.77372 7.84479 4.28834 6.95344 5.12372 6.47114L3.82372 4.21947ZM9.35 1.02887L3.82372 4.21947L5.12372 6.47114L10.65 3.28054L9.35 1.02887Z" fill="#D1D1D4" mask="url(#path-1-inside-1_12547_5487)"/>
</svg>
