<svg width="373" height="212" viewBox="0 0 373 212" fill="none" xmlns="http://www.w3.org/2000/svg">
<g filter="url(#filter0_d_18243_6404)">
<path fill-rule="evenodd" clip-rule="evenodd" d="M163.509 46.5684C163.046 48.8506 161.028 50.5684 158.609 50.5684C156.19 50.5684 154.173 48.8506 153.709 46.5684H148.609V53.6682C150.892 54.1315 152.609 56.1493 152.609 58.5682C152.609 60.9872 150.892 63.0049 148.609 63.4682V69.6682C150.892 70.1315 152.609 72.1493 152.609 74.5682C152.609 76.9872 150.892 79.0049 148.609 79.4682V85.6682C150.892 86.1315 152.609 88.1493 152.609 90.5682C152.609 92.9872 150.892 95.0049 148.609 95.4682V101.668C150.892 102.132 152.609 104.149 152.609 106.568C152.609 108.987 150.892 111.005 148.609 111.468V117.668C150.892 118.132 152.609 120.149 152.609 122.568C152.609 124.987 150.892 127.005 148.609 127.468V133.668C150.892 134.132 152.609 136.149 152.609 138.568C152.609 140.987 150.892 143.005 148.609 143.468V149.668C150.892 150.132 152.609 152.149 152.609 154.568C152.609 156.987 150.892 159.005 148.609 159.468V166.568H153.709C154.173 164.286 156.19 162.568 158.609 162.568C161.028 162.568 163.046 164.286 163.509 166.568H169.709C170.173 164.286 172.19 162.568 174.609 162.568C177.028 162.568 179.046 164.286 179.509 166.568H185.709C186.173 164.286 188.19 162.568 190.609 162.568C193.028 162.568 195.046 164.286 195.509 166.568H201.709C202.173 164.286 204.19 162.568 206.609 162.568C209.028 162.568 211.046 164.286 211.509 166.568H217.709C218.173 164.286 220.19 162.568 222.609 162.568C225.028 162.568 227.046 164.286 227.509 166.568H233.709C234.173 164.286 236.19 162.568 238.609 162.568C241.028 162.568 243.046 164.286 243.509 166.568H248.609V159.468C246.327 159.005 244.609 156.987 244.609 154.568C244.609 152.149 246.327 150.132 248.609 149.668V143.468C246.327 143.005 244.609 140.987 244.609 138.568C244.609 136.149 246.327 134.132 248.609 133.668V127.468C246.327 127.005 244.609 124.987 244.609 122.568C244.609 120.149 246.327 118.132 248.609 117.668V111.468C246.327 111.005 244.609 108.987 244.609 106.568C244.609 104.149 246.327 102.132 248.609 101.668V95.4683C246.327 95.0051 244.609 92.9873 244.609 90.5683C244.609 88.1494 246.327 86.1316 248.609 85.6684V79.4683C246.327 79.0051 244.609 76.9873 244.609 74.5683C244.609 72.1494 246.327 70.1316 248.609 69.6684V63.4683C246.327 63.0051 244.609 60.9873 244.609 58.5683C244.609 56.1494 246.327 54.1316 248.609 53.6684V46.5684H243.509C243.046 48.8506 241.028 50.5684 238.609 50.5684C236.19 50.5684 234.173 48.8506 233.709 46.5684H227.509C227.046 48.8506 225.028 50.5684 222.609 50.5684C220.19 50.5684 218.173 48.8506 217.709 46.5684H211.509C211.046 48.8506 209.028 50.5684 206.609 50.5684C204.19 50.5684 202.173 48.8506 201.709 46.5684H195.509C195.046 48.8506 193.028 50.5684 190.609 50.5684C188.19 50.5684 186.173 48.8506 185.709 46.5684H179.509C179.046 48.8506 177.028 50.5684 174.609 50.5684C172.19 50.5684 170.173 48.8506 169.709 46.5684H163.509Z" fill="white"/>
</g>
<g clip-path="url(#clip0_18243_6404)">
<rect width="80" height="100" transform="translate(158.609 56.5684)" fill="#E86500"/>
<rect width="80" height="100" transform="translate(158.609 56.5684)" fill="url(#paint0_linear_18243_6404)" fill-opacity="0.2" style="mix-blend-mode:overlay"/>
<path fill-rule="evenodd" clip-rule="evenodd" d="M252.342 31.8614C262.972 27.2755 275.177 33.3229 277.967 44.5584L287.244 81.9112H297.547C300.136 81.9112 302.234 84.0099 302.234 86.5987C302.234 89.1875 300.136 91.2862 297.547 91.2862H175.672C173.083 91.2862 170.984 89.1875 170.984 86.5987C170.984 84.0099 173.083 81.9112 175.672 81.9112H185.975L195.252 44.5584C198.042 33.3229 210.247 27.2755 220.876 31.8614L231.039 36.2457C234.594 37.7796 238.625 37.7796 242.18 36.2457L252.342 31.8614ZM268.869 46.8179C267.473 41.2002 261.371 38.1765 256.056 40.4695L245.894 44.8538C239.968 47.4103 233.251 47.4103 227.325 44.8538L217.163 40.4695C211.848 38.1765 205.745 41.2002 204.35 46.818L195.728 81.5355H277.49L268.869 46.8179Z" fill="#FFCA8A"/>
<path fill-rule="evenodd" clip-rule="evenodd" d="M223.218 106.287C219.005 100.064 211.878 95.9737 203.797 95.9737C190.853 95.9737 180.359 106.467 180.359 119.411C180.359 132.355 190.853 142.849 203.797 142.849C216.741 142.849 227.234 132.355 227.234 119.411C227.234 114.234 231.432 110.036 236.609 110.036C241.787 110.036 245.984 114.234 245.984 119.411C245.984 132.355 256.478 142.849 269.422 142.849C282.366 142.849 292.859 132.355 292.859 119.411C292.859 106.467 282.366 95.9737 269.422 95.9737C261.34 95.9737 254.214 100.064 250.001 106.287C246.598 102.815 241.855 100.661 236.609 100.661C231.364 100.661 226.621 102.815 223.218 106.287ZM217.859 119.411C217.859 127.178 211.563 133.474 203.797 133.474C196.03 133.474 189.734 127.178 189.734 119.411C189.734 111.645 196.03 105.349 203.797 105.349C211.563 105.349 217.859 111.645 217.859 119.411ZM255.359 119.411C255.359 127.178 261.655 133.474 269.422 133.474C277.188 133.474 283.484 127.178 283.484 119.411C283.484 111.645 277.188 105.349 269.422 105.349C261.655 105.349 255.359 111.645 255.359 119.411Z" fill="#FFCA8A"/>
<path d="M172.835 150.356C170.021 150.356 167.429 149.541 165.392 148.06V144.32C167.725 145.802 169.909 146.468 172.39 146.468C175.871 146.468 178.352 144.654 178.352 141.654C178.352 138.84 176.241 137.137 172.427 137.137C170.206 137.137 168.132 137.729 166.577 138.396L168.391 123.399H182.907V127.435H171.613L170.872 133.841H170.983C171.909 133.582 172.872 133.471 174.02 133.471C178.685 133.471 182.944 136.248 182.944 141.395C182.944 146.69 178.648 150.356 172.835 150.356Z" fill="white"/>
<path d="M191.634 150.45C187.489 150.45 184.641 146.635 184.641 140.99C184.641 135.344 187.489 131.53 191.634 131.53C195.804 131.53 198.627 135.344 198.627 140.99C198.627 146.635 195.804 150.45 191.634 150.45ZM188.303 140.99C188.303 145.16 189.472 147.449 191.634 147.449C193.795 147.449 194.991 145.16 194.991 140.99C194.991 136.819 193.795 134.531 191.634 134.531C189.472 134.531 188.303 136.819 188.303 140.99Z" fill="white"/>
</g>
<path d="M150.827 169.972L151.313 170.523L152.084 169.843C152.543 169.438 152.774 169.158 152.844 168.781L152.875 168.754L153.922 169.941L153.891 169.968C153.53 170.015 153.223 170.209 152.776 170.603L150.249 172.832C149.808 173.221 149.57 173.507 149.485 173.854L149.454 173.881L148.116 172.363C147.231 171.36 147.088 170.223 147.951 169.462C148.808 168.707 149.942 168.969 150.827 169.972ZM150.811 170.966L150.406 170.507C149.856 169.882 149.24 169.751 148.658 170.264C148.071 170.782 148.148 171.388 148.699 172.013L149.103 172.472L150.811 170.966Z" fill="#F9F7FF"/>
<path d="M150.839 166.422C150.475 166.418 150.158 166.56 149.627 166.912L146.846 168.756C146.356 169.081 146.073 169.318 145.943 169.669L145.909 169.691L144.714 167.889C143.983 166.787 144.045 165.758 144.847 165.225C145.452 164.824 146.206 164.941 146.865 165.552L147.969 162.049L147.983 162.04L148.695 163.114L147.585 166.416L147.873 166.851L149.064 166.062C149.594 165.71 149.853 165.48 149.987 165.136L150.021 165.114L150.873 166.399L150.839 166.422ZM147.323 167.216L146.926 166.618C146.488 165.958 145.941 165.783 145.445 166.112C144.928 166.455 144.929 167.002 145.357 167.648L145.758 168.254L147.323 167.216Z" fill="#F9F7FF"/>
<path d="M146.764 159.035C147.494 160.639 146.849 162.314 145.207 163.061C143.566 163.808 141.875 163.206 141.142 161.595C140.408 159.983 141.064 158.313 142.705 157.565C144.347 156.818 146.03 157.424 146.764 159.035ZM144.741 162.036C146.033 161.448 146.594 160.395 146.11 159.333C145.627 158.271 144.461 157.995 143.169 158.583C141.869 159.175 141.297 160.242 141.78 161.304C142.264 162.366 143.441 162.628 144.741 162.036Z" fill="#F9F7FF"/>
<path d="M145.048 154.856C144.69 154.703 144.345 154.742 143.741 154.914L139.926 155.999L140.089 156.572C140.295 157.294 140.553 157.636 140.889 157.744L140.9 157.783L139.817 158.092L138.451 153.288L139.534 152.98L139.547 153.027C139.321 153.304 139.274 153.707 139.482 154.437L139.645 155.01L143.459 153.925C144.064 153.753 144.378 153.604 144.601 153.286L144.64 153.275L145.087 154.845L145.048 154.856Z" fill="#F9F7FF"/>
<path d="M143.852 148.341C144.079 150.088 142.97 151.5 141.182 151.732C139.393 151.964 137.954 150.892 137.726 149.136C137.498 147.38 138.616 145.976 140.404 145.744C142.192 145.511 143.624 146.585 143.852 148.341ZM141.037 150.615C142.445 150.432 143.29 149.59 143.139 148.433C142.989 147.276 141.956 146.669 140.548 146.852C139.132 147.036 138.272 147.888 138.422 149.046C138.572 150.203 139.62 150.799 141.037 150.615Z" fill="#F9F7FF"/>
<path d="M143.389 145.149C143.11 144.927 142.72 144.866 142.108 144.847L137.835 144.71L137.502 144.912L137.477 144.911L137.525 143.402L142.131 140.814L142.132 140.773L138.927 140.671C138.323 140.652 137.938 140.689 137.646 140.892L137.605 140.89L137.647 139.586L137.688 139.587C137.967 139.808 138.348 139.869 138.952 139.888L143.592 140.036L143.558 141.129L138.652 143.912L138.651 143.953L142.133 144.064C142.745 144.083 143.138 144.055 143.43 143.852L143.471 143.853L143.43 145.15L143.389 145.149Z" fill="#F9F7FF"/>
<path d="M144 138.58C143.948 138.935 143.608 139.175 143.253 139.123C142.898 139.072 142.656 138.748 142.708 138.393C142.759 138.037 143.083 137.796 143.438 137.847C143.793 137.899 144.051 138.225 144 138.58ZM140.37 138.705C140.015 138.653 139.773 138.33 139.825 137.974C139.876 137.619 140.2 137.377 140.555 137.429C140.911 137.48 141.168 137.806 141.117 138.162C141.065 138.517 140.725 138.756 140.37 138.705Z" fill="#F9F7FF"/>
<path d="M142.951 132.108L142.738 132.811L143.722 133.109C144.308 133.287 144.668 133.336 145.026 133.197L145.065 133.209L144.605 134.724L144.566 134.712C144.336 134.429 144.009 134.271 143.439 134.098L140.214 133.12C139.652 132.95 139.284 132.898 138.944 133.008L138.905 132.996L139.492 131.059C139.88 129.778 140.772 129.06 141.873 129.393C142.966 129.725 143.34 130.827 142.951 132.108ZM142.098 132.617L142.275 132.031C142.517 131.234 142.304 130.641 141.563 130.416C140.813 130.189 140.338 130.574 140.097 131.37L139.919 131.956L142.098 132.617Z" fill="#F9F7FF"/>
<path d="M145.989 130.226C145.8 129.914 145.513 129.719 144.935 129.452L141.906 128.051C141.373 127.804 141.022 127.687 140.656 127.761L140.619 127.744L141.526 125.781C142.081 124.581 142.99 124.093 143.864 124.497C144.523 124.802 144.818 125.505 144.645 126.386L148.206 125.489L148.221 125.496L147.68 126.666L144.287 127.452L144.067 127.927L145.364 128.526C145.941 128.793 146.273 128.892 146.636 128.826L146.673 128.844L146.026 130.243L145.989 130.226ZM143.467 127.649L143.769 126.997C144.101 126.279 143.963 125.721 143.423 125.471C142.86 125.211 142.394 125.499 142.069 126.202L141.764 126.862L143.467 127.649Z" fill="#F9F7FF"/>
<path d="M148.474 125.213C148.322 124.882 148.059 124.655 147.529 124.332L144.672 122.592C144.142 122.27 143.819 122.14 143.455 122.157L143.421 122.136L144.227 120.812L144.262 120.833C144.414 121.164 144.677 121.391 145.206 121.714L148.064 123.454C148.594 123.776 148.916 123.906 149.28 123.889L149.315 123.91L148.509 125.234L148.474 125.213Z" fill="#F9F7FF"/>
<path d="M151.662 120.638L151.103 121.361L146.399 119.866C145.853 119.692 145.424 119.566 145.001 119.579L144.969 119.554L145.958 118.276L145.99 118.301C146.133 118.65 146.53 118.843 147.1 119.027L150.451 120.124L150.476 120.091L148.604 117.043C148.273 116.498 148.031 116.197 147.683 116.114L147.651 116.089L148.46 115.044L148.492 115.068C148.573 115.523 148.783 115.892 149.108 116.433L151.662 120.638Z" fill="#F9F7FF"/>
<path d="M153.063 118.799C153.078 118.366 152.891 117.97 152.666 117.428L150.761 112.811L151.392 112.207L155.925 114.249C156.519 114.515 156.891 114.702 157.311 114.728L157.34 114.758L156.167 115.881L156.139 115.852C156.06 115.51 155.684 115.259 155.164 115.011L154.804 114.848L153.078 116.502L153.232 116.863C153.468 117.417 153.714 117.768 154.059 117.845L154.087 117.874L153.092 118.828L153.063 118.799ZM152.792 115.827L154.135 114.539L151.855 113.481L151.82 113.515L152.792 115.827Z" fill="#F9F7FF"/>
<path d="M160.042 113.063C158.642 114.052 156.811 113.978 155.685 112.385C154.546 110.772 155.151 108.956 156.503 108C157.043 107.618 157.612 107.406 158.179 107.345L158.819 108.252L158.779 108.28C158.144 108.059 157.49 108.152 156.97 108.519C155.951 109.24 155.732 110.514 156.537 111.653C157.399 112.873 158.69 112.989 159.743 112.245C160.263 111.878 160.587 111.389 160.815 110.778L161.246 111.163C161.103 111.963 160.715 112.588 160.042 113.063Z" fill="#F9F7FF"/>
<path d="M163.209 109.533L162.735 108.574L160.537 107.131C160.002 106.786 159.624 106.554 159.168 106.406L159.15 106.37L160.671 105.617L160.686 105.646C160.768 106.015 161.095 106.29 161.547 106.595L162.955 107.546L162.999 107.525L163.13 105.839C163.173 105.208 163.149 104.81 162.942 104.539L162.924 104.503L164.175 103.884L164.193 103.92C164.001 104.416 163.93 104.897 163.883 105.521L163.66 108.126L164.131 109.077C164.413 109.647 164.62 109.918 164.933 110.109L164.951 110.146L163.561 110.833L163.543 110.797C163.596 110.425 163.491 110.103 163.209 109.533Z" fill="#F9F7FF"/>
<path d="M169.424 108.287C169.554 107.942 169.514 107.59 169.358 106.981L168.531 103.765C168.376 103.164 168.242 102.836 167.961 102.597L167.951 102.557L170.211 101.976C171.547 101.633 172.379 102.051 172.59 102.873C172.755 103.513 172.41 104.141 171.657 104.52L171.667 104.559C172.731 104.437 173.403 104.855 173.579 105.542C173.803 106.411 173.251 107.345 171.868 107.701L169.434 108.327L169.424 108.287ZM170.518 107.365L171.387 107.142C172.241 106.923 172.703 106.458 172.522 105.755C172.341 105.052 171.727 104.889 170.841 105.117L169.996 105.334L170.518 107.365ZM169.831 104.694L170.653 104.483C171.372 104.298 171.766 103.894 171.599 103.246C171.445 102.645 170.907 102.488 170.188 102.673L169.366 102.884L169.831 104.694Z" fill="#F9F7FF"/>
<path d="M176.528 105.527L176.424 104.463L174.88 102.335C174.502 101.822 174.23 101.472 173.856 101.172L173.852 101.131L175.541 100.966L175.545 100.999C175.491 101.373 175.7 101.746 176.014 102.191L176.994 103.579L177.043 103.574L177.762 102.045C178.026 101.47 178.144 101.089 178.047 100.762L178.043 100.722L179.432 100.586L179.435 100.627C179.081 101.022 178.843 101.447 178.579 102.014L177.448 104.371L177.552 105.427C177.613 106.06 177.711 106.387 177.936 106.676L177.94 106.717L176.397 106.868L176.393 106.827C176.574 106.498 176.59 106.16 176.528 105.527Z" fill="#F9F7FF"/>
<path d="M183.586 101.987C183.656 101.379 183.639 101.032 183.47 100.709L183.475 100.669L185.696 100.924C187.666 101.15 188.796 102.471 188.591 104.255C188.387 106.03 186.986 107.068 185.016 106.842L182.795 106.587L182.799 106.546C183.061 106.272 183.135 105.911 183.208 105.279L183.586 101.987ZM184.151 106.077L184.873 106.16C186.267 106.32 187.295 105.74 187.48 104.127C187.665 102.514 186.795 101.724 185.401 101.564L184.679 101.481L184.151 106.077Z" fill="#F9F7FF"/>
<path d="M193.341 107.38L193.023 108.554L188.81 107.413L188.82 107.373C189.096 107.135 189.243 106.812 189.409 106.197L190.279 102.984C190.439 102.393 190.476 102.039 190.356 101.702L190.366 101.663L194.462 102.772L194.176 103.827L194.137 103.817C193.985 103.471 193.692 103.274 192.967 103.077L191.432 102.662L190.928 104.52L192.11 104.84C192.771 105.019 193.067 104.989 193.327 104.84L193.382 104.855L193.039 106.123L192.984 106.108C192.844 105.842 192.584 105.679 191.931 105.502L190.749 105.182L190.233 107.088L191.895 107.538C192.541 107.713 192.947 107.713 193.302 107.369L193.341 107.38Z" fill="#F9F7FF"/>
<path d="M193.765 108.825C194.053 108.662 194.196 108.465 194.424 107.915L195.839 104.499C196.063 103.957 196.104 103.709 196.012 103.397L196.028 103.359L199.7 104.88L199.281 105.89L199.236 105.871C199.167 105.525 198.864 105.276 198.171 104.988L196.957 104.486L196.189 106.34L197.199 106.759C197.825 107.018 198.168 107.063 198.414 106.917L198.452 106.933L197.949 108.147L197.911 108.131C197.837 107.862 197.563 107.651 196.937 107.392L195.927 106.974L195.374 108.308C195.146 108.858 195.101 109.096 195.235 109.434L195.219 109.471L193.749 108.863L193.765 108.825Z" fill="#F9F7FF"/>
<path d="M197.334 110.269C197.754 110.165 198.084 109.876 198.543 109.511L202.462 106.415L203.216 106.856L202.494 111.775C202.401 112.419 202.323 112.828 202.413 113.239L202.392 113.275L200.99 112.455L201.011 112.42C201.318 112.25 201.456 111.82 201.552 111.252L201.611 110.861L199.547 109.654L199.242 109.901C198.774 110.279 198.504 110.613 198.525 110.965L198.504 111L197.314 110.304L197.334 110.269ZM200.118 109.194L201.724 110.133L202.118 107.65L202.076 107.625L200.118 109.194Z" fill="#F9F7FF"/>
<path d="M204.692 115.345C203.495 114.36 203.396 113.054 204.433 111.793L205.821 110.104C206.215 109.625 206.389 109.324 206.423 108.961L206.449 108.929L207.647 109.914L207.621 109.945C207.271 110.049 207.003 110.272 206.609 110.751L205.21 112.453C204.552 113.254 204.515 114.121 205.303 114.769C206.053 115.386 206.897 115.245 207.586 114.407L208.98 112.711C209.38 112.226 209.557 111.907 209.587 111.562L209.613 111.531L210.622 112.36L210.596 112.392C210.263 112.488 209.973 112.725 209.579 113.204L208.201 114.88C207.175 116.128 205.884 116.324 204.692 115.345Z" fill="#F9F7FF"/>
<path d="M207.4 117.563C207.714 117.52 208.053 117.323 208.5 116.917L210.975 114.667C211.404 114.277 211.654 114.006 211.748 113.612L211.778 113.584L212.821 114.732L212.791 114.759C212.384 114.809 212.096 115.038 211.667 115.427L208.744 118.084L209.694 119.128C210.155 119.636 210.514 119.861 211.041 119.701L211.074 119.737L210.114 120.61L207.37 117.591L207.4 117.563Z" fill="#F9F7FF"/>
<path d="M211.257 122.165C211.645 122.192 211.959 122.043 212.473 121.682L215.722 119.408L215.38 118.92C214.95 118.305 214.594 118.066 214.241 118.074L214.217 118.041L215.14 117.395L218.004 121.486L217.081 122.132L217.053 122.092C217.177 121.756 217.089 121.36 216.653 120.738L216.312 120.25L213.063 122.524C212.548 122.885 212.3 123.128 212.193 123.502L212.16 123.525L211.224 122.188L211.257 122.165Z" fill="#F9F7FF"/>
<path d="M216.609 126.694C220.524 134.805 221.571 144.004 219.578 152.788C217.586 161.571 212.671 169.418 205.639 175.046C198.607 180.673 189.873 183.747 180.866 183.766C171.86 183.785 163.113 180.746 156.058 175.148" stroke="url(#paint1_linear_18243_6404)" stroke-width="1.02"/>
<path d="M151.307 181.14C146.428 177.269 142.359 172.474 139.333 167.03C136.307 161.586 134.382 155.599 133.67 149.411C132.957 143.224 133.471 136.956 135.18 130.967C136.89 124.978 139.763 119.384 143.634 114.504C147.506 109.625 152.301 105.556 157.745 102.53C163.189 99.5041 169.175 97.5799 175.363 96.8674C181.551 96.1549 187.818 96.6682 193.808 98.3779C199.797 100.088 205.391 102.96 210.27 106.832C215.149 110.703 219.218 115.498 222.244 120.942C225.271 126.386 227.195 132.373 227.907 138.561C228.62 144.748 228.106 151.016 226.397 157.005C224.687 162.995 221.814 168.589 217.943 173.468C214.071 178.347 209.277 182.416 203.833 185.442C198.389 188.468 192.402 190.392 186.214 191.105C180.026 191.817 173.759 191.304 167.769 189.594C161.78 187.885 156.186 185.012 151.307 181.14L151.307 181.14Z" stroke="url(#paint2_linear_18243_6404)" stroke-width="1.02"/>
<path opacity="0.4" d="M151.04 171.253L133.185 166.607C115.138 161.911 95.9362 166.388 81.8271 178.581V178.581C68.2166 190.343 49.8329 194.949 32.2844 190.995L9.43858 185.848" stroke="url(#paint3_linear_18243_6404)"/>
<path opacity="0.4" d="M148.458 156.477L130.602 151.831C112.556 147.136 93.354 151.612 79.2448 163.805V163.805C65.6343 175.567 47.2506 180.173 29.7021 176.219L6.85632 171.072" stroke="url(#paint4_linear_18243_6404)"/>
<path opacity="0.4" d="M145.876 141.701L128.02 137.055C109.973 132.359 90.7717 136.836 76.6626 149.029V149.029C63.0521 160.791 44.6684 165.397 27.1199 161.443L4.27406 156.296" stroke="url(#paint5_linear_18243_6404)"/>
<path opacity="0.4" d="M143.293 126.925L125.438 122.279C107.391 117.583 88.1894 122.06 74.0803 134.253V134.253C60.4698 146.015 42.0861 150.621 24.5376 146.667L1.6918 141.52" stroke="url(#paint6_linear_18243_6404)"/>
<path opacity="0.4" d="M140.711 112.149L122.856 107.503C104.809 102.807 85.6072 107.284 71.498 119.477V119.477C57.8876 131.238 39.5039 135.845 21.9554 131.891L-0.890456 126.743" stroke="url(#paint7_linear_18243_6404)"/>
<defs>
<filter id="filter0_d_18243_6404" x="144.609" y="42.5684" width="108" height="128" filterUnits="userSpaceOnUse" color-interpolation-filters="sRGB">
<feFlood flood-opacity="0" result="BackgroundImageFix"/>
<feColorMatrix in="SourceAlpha" type="matrix" values="0 0 0 0 0 0 0 0 0 0 0 0 0 0 0 0 0 0 127 0" result="hardAlpha"/>
<feOffset/>
<feGaussianBlur stdDeviation="2"/>
<feComposite in2="hardAlpha" operator="out"/>
<feColorMatrix type="matrix" values="0 0 0 0 0 0 0 0 0 0 0 0 0 0 0 0 0 0 0.25 0"/>
<feBlend mode="normal" in2="BackgroundImageFix" result="effect1_dropShadow_18243_6404"/>
<feBlend mode="normal" in="SourceGraphic" in2="effect1_dropShadow_18243_6404" result="shape"/>
</filter>
<linearGradient id="paint0_linear_18243_6404" x1="40" y1="0" x2="40" y2="100" gradientUnits="userSpaceOnUse">
<stop stop-color="white" stop-opacity="0"/>
<stop offset="1" stop-color="white"/>
</linearGradient>
<linearGradient id="paint1_linear_18243_6404" x1="152.295" y1="115.497" x2="209.274" y2="172.475" gradientUnits="userSpaceOnUse">
<stop stop-color="#F9F7FF"/>
<stop offset="1" stop-color="#F9F7FF" stop-opacity="0.2"/>
</linearGradient>
<linearGradient id="paint2_linear_18243_6404" x1="146.89" y1="110.087" x2="214.687" y2="177.885" gradientUnits="userSpaceOnUse">
<stop stop-color="#F9F7FF"/>
<stop offset="1" stop-color="#F9F7FF" stop-opacity="0.2"/>
</linearGradient>
<linearGradient id="paint3_linear_18243_6404" x1="147.829" y1="181.604" x2="34.829" y2="178.104" gradientUnits="userSpaceOnUse">
<stop stop-color="#F9F7FF"/>
<stop offset="1" stop-color="#F9F7FF" stop-opacity="0"/>
</linearGradient>
<linearGradient id="paint4_linear_18243_6404" x1="145.247" y1="166.828" x2="32.2468" y2="163.328" gradientUnits="userSpaceOnUse">
<stop stop-color="#F9F7FF"/>
<stop offset="1" stop-color="#F9F7FF" stop-opacity="0"/>
</linearGradient>
<linearGradient id="paint5_linear_18243_6404" x1="142.665" y1="152.052" x2="29.6645" y2="148.552" gradientUnits="userSpaceOnUse">
<stop stop-color="#F9F7FF"/>
<stop offset="1" stop-color="#F9F7FF" stop-opacity="0"/>
</linearGradient>
<linearGradient id="paint6_linear_18243_6404" x1="140.082" y1="137.276" x2="27.0823" y2="133.776" gradientUnits="userSpaceOnUse">
<stop stop-color="#F9F7FF"/>
<stop offset="1" stop-color="#F9F7FF" stop-opacity="0"/>
</linearGradient>
<linearGradient id="paint7_linear_18243_6404" x1="137.5" y1="122.5" x2="24.5" y2="119" gradientUnits="userSpaceOnUse">
<stop stop-color="#F9F7FF"/>
<stop offset="1" stop-color="#F9F7FF" stop-opacity="0"/>
</linearGradient>
<clipPath id="clip0_18243_6404">
<rect width="80" height="100" fill="white" transform="translate(158.609 56.5684)"/>
</clipPath>
</defs>
</svg>
