<svg width="12" height="12" viewBox="0 0 12 12" fill="none" xmlns="http://www.w3.org/2000/svg">
<g clip-path="url(#clip0_6189_64575)">
<path d="M11.5 6C11.5 5.35687 10.4447 4.8098 9.388 4.5964C9.98493 3.6988 10.3413 2.5658 9.88887 2.11113C9.4364 1.65647 8.3012 2.01507 7.4036 2.612C7.1902 1.55527 6.64313 0.5 6 0.5C5.35687 0.5 4.8098 1.55527 4.5964 2.612C3.6988 2.01507 2.5658 1.65573 2.11333 2.11333C1.66087 2.57093 2.01727 3.701 2.6142 4.5986C1.55527 4.8098 0.5 5.35687 0.5 6C0.5 6.64313 1.55527 7.1902 2.612 7.4036C2.01507 8.3012 1.65867 9.4342 2.11113 9.88887C2.5636 10.3435 3.6988 9.98493 4.5964 9.388C4.8098 10.4447 5.35687 11.5 6 11.5C6.64313 11.5 7.1902 10.4447 7.4036 9.388C8.3012 9.98493 9.4342 10.3413 9.88887 9.88887C10.3435 9.4364 9.98493 8.3012 9.388 7.4036C10.4447 7.1902 11.5 6.64313 11.5 6Z" stroke="black" stroke-linecap="round" stroke-linejoin="round"/>
<path d="M6 7.5C6.82843 7.5 7.5 6.82843 7.5 6C7.5 5.17157 6.82843 4.5 6 4.5C5.17157 4.5 4.5 5.17157 4.5 6C4.5 6.82843 5.17157 7.5 6 7.5Z" stroke="black" stroke-linecap="round" stroke-linejoin="round"/>
</g>
<defs>
<clipPath id="clip0_6189_64575">
<rect width="12" height="12" fill="white"/>
</clipPath>
</defs>
</svg>
