<svg width="12" height="12" viewBox="0 0 12 12" fill="none" xmlns="http://www.w3.org/2000/svg">
<g clip-path="url(#clip0_6196_64572)">
<path d="M11.4367 6.83776C11.0938 6.66441 10.7932 6.41767 10.5563 6.11507C10.3195 5.81247 10.1522 5.46142 10.0662 5.08687C9.98034 4.71232 9.97796 4.32345 10.0593 3.94788C10.1406 3.5723 10.2669 3.30548 10.5 3" stroke="black" stroke-linecap="round" stroke-linejoin="round"/>
<path d="M0.563286 6.83776C0.906239 6.66441 1.20682 6.41767 1.44367 6.11507C1.68053 5.81247 1.84785 5.46142 1.93376 5.08687C2.01966 4.71232 2.02204 4.32345 1.94073 3.94788C1.85942 3.5723 1.73313 3.30548 1.5 3" stroke="black" stroke-linecap="round" stroke-linejoin="round"/>
<path d="M6 5.75C7.38071 5.75 8.5 4.57475 8.5 3.125C8.5 1.67525 7.38071 0.5 6 0.5C4.61929 0.5 3.5 1.67525 3.5 3.125C3.5 4.57475 4.61929 5.75 6 5.75Z" stroke="black" stroke-linecap="round" stroke-linejoin="round"/>
<path d="M9.5 9.5C10.1846 9.29423 10.5701 8.84849 10.9706 8.23953C11.3712 7.63058 11.5536 6.8965 11.4863 6.1637C11.4863 4.66159 10.9083 3.22101 9.87941 2.15886C8.85052 1.09671 7.45503 0.5 5.99995 0.5C4.54487 0.5 3.14939 1.09671 2.12049 2.15886C1.09159 3.22101 0.513561 4.66159 0.513561 6.1637C0.44653 6.897 0.629414 7.63146 1.03069 8.24049C1.43196 8.84952 1.81471 9.29495 2.5 9.5" stroke="black" stroke-linecap="round" stroke-linejoin="round"/>
<path d="M9.375 9C9.375 10.5 8.25 11.5 6 11.5C3.75 11.5 2.625 10.5 2.625 9C2.625 8.25 3.375 7.5 6 7.5C8.625 7.5 9.375 8.25 9.375 9Z" stroke="black" stroke-linecap="round" stroke-linejoin="round"/>
<path d="M5 9V9.5" stroke="black" stroke-linecap="round" stroke-linejoin="round"/>
<path d="M7 9L7 9.5" stroke="black" stroke-linecap="round" stroke-linejoin="round"/>
</g>
<defs>
<clipPath id="clip0_6196_64572">
<rect width="12" height="12" fill="white"/>
</clipPath>
</defs>
</svg>
