<svg width="48" height="50" viewBox="0 0 48 50" fill="none" xmlns="http://www.w3.org/2000/svg">
    <path
        d="M3.38989 7.825C3.38989 4.03081 6.4657 0.955002 10.2599 0.955002H27.948C29.7182 0.955002 31.4201 1.63833 32.6988 2.86251L42.4907 12.2369C43.8444 13.5328 44.6099 15.3254 44.6099 17.1993V42.175C44.6099 45.9692 41.5341 49.045 37.7399 49.045H10.2599C6.4657 49.045 3.38989 45.9692 3.38989 42.175V7.825Z"
        fill="#DADBE0" />
    <path
        d="M44.4743 15.84H35.4501C32.2883 15.84 29.7251 13.2768 29.7251 10.115V1.18877C30.8323 1.48526 31.8573 2.05672 32.699 2.86251L42.491 12.2369C43.5123 13.2146 44.1988 14.4751 44.4743 15.84Z"
        fill="#EBECF0" />
    <path
        d="M44.6101 17.5575H35.4501C31.3397 17.5575 28.0076 14.2254 28.0076 10.115V0.955246C28.5922 0.960299 29.169 1.03985 29.7251 1.18876V10.115C29.7251 13.2768 32.2882 15.84 35.4501 15.84H44.4743C44.5639 16.2841 44.6101 16.7393 44.6101 17.1993V17.5575Z"
        fill="#BABBC5" />
    <path d="M15 24H33M15 30H33M15 36H33" stroke="#3A3F4A" stroke-width="2" stroke-linecap="round" />
</svg>