<svg width="25" height="24" viewBox="0 0 25 24" fill="none" xmlns="http://www.w3.org/2000/svg">
    <path fill-rule="evenodd" clip-rule="evenodd"
        d="M11.3435 1.91913C12.1713 1.6181 13.0787 1.6181 13.9065 1.91913L21.1313 4.54632C21.4277 4.6541 21.625 4.93579 21.625 5.25117V13.6894C21.625 16.1595 20.2758 18.4323 18.1073 19.6152L12.9841 22.4096C12.7603 22.5317 12.4897 22.5317 12.2659 22.4096L7.14275 19.6152C4.97424 18.4323 3.625 16.1595 3.625 13.6894V5.25117C3.625 4.93579 3.8223 4.6541 4.11869 4.54632L11.3435 1.91913ZM13.3939 3.32882C12.8972 3.1482 12.3528 3.1482 11.8561 3.32882L5.125 5.77649V13.6894C5.125 15.6106 6.17441 17.3783 7.86103 18.2983L12.625 20.8969L17.389 18.2983C19.0756 17.3783 20.125 15.6106 20.125 13.6894V5.77649L13.3939 3.32882Z"
        fill="#9292F9" />
    <path fill-rule="evenodd" clip-rule="evenodd"
        d="M11.4321 8.22422L12.0104 12.7445C12.05 13.0538 12.3133 13.2856 12.6252 13.2856C12.9371 13.2856 13.2005 13.0538 13.24 12.7444L13.8182 8.22419C13.8673 7.8399 13.5679 7.49976 13.1805 7.49976H12.0697C11.6823 7.49976 11.3829 7.83992 11.4321 8.22422ZM12.6241 16.4997C13.1664 16.4997 13.6061 16.0679 13.6061 15.5354C13.6061 15.0028 13.1664 14.571 12.6241 14.571C12.0817 14.571 11.6421 15.0028 11.6421 15.5354C11.6421 16.0679 12.0817 16.4997 12.6241 16.4997Z"
        fill="#9292F9" />
</svg>    