<svg width="24" height="24" viewBox="0 0 24 24" fill="none" xmlns="http://www.w3.org/2000/svg">
    <path fill-rule="evenodd" clip-rule="evenodd"
        d="M14.3002 2.28956L13.2815 1.91913C12.4537 1.6181 11.5463 1.6181 10.7185 1.91913L3.49369 4.54632C3.1973 4.6541 3 4.93579 3 5.25117V13.6894C3 16.1595 4.34924 18.4323 6.51775 19.6152L11.6409 22.4096C11.8647 22.5317 12.1353 22.5317 12.3591 22.4096L17.4823 19.6152C19.6508 18.4323 21 16.1595 21 13.6894V8.58396C20.5329 8.78805 20.0285 8.92283 19.5 8.97531V13.6894C19.5 15.6106 18.4506 17.3783 16.764 18.2983L12 20.8969L7.23603 18.2983C5.54941 17.3783 4.5 15.6106 4.5 13.6894V5.77649L11.2311 3.32882C11.7278 3.1482 12.2722 3.1482 12.7689 3.32882L14.0048 3.77825C14.0276 3.25737 14.13 2.75718 14.3002 2.28956ZM10.8075 8.22422L11.3859 12.7445C11.4255 13.0538 11.6888 13.2856 12.0007 13.2856C12.3126 13.2856 12.5759 13.0538 12.6155 12.7444L13.1937 8.22419C13.2428 7.8399 12.9434 7.49976 12.556 7.49976H11.4452C11.0578 7.49976 10.7584 7.83992 10.8075 8.22422ZM12.9816 15.5354C12.9816 16.0679 12.5419 16.4997 11.9996 16.4997C11.4572 16.4997 11.0176 16.0679 11.0176 15.5354C11.0176 15.0028 11.4572 14.571 11.9996 14.571C12.5419 14.571 12.9816 15.0028 12.9816 15.5354Z"
        fill="#6243E6" />
    <path
        d="M22 4C22 5.65685 20.6569 7 19 7C17.3431 7 16 5.65685 16 4C16 2.34315 17.3431 1 19 1C20.6569 1 22 2.34315 22 4Z"
        fill="#FC9C9F" />
</svg>