<svg width="17" height="18" viewBox="0 0 17 18" fill="none" xmlns="http://www.w3.org/2000/svg">
    <path
        d="M1.28076 6.17627C0.857422 6.17627 0.616699 5.92725 0.616699 5.49561V3.46191C0.616699 1.75195 1.48828 0.896973 3.22314 0.896973H5.24854C5.68848 0.896973 5.9292 1.12939 5.9292 1.56104C5.9292 1.99268 5.68848 2.2334 5.24854 2.2334H3.23975C2.40967 2.2334 1.95312 2.67334 1.95312 3.53662V5.49561C1.95312 5.92725 1.7207 6.17627 1.28076 6.17627ZM16.1973 6.17627C15.7739 6.17627 15.5332 5.92725 15.5332 5.49561V3.53662C15.5332 2.67334 15.0601 2.2334 14.2383 2.2334H12.2295C11.7979 2.2334 11.5571 1.99268 11.5571 1.56104C11.5571 1.12939 11.7979 0.896973 12.2295 0.896973H14.2632C15.998 0.896973 16.8696 1.75195 16.8696 3.46191V5.49561C16.8696 5.92725 16.6372 6.17627 16.1973 6.17627ZM6.41895 14.145C5.38965 14.145 4.8584 13.6138 4.8584 12.5596V5.4458C4.8584 4.4082 5.38965 3.86865 6.41895 3.86865H8.15381V7.73682C8.15381 8.35107 8.50244 8.70801 9.1167 8.70801H12.9932V12.5596C12.9932 13.6055 12.4785 14.145 11.4326 14.145H6.41895ZM9.34912 7.78662C9.1665 7.78662 9.0752 7.69531 9.0752 7.521V3.91846C9.28271 3.95166 9.48193 4.09277 9.72266 4.3335L12.52 7.13086C12.7607 7.37158 12.9019 7.5874 12.9434 7.78662H9.34912ZM3.22314 17.1416C1.48828 17.1416 0.616699 16.2866 0.616699 14.5684V12.543C0.616699 12.103 0.849121 11.8623 1.28076 11.8623C1.7124 11.8623 1.95312 12.103 1.95312 12.543V14.502C1.95312 15.3652 2.40967 15.8052 3.23975 15.8052H5.24854C5.68848 15.8052 5.9292 16.0459 5.9292 16.4775C5.9292 16.9009 5.68848 17.1416 5.24854 17.1416H3.22314ZM12.2295 17.1416C11.7979 17.1416 11.5571 16.9009 11.5571 16.4775C11.5571 16.0459 11.7979 15.8052 12.2295 15.8052H14.2383C15.0601 15.8052 15.5332 15.3652 15.5332 14.502V12.543C15.5332 12.103 15.7656 11.8623 16.1973 11.8623C16.6289 11.8623 16.8696 12.103 16.8696 12.543V14.5684C16.8696 16.2783 15.998 17.1416 14.2632 17.1416H12.2295Z"
        fill="#D1D1D4" />
</svg>