<svg width="24" height="28" viewBox="0 0 24 28" fill="none" xmlns="http://www.w3.org/2000/svg">
    <path d="M13.2 0.799805V10.3998L9.6 7.9998L6 10.3998V0.799805" stroke="black"
        stroke-opacity="0.8" stroke-width="1.2" stroke-linecap="round" stroke-linejoin="round" />
    <path
        d="M1.19995 24.8C1.19995 25.4365 1.45281 26.047 1.90289 26.4971C2.35298 26.9471 2.96343 27.2 3.59995 27.2H20.4C21.0365 27.2 21.6469 26.9471 22.097 26.4971C22.5471 26.047 22.8 25.4365 22.8 24.8V20"
        stroke="black" stroke-opacity="0.8" stroke-width="1.2" stroke-linecap="round"
        stroke-linejoin="round" />
    <path
        d="M3.59995 0.799805C2.96343 0.799805 2.35298 1.05266 1.90289 1.50275C1.45281 1.95284 1.19995 2.56329 1.19995 3.1998V24.7998C1.19995 24.1633 1.45281 23.5528 1.90289 23.1027C2.35298 22.6527 2.96343 22.3998 3.59995 22.3998H20.4C21.0365 22.3998 21.6469 22.1469 22.097 21.6969C22.5471 21.2468 22.8 20.6363 22.8 19.9998V3.1998C22.8 2.56329 22.5471 1.95284 22.097 1.50275C21.6469 1.05266 21.0365 0.799805 20.4 0.799805H3.59995Z"
        stroke="black" stroke-opacity="0.8" stroke-width="1.2" stroke-linecap="round"
        stroke-linejoin="round" />
</svg>