<svg width="12" height="12" viewBox="0 0 12 12" fill="none" xmlns="http://www.w3.org/2000/svg">
<g clip-path="url(#clip0_6196_64290)">
<path d="M2.40918 2C3.02783 2.99163 3.40918 4.32357 3.40918 5.794C3.40918 7.26443 3.0273 8.59637 2.40918 9.588" stroke="black" stroke-linecap="round" stroke-linejoin="round"/>
<path d="M9.40918 2C8.79053 2.99163 8.40918 4.32357 8.40918 5.794C8.40918 7.26443 8.79106 8.59637 9.40918 9.588" stroke="black" stroke-linecap="round" stroke-linejoin="round"/>
<path d="M6 -2.5V11.5" stroke="black" stroke-linecap="round" stroke-linejoin="round"/>
<path d="M12.5 6H-1.5" stroke="black" stroke-linecap="round" stroke-linejoin="round"/>
<path d="M6 11.5C9.03757 11.5 11.5 9.03757 11.5 6C11.5 2.96243 9.03757 0.5 6 0.5C2.96243 0.5 0.5 2.96243 0.5 6C0.5 9.03757 2.96243 11.5 6 11.5Z" stroke="black" stroke-linecap="round" stroke-linejoin="round"/>
</g>
<defs>
<clipPath id="clip0_6196_64290">
<rect width="12" height="12" fill="white"/>
</clipPath>
</defs>
</svg>
