<svg width="12" height="12" viewBox="0 0 12 12" fill="none" xmlns="http://www.w3.org/2000/svg">
<g clip-path="url(#clip0_6189_64225)">
<path d="M0.5 3.5H11.5" stroke="black" stroke-linecap="round" stroke-linejoin="round"/>
<path d="M1.99979 2C1.979 1.62465 2.10747 1.25631 2.35719 0.975305C2.6069 0.694305 2.9576 0.523448 3.33279 0.5C5.30479 0.5 5.99979 3.5 5.99979 3.5H3.33279C2.95751 3.47681 2.60665 3.30603 2.35688 3.02497C2.10711 2.74391 1.97873 2.37541 1.99979 2Z" stroke="black" stroke-linecap="round" stroke-linejoin="round"/>
<path d="M8.667 3.5H6C6 3.5 6.7 0.5 8.667 0.5C9.04219 0.523448 9.39289 0.694305 9.64261 0.975305C9.89232 1.25631 10.0208 1.62465 10 2C10.0211 2.37541 9.89268 2.74391 9.64291 3.02497C9.39315 3.30603 9.04229 3.47681 8.667 3.5Z" stroke="black" stroke-linecap="round" stroke-linejoin="round"/>
<path d="M10.5 5.5V10.5C10.5 10.7652 10.3946 11.0196 10.2071 11.2071C10.0196 11.3946 9.76522 11.5 9.5 11.5H2.5C2.23478 11.5 1.98043 11.3946 1.79289 11.2071C1.60536 11.0196 1.5 10.7652 1.5 10.5V5.5" stroke="black" stroke-linecap="round" stroke-linejoin="round"/>
<path d="M6 5.5V11.5" stroke="black" stroke-linecap="round" stroke-linejoin="round"/>
</g>
<defs>
<clipPath id="clip0_6189_64225">
<rect width="12" height="12" fill="white"/>
</clipPath>
</defs>
</svg>
