<svg width="26" height="28" viewBox="0 0 26 28" fill="none" xmlns="http://www.w3.org/2000/svg">
    <path d="M7.0408 12.8814L1 0.799805H8.2L13 10.3998" stroke="black" stroke-opacity="0.8"
        stroke-width="1.2" stroke-linecap="round" stroke-linejoin="round" />
    <path d="M18.9598 12.8802L25 0.799805H17.8L13 10.3998" stroke="black" stroke-opacity="0.8"
        stroke-width="1.2" stroke-linecap="round" stroke-linejoin="round" />
    <path
        d="M13 27.1994C17.6392 27.1994 21.4 23.4386 21.4 18.7994C21.4 14.1602 17.6392 10.3994 13 10.3994C8.36078 10.3994 4.59998 14.1602 4.59998 18.7994C4.59998 23.4386 8.36078 27.1994 13 27.1994Z"
        stroke="black" stroke-opacity="0.8" stroke-width="1.2" stroke-linecap="round"
        stroke-linejoin="round" />
    <path
        d="M13 14.458L14.4112 17.3164L17.5648 17.7748L15.2824 19.9996L15.8212 23.1412L13 21.658L10.1788 23.1412L10.7176 19.9996L8.43518 17.7748L11.5888 17.3164L13 14.458Z"
        stroke="black" stroke-opacity="0.8" stroke-width="1.2" stroke-linecap="round"
        stroke-linejoin="round" />
</svg>