<svg width="114" height="96" viewBox="0 0 114 96" fill="none" xmlns="http://www.w3.org/2000/svg">
    <path
        d="M0.640381 30.2023C0.640381 22.4696 6.91958 16.201 14.6523 16.201C22.3967 16.201 28.6854 22.4791 28.6854 30.2236V44.2036H14.6417C6.90897 44.2036 0.640381 37.935 0.640381 30.2023Z"
        fill="#43C5EF" />
    <path fill-rule="evenodd" clip-rule="evenodd"
        d="M19.657 24.4198C18.0945 23.4152 16.0388 23.6534 14.7483 24.9886L8.81433 30.9136C8.2559 31.4551 7.96423 32.2143 8.0168 32.9898C8.07763 33.7664 8.4724 34.4787 9.09916 34.9426C9.54501 35.2697 10.084 35.4458 10.6373 35.4451C11.4149 35.436 12.158 35.1229 12.707 34.5729L17.834 29.4537C18.4019 28.8334 18.3814 27.8771 17.7876 27.2815C17.1937 26.686 16.236 26.6615 15.6123 27.2259L12.1943 30.6387L12.8684 31.3118L16.2769 27.899C16.5258 27.6896 16.8937 27.7052 17.1238 27.935C17.354 28.1648 17.3696 28.5322 17.1599 28.7806L12.0424 33.8998C11.4178 34.5424 10.428 34.661 9.66883 34.1842C9.27107 33.883 9.02231 33.4255 8.98597 32.9283C8.94962 32.4312 9.12921 31.9424 9.47894 31.5867L15.413 25.6617C16.3828 24.6521 17.9297 24.462 19.1158 25.2066C19.8192 25.6794 20.2751 26.4404 20.3595 27.2828C20.4311 28.1151 20.1325 28.9367 19.543 29.5295L14.53 34.516L15.1946 35.1891L20.1981 30.2026C20.9866 29.4054 21.3817 28.3009 21.2773 27.1853C21.1729 26.0697 20.5797 25.0573 19.657 24.4198Z"
        fill="white" />
    <path d="M74.463 58.0409H66.1002V95.7992H74.463V58.0409Z" fill="#FFA24D" />
    <path
        d="M98.0001 66.1993H43.7402C42.8795 66.1993 42.1677 65.5052 42.1677 64.6292V49.3081C42.1677 42.3169 47.8453 36.6644 54.8306 36.6644H85.3041C92.3059 36.6644 97.967 42.3334 97.967 49.3081V66.1993H98.0001Z"
        fill="#9D75FF" />
    <path
        d="M66.1534 66.0774H44.1217V49.1531C44.1217 43.0875 49.0544 38.1622 55.1293 38.1622C61.2041 38.1622 66.1368 43.0875 66.1368 49.1531V66.0774H66.1534Z"
        fill="#5D44A7" />
    <path
        d="M55.5555 66.2873H31.8123C30.9747 66.2873 30.3025 65.5987 30.3025 64.7642V50.0024C30.3025 49.1678 30.985 48.4792 31.8123 48.4792H55.5451C56.3828 48.4792 57.0549 49.1678 57.0549 50.0024V64.7642C57.0653 65.6092 56.3828 66.2873 55.5555 66.2873Z"
        fill="#CCD8FD" />
    <path
        d="M42.7029 58.7324C43.2637 59.1942 44.0842 59.1942 44.6451 58.7324L56.6308 48.8791C56.3608 48.6327 55.9973 48.4788 55.6026 48.4788H31.7558C31.3611 48.4788 30.9976 48.6327 30.7275 48.8791L42.7029 58.7324Z"
        fill="#EEEEFB" />
    <path fill-rule="evenodd" clip-rule="evenodd"
        d="M76.846 30.8378H86.3152C86.8449 30.8378 87.2753 30.4081 87.2753 29.8792V25.2373C87.2753 24.7084 86.8449 24.2787 86.3152 24.2787H74.3642C73.8345 24.2787 73.4041 24.7084 73.4041 25.2373V28.315H73.4031V51.8795C73.4031 52.8216 74.1811 53.5984 75.1246 53.5984C76.0846 53.5984 76.846 52.8216 76.846 51.8795V30.8378Z"
        fill="#E94641" />
    <path
        d="M66.1541 66.0775H64.0188V67.0361H44.1224L38.6435 70.9697C38.6435 70.9697 37.2365 71.9944 36.8227 73.4323L36.7068 73.3001V74.2256C36.7068 74.9363 37.0047 75.7297 37.8158 76.5065C40.398 78.6881 49.8165 79.3492 56.7852 74.11C63.7374 68.8707 66.1541 67.0196 66.1541 67.0196V66.0775Z"
        fill="#734FFF" />
    <path
        d="M44.1217 66.0775L38.6428 70.0111C38.6428 70.0111 34.9018 72.7547 37.8151 75.5644C40.3973 77.746 49.8158 78.4071 56.7845 73.1679C63.7532 67.9286 66.1534 66.0775 66.1534 66.0775H44.1217Z"
        fill="#EFBFFF" />
    <path
        d="M75.1252 52.7389C75.5731 52.7389 75.9363 52.3763 75.9363 51.929C75.9363 51.4817 75.5731 51.1191 75.1252 51.1191C74.6772 51.1191 74.3141 51.4817 74.3141 51.929C74.3141 52.3763 74.6772 52.7389 75.1252 52.7389Z"
        fill="white" />
</svg>