<svg width="28" height="28" viewBox="0 0 28 28" fill="none" xmlns="http://www.w3.org/2000/svg">
    <path
        d="M13.9772 13.9998L25.4 7.40521C23.9481 4.88759 21.7058 2.91954 19.0211 1.80639C16.3364 0.693244 13.3594 0.497238 10.552 1.24878C7.74453 2.00033 5.26358 3.6574 3.49407 5.96292C1.72455 8.26844 0.765381 11.0935 0.765381 13.9998C0.765381 16.9061 1.72455 19.7312 3.49407 22.0367C5.26358 24.3422 7.74453 25.9993 10.552 26.7508C13.3594 27.5024 16.3364 27.3064 19.0211 26.1932C21.7058 25.0801 23.9481 23.112 25.4 20.5944L13.9772 13.9998Z"
        stroke="black" stroke-opacity="0.8" stroke-width="1.2" stroke-linecap="round"
        stroke-linejoin="round" />
    <path
        d="M25.4 15.8002C26.3941 15.8002 27.2 14.9943 27.2 14.0002C27.2 13.0061 26.3941 12.2002 25.4 12.2002C24.4059 12.2002 23.6 13.0061 23.6 14.0002C23.6 14.9943 24.4059 15.8002 25.4 15.8002Z"
        stroke="black" stroke-opacity="0.8" stroke-width="1.2" stroke-linecap="round"
        stroke-linejoin="round" />
    <path
        d="M14.6 8.6002C15.2628 8.6002 15.8 8.06294 15.8 7.4002C15.8 6.73745 15.2628 6.2002 14.6 6.2002C13.9373 6.2002 13.4 6.73745 13.4 7.4002C13.4 8.06294 13.9373 8.6002 14.6 8.6002Z"
        stroke="black" stroke-opacity="0.8" stroke-width="1.2" stroke-linecap="round"
        stroke-linejoin="round" />
</svg>