<svg width="42" height="24" viewBox="0 0 42 24" fill="none" xmlns="http://www.w3.org/2000/svg">
<rect x="0.5" y="0.5" width="41" height="23" rx="7.5" stroke="url(#paint0_radial_18129_7454)"/>
<path fill-rule="evenodd" clip-rule="evenodd" d="M19.5754 10.9714L15.0252 6.42121C14.4589 5.85495 13.5408 5.85495 12.9746 6.42121L17.6398 11.1005C18.1298 11.5905 18.1298 12.4005 17.6398 12.8905L12.9746 17.5723C13.5408 18.1385 14.4589 18.1385 15.0252 17.5723L19.5754 13.022C20.1417 12.4558 20.1417 11.5377 19.5754 10.9714ZM15.7323 5.7141C14.7755 4.75732 13.2242 4.75732 12.2675 5.7141L7.71723 10.2643C6.76045 11.2211 6.76045 12.7724 7.71724 13.7292L12.2675 18.2794C13.2243 19.2362 14.7755 19.2362 15.7323 18.2794L20.2825 13.7292C21.2393 12.7724 21.2393 11.2211 20.2825 10.2643L15.7323 5.7141Z" fill="white"/>
<path d="M26.8939 15C25.2382 15 24 13.6983 24 12.0075V11.9925C24 10.3017 25.2382 9 26.8939 9C27.9976 9 28.8396 9.53117 29.9151 10.9526L30 11.0648L30.0849 10.9526C31.1604 9.53117 32.0024 9 33.1061 9C34.7618 9 36 10.3017 36 11.9925V12.0075C36 13.6983 34.7618 15 33.1061 15C32.0024 15 31.1604 14.4688 30.0849 13.0474L30 12.9352L29.9151 13.0474C28.8396 14.4688 27.9976 15 26.8939 15ZM26.9363 13.8105C27.7146 13.8105 28.2594 13.384 29.2217 12.1122L29.3066 12L29.2217 11.8878C28.2594 10.616 27.7146 10.1895 26.9363 10.1895C25.9316 10.1895 25.2099 10.9526 25.2099 11.9925V12.0075C25.2099 13.0474 25.9316 13.8105 26.9363 13.8105ZM33.0637 13.8105C34.0684 13.8105 34.7901 13.0474 34.7901 12.0075V11.9925C34.7901 10.9526 34.0684 10.1895 33.0637 10.1895C32.2854 10.1895 31.7406 10.616 30.7783 11.8878L30.6934 12L30.7783 12.1122C31.7406 13.384 32.2854 13.8105 33.0637 13.8105Z" fill="white"/>
<defs>
<radialGradient id="paint0_radial_18129_7454" cx="0" cy="0" r="1" gradientUnits="userSpaceOnUse" gradientTransform="translate(9.08108 9) rotate(9.3158) scale(33.3589 37.2588)">
<stop stop-color="#FFD580"/>
<stop offset="0.355428" stop-color="#DFA5AF"/>
<stop offset="1" stop-color="#704CFF"/>
</radialGradient>
</defs>
</svg>
