<svg width="44" height="24" viewBox="0 0 44 24" fill="none" xmlns="http://www.w3.org/2000/svg">
<rect x="0.5" y="0.5" width="43" height="23" rx="7.5" fill="white"/>
<rect x="0.5" y="0.5" width="43" height="23" rx="7.5" stroke="url(#paint0_radial_613_343)"/>
<path fill-rule="evenodd" clip-rule="evenodd" d="M20.5756 10.9709L16.0254 6.42072C15.4591 5.85446 14.541 5.85446 13.9748 6.42072L18.64 11.1C19.13 11.59 19.13 12.4 18.64 12.89L13.9748 17.5718C14.541 18.1381 15.4591 18.1381 16.0254 17.5718L20.5756 13.0216C21.1419 12.4553 21.1419 11.5372 20.5756 10.9709ZM16.7325 5.71361C15.7757 4.75683 14.2244 4.75683 13.2676 5.71361L8.71742 10.2638C7.76063 11.2206 7.76063 12.7719 8.71742 13.7287L13.2676 18.2789C14.2244 19.2357 15.7757 19.2357 16.7325 18.2789L21.2827 13.7287C22.2395 12.7719 22.2395 11.2206 21.2827 10.2638L16.7325 5.71361Z" fill="#2B2442"/>
<path d="M27.8939 15C26.2382 15 25 13.6983 25 12.0075V11.9925C25 10.3017 26.2382 9 27.8939 9C28.9976 9 29.8396 9.53117 30.9151 10.9526L31 11.0648L31.0849 10.9526C32.1604 9.53117 33.0024 9 34.1061 9C35.7618 9 37 10.3017 37 11.9925V12.0075C37 13.6983 35.7618 15 34.1061 15C33.0024 15 32.1604 14.4688 31.0849 13.0474L31 12.9352L30.9151 13.0474C29.8396 14.4688 28.9976 15 27.8939 15ZM27.9363 13.8105C28.7146 13.8105 29.2594 13.384 30.2217 12.1122L30.3066 12L30.2217 11.8878C29.2594 10.616 28.7146 10.1895 27.9363 10.1895C26.9316 10.1895 26.2099 10.9526 26.2099 11.9925V12.0075C26.2099 13.0474 26.9316 13.8105 27.9363 13.8105ZM34.0637 13.8105C35.0684 13.8105 35.7901 13.0474 35.7901 12.0075V11.9925C35.7901 10.9526 35.0684 10.1895 34.0637 10.1895C33.2854 10.1895 32.7406 10.616 31.7783 11.8878L31.6934 12L31.7783 12.1122C32.7406 13.384 33.2854 13.8105 34.0637 13.8105Z" fill="#2B2442"/>
<defs>
<radialGradient id="paint0_radial_613_343" cx="0" cy="0" r="1" gradientUnits="userSpaceOnUse" gradientTransform="translate(9.51351 9) rotate(8.89929) scale(34.9067 37.3023)">
<stop stop-color="#FFD580"/>
<stop offset="0.355428" stop-color="#DFA5AF"/>
<stop offset="1" stop-color="#704CFF"/>
</radialGradient>
</defs>
</svg>
