<svg width="28" height="28" viewBox="0 0 28 28" fill="none" xmlns="http://www.w3.org/2000/svg">
    <path
        d="M11.6 25.8036C11.6 25.0788 11.2826 24.3894 10.7144 23.9388C9.84685 23.25 8.34205 22.4004 6.20005 22.4004C4.05805 22.4004 2.55325 23.25 1.68565 23.9388C1.11745 24.3894 0.800049 25.0788 0.800049 25.8036V27.2004H11.6V25.8036Z"
        stroke="black" stroke-opacity="0.8" stroke-width="1.2" stroke-linecap="round"
        stroke-linejoin="round" />
    <path
        d="M6.20007 19.4004C7.85693 19.4004 9.20007 18.0572 9.20007 16.4004C9.20007 14.7435 7.85693 13.4004 6.20007 13.4004C4.54322 13.4004 3.20007 14.7435 3.20007 16.4004C3.20007 18.0572 4.54322 19.4004 6.20007 19.4004Z"
        stroke="black" stroke-opacity="0.8" stroke-width="1.2" stroke-linecap="round"
        stroke-linejoin="round" />
    <path
        d="M27.2 25.8036C27.2 25.0788 26.8826 24.3894 26.3144 23.9388C25.4468 23.25 23.942 22.4004 21.8 22.4004C19.658 22.4004 18.1532 23.25 17.2856 23.9388C16.7174 24.3894 16.4 25.0788 16.4 25.8036V27.2004H27.2V25.8036Z"
        stroke="black" stroke-opacity="0.8" stroke-width="1.2" stroke-linecap="round"
        stroke-linejoin="round" />
    <path
        d="M21.8 19.4004C23.4569 19.4004 24.8 18.0572 24.8 16.4004C24.8 14.7435 23.4569 13.4004 21.8 13.4004C20.1432 13.4004 18.8 14.7435 18.8 16.4004C18.8 18.0572 20.1432 19.4004 21.8 19.4004Z"
        stroke="black" stroke-opacity="0.8" stroke-width="1.2" stroke-linecap="round"
        stroke-linejoin="round" />
    <path
        d="M18.5373 1.66572C17.2239 0.346923 15.0315 0.562323 14.0001 2.12232C12.9675 0.561123 10.7751 0.348723 9.46287 1.66572C8.31267 2.82012 8.31267 4.69212 9.46287 5.84592L13.9995 10.3999L18.5373 5.84592C19.6875 4.69152 19.6875 2.82012 18.5373 1.66572Z"
        stroke="black" stroke-opacity="0.8" stroke-width="1.2" stroke-linecap="round"
        stroke-linejoin="round" />
</svg>