<svg width="360" height="134" viewBox="0 0 360 134" fill="none" xmlns="http://www.w3.org/2000/svg">
	<path d="M204.474 42.7966H152.833C151.581 42.7961 150.358 43.1781 149.33 43.8912C148.302 44.6042 147.517 45.6141 147.082 46.7849L131.94 87.4813C131.459 88.7764 131.212 90.1467 131.212 91.528V115.387C131.212 117.16 131.918 118.861 133.176 120.115C134.434 121.369 136.14 122.074 137.919 122.074H219.381C220.262 122.074 221.134 121.901 221.948 121.565C222.762 121.229 223.501 120.736 224.124 120.115C224.747 119.494 225.241 118.757 225.578 117.946C225.915 117.134 226.089 116.265 226.089 115.387V91.528C226.088 90.1467 225.842 88.7764 225.36 87.4813L210.218 46.7849C209.783 45.6153 208.999 44.6063 207.973 43.8934C206.946 43.1805 205.725 42.7978 204.474 42.7966Z" fill="url(#paint0_linear_2285_29394)" />
	<path d="M218.622 84.2759L205.775 48.6083C205.614 48.161 205.318 47.7743 204.927 47.501C204.537 47.2277 204.072 47.0812 203.595 47.0813H153.712C153.235 47.0806 152.769 47.2269 152.379 47.5002C151.989 47.7736 151.693 48.1607 151.532 48.6083L138.683 84.2759C138.534 84.6888 138.488 85.1312 138.546 85.5658C138.605 86.0005 138.768 86.4147 139.021 86.7734C139.274 87.1322 139.61 87.4251 140.001 87.6273C140.391 87.8295 140.824 87.9352 141.264 87.9355H156.736C157.377 87.9355 158.004 88.128 158.535 88.4879C159.065 88.8478 159.475 89.3584 159.71 89.9534L162.452 96.8746C162.688 97.469 163.098 97.9791 163.628 98.3385C164.158 98.6979 164.785 98.8902 165.426 98.8904H191.877C192.518 98.8902 193.144 98.6979 193.674 98.3385C194.205 97.9791 194.615 97.469 194.851 96.8746L197.59 89.9534C197.826 89.3582 198.236 88.8475 198.767 88.4877C199.298 88.1278 199.925 87.9354 200.567 87.9355H216.036C216.476 87.9359 216.91 87.8307 217.301 87.6288C217.692 87.4268 218.029 87.1341 218.282 86.7752C218.536 86.4164 218.699 86.002 218.758 85.567C218.817 85.132 218.771 84.6891 218.622 84.2759Z" fill="#6745F3" />
	<path d="M200.884 66.7331C200.759 66.3272 200.508 65.9719 200.165 65.7195C199.823 65.4672 199.409 65.3312 198.983 65.3315H158.322C157.896 65.3315 157.482 65.4677 157.14 65.72C156.798 65.9723 156.546 66.3274 156.421 66.7331L149.913 87.9291H156.732C157.373 87.9291 158 88.1216 158.53 88.4815C159.061 88.8414 159.47 89.352 159.706 89.947L162.448 96.8682C162.683 97.4632 163.093 97.9738 163.623 98.3337C164.153 98.6936 164.78 98.8861 165.422 98.8861H191.872C192.513 98.886 193.14 98.6937 193.67 98.3342C194.2 97.9748 194.61 97.4647 194.846 96.8703L197.586 89.9492C197.822 89.354 198.232 88.8433 198.763 88.4834C199.294 88.1235 199.921 87.9311 200.562 87.9312H207.381L200.884 66.7331Z" fill="url(#paint1_linear_2285_29394)" fill-opacity="0.35" />
	<path d="M218.622 84.2759C218.771 84.6889 218.817 85.1316 218.758 85.5664C218.699 86.0012 218.536 86.4154 218.283 86.7743C218.03 87.1331 217.693 87.4259 217.303 87.628C216.912 87.8301 216.479 87.9355 216.038 87.9354H200.569C199.927 87.9353 199.3 88.1278 198.769 88.4876C198.239 88.8475 197.829 89.3582 197.593 89.9534L194.853 96.8745C194.617 97.4696 194.208 97.9802 193.678 98.3401C193.147 98.6999 192.52 98.8924 191.879 98.8925H165.428C164.787 98.8924 164.16 98.6999 163.63 98.3401C163.099 97.9802 162.69 97.4696 162.454 96.8745L159.712 89.9534C159.477 89.3584 159.067 88.8477 158.537 88.4879C158.006 88.128 157.38 87.9355 156.738 87.9354H141.267C140.827 87.9352 140.393 87.8295 140.003 87.6273C139.613 87.425 139.277 87.1322 139.023 86.7734C138.77 86.4146 138.608 86.0004 138.549 85.5658C138.49 85.1311 138.536 84.6887 138.685 84.2759C138.395 84.9303 138.273 85.6467 138.33 86.36C138.388 87.0732 138.623 87.7609 139.015 88.3605C139.407 88.9601 139.943 89.4526 140.574 89.7935C141.205 90.1344 141.911 90.3128 142.629 90.3125H155.913C156.38 90.3125 156.837 90.4493 157.226 90.7057C157.616 90.9622 157.922 91.327 158.106 91.7551L160.885 98.209C161.309 99.1941 162.013 100.034 162.911 100.623C163.808 101.213 164.86 101.527 165.935 101.527H191.359C192.434 101.527 193.485 101.213 194.382 100.623C195.28 100.033 195.984 99.1939 196.407 98.209L199.186 91.7551C199.37 91.3267 199.676 90.9616 200.066 90.7051C200.457 90.4486 200.914 90.3121 201.381 90.3125H214.665C215.384 90.315 216.092 90.1382 216.725 89.7982C217.358 89.4583 217.895 88.9658 218.289 88.3659C218.682 87.7659 218.918 87.0775 218.977 86.3631C219.035 85.6488 218.913 84.9313 218.622 84.2759Z" fill="#BEB8FF" />
	<path d="M150.507 24.4752C153.044 24.4752 155.101 22.4245 155.101 19.8948C155.101 17.3652 153.044 15.3145 150.507 15.3145C147.969 15.3145 145.912 17.3652 145.912 19.8948C145.912 22.4245 147.969 24.4752 150.507 24.4752Z" fill="#F2EFE8" />
	<path d="M137.643 47.3772L130.293 44.6706L126.91 43.4214L125.657 40.0486L122.942 32.72L120.228 40.0486L118.975 43.4214L115.592 44.6706L108.241 47.3772L115.592 50.0838L118.975 51.333L120.228 54.7058L122.942 62.0345L125.657 54.7058L126.91 51.333L130.293 50.0838L137.643 47.3772Z" fill="#F2EFE8" />
	<defs>
		<linearGradient id="paint0_linear_2285_29394" x1="64.8" y1="107.679" x2="182.882" y2="21.5906" gradientUnits="userSpaceOnUse">
			<stop offset="0.11996" stop-color="#EEBEFF" />
			<stop offset="1" stop-color="#6D4AFF" />
		</linearGradient>
		<linearGradient id="paint1_linear_2285_29394" x1="162.451" y1="118.831" x2="228.867" y2="50.848" gradientUnits="userSpaceOnUse">
			<stop stop-color="#17036B" stop-opacity="0" />
			<stop offset="1" stop-color="#17036B" />
		</linearGradient>
	</defs>
</svg>