<svg width="140" height="107" viewBox="0 0 140 107" fill="none" xmlns="http://www.w3.org/2000/svg">
    <g opacity="0.7">
        <g filter="url(#filter0_bdi_20436_4471)">
            <path
                d="M6.1696 23.004C5.70729 16.3927 10.692 10.6584 17.3033 10.1961L113.069 3.4995C119.681 3.0372 125.415 8.02192 125.877 14.6332L134.667 140.326C135.129 146.938 130.144 152.672 123.533 153.134L27.7668 159.831C21.1555 160.293 15.4212 155.308 14.9589 148.697L6.1696 23.004Z"
                fill="#E5E3EF" fill-opacity="0.85" shape-rendering="crispEdges" />
        </g>
        <rect opacity="0.2" x="27.8765" y="30.502" width="60" height="9" rx="4.5"
            transform="rotate(-4 27.8765 30.502)" fill="#6653ED" />
        <rect opacity="0.2" x="29.2109" y="51.4658" width="45" height="9" rx="4.5"
            transform="rotate(-4 29.2109 51.4658)" fill="#6653ED" />
        <rect opacity="0.2" x="30.8853" y="75.4072" width="75" height="9" rx="4.5"
            transform="rotate(-4 30.8853 75.4072)" fill="#6653ED" />
        <rect opacity="0.2" x="32.0366" y="91.8672" width="60" height="9" rx="4.5"
            transform="rotate(-4 32.0366 91.8672)" fill="#6653ED" />
        <rect opacity="0.2" x="33.1873" y="108.327" width="60" height="9" rx="4.5"
            transform="rotate(-4 33.1873 108.327)" fill="#6653ED" />
    </g>
    <g filter="url(#filter1_bdi_20436_4471)">
        <path
            d="M46.7224 5.11937C47.3001 -1.48282 53.1204 -6.36671 59.7226 -5.78909L155.357 2.57786C161.96 3.15548 166.843 8.97587 166.266 15.5781L155.284 141.099C154.707 147.701 148.886 152.585 142.284 152.007L46.6493 143.64C40.0471 143.062 35.1632 137.242 35.7408 130.64L46.7224 5.11937Z"
            fill="#E5E3EF" fill-opacity="0.85" shape-rendering="crispEdges" />
    </g>
    <rect opacity="0.2" x="66.989" y="15.9209" width="60" height="9" rx="4.5"
        transform="rotate(5 66.989 15.9209)" fill="#6653ED" />
    <rect opacity="0.2" x="65.0276" y="36.8359" width="45" height="9" rx="4.5"
        transform="rotate(5 65.0276 36.8359)" fill="#6653ED" />
    <rect opacity="0.2" x="62.9358" y="60.7441" width="75" height="9" rx="4.5"
        transform="rotate(5 62.9358 60.7441)" fill="#6653ED" />
    <rect opacity="0.2" x="61.498" y="77.1816" width="60" height="9" rx="4.5"
        transform="rotate(5 61.498 77.1816)" fill="#6653ED" />
    <rect opacity="0.2" x="60.0596" y="93.6182" width="60" height="9" rx="4.5"
        transform="rotate(5 60.0596 93.6182)" fill="#6653ED" />
    <defs>
        <filter id="filter0_bdi_20436_4471" x="-29.8601" y="-32.5303" width="200.556"
            height="228.391" filterUnits="userSpaceOnUse" color-interpolation-filters="sRGB">
            <feFlood flood-opacity="0" result="BackgroundImageFix" />
            <feGaussianBlur in="BackgroundImageFix" stdDeviation="18" />
            <feComposite in2="SourceAlpha" operator="in" result="effect1_backgroundBlur_20436_4471" />
            <feColorMatrix in="SourceAlpha" type="matrix"
                values="0 0 0 0 0 0 0 0 0 0 0 0 0 0 0 0 0 0 127 0" result="hardAlpha" />
            <feOffset dy="6" />
            <feGaussianBlur stdDeviation="3" />
            <feComposite in2="hardAlpha" operator="out" />
            <feColorMatrix type="matrix" values="0 0 0 0 0 0 0 0 0 0 0 0 0 0 0 0 0 0 0.25 0" />
            <feBlend mode="normal" in2="effect1_backgroundBlur_20436_4471"
                result="effect2_dropShadow_20436_4471" />
            <feBlend mode="normal" in="SourceGraphic" in2="effect2_dropShadow_20436_4471"
                result="shape" />
            <feColorMatrix in="SourceAlpha" type="matrix"
                values="0 0 0 0 0 0 0 0 0 0 0 0 0 0 0 0 0 0 127 0" result="hardAlpha" />
            <feMorphology radius="7.5" operator="erode" in="SourceAlpha"
                result="effect3_innerShadow_20436_4471" />
            <feOffset />
            <feGaussianBlur stdDeviation="6.75" />
            <feComposite in2="hardAlpha" operator="arithmetic" k2="-1" k3="1" />
            <feColorMatrix type="matrix" values="0 0 0 0 1 0 0 0 0 1 0 0 0 0 1 0 0 0 1 0" />
            <feBlend mode="normal" in2="shape" result="effect3_innerShadow_20436_4471" />
        </filter>
        <filter id="filter1_bdi_20436_4471" x="-0.305565" y="-41.8359" width="202.618"
            height="229.89" filterUnits="userSpaceOnUse" color-interpolation-filters="sRGB">
            <feFlood flood-opacity="0" result="BackgroundImageFix" />
            <feGaussianBlur in="BackgroundImageFix" stdDeviation="18" />
            <feComposite in2="SourceAlpha" operator="in" result="effect1_backgroundBlur_20436_4471" />
            <feColorMatrix in="SourceAlpha" type="matrix"
                values="0 0 0 0 0 0 0 0 0 0 0 0 0 0 0 0 0 0 127 0" result="hardAlpha" />
            <feOffset dy="6" />
            <feGaussianBlur stdDeviation="3" />
            <feComposite in2="hardAlpha" operator="out" />
            <feColorMatrix type="matrix" values="0 0 0 0 0 0 0 0 0 0 0 0 0 0 0 0 0 0 0.25 0" />
            <feBlend mode="normal" in2="effect1_backgroundBlur_20436_4471"
                result="effect2_dropShadow_20436_4471" />
            <feBlend mode="normal" in="SourceGraphic" in2="effect2_dropShadow_20436_4471"
                result="shape" />
            <feColorMatrix in="SourceAlpha" type="matrix"
                values="0 0 0 0 0 0 0 0 0 0 0 0 0 0 0 0 0 0 127 0" result="hardAlpha" />
            <feMorphology radius="7.5" operator="erode" in="SourceAlpha"
                result="effect3_innerShadow_20436_4471" />
            <feOffset />
            <feGaussianBlur stdDeviation="6.75" />
            <feComposite in2="hardAlpha" operator="arithmetic" k2="-1" k3="1" />
            <feColorMatrix type="matrix" values="0 0 0 0 1 0 0 0 0 1 0 0 0 0 1 0 0 0 1 0" />
            <feBlend mode="normal" in2="shape" result="effect3_innerShadow_20436_4471" />
        </filter>
    </defs>
</svg>