<svg width="207" height="109" viewBox="0 0 207 109" fill="none" xmlns="http://www.w3.org/2000/svg">
<g opacity="0.3">
<rect x="0.138916" y="0.334961" width="206.231" height="107.815" rx="3.87029" fill="#D9D9D9"/>
<rect x="11.7495" y="7.52344" width="15.4812" height="28.1978" rx="2.76449" fill="white"/>
<rect x="21.702" y="40.6963" width="15.4812" height="28.1978" rx="2.76449" fill="white"/>
<rect x="21.7019" y="73.8711" width="15.4812" height="28.1978" rx="2.76449" fill="white"/>
<rect x="32.76" y="7.52246" width="15.4812" height="28.1978" rx="2.76449" fill="white"/>
<rect x="42.7119" y="40.6973" width="15.4812" height="28.1978" rx="2.76449" fill="white"/>
<rect x="42.712" y="73.8711" width="15.4812" height="28.1978" rx="2.76449" fill="white"/>
<rect x="53.77" y="7.52246" width="15.4812" height="28.1978" rx="2.76449" fill="white"/>
<rect x="63.7224" y="40.6963" width="15.4812" height="28.1978" rx="2.76449" fill="white"/>
<rect x="63.7219" y="73.8711" width="78.5116" height="28.1978" rx="2.76449" fill="white"/>
<rect x="74.7802" y="7.52246" width="15.4812" height="28.1978" rx="2.76449" fill="white"/>
<rect x="84.7324" y="40.6963" width="15.4812" height="28.1978" rx="2.76449" fill="white"/>
<rect x="95.7903" y="7.52246" width="15.4812" height="28.1978" rx="2.76449" fill="white"/>
<rect x="105.743" y="40.6963" width="15.4812" height="28.1978" rx="2.76449" fill="white"/>
<rect x="116.8" y="7.52344" width="15.4812" height="28.1978" rx="2.76449" fill="white"/>
<rect x="126.753" y="40.6963" width="15.4812" height="28.1978" rx="2.76449" fill="white"/>
<rect x="137.811" y="7.52246" width="15.4812" height="28.1978" rx="2.76449" fill="white"/>
<rect x="147.763" y="40.6973" width="15.4812" height="28.1978" rx="2.76449" fill="white"/>
<rect x="147.763" y="73.8711" width="15.4812" height="28.1978" rx="2.76449" fill="white"/>
<rect x="158.821" y="7.52246" width="15.4812" height="28.1978" rx="2.76449" fill="white"/>
<rect x="168.773" y="40.6963" width="15.4812" height="28.1978" rx="2.76449" fill="white"/>
<rect x="168.773" y="73.8711" width="15.4812" height="28.1978" rx="2.76449" fill="white"/>
<rect x="179.831" y="7.52246" width="15.4812" height="28.1978" rx="2.76449" fill="white"/>
</g>
</svg>
