<svg width="24" height="24" viewBox="0 0 24 24" fill="none" xmlns="http://www.w3.org/2000/svg">
<path d="M17 11L12.9 22.3C12.6 23.2 11.3 23.2 11 22.3L7 11" stroke="black" stroke-width="2" stroke-linecap="round" stroke-linejoin="round"/>
<path d="M17.5 6C17.2 3.2 14.9 1 12 1C9.1 1 6.8 3.2 6.5 6C5.1 6 4 7.1 4 8.5C4 9.9 5.1 11 6.5 11C7.1 11 10.5 11 12 11C13.5 11 16.9 11 17.5 11C18.9 11 20 9.9 20 8.5C20 7.1 18.9 6 17.5 6Z" stroke="black" stroke-width="2" stroke-linecap="round" stroke-linejoin="round"/>
</svg>
