<svg width="48" height="50" viewBox="0 0 48 50" fill="none" xmlns="http://www.w3.org/2000/svg">
    <path
        d="M3.39014 7.82502C3.39014 4.03082 6.46594 0.955017 10.2601 0.955017H27.9482C29.7184 0.955017 31.4203 1.63835 32.6991 2.86253L42.491 12.2369C43.8446 13.5328 44.6101 15.3254 44.6101 17.1994V42.175C44.6101 45.9692 41.5343 49.045 37.7401 49.045H10.2601C6.46594 49.045 3.39014 45.9692 3.39014 42.175V7.82502Z"
        fill="#29A349" />
    <path
        d="M44.4743 15.84H35.4501C32.2883 15.84 29.7251 13.2768 29.7251 10.115V1.18878C30.8323 1.48528 31.8573 2.05674 32.699 2.86252L42.491 12.2369C43.5123 13.2146 44.1988 14.4751 44.4743 15.84Z"
        fill="#44D273" />
    <path
        d="M44.6098 17.5575H35.4498C31.3394 17.5575 28.0073 14.2254 28.0073 10.115V0.955261C28.592 0.960314 29.1688 1.03987 29.7248 1.18877V10.115C29.7248 13.2768 32.288 15.84 35.4498 15.84H44.474C44.5637 16.2841 44.6098 16.7393 44.6098 17.1993V17.5575Z"
        fill="#008216" />
    <path
        d="M31 26.2105C31 25.8472 30.7055 25.5526 30.3421 25.5526H20.8684V22.6579C20.8684 22.2945 20.5739 22 20.2105 22C19.8472 22 19.5526 22.2945 19.5526 22.6579V25.5526H16.6579C16.2945 25.5526 16 25.8472 16 26.2105C16 26.5739 16.2945 26.8684 16.6579 26.8684H19.5526V36.3421C19.5526 36.7055 19.8472 37 20.2105 37C20.5739 37 20.8684 36.7055 20.8684 36.3421V26.8684H30.3421C30.7055 26.8684 31 26.5739 31 26.2105Z"
        fill="white" />
</svg>