<svg width="24" height="24" viewBox="0 0 16 16" fill="none" xmlns="http://www.w3.org/2000/svg">
<path fill-rule="evenodd" clip-rule="evenodd" d="M2.36069 1.65373C2.16946 1.45453 1.85294 1.44807 1.65373 1.63931C1.45453 1.83054 1.44807 2.14706 1.63931 2.34627L13.6393 14.8463C13.8305 15.0455 14.1471 15.0519 14.3463 14.8607C14.5455 14.6695 14.5519 14.3529 14.3607 14.1537L13.3887 13.1412C13.7695 12.7025 14 12.1298 14 11.5032C14 10.1225 12.8807 9.00324 11.5 9.00324C10.9101 9.00324 10.3679 9.20754 9.94039 9.54925L8.93622 8.50324H14.5C14.7761 8.50324 15 8.27938 15 8.00324C15 7.72709 14.7761 7.50324 14.5 7.50324H13.401L12.4115 3.51893C12.1139 2.32048 10.812 1.67543 9.67818 2.16459L8.5942 2.63225C8.21496 2.79587 7.78504 2.79587 7.4058 2.63225L6.32182 2.16459C5.32994 1.73667 4.20949 2.17674 3.74522 3.09595L2.36069 1.65373ZM4.52278 3.90591L7.93774 7.46316H12.3606L11.441 3.75996C11.2922 3.16073 10.6412 2.8382 10.0743 3.08279L8.99034 3.55045C8.35827 3.82314 7.64173 3.82314 7.00966 3.55045L5.92568 3.08279C5.35877 2.8382 4.70784 3.16073 4.55903 3.75996L4.52278 3.90591ZM10.6378 10.2757L12.6913 12.4148C12.8849 12.1622 13 11.8461 13 11.5032C13 10.6748 12.3284 10.0032 11.5 10.0032C11.1791 10.0032 10.8817 10.104 10.6378 10.2757Z" fill="black"/>
<path d="M6.24344 8.50324L5.24497 7.46316H3.63936L3.96935 6.13439L3.15074 5.28167L2.59903 7.50324H1.5C1.22386 7.50324 1 7.72709 1 8.00324C1 8.27938 1.22386 8.50324 1.5 8.50324H6.24344Z" fill="black"/>
<path fill-rule="evenodd" clip-rule="evenodd" d="M8.17873 10.5192L7.31797 9.62254C7.03357 9.7257 6.77922 9.89153 6.57161 10.1033C6.12216 9.43953 5.36203 9.00324 4.5 9.00324C3.11929 9.00324 2 10.1225 2 11.5032C2 12.8839 3.11929 14.0032 4.5 14.0032C5.88071 14.0032 7 12.8839 7 11.5032C7 10.951 7.44772 10.5032 8 10.5032C8.06101 10.5032 8.12074 10.5087 8.17873 10.5192ZM6 11.5032C6 12.3317 5.32843 13.0032 4.5 13.0032C3.67157 13.0032 3 12.3317 3 11.5032C3 10.6748 3.67157 10.0032 4.5 10.0032C5.32843 10.0032 6 10.6748 6 11.5032Z" fill="black"/>
<path d="M8.99049 11.3647C8.99676 11.41 9 11.4562 9 11.5032C9 12.8839 10.1193 14.0032 11.5 14.0032L11.5233 14.0031L8.99049 11.3647Z" fill="black"/>
</svg>
