<svg width="28" height="28" viewBox="0 0 28 28" fill="none" xmlns="http://www.w3.org/2000/svg">
    <path d="M1.10352 16.7975C2.50889 17.3075 4.01848 17.6 5.6 17.6C8.79116 17.6 11.775 16 14 14"
        stroke="black" stroke-opacity="0.8" stroke-width="1.2" stroke-linecap="round"
        stroke-linejoin="round" />
    <path
        d="M24.6828 21.7475C24.126 20.36 23.3376 19.0398 22.2833 17.861C20.1558 15.4824 16.974 14.3251 14 14"
        stroke="black" stroke-opacity="0.8" stroke-width="1.2" stroke-linecap="round"
        stroke-linejoin="round" />
    <path
        d="M13.7861 0.804688C13.0104 2.08275 12.4275 3.50566 12.1174 5.05647C11.4915 8.18566 12.4753 11.4253 14.0001 13.9994"
        stroke="black" stroke-opacity="0.8" stroke-width="1.2" stroke-linecap="round"
        stroke-linejoin="round" />
    <path d="M20.3939 16.2217C18.1251 20.8245 14.6868 23.8837 4.89343 23.5541" stroke="black"
        stroke-opacity="0.8" stroke-width="1.2" stroke-linecap="round" stroke-linejoin="round" />
    <path d="M8.21343 17.2509C4.69999 13.0497 4.821 6.74525 6.13549 3.39746" stroke="black"
        stroke-opacity="0.8" stroke-width="1.2" stroke-linecap="round" stroke-linejoin="round" />
    <path d="M11.9409 7.59073C16.7998 6.48599 21.2719 7.30058 27.173 14.8526" stroke="black"
        stroke-opacity="0.8" stroke-width="1.2" stroke-linecap="round" stroke-linejoin="round" />
    <path
        d="M14 27.1998C21.2902 27.1998 27.2 21.29 27.2 13.9998C27.2 6.70965 21.2902 0.799805 14 0.799805C6.70989 0.799805 0.800049 6.70965 0.800049 13.9998C0.800049 21.29 6.70989 27.1998 14 27.1998Z"
        stroke="black" stroke-opacity="0.8" stroke-width="1.2" stroke-linecap="round"
        stroke-linejoin="round" />
</svg>