<svg width="20" height="20" viewBox="0 0 20 20" fill="none" xmlns="http://www.w3.org/2000/svg">
    <mask id="mask0_11653_25912" style="mask-type:alpha" maskUnits="userSpaceOnUse" x="0" y="2"
        width="12" height="16">
        <rect y="2" width="12" height="16" fill="#D9D9D9" />
    </mask>
    <g mask="url(#mask0_11653_25912)">
        <path fill-rule="evenodd" clip-rule="evenodd"
            d="M10.5 6.25C10.5 7.63071 9.38071 8.75 8 8.75C6.61929 8.75 5.5 7.63071 5.5 6.25C5.5 4.86929 6.61929 3.75 8 3.75C9.38071 3.75 10.5 4.86929 10.5 6.25ZM11.75 6.25C11.75 8.32107 10.0711 10 8 10C5.92893 10 4.25 8.32107 4.25 6.25C4.25 4.17893 5.92893 2.5 8 2.5C10.0711 2.5 11.75 4.17893 11.75 6.25ZM2.81936 13.7255C3.28158 12.974 4.12514 12.5 5.05098 12.5H10.949C11.8749 12.5 12.7184 12.974 13.1806 13.7255L14.1584 15.3152C14.3859 15.6852 14.1468 16.25 13.575 16.25H2.42505C1.8532 16.25 1.61405 15.6852 1.8416 15.3152L2.81936 13.7255ZM1.75464 13.0706C2.44937 11.9411 3.70067 11.25 5.05098 11.25H10.949C12.2993 11.25 13.5506 11.9411 14.2454 13.0706L15.2231 14.6603C15.9918 15.9101 15.069 17.5 13.575 17.5H2.42505C0.931027 17.5 0.00821024 15.9101 0.776879 14.6603L1.75464 13.0706Z"
            fill="#A779FF" />
    </g>
    <path
        d="M17.1667 12.7647L16.9721 12.3041C16.787 12.3823 16.6667 12.5637 16.6667 12.7647H17.1667ZM14.5 12.5987H15C15 12.4202 14.9049 12.2552 14.7504 12.1659L14.5 12.5987ZM14.5 17H14C14 17.1574 14.0741 17.3056 14.2 17.4L14.5 17ZM16.5 18.5L16.2 18.9C16.3778 19.0333 16.6222 19.0333 16.8 18.9L16.5 18.5ZM18.5 17L18.8 17.4C18.9259 17.3056 19 17.1574 19 17C19 16.8426 18.9259 16.6944 18.8 16.6L18.5 17ZM17.1667 16L16.8667 15.6C16.7408 15.6944 16.6667 15.8426 16.6667 16C16.6667 16.1574 16.7408 16.3056 16.8667 16.4L17.1667 16ZM18.5 15L18.8 15.4C18.9259 15.3056 19 15.1574 19 15C19 14.8426 18.9259 14.6944 18.8 14.6L18.5 15ZM17.1667 14H16.6667C16.6667 14.1574 16.7408 14.3056 16.8667 14.4L17.1667 14ZM18.5 10C18.5 11.0351 17.8708 11.9244 16.9721 12.3041L17.3613 13.2253C18.6171 12.6947 19.5 11.451 19.5 10H18.5ZM16 7.5C17.3807 7.5 18.5 8.61929 18.5 10H19.5C19.5 8.067 17.933 6.5 16 6.5V7.5ZM13.5 10C13.5 8.61929 14.6193 7.5 16 7.5V6.5C14.067 6.5 12.5 8.067 12.5 10H13.5ZM14.7504 12.1659C14.0018 11.7328 13.5 10.9247 13.5 10H12.5C12.5 11.2961 13.2048 12.427 14.2496 13.0315L14.7504 12.1659ZM15 13.5V12.5987H14V13.5H15ZM15 17V13.5H14V17H15ZM16.8 18.1L14.8 16.6L14.2 17.4L16.2 18.9L16.8 18.1ZM18.2 16.6L16.2 18.1L16.8 18.9L18.8 17.4L18.2 16.6ZM16.8667 16.4L18.2 17.4L18.8 16.6L17.4667 15.6L16.8667 16.4ZM18.2 14.6L16.8667 15.6L17.4667 16.4L18.8 15.4L18.2 14.6ZM16.8667 14.4L18.2 15.4L18.8 14.6L17.4667 13.6L16.8667 14.4ZM16.6667 12.7647V14H17.6667V12.7647H16.6667Z"
        fill="#A779FF" />
    <circle cx="16" cy="9.5" r="0.5" stroke="#A779FF" stroke-linejoin="round" />
</svg>