<svg width="32" height="32" viewBox="0 0 32 32" fill="none" xmlns="http://www.w3.org/2000/svg">
    <g clip-path="url(#clip0_2755_11833)">
        <path d="M32.0001 0H0.00012207V32H32.0001V0Z" fill="white" />
        <g filter="url(#filter0_i_2755_11833)">
            <path d="M14.0506 6.98857C15.1187 5.92048 16.8503 5.92048 17.9184 6.98857L24.9803 14.0505C26.0484 15.1185 26.0484 16.8502 24.9803 17.9183L17.9184 24.9802C16.8503 26.0483 15.1187 26.0483 14.0506 24.9802L6.98869 17.9183C5.9206 16.8502 5.9206 15.1185 6.98869 14.0505L14.0506 6.98857Z" fill="url(#paint0_linear_2755_11833)" />
        </g>
        <g filter="url(#filter1_i_2755_11833)">
            <path d="M12.5973 8.45687C13.3093 7.74484 14.4638 7.74484 15.1758 8.45687L21.3516 14.6327C22.0637 15.3448 22.0637 16.4992 21.3516 17.2112L15.1064 23.4564C14.3944 24.1684 13.2399 24.1684 12.5279 23.4564L6.98525 17.9138C5.92354 16.852 5.92354 15.1306 6.98525 14.0689L12.5973 8.45687Z" fill="url(#paint1_radial_2755_11833)" />
        </g>
    </g>
    <defs>
        <filter id="filter0_i_2755_11833" x="6.18762" y="6.1875" width="19.5938" height="19.5938" filterUnits="userSpaceOnUse" color-interpolation-filters="sRGB">
            <feFlood flood-opacity="0" result="BackgroundImageFix" />
            <feBlend mode="normal" in="SourceGraphic" in2="BackgroundImageFix" result="shape" />
            <feColorMatrix in="SourceAlpha" type="matrix" values="0 0 0 0 0 0 0 0 0 0 0 0 0 0 0 0 0 0 127 0" result="hardAlpha" />
            <feOffset />
            <feGaussianBlur stdDeviation="0.53125" />
            <feComposite in2="hardAlpha" operator="arithmetic" k2="-1" k3="1" />
            <feColorMatrix type="matrix" values="0 0 0 0 0 0 0 0 0 0 0 0 0 0 0 0 0 0 0.25 0" />
            <feBlend mode="normal" in2="shape" result="effect1_innerShadow_2755_11833" />
        </filter>
        <filter id="filter1_i_2755_11833" x="6.18896" y="7.92285" width="15.6967" height="16.0674" filterUnits="userSpaceOnUse" color-interpolation-filters="sRGB">
            <feFlood flood-opacity="0" result="BackgroundImageFix" />
            <feBlend mode="normal" in="SourceGraphic" in2="BackgroundImageFix" result="shape" />
            <feColorMatrix in="SourceAlpha" type="matrix" values="0 0 0 0 0 0 0 0 0 0 0 0 0 0 0 0 0 0 127 0" result="hardAlpha" />
            <feOffset />
            <feGaussianBlur stdDeviation="1.21875" />
            <feComposite in2="hardAlpha" operator="arithmetic" k2="-1" k3="1" />
            <feColorMatrix type="matrix" values="0 0 0 0 0 0 0 0 0 0 0 0 0 0 0 0 0 0 0.25 0" />
            <feBlend mode="normal" in2="shape" result="effect1_innerShadow_2755_11833" />
        </filter>
        <linearGradient id="paint0_linear_2755_11833" x1="53.8483" y1="49.1869" x2="43.357" y2="-14.6363" gradientUnits="userSpaceOnUse">
            <stop offset="0.271019" stop-color="#E2DBFF" />
            <stop offset="1" stop-color="#6D4AFF" />
        </linearGradient>
        <radialGradient id="paint1_radial_2755_11833" cx="0" cy="0" r="1" gradientUnits="userSpaceOnUse" gradientTransform="translate(4.94747 16.3125) rotate(-1.60328) scale(12.2861 15.6518)">
            <stop offset="0.106945" stop-color="#FF8686" />
            <stop offset="0.988738" stop-color="#6D4AFF" />
        </radialGradient>
        <clipPath id="clip0_2755_11833">
            <rect x="0.00012207" width="32" height="32" rx="8" fill="white" />
        </clipPath>
    </defs>
</svg>
    