<svg width="24" height="24" viewBox="0 0 24 24" fill="none" xmlns="http://www.w3.org/2000/svg">
<g clip-path="url(#clip0_6196_66045)">
<path d="M11.9998 12L21.5188 6.49998C20.3088 4.40207 18.4402 2.76214 16.203 1.83463C13.9657 0.907112 11.4849 0.743859 9.14546 1.37019C6.80598 1.99653 4.73859 3.37744 3.26405 5.29868C1.78951 7.21993 0.990234 9.5741 0.990234 11.996C0.990234 14.4178 1.78951 16.772 3.26405 18.6933C4.73859 20.6145 6.80598 21.9954 9.14546 22.6218C11.4849 23.2481 13.9657 23.0848 16.203 22.1573C18.4402 21.2298 20.3088 19.5899 21.5188 17.492L11.9998 12Z" stroke="black" stroke-width="2" stroke-linecap="round" stroke-linejoin="round"/>
<path d="M22 14C23.1046 14 24 13.1046 24 12C24 10.8954 23.1046 10 22 10C20.8954 10 20 10.8954 20 12C20 13.1046 20.8954 14 22 14Z" fill="black"/>
<path d="M12.5 8C13.3284 8 14 7.32843 14 6.5C14 5.67157 13.3284 5 12.5 5C11.6716 5 11 5.67157 11 6.5C11 7.32843 11.6716 8 12.5 8Z" fill="black"/>
</g>
<defs>
<clipPath id="clip0_6196_66045">
<rect width="24" height="24" fill="white"/>
</clipPath>
</defs>
</svg>
