<svg width="12" height="12" viewBox="0 0 12 12" fill="none" xmlns="http://www.w3.org/2000/svg">
<path d="M11.5 10.31C10.8041 9.71441 9.91595 9.39112 9 9.40003C8.41812 9.38738 7.84174 9.51499 7.31958 9.77207C6.79741 10.0291 6.3448 10.4081 6 10.877C5.6552 10.4081 5.20259 10.0291 4.68042 9.77207C4.15826 9.51499 3.58188 9.38738 3 9.40003C2.08469 9.38973 1.19662 9.71121 0.5 10.305V2.40003C1.19733 1.80802 2.08533 1.48833 3 1.50003C3.58184 1.48763 4.15813 1.61535 4.68025 1.87241C5.20238 2.12947 5.65502 2.50833 6 2.97703C6.34498 2.50833 6.79762 2.12947 7.31975 1.87241C7.84187 1.61535 8.41816 1.48763 9 1.50003C9.91467 1.48833 10.8027 1.80802 11.5 2.40003V10.31Z" stroke="black" stroke-linecap="round" stroke-linejoin="round"/>
</svg>
