<svg width="48" height="50" viewBox="0 0 48 50" fill="none" xmlns="http://www.w3.org/2000/svg">
    <path
        d="M3.39014 7.825C3.39014 4.03081 6.46594 0.955002 10.2601 0.955002H27.9482C29.7184 0.955002 31.4203 1.63833 32.6991 2.86251L42.491 12.2369C43.8446 13.5328 44.6101 15.3254 44.6101 17.1993V42.175C44.6101 45.9692 41.5343 49.045 37.7401 49.045H10.2601C6.46594 49.045 3.39014 45.9692 3.39014 42.175V7.825Z"
        fill="#EC3213" />
    <path
        d="M44.4743 15.84H35.4501C32.2883 15.84 29.7251 13.2768 29.7251 10.115V1.18877C30.8323 1.48526 31.8573 2.05672 32.699 2.86251L42.491 12.2369C43.5123 13.2146 44.1988 14.4751 44.4743 15.84Z"
        fill="#FF7733" />
    <path
        d="M44.6098 17.5575H35.4498C31.3394 17.5575 28.0073 14.2254 28.0073 10.115V0.955246C28.592 0.960299 29.1688 1.03985 29.7248 1.18876V10.115C29.7248 13.2768 32.288 15.84 35.4498 15.84H44.474C44.5637 16.2841 44.6098 16.7393 44.6098 17.1993V17.5575Z"
        fill="#C21000" />
    <path
        d="M23.8257 25.9259L25.4333 23.1406C25.5962 22.8583 25.6819 22.5382 25.6819 22.2123C25.6819 21.8864 25.5961 21.5663 25.4332 21.2841C25.2703 21.0019 25.036 20.7675 24.7538 20.6044C24.4717 20.4414 24.1516 20.3555 23.8257 20.3553C23.4998 20.3553 23.1796 20.4411 22.8973 20.6041C22.615 20.7671 22.3806 21.0015 22.2176 21.2837C22.0546 21.566 21.9687 21.8862 21.9687 22.2121C21.9686 22.5381 22.0543 22.8583 22.2172 23.1406L23.8257 25.9259ZM23.8257 25.9259L27.4335 32.9251M23.8257 25.9259L20.2494 32.9251M20.2494 32.9251H16.6698C16.4084 32.9251 16.1497 32.9765 15.9082 33.0765C15.6668 33.1765 15.4474 33.3231 15.2626 33.5079C15.0778 33.6927 14.9312 33.9121 14.8312 34.1536C14.7312 34.395 14.6797 34.6538 14.6797 34.9151C14.6797 36.9165 17.3027 37.665 18.3594 35.9659L20.2494 32.9251ZM20.2494 32.9251H27.4335M27.4335 32.9251H31.014C31.2752 32.9251 31.5337 32.9766 31.7749 33.0766C32.0161 33.1767 32.2352 33.3233 32.4197 33.5082C32.6041 33.693 32.7503 33.9125 32.8499 34.1539C32.9494 34.3953 33.0004 34.654 32.9998 34.9151C32.9998 36.9165 30.3777 37.665 29.3209 35.9659L27.4335 32.9251Z"
        stroke="white" stroke-width="1.58208" stroke-miterlimit="10" />
</svg>