<svg width="12" height="12" viewBox="0 0 12 12" fill="none" xmlns="http://www.w3.org/2000/svg">
<g clip-path="url(#clip0_6196_64193)">
<path d="M7.45625 8.46971L5.609 7.94471C5.53933 7.92487 5.47689 7.88527 5.42924 7.8307C5.38159 7.77613 5.35077 7.70892 5.3405 7.63721L5.18525 6.54446C5.57716 6.36535 5.9094 6.07746 6.14247 5.71503C6.37554 5.3526 6.49963 4.93086 6.5 4.49996V3.46946C6.5091 2.87279 6.28724 2.2957 5.88079 1.85879C5.47435 1.42187 4.91477 1.15895 4.319 1.12496C4.01777 1.11572 3.71775 1.16708 3.43676 1.27601C3.15576 1.38494 2.89951 1.54921 2.68321 1.75907C2.46692 1.96893 2.29499 2.2201 2.17762 2.49768C2.06026 2.77526 1.99986 3.07359 2 3.37496V4.49996C2.00037 4.93086 2.12446 5.3526 2.35753 5.71503C2.5906 6.07746 2.92284 6.36535 3.31475 6.54446L3.1595 7.63421C3.14923 7.70592 3.11841 7.77313 3.07076 7.8277C3.02311 7.88227 2.96067 7.92187 2.891 7.94171L1.04375 8.46671C0.887142 8.5115 0.749374 8.60607 0.651273 8.7361C0.553173 8.86613 0.500072 9.02457 0.5 9.18746V11.5H8V9.19046C7.99993 9.02757 7.94683 8.86913 7.84873 8.7391C7.75063 8.60907 7.61286 8.5145 7.45625 8.46971Z" stroke="black" stroke-linecap="round" stroke-linejoin="round"/>
<path d="M9.375 11.0011H11.4663L11.5 8.5C11.5 8.3328 11.5691 8.25723 11.4663 8.12542C11.3634 7.99361 11.2194 7.89996 11.0573 7.85933L8.8695 7.31258C8.79708 7.29451 8.7317 7.25523 8.68173 7.19978C8.63175 7.14433 8.59947 7.07523 8.589 7.00133L8.43525 5.92058C8.82716 5.74147 9.1594 5.45358 9.39247 5.09115C9.62554 4.72872 9.74963 4.30698 9.75 3.87608V2.84558C9.7591 2.24891 9.53724 1.67182 9.13079 1.2349C8.72435 0.797988 8.16477 0.535064 7.569 0.501078C7.15085 0.488131 6.73737 0.59202 6.375 0.801078" stroke="black" stroke-linecap="round" stroke-linejoin="round"/>
</g>
<defs>
<clipPath id="clip0_6196_64193">
<rect width="12" height="12" fill="white"/>
</clipPath>
</defs>
</svg>
