<svg width="48" height="50" viewBox="0 0 48 50" fill="none" xmlns="http://www.w3.org/2000/svg">
    <path
        d="M3.38989 7.82502C3.38989 4.03082 6.4657 0.955017 10.2599 0.955017H27.948C29.7182 0.955017 31.4201 1.63835 32.6988 2.86253L42.4907 12.2369C43.8444 13.5328 44.6099 15.3254 44.6099 17.1994V42.175C44.6099 45.9692 41.5341 49.045 37.7399 49.045H10.2599C6.4657 49.045 3.38989 45.9692 3.38989 42.175V7.82502Z"
        fill="#DADBE0" />
    <path
        d="M44.4743 15.84H35.4501C32.2883 15.84 29.7251 13.2768 29.7251 10.115V1.18878C30.8323 1.48528 31.8573 2.05674 32.699 2.86252L42.491 12.2369C43.5123 13.2146 44.1988 14.4751 44.4743 15.84Z"
        fill="#EBECF0" />
    <path
        d="M44.6101 17.5575H35.4501C31.3397 17.5575 28.0076 14.2254 28.0076 10.115V0.955261C28.5922 0.960314 29.169 1.03987 29.7251 1.18877V10.115C29.7251 13.2768 32.2882 15.84 35.4501 15.84H44.4743C44.5639 16.2841 44.6101 16.7393 44.6101 17.1993V17.5575Z"
        fill="#BABBC5" />
    <path
        d="M22.6588 29.12V32.624H25.1308V30.488C27.7708 29.624 29.8828 27.656 29.8828 25.088C29.8828 22.04 27.2668 20.144 23.9068 20.144C21.6748 20.144 19.8988 21.08 18.7468 22.304L19.1788 24.104C20.0668 23.456 21.2428 22.808 22.9228 22.808C25.1548 22.808 26.5468 23.984 26.5468 25.568C26.5468 27.392 25.1308 28.544 22.6588 29.12ZM21.7948 36.272C21.7948 37.424 22.7068 38.384 23.8828 38.384C25.0108 38.384 25.9468 37.424 25.9468 36.272C25.9468 35.096 25.0108 34.184 23.8828 34.184C22.7068 34.184 21.7948 35.096 21.7948 36.272Z"
        fill="#3A3F4A" />
</svg>