<svg width="20" height="20" viewBox="0 0 20 20" fill="none" xmlns="http://www.w3.org/2000/svg">
    <path fill-rule="evenodd" clip-rule="evenodd"
        d="M15.3935 6.05146L17.188 7.9177L18.524 6.53418C18.54 6.51762 18.54 6.49293 18.524 6.47637L16.7886 4.67925C16.7827 4.67314 16.7779 4.67029 16.7735 4.66845C16.7683 4.66627 16.7615 4.66468 16.7536 4.66468C16.7457 4.66468 16.7389 4.66627 16.7337 4.66845C16.7293 4.67029 16.7245 4.67314 16.7186 4.67925L15.3935 6.05146ZM14.5573 6.91743L6.39337 15.372C6.21105 15.5608 6.08907 15.8019 6.04276 16.0629L5.69921 18.0002L7.53381 17.6079C7.77844 17.5556 8.00226 17.4304 8.1779 17.2485L16.3518 8.78368L14.5573 6.91743ZM17.6213 3.8096C17.1421 3.31334 16.3651 3.31334 15.8859 3.8096L5.5607 14.5023C5.20878 14.8668 4.97217 15.3334 4.88227 15.8403L4.38551 18.6414C4.30688 19.0848 4.68671 19.4696 5.11302 19.3785L7.77146 18.81C8.24087 18.7097 8.67163 18.4691 9.01056 18.1181L19.3566 7.40384C19.8358 6.90758 19.8358 6.10298 19.3566 5.60672L17.6213 3.8096Z"
        fill="black" />
    <path
        d="M9.08789 0.670113L8.58534 1.84272C8.49051 2.06399 8.31421 2.2403 8.09294 2.33512L6.92033 2.83767C6.6678 2.9459 6.6678 3.30391 6.92033 3.41214L8.09294 3.91468C8.31421 4.00951 8.49051 4.18582 8.58534 4.40708L9.08789 5.57969C9.19612 5.83223 9.55412 5.83223 9.66235 5.57969L10.1649 4.40708C10.2597 4.18582 10.436 4.00951 10.6573 3.91468L11.8299 3.41214C12.0824 3.30391 12.0824 2.9459 11.8299 2.83767L10.6573 2.33512C10.436 2.2403 10.2597 2.06399 10.1649 1.84272L9.66235 0.670113C9.55412 0.417579 9.19612 0.41758 9.08789 0.670113Z"
        fill="black" />
    <path
        d="M4.08497 4.47528L3.32408 6.3775C3.19703 6.69513 2.94535 6.94681 2.62772 7.07386L0.725493 7.83475C0.463573 7.93952 0.463572 8.31028 0.725493 8.41505L2.62772 9.17594C2.94535 9.30299 3.19703 9.55467 3.32408 9.8723L4.08497 11.7745C4.18974 12.0365 4.5605 12.0365 4.66527 11.7745L5.42616 9.8723C5.55321 9.55467 5.80489 9.30299 6.12252 9.17594L8.02475 8.41505C8.28667 8.31028 8.28667 7.93952 8.02475 7.83475L6.12252 7.07386C5.80489 6.94681 5.55321 6.69513 5.42616 6.3775L4.66527 4.47528C4.5605 4.21336 4.18974 4.21336 4.08497 4.47528Z"
        fill="black" />
</svg>