<svg width="17" height="16" viewBox="0 0 17 16" fill="none" xmlns="http://www.w3.org/2000/svg">
  <path
    d="M11.5 6.5C11.5 6.22386 11.7239 6 12 6C12.2761 6 12.5 6.22386 12.5 6.5V14.5C12.5 14.7761 12.2761 15 12 15C11.7239 15 11.5 14.7761 11.5 14.5V6.5Z"
    fill="black" />
  <path
    d="M7.5 10.5C7.5 10.2239 7.72386 10 8 10H16C16.2761 10 16.5 10.2239 16.5 10.5C16.5 10.7761 16.2761 11 16 11H8C7.72386 11 7.5 10.7761 7.5 10.5Z"
    fill="black" />
  <path fill-rule="evenodd" clip-rule="evenodd"
    d="M1 2C0.723858 2 0.5 2.22386 0.5 2.5C0.5 2.77614 0.723858 3 1 3L12 3C12.2761 3 12.5 2.77614 12.5 2.5C12.5 2.22386 12.2761 2 12 2H1ZM1 6C0.723858 6 0.5 6.22386 0.5 6.5C0.5 6.77614 0.723858 7 1 7L9.5 7V6.5C9.5 6.32877 9.51721 6.16156 9.55001 6L1 6ZM5.55001 10C5.51722 10.1616 5.5 10.3288 5.5 10.5C5.5 10.6712 5.51722 10.8384 5.55001 11H1C0.723858 11 0.5 10.7761 0.5 10.5C0.5 10.2239 0.723858 10 1 10H5.55001Z"
    fill="black" />
</svg>