<svg width="257" height="147" viewBox="0 0 257 147" fill="none" xmlns="http://www.w3.org/2000/svg">
<g filter="url(#filter0_d_17981_3157)">
<path fill-rule="evenodd" clip-rule="evenodd" d="M139.676 26.6973C139.82 29.0217 138.315 31.2032 135.979 31.8293C133.642 32.4554 131.248 31.3183 130.21 29.2337L125.284 30.5537L127.122 37.4117C129.446 37.2685 131.627 38.7729 132.253 41.1094C132.88 43.446 131.743 45.8395 129.658 46.8777L131.263 52.8665C133.587 52.7233 135.769 54.2277 136.395 56.5642C137.021 58.9008 135.884 61.2944 133.799 62.3325L135.404 68.3213C137.728 68.1781 139.91 69.6825 140.536 72.019C141.162 74.3556 140.025 76.7492 137.94 77.7873L139.545 83.7761C141.869 83.6329 144.051 85.1373 144.677 87.4739C145.303 89.8104 144.166 92.204 142.081 93.2422L143.686 99.2309C146.01 99.0877 148.192 100.592 148.818 102.929C149.444 105.265 148.307 107.659 146.222 108.697L147.827 114.686C150.151 114.543 152.333 116.047 152.959 118.383C153.585 120.72 152.448 123.114 150.364 124.152L151.968 130.141C154.293 129.997 156.474 131.502 157.1 133.838C157.726 136.175 156.589 138.568 154.505 139.607L156.342 146.465L161.269 145.145C161.125 142.82 162.63 140.639 164.966 140.013C167.303 139.387 169.696 140.524 170.735 142.608L176.723 141.004C176.58 138.679 178.085 136.498 180.421 135.872C182.758 135.246 185.151 136.383 186.189 138.467L192.178 136.863C192.035 134.538 193.539 132.357 195.876 131.731C198.212 131.104 200.606 132.242 201.644 134.326L207.633 132.722C207.49 130.397 208.994 128.216 211.331 127.589C213.667 126.963 216.061 128.1 217.099 130.185L223.088 128.58C222.945 126.256 224.449 124.074 226.786 123.448C229.122 122.822 231.516 123.959 232.554 126.044L238.543 124.439C238.399 122.115 239.904 119.933 242.24 119.307C244.577 118.681 246.971 119.818 248.009 121.903L252.935 120.583L251.097 113.725C248.773 113.868 246.591 112.364 245.965 110.027C245.339 107.691 246.476 105.297 248.561 104.259L246.956 98.27C244.632 98.4132 242.45 96.9088 241.824 94.5723C241.198 92.2357 242.335 89.8421 244.42 88.8039L242.815 82.8152C240.491 82.9584 238.309 81.454 237.683 79.1174C237.057 76.7809 238.194 74.3873 240.279 73.3491L238.674 67.3604C236.35 67.5036 234.168 65.9992 233.542 63.6626C232.916 61.3261 234.053 58.9325 236.137 57.8943L234.533 51.9056C232.208 52.0488 230.027 50.5444 229.401 48.2078C228.775 45.8713 229.912 43.4777 231.996 42.4395L230.392 36.4507C228.067 36.594 225.886 35.0896 225.26 32.753C224.634 30.4165 225.771 28.0229 227.855 26.9847L226.251 20.9959C223.926 21.1392 221.745 19.6347 221.119 17.2982C220.493 14.9616 221.63 12.568 223.714 11.5299L221.877 4.67181L216.95 5.99178C217.094 8.31618 215.589 10.4977 213.253 11.1237C210.916 11.7498 208.522 10.6128 207.484 8.52821L201.496 10.1329C201.639 12.4573 200.134 14.6388 197.798 15.2649C195.461 15.8909 193.068 14.7539 192.029 12.6693L186.041 14.274C186.184 16.5984 184.68 18.7799 182.343 19.406C180.006 20.032 177.613 18.895 176.575 16.8104L170.586 18.4151C170.729 20.7395 169.225 22.921 166.888 23.5471C164.552 24.1731 162.158 23.0361 161.12 20.9515L155.131 22.5562C155.274 24.8806 153.77 27.0621 151.433 27.6882C149.097 28.3142 146.703 27.1772 145.665 25.0926L139.676 26.6973Z" fill="white"/>
</g>
<g clip-path="url(#clip0_17981_3157)">
<rect width="80" height="100" transform="translate(137.531 37.6248)" fill="#E86500"/>
<rect width="80" height="100" transform="translate(137.531 37.6248)" fill="url(#paint0_linear_17981_3157)" fill-opacity="0.2" style="mix-blend-mode:overlay"/>
<path fill-rule="evenodd" clip-rule="evenodd" d="M221.676 -10.5003C230.756 -17.6812 244.111 -14.9987 249.714 -4.86822L268.342 28.811L278.294 26.1442C280.795 25.4742 283.365 26.9582 284.035 29.4588C284.705 31.9594 283.221 34.5297 280.72 35.1998L162.998 66.7434C160.498 67.4134 157.927 65.9294 157.257 63.4288C156.587 60.9282 158.071 58.3578 160.572 57.6878L170.524 55.0211L169.817 16.5401C169.604 4.96533 179.828 -4.03488 191.282 -2.35636L202.233 -0.751638C206.064 -0.190211 209.957 -1.23339 212.995 -3.63521L221.676 -10.5003ZM241.51 -0.330728C238.708 -5.39596 232.031 -6.73721 227.491 -3.14678L218.81 3.71834C213.748 7.72138 207.259 9.46001 200.874 8.5243L189.923 6.91958C184.196 6.08031 179.084 10.5804 179.19 16.3678L179.848 52.1339L258.824 30.9723L241.51 -0.330728Z" fill="#FFCA8A"/>
<path fill-rule="evenodd" clip-rule="evenodd" d="M212.807 68.9273C207.126 64.0067 199.184 61.9002 191.378 63.9919C178.875 67.3421 171.455 80.1937 174.805 92.6968C178.155 105.2 191.007 112.62 203.51 109.27C216.013 105.919 223.433 93.0678 220.083 80.5647C218.743 75.5634 221.711 70.4228 226.712 69.0827C231.713 67.7426 236.854 70.7106 238.194 75.7118C241.544 88.2149 254.396 95.6348 266.899 92.2846C279.402 88.9344 286.822 76.0828 283.472 63.5797C280.122 51.0766 267.27 43.6567 254.767 47.0069C246.961 49.0985 241.136 54.8938 238.677 61.9956C234.491 59.5227 229.353 58.6695 224.286 60.0271C219.219 61.3848 215.195 64.693 212.807 68.9273ZM211.027 82.9911C213.038 90.493 208.586 98.204 201.084 100.214C193.582 102.224 185.871 97.7723 183.861 90.2704C181.851 82.7685 186.303 75.0575 193.804 73.0474C201.306 71.0373 209.017 75.4892 211.027 82.9911ZM247.25 73.2854C249.26 80.7873 256.971 85.2392 264.473 83.2291C271.975 81.219 276.426 73.508 274.416 66.0061C272.406 58.5042 264.695 54.0523 257.193 56.0624C249.692 58.0725 245.24 65.7835 247.25 73.2854Z" fill="#FFCA8A"/>
<path d="M175.546 124.535C172.828 125.263 170.113 125.147 167.763 124.244L166.795 120.631C169.431 121.458 171.714 121.537 174.111 120.894C177.473 119.994 179.399 117.599 178.623 114.702C177.895 111.984 175.415 110.885 171.731 111.872C169.585 112.447 167.736 113.556 166.406 114.602L164.277 99.6468L178.298 95.89L179.342 99.7885L168.433 102.712L169.376 109.091L169.483 109.062C170.31 108.572 171.212 108.216 172.32 107.919C176.827 106.711 181.659 108.291 182.991 113.263C184.362 118.378 181.161 123.03 175.546 124.535Z" fill="white"/>
<path d="M193.729 119.76C189.725 120.833 185.987 117.885 184.525 112.432C183.064 106.979 184.828 102.558 188.832 101.485C192.86 100.405 196.574 103.359 198.035 108.812C199.497 114.265 197.757 118.681 193.729 119.76ZM188.063 111.485C189.142 115.513 190.864 117.421 192.952 116.861C195.04 116.302 195.602 113.782 194.523 109.754C193.443 105.725 191.697 103.824 189.609 104.383C187.521 104.943 186.983 107.456 188.063 111.485Z" fill="white"/>
</g>
<path d="M141.327 138.972L141.813 139.523L142.584 138.843C143.043 138.438 143.274 138.158 143.344 137.781L143.375 137.754L144.422 138.941L144.391 138.968C144.03 139.015 143.723 139.209 143.276 139.603L140.749 141.832C140.308 142.221 140.07 142.507 139.985 142.854L139.954 142.881L138.616 141.363C137.731 140.36 137.588 139.223 138.451 138.462C139.308 137.707 140.442 137.969 141.327 138.972ZM141.311 139.966L140.906 139.507C140.356 138.882 139.74 138.751 139.158 139.264C138.571 139.782 138.648 140.388 139.199 141.013L139.603 141.472L141.311 139.966Z" fill="#5B3BE1"/>
<path d="M141.339 135.422C140.975 135.418 140.658 135.56 140.127 135.912L137.346 137.756C136.856 138.081 136.573 138.318 136.443 138.669L136.409 138.691L135.214 136.889C134.483 135.787 134.545 134.758 135.347 134.225C135.952 133.824 136.706 133.941 137.365 134.552L138.469 131.049L138.483 131.04L139.195 132.114L138.085 135.416L138.373 135.851L139.564 135.062C140.094 134.71 140.353 134.48 140.487 134.136L140.521 134.114L141.373 135.399L141.339 135.422ZM137.823 136.216L137.426 135.618C136.988 134.958 136.441 134.783 135.945 135.112C135.428 135.455 135.429 136.002 135.857 136.648L136.258 137.254L137.823 136.216Z" fill="#5B3BE1"/>
<path d="M137.264 128.035C137.994 129.639 137.349 131.314 135.707 132.061C134.066 132.808 132.375 132.206 131.642 130.595C130.908 128.983 131.564 127.313 133.205 126.565C134.847 125.818 136.53 126.424 137.264 128.035ZM135.241 131.036C136.533 130.448 137.094 129.395 136.61 128.333C136.127 127.271 134.961 126.995 133.669 127.583C132.369 128.175 131.797 129.242 132.28 130.304C132.764 131.366 133.941 131.628 135.241 131.036Z" fill="#5B3BE1"/>
<path d="M135.548 123.856C135.19 123.703 134.845 123.742 134.241 123.914L130.426 124.999L130.589 125.572C130.795 126.294 131.053 126.636 131.389 126.744L131.4 126.783L130.317 127.092L128.951 122.288L130.034 121.98L130.047 122.027C129.821 122.304 129.774 122.707 129.982 123.437L130.145 124.01L133.959 122.925C134.564 122.753 134.878 122.604 135.101 122.286L135.14 122.275L135.587 123.845L135.548 123.856Z" fill="#5B3BE1"/>
<path d="M134.352 117.341C134.579 119.088 133.47 120.5 131.682 120.732C129.893 120.964 128.454 119.892 128.226 118.136C127.998 116.38 129.116 114.976 130.904 114.744C132.692 114.511 134.124 115.585 134.352 117.341ZM131.537 119.615C132.945 119.432 133.79 118.59 133.639 117.433C133.489 116.276 132.456 115.669 131.048 115.852C129.632 116.036 128.772 116.888 128.922 118.046C129.072 119.203 130.12 119.799 131.537 119.615Z" fill="#5B3BE1"/>
<path d="M133.889 114.149C133.61 113.927 133.22 113.866 132.608 113.847L128.335 113.71L128.002 113.912L127.977 113.911L128.025 112.402L132.631 109.814L132.632 109.773L129.427 109.671C128.823 109.652 128.438 109.689 128.146 109.892L128.105 109.89L128.147 108.586L128.188 108.587C128.467 108.808 128.848 108.869 129.452 108.888L134.092 109.036L134.058 110.129L129.152 112.912L129.151 112.953L132.633 113.064C133.245 113.083 133.638 113.055 133.93 112.852L133.971 112.853L133.93 114.15L133.889 114.149Z" fill="#5B3BE1"/>
<path d="M134.5 107.58C134.448 107.935 134.108 108.175 133.753 108.123C133.398 108.072 133.156 107.748 133.208 107.393C133.259 107.037 133.583 106.796 133.938 106.847C134.293 106.899 134.551 107.225 134.5 107.58ZM130.87 107.705C130.515 107.653 130.273 107.33 130.325 106.974C130.376 106.619 130.7 106.377 131.055 106.429C131.411 106.48 131.668 106.806 131.617 107.162C131.565 107.517 131.225 107.756 130.87 107.705Z" fill="#5B3BE1"/>
<path d="M133.451 101.108L133.238 101.811L134.222 102.109C134.808 102.287 135.168 102.336 135.526 102.197L135.565 102.209L135.105 103.724L135.066 103.712C134.836 103.429 134.509 103.271 133.939 103.098L130.714 102.12C130.152 101.95 129.784 101.898 129.444 102.008L129.405 101.996L129.992 100.059C130.38 98.7785 131.272 98.0597 132.373 98.3935C133.466 98.7249 133.84 99.8273 133.451 101.108ZM132.598 101.617L132.775 101.031C133.017 100.234 132.804 99.6414 132.063 99.4165C131.313 99.1892 130.838 99.5739 130.597 100.37L130.419 100.956L132.598 101.617Z" fill="#5B3BE1"/>
<path d="M136.489 99.2263C136.3 98.9144 136.013 98.7187 135.435 98.4516L132.406 97.051C131.873 96.8045 131.522 96.6874 131.156 96.7607L131.119 96.7435L132.026 94.7808C132.581 93.5809 133.49 93.0931 134.364 93.4972C135.023 93.8019 135.318 94.5049 135.145 95.3864L138.706 94.4889L138.721 94.4957L138.18 95.666L134.787 96.4525L134.567 96.9265L135.864 97.5258C136.441 97.7929 136.773 97.8923 137.136 97.8264L137.173 97.8435L136.526 99.2434L136.489 99.2263ZM133.967 96.6491L134.269 95.9973C134.601 95.2789 134.463 94.7209 133.923 94.4709C133.36 94.2106 132.894 94.4987 132.569 95.2023L132.264 95.8615L133.967 96.6491Z" fill="#5B3BE1"/>
<path d="M138.974 94.2128C138.822 93.8816 138.559 93.6545 138.029 93.332L135.172 91.5922C134.642 91.2697 134.319 91.1403 133.955 91.1575L133.921 91.1363L134.727 89.812L134.762 89.8332C134.914 90.1645 135.177 90.3915 135.706 90.714L138.564 92.4538C139.094 92.7764 139.416 92.9058 139.78 92.8886L139.815 92.9098L139.009 94.234L138.974 94.2128Z" fill="#5B3BE1"/>
<path d="M142.162 89.6382L141.603 90.3609L136.899 88.8664C136.353 88.6916 135.924 88.566 135.501 88.5792L135.469 88.5542L136.458 87.2765L136.49 87.3015C136.633 87.6496 137.03 87.8434 137.6 88.0267L140.951 89.1237L140.976 89.0914L139.104 86.0435C138.773 85.4982 138.531 85.1975 138.183 85.1139L138.151 85.0889L138.96 84.0435L138.992 84.0685C139.073 84.5235 139.283 84.8922 139.608 85.4325L142.162 89.6382Z" fill="#5B3BE1"/>
<path d="M143.563 87.7988C143.578 87.3663 143.391 86.9698 143.166 86.4283L141.261 81.811L141.892 81.2069L146.425 83.2485C147.019 83.5152 147.391 83.702 147.811 83.7283L147.84 83.7577L146.667 84.8812L146.639 84.8518C146.56 84.5096 146.184 84.2592 145.664 84.0114L145.304 83.8479L143.578 85.5021L143.732 85.8632C143.968 86.4165 144.214 86.7681 144.559 86.8447L144.587 86.8741L143.592 87.8282L143.563 87.7988ZM143.292 84.8265L144.635 83.5393L142.355 82.4807L142.32 82.5146L143.292 84.8265Z" fill="#5B3BE1"/>
<path d="M150.542 82.0632C149.142 83.0522 147.311 82.9775 146.185 81.3849C145.046 79.7722 145.651 77.9559 147.003 76.9998C147.543 76.6184 148.112 76.4059 148.679 76.3452L149.319 77.2515L149.279 77.2798C148.644 77.0593 147.99 77.1518 147.47 77.5192C146.451 78.2397 146.232 79.5135 147.037 80.653C147.899 81.8725 149.19 81.9891 150.243 81.245C150.763 80.8777 151.087 80.3889 151.315 79.7782L151.746 80.1626C151.603 80.9635 151.215 81.5876 150.542 82.0632Z" fill="#5B3BE1"/>
<path d="M153.709 78.5326L153.235 77.5744L151.037 76.1309C150.502 75.7856 150.124 75.5541 149.668 75.4062L149.65 75.3696L151.171 74.617L151.186 74.6463C151.268 75.0152 151.595 75.2903 152.047 75.5951L153.455 76.5463L153.499 76.5246L153.63 74.8391C153.673 74.208 153.649 73.8101 153.442 73.5392L153.424 73.5026L154.675 72.8839L154.693 72.9205C154.501 73.416 154.43 73.8974 154.383 74.5212L154.16 77.1259L154.631 78.0767C154.913 78.6472 155.12 78.9181 155.433 79.1092L155.451 79.1458L154.061 79.8332L154.043 79.7966C154.096 79.4246 153.991 79.1031 153.709 78.5326Z" fill="#5B3BE1"/>
<path d="M159.924 77.2871C160.054 76.9418 160.014 76.5898 159.858 75.9813L159.031 72.7647C158.876 72.1641 158.742 71.8365 158.461 71.5969L158.451 71.5574L160.711 70.9763C162.047 70.633 162.879 71.051 163.09 71.8729C163.255 72.5131 162.91 73.1407 162.157 73.5198L162.167 73.5593C163.231 73.4375 163.903 73.8546 164.079 74.5421C164.303 75.4115 163.751 76.3453 162.368 76.7009L159.934 77.3266L159.924 77.2871ZM161.018 76.3654L161.887 76.142C162.741 75.9226 163.203 75.4584 163.022 74.755C162.841 74.0516 162.227 73.8894 161.341 74.117L160.496 74.3344L161.018 76.3654ZM160.331 73.6942L161.153 73.4829C161.872 73.2981 162.266 72.8937 162.099 72.2456C161.945 71.645 161.407 71.4883 160.688 71.6731L159.866 71.8844L160.331 73.6942Z" fill="#5B3BE1"/>
<path d="M167.028 74.5268L166.924 73.4629L165.38 71.3345C165.002 70.8221 164.73 70.4716 164.356 70.1719L164.352 70.1313L166.041 69.9663L166.045 69.9987C165.991 70.3729 166.2 70.7461 166.514 71.1909L167.494 72.5791L167.543 72.5744L168.262 71.0447C168.526 70.4696 168.644 70.089 168.547 69.7624L168.543 69.7218L169.932 69.5861L169.935 69.6267C169.581 70.0221 169.343 70.4471 169.079 71.014L167.948 73.371L168.052 74.4268C168.113 75.0602 168.211 75.3869 168.436 75.6764L168.44 75.717L166.897 75.8678L166.893 75.8272C167.074 75.498 167.09 75.1602 167.028 74.5268Z" fill="#5B3BE1"/>
<path d="M174.086 70.9875C174.156 70.3795 174.139 70.0325 173.97 69.7092L173.975 69.6687L176.196 69.924C178.166 70.1504 179.296 71.4712 179.091 73.2546C178.887 75.03 177.486 76.0682 175.516 75.8418L173.295 75.5865L173.299 75.546C173.561 75.2721 173.635 74.9111 173.708 74.2788L174.086 70.9875ZM174.651 75.0771L175.373 75.16C176.767 75.3203 177.795 74.7402 177.98 73.127C178.165 71.5138 177.295 70.7238 175.901 70.5636L175.179 70.4806L174.651 75.0771Z" fill="#5B3BE1"/>
<path d="M183.841 76.3801L183.523 77.5536L179.31 76.4128L179.32 76.3734C179.596 76.1353 179.743 75.8115 179.909 75.1972L180.779 71.9836C180.939 71.3928 180.976 71.0392 180.856 70.7024L180.866 70.663L184.962 71.7719L184.676 72.8273L184.637 72.8166C184.485 72.4713 184.192 72.2736 183.467 72.0774L181.932 71.6615L181.428 73.5204L182.61 73.8402C183.271 74.0194 183.567 73.9895 183.827 73.8401L183.882 73.8551L183.539 75.1232L183.484 75.1082C183.344 74.8423 183.084 74.6789 182.431 74.5019L181.249 74.182L180.733 76.0881L182.395 76.538C183.041 76.7129 183.447 76.7129 183.802 76.3694L183.841 76.3801Z" fill="#5B3BE1"/>
<path d="M184.265 77.8249C184.553 77.6617 184.696 77.4649 184.924 76.9146L186.339 73.4994C186.563 72.9566 186.604 72.7085 186.512 72.3968L186.528 72.3591L190.2 73.8796L189.781 74.8898L189.736 74.8711C189.667 74.5247 189.364 74.2756 188.671 73.9883L187.457 73.4857L186.689 75.3403L187.699 75.7586C188.325 76.0178 188.668 76.0629 188.914 75.9173L188.952 75.9329L188.449 77.1467L188.411 77.1311C188.337 76.862 188.063 76.6511 187.437 76.3919L186.427 75.9736L185.874 77.308C185.646 77.8583 185.601 78.0957 185.735 78.4337L185.719 78.4714L184.249 77.8626L184.265 77.8249Z" fill="#5B3BE1"/>
<path d="M187.834 79.269C188.254 79.1649 188.584 78.8757 189.043 78.5109L192.962 75.4148L193.716 75.8556L192.994 80.7746C192.901 81.4194 192.823 81.8275 192.913 82.2394L192.892 82.2746L191.49 81.4547L191.511 81.4195C191.818 81.2495 191.956 80.8198 192.052 80.2519L192.111 79.8608L190.047 78.6536L189.742 78.9006C189.274 79.2795 189.004 79.6128 189.025 79.9652L189.004 80.0004L187.814 79.3042L187.834 79.269ZM190.618 78.1938L192.224 79.1331L192.618 76.6502L192.576 76.6255L190.618 78.1938Z" fill="#5B3BE1"/>
<path d="M195.192 84.3445C193.995 83.3599 193.896 82.0535 194.933 80.7929L196.322 79.1036C196.715 78.6246 196.889 78.3236 196.923 77.9608L196.949 77.9293L198.147 78.9139L198.121 78.9455C197.771 79.0491 197.503 79.2724 197.109 79.7514L195.71 81.4533C195.052 82.2538 195.015 83.1212 195.803 83.769C196.553 84.3857 197.397 84.2453 198.086 83.407L199.48 81.7115C199.88 81.2261 200.057 80.9073 200.087 80.5623L200.113 80.5308L201.122 81.36L201.096 81.3915C200.763 81.4877 200.473 81.7247 200.079 82.2038L198.701 83.8804C197.675 85.1284 196.384 85.324 195.192 84.3445Z" fill="#5B3BE1"/>
<path d="M197.9 86.5632C198.214 86.5204 198.553 86.3228 199 85.9167L201.475 83.6666C201.904 83.2769 202.154 83.0058 202.248 82.6117L202.278 82.5842L203.321 83.7316L203.291 83.759C202.884 83.8089 202.596 84.0378 202.167 84.4274L199.244 87.0837L200.194 88.1284C200.655 88.6356 201.014 88.8607 201.541 88.7011L201.574 88.7373L200.614 89.6099L197.87 86.5906L197.9 86.5632Z" fill="#5B3BE1"/>
<path d="M201.757 91.1649C202.145 91.1923 202.459 91.0425 202.973 90.6822L206.222 88.4077L205.88 87.9197C205.45 87.3047 205.094 87.0661 204.741 87.0742L204.717 87.0407L205.64 86.3949L208.504 90.4858L207.581 91.1317L207.553 91.0916C207.677 90.756 207.589 90.3596 207.153 89.7379L206.812 89.2499L203.563 91.5244C203.048 91.8848 202.8 92.1281 202.693 92.5018L202.66 92.5252L201.724 91.1883L201.757 91.1649Z" fill="#5B3BE1"/>
<path d="M207.109 95.6936C211.024 103.805 212.071 113.004 210.078 121.788C208.086 130.571 203.171 138.418 196.139 144.046C189.107 149.673 180.373 152.747 171.366 152.766C162.36 152.785 153.613 149.746 146.558 144.148" stroke="#5B3BE1" stroke-width="1.02"/>
<path d="M141.807 150.14C136.928 146.269 132.859 141.474 129.833 136.03C126.807 130.586 124.882 124.599 124.17 118.411C123.457 112.224 123.971 105.956 125.68 99.967C127.39 93.9776 130.263 88.3837 134.134 83.5045C138.006 78.6253 142.801 74.5565 148.245 71.5303C153.689 68.5041 159.675 66.5799 165.863 65.8674C172.051 65.1549 178.318 65.6682 184.308 67.3779C190.297 69.0876 195.891 71.9602 200.77 75.8318C205.649 79.7034 209.718 84.4981 212.744 89.9421C215.771 95.3862 217.695 101.373 218.407 107.561C219.12 113.748 218.606 120.016 216.897 126.005C215.187 131.995 212.314 137.589 208.443 142.468C204.571 147.347 199.777 151.416 194.333 154.442C188.889 157.468 182.902 159.392 176.714 160.105C170.526 160.817 164.259 160.304 158.269 158.594C152.28 156.885 146.686 154.012 141.807 150.14L141.807 150.14Z" stroke="#5B3BE1" stroke-width="1.02"/>
<path opacity="0.4" d="M141.54 140.253L123.685 135.607C105.638 130.911 86.4362 135.388 72.3271 147.581V147.581C58.7166 159.343 40.3329 163.949 22.7844 159.995L-0.0614272 154.848" stroke="#5B3BE1"/>
<path opacity="0.4" d="M138.958 125.477L121.102 120.831C103.056 116.136 83.854 120.612 69.7448 132.805V132.805C56.1343 144.567 37.7506 149.173 20.2021 145.219L-2.64368 140.072" stroke="#5B3BE1"/>
<path opacity="0.4" d="M136.376 110.701L118.52 106.055C100.473 101.359 81.2717 105.836 67.1626 118.029V118.029C53.5521 129.791 35.1684 134.397 17.6199 130.443L-5.22594 125.296" stroke="#5B3BE1"/>
<path opacity="0.4" d="M133.793 95.9249L115.938 91.2789C97.8912 86.5833 78.6894 91.0601 64.5803 103.253V103.253C50.9698 115.015 32.5861 119.621 15.0376 115.667L-7.8082 110.52" stroke="#5B3BE1"/>
<path opacity="0.4" d="M131.211 81.1487L113.356 76.5028C95.3089 71.8072 76.1072 76.284 61.998 88.4767V88.4767C48.3876 100.238 30.0039 104.845 12.4554 100.891L-10.3905 95.7434" stroke="#5B3BE1"/>
<defs>
<filter id="filter0_d_17981_3157" x="121.284" y="0.671875" width="135.651" height="149.793" filterUnits="userSpaceOnUse" color-interpolation-filters="sRGB">
<feFlood flood-opacity="0" result="BackgroundImageFix"/>
<feColorMatrix in="SourceAlpha" type="matrix" values="0 0 0 0 0 0 0 0 0 0 0 0 0 0 0 0 0 0 127 0" result="hardAlpha"/>
<feOffset/>
<feGaussianBlur stdDeviation="2"/>
<feComposite in2="hardAlpha" operator="out"/>
<feColorMatrix type="matrix" values="0 0 0 0 0 0 0 0 0 0 0 0 0 0 0 0 0 0 0.25 0"/>
<feBlend mode="normal" in2="BackgroundImageFix" result="effect1_dropShadow_17981_3157"/>
<feBlend mode="normal" in="SourceGraphic" in2="effect1_dropShadow_17981_3157" result="shape"/>
</filter>
<linearGradient id="paint0_linear_17981_3157" x1="40" y1="0" x2="40" y2="100" gradientUnits="userSpaceOnUse">
<stop stop-color="white" stop-opacity="0"/>
<stop offset="1" stop-color="white"/>
</linearGradient>
<clipPath id="clip0_17981_3157">
<rect width="80" height="100" fill="white" transform="translate(137.531 37.6248)"/>
</clipPath>
</defs>
</svg>
