<svg width="101" height="100" viewBox="0 0 101 100" fill="none" xmlns="http://www.w3.org/2000/svg">
	<path d="M57.8316 67.9037C57.0694 67.1467 57.0694 65.9194 57.8316 65.1624L65.4221 57.6239C66.1843 56.8669 67.4201 56.8669 68.1823 57.6239L98.3562 87.591C101.215 90.4297 101.215 95.0322 98.3562 97.8709C95.4979 100.71 90.8638 100.71 88.0055 97.8709L57.8316 67.9037Z" fill="url(#paint0_linear_1765_25968)" />
	<path d="M51.6212 56.2533L56.4515 51.4561L64.0421 58.9946L59.2117 63.7918L51.6212 56.2533Z" fill="#807C75" />
	<path fill-rule="evenodd" clip-rule="evenodd" d="M57.1416 56.2534C70.0991 43.3847 70.0991 22.5203 57.1416 9.65156C44.184 -3.21719 23.1757 -3.21719 10.2182 9.65156C-2.73938 22.5203 -2.73938 43.3847 10.2182 56.2534C23.1757 69.1222 44.184 69.1222 57.1416 56.2534ZM53.6913 52.8268C64.7433 41.8505 64.7433 24.0545 53.6913 13.0782C42.6393 2.10188 24.7204 2.10188 13.6684 13.0782C2.61639 24.0545 2.61639 41.8505 13.6684 52.8268C24.7204 63.8031 42.6393 63.8031 53.6913 52.8268Z" fill="url(#paint1_linear_1765_25968)" />
	<path d="M53.6913 13.0779C64.7433 24.0542 64.7433 41.8503 53.6913 52.8266C42.6393 63.8029 24.7204 63.8029 13.6684 52.8266C2.61637 41.8503 2.61637 24.0542 13.6684 13.0779C24.7204 2.10163 42.6393 2.10163 53.6913 13.0779Z" fill="url(#paint2_linear_1765_25968)" />
	<path d="M46.1786 11.2367C50.9034 13.7402 53.6141 17.8536 52.2332 20.4241C50.8522 22.9947 45.9026 23.0491 41.1778 20.5456C36.453 18.042 33.7423 13.9287 35.1232 11.3581C36.5041 8.78753 41.4538 8.73317 46.1786 11.2367Z" fill="white" />
	<defs>
		<linearGradient id="paint0_linear_1765_25968" x1="80.442" y1="76.0018" x2="66.3099" y2="91.3191" gradientUnits="userSpaceOnUse">
			<stop stop-color="#FFA180" />
			<stop offset="1" stop-color="#840D0D" />
		</linearGradient>
		<linearGradient id="paint1_linear_1765_25968" x1="36.5621" y1="66.3451" x2="13.3925" y2="-0.663041" gradientUnits="userSpaceOnUse">
			<stop stop-color="#959189" />
			<stop offset="1" stop-color="#E3E0DA" />
		</linearGradient>
		<linearGradient id="paint2_linear_1765_25968" x1="49.7001" y1="58.0708" x2="15.3472" y2="2.34681" gradientUnits="userSpaceOnUse">
			<stop stop-color="#F3F1EE" />
			<stop offset="1" stop-color="#FFFCF5" stop-opacity="0.74" />
		</linearGradient>
	</defs>
</svg>
