<svg width="24" height="24" viewBox="0 0 24 24" fill="none" xmlns="http://www.w3.org/2000/svg">
<path d="M4 13V22H20V13" stroke="black" stroke-width="2" stroke-linecap="round" stroke-linejoin="round"/>
<path d="M4.00001 2L1.00001 7C0.998497 7.67436 1.22485 8.32946 1.64235 8.85905C2.05985 9.38864 2.64402 9.76166 3.3001 9.9176C3.95619 10.0735 4.64572 10.0033 5.25686 9.71819C5.86801 9.43311 6.36492 8.94992 6.66701 8.347C6.91349 8.84349 7.29369 9.26131 7.76479 9.5534C8.2359 9.84549 8.7792 10.0003 9.33351 10.0003C9.88782 10.0003 10.4311 9.84549 10.9022 9.5534C11.3733 9.26131 11.7535 8.84349 12 8.347C12.2465 8.84349 12.6267 9.26131 13.0978 9.5534C13.5689 9.84549 14.1122 10.0003 14.6665 10.0003C15.2208 10.0003 15.7641 9.84549 16.2352 9.5534C16.7063 9.26131 17.0865 8.84349 17.333 8.347C17.6351 8.94992 18.132 9.43311 18.7432 9.71819C19.3543 10.0033 20.0438 10.0735 20.6999 9.9176C21.356 9.76166 21.9402 9.38864 22.3577 8.85905C22.7752 8.32946 23.0015 7.67436 23 7L20 2H4.00001Z" stroke="black" stroke-width="2" stroke-linecap="round" stroke-linejoin="round"/>
<path d="M10 22V16H14V22" stroke="black" stroke-width="2" stroke-linecap="round" stroke-linejoin="round"/>
</svg>
