<svg width="24" height="24" viewBox="0 0 24 24" fill="none" xmlns="http://www.w3.org/2000/svg">
<g clip-path="url(#clip0_6196_66071)">
<path d="M14.0519 1.19202C17.2799 2.65002 19.1519 6.02302 19.1519 10.203C19.1519 14.383 16.7689 17.683 13.6889 17.683C10.6089 17.683 8.7749 14.493 8.7749 11.783C8.80937 10.725 9.11939 9.69431 9.67431 8.79283C10.2292 7.89136 11.0098 7.15033 11.9389 6.64302" stroke="black" stroke-width="2" stroke-linecap="round" stroke-linejoin="round"/>
<path d="M9.9481 22.808C6.7201 21.35 4.8501 17.977 4.8501 13.8C4.8501 9.62301 7.2331 6.32001 10.3131 6.32001C13.3931 6.32001 15.2271 9.51001 15.2271 12.22C15.1926 13.278 14.8826 14.3087 14.3277 15.2102C13.7728 16.1117 12.9922 16.8527 12.0631 17.36" stroke="black" stroke-width="2" stroke-linecap="round" stroke-linejoin="round"/>
<path d="M12 23C18.0751 23 23 18.0751 23 12C23 5.92487 18.0751 1 12 1C5.92487 1 1 5.92487 1 12C1 18.0751 5.92487 23 12 23Z" stroke="black" stroke-width="2" stroke-linecap="round" stroke-linejoin="round"/>
</g>
<defs>
<clipPath id="clip0_6196_66071">
<rect width="24" height="24" fill="white"/>
</clipPath>
</defs>
</svg>
