<svg width="12" height="12" viewBox="0 0 12 12" fill="none" xmlns="http://www.w3.org/2000/svg">
<path d="M5.51823 0.5C5.33856 1.54633 4.90793 2.53352 4.26323 3.377C3.51523 4.354 1.65723 5.321 1.65723 7.72C1.65768 8.48936 1.86254 9.2448 2.25086 9.90897C2.63917 10.5732 3.19699 11.1222 3.86723 11.5C3.89149 11.1579 3.99014 10.8252 4.1563 10.5252C4.32246 10.2252 4.55212 9.96506 4.82923 9.763C5.36262 9.41206 5.77224 8.90239 6.00023 8.306C6.57691 8.63915 7.06922 9.10049 7.43909 9.65433C7.80895 10.2082 8.04646 10.8397 8.13323 11.5C8.80346 11.1222 9.36128 10.5732 9.7496 9.90897C10.1379 9.2448 10.3428 8.48936 10.3432 7.72C10.3432 6.505 10.1262 3.2 5.51823 0.5Z" stroke="black" stroke-linecap="round" stroke-linejoin="round"/>
</svg>
