<svg width="25" height="24" viewBox="0 0 25 24" fill="none" xmlns="http://www.w3.org/2000/svg">
    <path fill-rule="evenodd" clip-rule="evenodd"
        d="M14.9509 3.89509C15.2668 3.50777 15.4879 3.04006 15.5788 2.52734L21.1313 4.54643C21.4277 4.65421 21.625 4.93589 21.625 5.25127V13.6895C21.625 16.1596 20.2758 18.4324 18.1073 19.6153L16.241 20.6332C16.0538 20.1697 15.7451 19.7481 15.3616 19.4043L17.389 18.2984C19.0756 17.3785 20.125 15.6107 20.125 13.6895V5.77659L14.9509 3.89509ZM11.158 20.0968L7.86103 18.2984C6.17441 17.3785 5.125 15.6107 5.125 13.6895V5.77659L10.2991 3.89509C9.98319 3.50777 9.76207 3.04006 9.67117 2.52734L4.11869 4.54643C3.8223 4.65421 3.625 4.93589 3.625 5.25127V13.6895C3.625 16.1596 4.97424 18.4324 7.14275 19.6153L10.7912 21.6053C10.744 21.1199 10.8663 20.5924 11.158 20.0968Z"
        fill="#D1D1D4" />
    <path
        d="M12.0718 2.42642L8.32457 3.82576M12.0718 2.42642L9.49853 1.25247M12.0718 2.42642L10.8979 4.99971"
        stroke="#D1D1D4" stroke-width="1.5" stroke-linecap="round" stroke-linejoin="round" />
    <path
        d="M13.5959 21.2485L17.093 19.3068M13.5959 21.2485L16.3153 22.0262M13.5959 21.2485L14.3735 18.5291"
        stroke="#D1D1D4" stroke-width="1.5" stroke-linecap="round" stroke-linejoin="round" />
    <path fill-rule="evenodd" clip-rule="evenodd"
        d="M11.4321 7.72447L12.0104 12.2447C12.05 12.5541 12.3133 12.7859 12.6252 12.7859C12.9371 12.7859 13.2005 12.5541 13.24 12.2447L13.8182 7.72443C13.8673 7.34014 13.5679 7 13.1805 7H12.0697C11.6823 7 11.3829 7.34016 11.4321 7.72447ZM12.6231 15.9999C13.1655 15.9999 13.6051 15.5682 13.6051 15.0356C13.6051 14.503 13.1655 14.0713 12.6231 14.0713C12.0808 14.0713 11.6411 14.503 11.6411 15.0356C11.6411 15.5682 12.0808 15.9999 12.6231 15.9999Z"
        fill="#D1D1D4" />
</svg>