<svg width="375" height="211" viewBox="0 0 375 211" fill="none" xmlns="http://www.w3.org/2000/svg">
    <path
        d="M187.5 194.336H134.71C132.592 194.336 130.859 192.59 130.859 190.455V131.836H187.5V194.336Z"
        fill="url(#paint0_linear_7169_74469)" />
    <path d="M130.684 131.836H187.5L172.05 116.211H115.234L130.684 131.836Z" fill="#FFE3BA" />
    <path
        d="M187.5 194.336H241.2C243.355 194.336 245.117 192.59 245.117 190.455V131.836H187.5V194.336Z"
        fill="url(#paint1_linear_7169_74469)" />
    <path d="M244.316 131.836H187.5L202.95 116.211H259.766L244.316 131.836Z" fill="#FFD390" />
    <path d="M165.039 179.688H148.438V194.336H165.039V179.688Z" fill="#FFE3BA" />
    <path d="M241.211 140.625H224.609V142.578H241.211V140.625Z" fill="#FFD390" />
    <path d="M241.211 145.508H224.609V147.461H241.211V145.508Z" fill="#FFD390" />
    <path
        d="M107.305 62.2239L106.311 61.4604C105.654 60.9559 104.712 61.0795 104.208 61.7365L97.5937 70.3498C97.0892 71.0068 97.2128 71.9484 97.8699 72.4529L98.8642 73.2165C99.5213 73.721 100.463 73.5973 100.967 72.9403L107.581 64.3271C108.086 63.6701 107.962 62.7284 107.305 62.2239Z"
        fill="#55E6B2" />
    <path
        d="M247.803 64.4938L246.638 64.0307C245.868 63.7246 244.996 64.1007 244.69 64.8705L241.765 72.2287C241.459 72.9986 241.835 73.8708 242.605 74.1768L243.77 74.6399C244.54 74.946 245.412 74.5699 245.718 73.8001L248.643 66.4419C248.949 65.672 248.573 64.7998 247.803 64.4938Z"
        fill="#FFD585" />
    <path
        d="M132.926 84.9753L131.985 85.8038C131.363 86.3512 131.303 87.299 131.851 87.9208L139.027 96.0721C139.574 96.6939 140.522 96.7542 141.144 96.2068L142.085 95.3784C142.707 94.831 142.767 93.8831 142.219 93.2613L135.043 85.11C134.496 84.4882 133.548 84.4279 132.926 84.9753Z"
        fill="#6847F2" />
    <path
        d="M302.594 86.416L302.005 85.3089C301.616 84.5774 300.708 84.2996 299.977 84.6884L290.387 89.7857C289.655 90.1746 289.378 91.0828 289.767 91.8143L290.355 92.9214C290.744 93.6529 291.652 93.9306 292.384 93.5418L301.973 88.4445C302.705 88.0557 302.982 87.1475 302.594 86.416Z"
        fill="#C867F6" />
    <path
        d="M93.798 119.237C95.4425 119.237 96.7756 117.903 96.7756 116.259C96.7756 114.614 95.4425 113.281 93.798 113.281C92.1534 113.281 90.8203 114.614 90.8203 116.259C90.8203 117.903 92.1534 119.237 93.798 119.237Z"
        fill="#FF69B8" />
    <path
        d="M121.944 24.177C121.674 23.7188 121.182 23.4375 120.651 23.4375H118.191C117.656 23.4375 117.161 23.7229 116.893 24.1864L115.667 26.3058C115.399 26.7685 115.398 27.3386 115.664 27.8024L116.894 29.9499C117.161 30.4165 117.658 30.7044 118.195 30.7044H120.647C121.18 30.7044 121.674 30.4207 121.943 29.9594L123.194 27.8119C123.467 27.3433 123.465 26.7638 123.19 26.2964L121.944 24.177Z"
        fill="#FFA8A8" />
    <path
        d="M301.629 35.9052C301.361 35.4417 300.866 35.1562 300.331 35.1562H297.879C297.343 35.1562 296.848 35.4417 296.58 35.9052L295.354 38.0246C295.087 38.4872 295.085 39.0574 295.351 39.5212L296.581 41.6687C296.848 42.1353 297.345 42.4231 297.883 42.4231H300.327C300.864 42.4231 301.361 42.1353 301.628 41.6687L302.858 39.5212C303.124 39.0574 303.123 38.4872 302.855 38.0246L301.629 35.9052Z"
        fill="#321E86" />
    <path
        d="M65.8111 74.0378C65.1179 73.1117 63.6816 73.2856 63.2295 74.3504L61.4955 78.4342C61.0446 79.4963 61.9115 80.6485 63.057 80.5095L67.4486 79.9765C68.5936 79.8375 69.1599 78.512 68.4687 77.5886L65.8111 74.0378Z"
        fill="#321E86" />
    <path
        d="M276.487 129.511C276.317 128.372 274.979 127.841 274.074 128.555L270.602 131.294C269.693 132.01 269.903 133.442 270.979 133.867L275.104 135.497C276.179 135.922 277.31 135.023 277.139 133.881L276.487 129.511Z"
        fill="#FF69B8" />
    <path
        d="M178.7 47.5623C181.955 44.3069 183.583 42.6792 185.46 42.0693C187.111 41.5329 188.889 41.5329 190.54 42.0693C192.417 42.6792 194.045 44.3069 197.3 47.5623L205.438 55.7C208.693 58.9554 210.321 60.5831 210.931 62.4601C211.467 64.1111 211.467 65.8896 210.931 67.5406C210.321 69.4175 208.693 71.0452 205.438 74.3006L197.3 82.4384C194.045 85.6938 192.417 87.3215 190.54 87.9313C188.889 88.4678 187.111 88.4678 185.46 87.9313C183.583 87.3215 181.955 85.6938 178.7 82.4384L177.17 80.7231C176.244 79.6851 175.781 79.1661 175.451 78.5758C175.158 78.0523 174.943 77.4889 174.813 76.9034C174.667 76.2432 174.667 75.5477 174.667 74.1568L174.667 55.8439C174.667 54.453 174.667 53.7575 174.813 53.0973C174.943 52.5118 175.158 51.9483 175.451 51.4248C175.781 50.8345 176.244 50.3155 177.17 49.2776L178.7 47.5623Z"
        fill="url(#paint2_radial_7169_74469)" />
    <path
        d="M178.7 47.5623C181.955 44.3069 183.583 42.6792 185.46 42.0693C187.111 41.5329 188.889 41.5329 190.54 42.0693C192.417 42.6792 194.045 44.3069 197.3 47.5623L205.438 55.7C208.693 58.9554 210.321 60.5831 210.931 62.4601C211.467 64.1111 211.467 65.8896 210.931 67.5406C210.321 69.4175 208.693 71.0452 205.438 74.3006L197.3 82.4384C194.045 85.6938 192.417 87.3215 190.54 87.9313C188.889 88.4678 187.111 88.4678 185.46 87.9313C183.583 87.3215 181.955 85.6938 178.7 82.4384L177.17 80.7231C176.244 79.6851 175.781 79.1661 175.451 78.5758C175.158 78.0523 174.943 77.4889 174.813 76.9034C174.667 76.2432 174.667 75.5477 174.667 74.1568L174.667 55.8439C174.667 54.453 174.667 53.7575 174.813 53.0973C174.943 52.5118 175.158 51.9483 175.451 51.4248C175.781 50.8345 176.244 50.3155 177.17 49.2776L178.7 47.5623Z"
        fill="url(#paint3_linear_7169_74469)" />
    <path
        d="M178.118 48.143C179.746 46.5153 180.56 45.7014 181.498 45.3965C182.324 45.1283 183.213 45.1283 184.039 45.3965C184.977 45.7014 185.791 46.5153 187.419 48.143L199.625 60.3496C201.253 61.9773 202.067 62.7911 202.372 63.7296C202.64 64.5551 202.64 65.4443 202.372 66.2698C202.067 67.2083 201.253 68.0222 199.625 69.6499L187.419 81.8565C185.791 83.4842 184.977 84.298 184.039 84.603C183.213 84.8712 182.324 84.8712 181.498 84.603C180.56 84.298 179.746 83.4842 178.118 81.8565L170.562 74.3C167.307 71.0446 165.679 69.4169 165.069 67.54C164.533 65.8889 164.533 64.1105 165.069 62.4595C165.679 60.5825 167.307 58.9548 170.562 55.6994L178.118 48.143Z"
        fill="url(#paint4_radial_7169_74469)" />
    <defs>
        <linearGradient id="paint0_linear_7169_74469" x1="168.294" y1="132.331" x2="143.567"
            y2="194.204" gradientUnits="userSpaceOnUse">
            <stop stop-color="#FFD391" />
            <stop offset="1" stop-color="#FFA26D" />
        </linearGradient>
        <linearGradient id="paint1_linear_7169_74469" x1="245.656" y1="194.336" x2="187.968"
            y2="131.795" gradientUnits="userSpaceOnUse">
            <stop stop-color="#FF7E62" />
            <stop offset="1" stop-color="#FFA26D" />
        </linearGradient>
        <radialGradient id="paint2_radial_7169_74469" cx="0" cy="0" r="1"
            gradientUnits="userSpaceOnUse"
            gradientTransform="translate(178.751 89.2431) rotate(-58.142) scale(38.9552 60.918)">
            <stop stop-color="#FFD580" />
            <stop offset="0.09375" stop-color="#F6C592" />
            <stop offset="0.205" stop-color="#EBB6A2" />
            <stop offset="0.324466" stop-color="#DFA5AF" />
            <stop offset="0.42875" stop-color="#D397BE" />
            <stop offset="0.53375" stop-color="#C486CB" />
            <stop offset="0.64875" stop-color="#B578D9" />
            <stop offset="0.77125" stop-color="#A166E5" />
            <stop offset="0.89125" stop-color="#8B57F2" />
            <stop offset="1" stop-color="#704CFF" />
        </radialGradient>
        <linearGradient id="paint3_linear_7169_74469" x1="177.143" y1="32.4008" x2="186.219"
            y2="87.7979" gradientUnits="userSpaceOnUse">
            <stop stop-color="#6D4AFF" />
            <stop offset="0.392009" stop-color="#B39FFB" stop-opacity="0.978022" />
            <stop offset="1" stop-color="#FFE8DB" stop-opacity="0.8" />
        </linearGradient>
        <radialGradient id="paint4_radial_7169_74469" cx="0" cy="0" r="1"
            gradientUnits="userSpaceOnUse"
            gradientTransform="translate(175.329 84.4994) rotate(-58.142) scale(31.3336 48.9993)">
            <stop stop-color="#FFD580" />
            <stop offset="0.09375" stop-color="#F6C592" />
            <stop offset="0.205" stop-color="#EBB6A2" />
            <stop offset="0.324466" stop-color="#DFA5AF" />
            <stop offset="0.42875" stop-color="#D397BE" />
            <stop offset="0.53375" stop-color="#C486CB" />
            <stop offset="0.64875" stop-color="#B578D9" />
            <stop offset="0.77125" stop-color="#A166E5" />
            <stop offset="0.89125" stop-color="#8B57F2" />
            <stop offset="1" stop-color="#704CFF" />
        </radialGradient>
    </defs>
</svg>