<svg width="375" height="220" viewBox="0 0 375 220" fill="none" xmlns="http://www.w3.org/2000/svg">
    <path d="M322 139C322 146.732 315.732 153 308 153H67C59.268 153 53 146.732 53 139V13.3694C53 6.01623 59.6096 0 67.688 0H307.312C315.39 0 322 6.01623 322 13.3694V139Z" fill="#372580" />
    <path d="M310 153H66V15.2368C66 13.451 67.5846 12 69.535 12H306.343C308.293 12 309.878 13.451 309.878 15.2368V153H310Z" fill="url(#paint0_linear_2941_12038)" />
    <rect x="281" y="64" width="12" height="12" rx="3" fill="white" />
    <path d="M295 49H81C76.5817 49 73 52.5817 73 57V153H303V57C303 52.5817 299.418 49 295 49Z" fill="url(#paint1_linear_2941_12038)" />
    <path d="M303 70H73V152H303V70Z" fill="#FAF9F7" />
    <path opacity="0.5" d="M89 109C89 106.791 90.7909 105 93 105H283C285.209 105 287 106.791 287 109V135C287 137.209 285.209 139 283 139H93C90.7909 139 89 137.209 89 135V109Z" fill="#EAE8E5" />
    <circle opacity="0.2" cx="187.5" cy="80.5" r="55.5" fill="url(#paint2_linear_2941_12038)" />
    <circle cx="187" cy="81" r="29" fill="url(#paint3_linear_2941_12038)" />
    <circle cx="121.5" cy="121.5" r="6.5" fill="#6D4AFF" />
    <circle cx="143.5" cy="121.5" r="6.5" fill="#6D4AFF" />
    <circle cx="165.5" cy="121.5" r="6.5" fill="#6D4AFF" />
    <circle cx="187.5" cy="121.5" r="6.5" fill="#6D4AFF" />
    <circle cx="209.5" cy="121.5" r="6.5" fill="#6D4AFF" />
    <circle cx="231.5" cy="121.5" r="6.5" fill="#6D4AFF" />
    <circle cx="253.5" cy="121.5" r="6.5" fill="#6D4AFF" />
    <path fill-rule="evenodd" clip-rule="evenodd" d="M182.5 76.5H182.8H191.2H191.5C191.5 74.0147 189.485 72 187 72C184.515 72 182.5 74.0147 182.5 76.5ZM181 76.5V76.5288C180.412 76.5647 179.994 76.6455 179.638 76.827C179.074 77.1146 178.615 77.5735 178.327 78.138C178 78.7798 178 79.6198 178 81.3V86.7C178 88.3802 178 89.2202 178.327 89.862C178.615 90.4265 179.074 90.8854 179.638 91.173C180.28 91.5 181.12 91.5 182.8 91.5H191.2C192.88 91.5 193.72 91.5 194.362 91.173C194.926 90.8854 195.385 90.4265 195.673 89.862C196 89.2202 196 88.3802 196 86.7V81.3C196 79.6198 196 78.7798 195.673 78.138C195.385 77.5735 194.926 77.1146 194.362 76.827C194.006 76.6455 193.588 76.5647 193 76.5288V76.5C193 73.1863 190.314 70.5 187 70.5C183.686 70.5 181 73.1863 181 76.5ZM180.952 78.0359C181.377 78.0012 181.935 78 182.8 78H191.2C192.065 78 192.623 78.0012 193.048 78.0359C193.456 78.0692 193.607 78.1257 193.681 78.1635C193.963 78.3073 194.193 78.5368 194.337 78.819C194.374 78.8932 194.431 79.0443 194.464 79.4518C194.499 79.8768 194.5 80.4352 194.5 81.3V86.7C194.5 87.5648 194.499 88.1232 194.464 88.5482C194.431 88.9557 194.374 89.1068 194.337 89.181C194.193 89.4632 193.963 89.6927 193.681 89.8365C193.607 89.8743 193.456 89.9308 193.048 89.9641C192.623 89.9988 192.065 90 191.2 90H182.8C181.935 90 181.377 89.9988 180.952 89.9641C180.544 89.9308 180.393 89.8743 180.319 89.8365C180.037 89.6927 179.807 89.4632 179.663 89.181C179.626 89.1068 179.569 88.9557 179.536 88.5482C179.501 88.1232 179.5 87.5648 179.5 86.7V81.3C179.5 80.4352 179.501 79.8768 179.536 79.4518C179.569 79.0443 179.626 78.8932 179.663 78.819C179.807 78.5368 180.037 78.3073 180.319 78.1635C180.393 78.1257 180.544 78.0692 180.952 78.0359ZM188.5 82.5C188.5 83.0732 188.178 83.5713 187.706 83.8238L188.36 86.4409C188.431 86.7249 188.216 87 187.924 87H186.076C185.784 87 185.569 86.7249 185.64 86.4409L186.294 83.8238C185.822 83.5713 185.5 83.0732 185.5 82.5C185.5 81.6716 186.172 81 187 81C187.828 81 188.5 81.6716 188.5 82.5Z" fill="white" />
    <defs>
        <linearGradient id="paint0_linear_2941_12038" x1="188" y1="34.1607" x2="188" y2="153" gradientUnits="userSpaceOnUse">
            <stop stop-color="#EEBEFF" />
            <stop offset="1" stop-color="#6D4AFF" />
        </linearGradient>
        <linearGradient id="paint1_linear_2941_12038" x1="188" y1="41.2456" x2="188" y2="122.439" gradientUnits="userSpaceOnUse">
            <stop stop-color="#EAE8E5" />
            <stop offset="1" stop-color="#F5F4F2" />
        </linearGradient>
        <linearGradient id="paint2_linear_2941_12038" x1="216" y1="123" x2="150" y2="35" gradientUnits="userSpaceOnUse">
            <stop stop-color="#6D4AFF" />
            <stop offset="1" stop-color="#C54AFF" stop-opacity="0.2" />
        </linearGradient>
        <linearGradient id="paint3_linear_2941_12038" x1="189.788" y1="32.4808" x2="205.962" y2="106.654" gradientUnits="userSpaceOnUse">
            <stop stop-color="#ECAAFF" />
            <stop offset="1" stop-color="#6A48F6" />
        </linearGradient>
    </defs>
</svg>
    