<svg width="48" height="50" viewBox="0 0 48 50" fill="none" xmlns="http://www.w3.org/2000/svg">
    <path
        d="M3.39001 7.82502C3.39001 4.03082 6.46582 0.955017 10.26 0.955017H27.9481C29.7183 0.955017 31.4202 1.63835 32.6989 2.86253L42.4909 12.2369C43.8445 13.5328 44.61 15.3254 44.61 17.1994V42.175C44.61 45.9692 41.5342 49.045 37.74 49.045H10.26C6.46582 49.045 3.39001 45.9692 3.39001 42.175V7.82502Z"
        fill="#DADBE0" />
    <path
        d="M44.4742 15.84H35.45C32.2881 15.84 29.725 13.2768 29.725 10.115V1.18878C30.8322 1.48528 31.8572 2.05674 32.6989 2.86252L42.4908 12.2369C43.5121 13.2146 44.1987 14.4751 44.4742 15.84Z"
        fill="#EBECF0" />
    <path
        d="M44.6099 17.5575H35.4499C31.3396 17.5575 28.0074 14.2254 28.0074 10.115V0.955261C28.5921 0.960314 29.1689 1.03987 29.7249 1.18877V10.115C29.7249 13.2768 32.2881 15.84 35.4499 15.84H44.4742C44.5638 16.2841 44.6099 16.7393 44.6099 17.1993V17.5575Z"
        fill="#BABBC5" />
    <path fill-rule="evenodd" clip-rule="evenodd"
        d="M16.8571 22.8571C15.2792 22.8571 14 24.1363 14 25.7143V35.7143C14 37.2922 15.2792 38.5714 16.8571 38.5714H31.1429C32.7208 38.5714 34 37.2922 34 35.7143V25.7143C34 24.1363 32.7208 22.8571 31.1429 22.8571H29L27.9663 20.7897C27.7243 20.3057 27.2296 20 26.6885 20H21.3115C20.7704 20 20.2757 20.3057 20.0337 20.7897L19 22.8571H16.8571ZM27.5 30C27.5 31.933 25.933 33.5 24 33.5C22.067 33.5 20.5 31.933 20.5 30C20.5 28.067 22.067 26.5 24 26.5C25.933 26.5 27.5 28.067 27.5 30ZM29 30C29 32.7614 26.7614 35 24 35C21.2386 35 19 32.7614 19 30C19 27.2386 21.2386 25 24 25C26.7614 25 29 27.2386 29 30Z"
        fill="#3A3F4A" />
</svg>