<svg width="21" height="21" viewBox="0 0 21 21" xmlns="http://www.w3.org/2000/svg">
  <path fill-rule="evenodd" clip-rule="evenodd" d="M11.7007 17.6556L14.3216 10.6665C14.8091 9.3663 16.0521 8.50496 17.4406 8.50496H17.7296L12.4924 3.2678V3.55674C12.4924 4.94531 11.6311 6.18822 10.3309 6.67578L3.34178 9.2967L11.7007 17.6556ZM11.2818 19.358C11.7526 19.8289 12.5527 19.6556 12.7865 19.0321L15.7261 11.1931C15.9941 10.4784 16.6773 10.005 17.4406 10.005H19.1405C19.9562 10.005 20.3647 9.01877 19.7879 8.44199L12.5554 1.20945C11.9786 0.632676 10.9924 1.04117 10.9924 1.85686V3.55674C10.9924 4.32004 10.5189 5.00328 9.80422 5.27129L1.96526 8.21089C1.34178 8.4447 1.16849 9.24472 1.63934 9.71557L5.76392 13.8402L0.630957 18.9731C0.273405 19.3307 0.273405 19.9104 0.630957 20.2679C0.988509 20.6255 1.56822 20.6255 1.92577 20.2679L7.05873 15.135L11.2818 19.358Z"/>
  </svg>