<svg width="30" height="24" viewBox="0 0 30 24" fill="none" xmlns="http://www.w3.org/2000/svg">
    <path fill-rule="evenodd" clip-rule="evenodd"
        d="M15.5 7.5C15.5 9.15685 14.1569 10.5 12.5 10.5C10.8431 10.5 9.5 9.15685 9.5 7.5C9.5 5.84315 10.8431 4.5 12.5 4.5C14.1569 4.5 15.5 5.84315 15.5 7.5ZM17 7.5C17 9.98528 14.9853 12 12.5 12C10.0147 12 8 9.98528 8 7.5C8 5.01472 10.0147 3 12.5 3C14.9853 3 17 5.01472 17 7.5ZM6.28323 16.4706C6.8379 15.5688 7.85016 15 8.96117 15H16.0388C17.1498 15 18.1621 15.5688 18.7168 16.4706L19.8901 18.3782C20.1631 18.8222 19.8762 19.5 19.1899 19.5H5.81006C5.12384 19.5 4.83686 18.8222 5.10992 18.3782L6.28323 16.4706ZM5.00556 15.6848C5.83924 14.3293 7.3408 13.5 8.96117 13.5H16.0388C17.6592 13.5 19.1608 14.3293 19.9944 15.6848L21.1677 17.5924C22.0901 19.0921 20.9828 21 19.1899 21H5.81006C4.01723 21 2.90985 19.0921 3.83225 17.5924L5.00556 15.6848Z"
        fill="#333333" />
    <path
        d="M24.1793 1.1675C24.3276 0.233282 25.6724 0.233282 25.8207 1.1675C25.918 1.78004 26.6277 2.07401 27.1296 1.70967C27.8952 1.154 28.846 2.10485 28.2903 2.87036C27.926 3.37228 28.22 4.08198 28.8325 4.17927C29.7667 4.32765 29.7667 5.67235 28.8325 5.82073C28.22 5.91802 27.926 6.62772 28.2903 7.12964C28.846 7.89515 27.8952 8.846 27.1296 8.29033C26.6277 7.92599 25.918 8.21996 25.8207 8.8325C25.6724 9.76672 24.3276 9.76672 24.1793 8.8325C24.082 8.21996 23.3723 7.92599 22.8704 8.29033C22.1048 8.846 21.154 7.89515 21.7097 7.12964C22.074 6.62772 21.78 5.91802 21.1675 5.82073C20.2333 5.67235 20.2333 4.32765 21.1675 4.17927C21.78 4.08198 22.074 3.37228 21.7097 2.87036C21.154 2.10485 22.1048 1.154 22.8704 1.70967C23.3723 2.07401 24.082 1.78004 24.1793 1.1675Z"
        fill="#6243E6" />
</svg>