<svg width="28" height="18" viewBox="0 0 28 18" fill="none" xmlns="http://www.w3.org/2000/svg">
    <path d="M17.6001 14.3994H9.20007" stroke="black" stroke-opacity="0.8" stroke-width="1.2"
        stroke-linecap="round" stroke-linejoin="round" />
    <path
        d="M3.20005 14.3996H0.800049V7.19961L4.46965 1.43301C4.80025 0.914009 5.37265 0.599609 5.98825 0.599609H17.0408C17.7464 0.599609 18.3872 1.01241 18.6794 1.65501L21.2 7.19961H26C26.663 7.19961 27.2 7.73661 27.2 8.39961V14.3996H23.6"
        stroke="black" stroke-opacity="0.8" stroke-width="1.2" stroke-linecap="round"
        stroke-linejoin="round" />
    <path
        d="M6.20007 17.3994C7.85693 17.3994 9.20007 16.0563 9.20007 14.3994C9.20007 12.7426 7.85693 11.3994 6.20007 11.3994C4.54322 11.3994 3.20007 12.7426 3.20007 14.3994C3.20007 16.0563 4.54322 17.3994 6.20007 17.3994Z"
        stroke="black" stroke-opacity="0.8" stroke-width="1.2" stroke-linecap="round"
        stroke-linejoin="round" />
    <path
        d="M20.6001 17.3994C22.257 17.3994 23.6001 16.0563 23.6001 14.3994C23.6001 12.7426 22.257 11.3994 20.6001 11.3994C18.9432 11.3994 17.6001 12.7426 17.6001 14.3994C17.6001 16.0563 18.9432 17.3994 20.6001 17.3994Z"
        stroke="black" stroke-opacity="0.8" stroke-width="1.2" stroke-linecap="round"
        stroke-linejoin="round" />
    <path d="M21.2 7.19922H0.890625" stroke="black" stroke-opacity="0.8" stroke-width="1.2"
        stroke-linecap="round" stroke-linejoin="round" />
    <path d="M11.6001 0.599609V7.19961" stroke="black" stroke-opacity="0.8" stroke-width="1.2"
        stroke-linecap="round" stroke-linejoin="round" />
</svg>