<svg width="12" height="12" viewBox="0 0 12 12" fill="none" xmlns="http://www.w3.org/2000/svg">
<g clip-path="url(#clip0_6189_64213)">
<path d="M6.49993 6L10.7639 3.259C10.1601 2.20856 9.2263 1.38691 8.10756 0.921651C6.98882 0.456396 5.74776 0.373581 4.57712 0.686068C3.40648 0.998555 2.37179 1.68885 1.63374 2.64975C0.895698 3.61065 0.495605 4.78837 0.495605 6C0.495605 7.21163 0.895698 8.38935 1.63374 9.35025C2.37179 10.3111 3.40648 11.0014 4.57712 11.3139C5.74776 11.6264 6.98882 11.5436 8.10756 11.0784C9.2263 10.6131 10.1601 9.79144 10.7639 8.741L6.49993 6Z" stroke="black" stroke-linecap="round" stroke-linejoin="round"/>
<path d="M6 4C6.55228 4 7 3.55228 7 3C7 2.44772 6.55228 2 6 2C5.44772 2 5 2.44772 5 3C5 3.55228 5.44772 4 6 4Z" fill="black"/>
</g>
<defs>
<clipPath id="clip0_6189_64213">
<rect width="12" height="12" fill="white"/>
</clipPath>
</defs>
</svg>
