<svg width="21" height="20" viewBox="0 0 21 20" fill="none" xmlns="http://www.w3.org/2000/svg">
<path fill-rule="evenodd" clip-rule="evenodd" d="M9.43205 1.5983C10.1219 1.34744 10.8781 1.34744 11.5679 1.5983L17.5886 3.78763C17.8356 3.87744 18 4.11218 18 4.375V11.4068C18 13.4653 16.8756 15.3593 15.0685 16.345L10.7993 18.6737C10.6127 18.7754 10.3873 18.7754 10.2007 18.6737L5.93146 16.345C4.12437 15.3593 3 13.4653 3 11.4068V4.375C3 4.11218 3.16442 3.87744 3.41141 3.78763L9.43205 1.5983ZM11.1408 2.77304C10.7268 2.62253 10.2732 2.62253 9.85923 2.77304L4.25 4.81276V11.4068C4.25 13.0078 5.12451 14.481 6.53002 15.2476L10.5 17.4131L14.47 15.2476C15.8755 14.481 16.75 13.0078 16.75 11.4068V4.81276L11.1408 2.77304Z" fill="#9292F9"/>
<path fill-rule="evenodd" clip-rule="evenodd" d="M10.75 9.37499L13.625 9.375L9.25 15.625L10.25 10.625L7.375 10.625L11.75 4.375L10.75 9.37499Z" fill="#9292F9"/>
</svg>
