<svg width="156" height="156" viewBox="0 0 156 156" fill="none" xmlns="http://www.w3.org/2000/svg">
    <g clip-path="url(#clip0_9313_78133)">
        <rect x="18.5" y="18" width="120" height="120" rx="59" fill="white" fill-opacity="0.2" />
        <path fill-rule="evenodd" clip-rule="evenodd"
            d="M90.2071 70.296C90.5976 70.6906 90.5976 71.3304 90.2071 71.725L76.4899 85.5857C75.9432 86.1381 75.0568 86.1381 74.5101 85.5857L68.7929 79.8087C68.4024 79.4141 68.4024 78.7743 68.7929 78.3797C69.1834 77.9851 69.8166 77.9851 70.2071 78.3797L75.5 83.7279L88.7929 70.296C89.1834 69.9013 89.8166 69.9013 90.2071 70.296Z"
            fill="#317806" />
        <rect x="18.5" y="18" width="120" height="120" rx="59" stroke="#EAF5E1" stroke-width="4" />
        <rect x="58" width="40" height="40" rx="16" fill="#ECDFFA" />
        <path fill-rule="evenodd" clip-rule="evenodd"
            d="M80.5 16.25C80.5 17.6307 79.3807 18.75 78 18.75C76.6193 18.75 75.5 17.6307 75.5 16.25C75.5 14.8693 76.6193 13.75 78 13.75C79.3807 13.75 80.5 14.8693 80.5 16.25ZM81.75 16.25C81.75 18.3211 80.0711 20 78 20C75.9289 20 74.25 18.3211 74.25 16.25C74.25 14.1789 75.9289 12.5 78 12.5C80.0711 12.5 81.75 14.1789 81.75 16.25ZM72.8194 23.7255C73.2816 22.974 74.1251 22.5 75.051 22.5H80.949C81.8749 22.5 82.7184 22.974 83.1806 23.7255L84.1584 25.3152C84.3859 25.6852 84.1468 26.25 83.575 26.25H72.425C71.8532 26.25 71.6141 25.6852 71.8416 25.3152L72.8194 23.7255ZM71.7546 23.0706C72.4494 21.9411 73.7007 21.25 75.051 21.25H80.949C82.2993 21.25 83.5506 21.9411 84.2454 23.0706L85.2231 24.6603C85.9918 25.9101 85.069 27.5 83.575 27.5H72.425C70.931 27.5 70.0082 25.9101 70.7769 24.6603L71.7546 23.0706Z"
            fill="#7328C5" />
        <rect x="58" y="116" width="40" height="40" rx="16" fill="#D9F4EB" />
        <path fill-rule="evenodd" clip-rule="evenodd"
            d="M80.0977 128.706C81.515 128.094 83.1423 128.901 83.5144 130.399L84.7512 135.379H86.125C86.4702 135.379 86.75 135.659 86.75 136.004C86.75 136.349 86.4702 136.629 86.125 136.629H69.875C69.5298 136.629 69.25 136.349 69.25 136.004C69.25 135.659 69.5298 135.379 69.875 135.379H71.2488L72.4856 130.399C72.8577 128.901 74.485 128.094 75.9023 128.706L77.2572 129.29C77.7313 129.495 78.2687 129.495 78.7428 129.29L80.0977 128.706ZM82.3012 130.7C82.1152 129.951 81.3015 129.548 80.5929 129.853L79.2379 130.438C78.4478 130.779 77.5522 130.779 76.7621 130.438L75.4071 129.853C74.6985 129.548 73.8848 129.951 73.6988 130.7L72.5492 135.329H83.4508L82.3012 130.7Z"
            fill="#136C4F" />
        <path fill-rule="evenodd" clip-rule="evenodd"
            d="M76.2145 138.629C75.6527 137.799 74.7025 137.254 73.625 137.254C71.8991 137.254 70.5 138.653 70.5 140.379C70.5 142.105 71.8991 143.504 73.625 143.504C75.3509 143.504 76.75 142.105 76.75 140.379C76.75 139.689 77.3096 139.129 78 139.129C78.6904 139.129 79.25 139.689 79.25 140.379C79.25 142.105 80.6491 143.504 82.375 143.504C84.1009 143.504 85.5 142.105 85.5 140.379C85.5 138.653 84.1009 137.254 82.375 137.254C81.2975 137.254 80.3473 137.799 79.7855 138.629C79.3317 138.166 78.6994 137.879 78 137.879C77.3006 137.879 76.6683 138.166 76.2145 138.629ZM75.5 140.379C75.5 141.415 74.6605 142.254 73.625 142.254C72.5895 142.254 71.75 141.415 71.75 140.379C71.75 139.344 72.5895 138.504 73.625 138.504C74.6605 138.504 75.5 139.344 75.5 140.379ZM80.5 140.379C80.5 141.415 81.3395 142.254 82.375 142.254C83.4105 142.254 84.25 141.415 84.25 140.379C84.25 139.344 83.4105 138.504 82.375 138.504C81.3395 138.504 80.5 139.344 80.5 140.379Z"
            fill="#136C4F" />
        <rect y="58" width="40" height="40" rx="16" fill="#FFE7D6" />
        <path fill-rule="evenodd" clip-rule="evenodd"
            d="M26.25 75.5H23.125C22.0895 75.5 21.25 74.6605 21.25 73.625V70.5H15C14.3096 70.5 13.75 71.0596 13.75 71.75V84.25C13.75 84.9404 14.3096 85.5 15 85.5H25C25.6904 85.5 26.25 84.9404 26.25 84.25V75.5ZM22.5 71.0178L25.7322 74.25H23.125C22.7798 74.25 22.5 73.9702 22.5 73.625V71.0178ZM15 69.25C13.6193 69.25 12.5 70.3693 12.5 71.75V84.25C12.5 85.6307 13.6193 86.75 15 86.75H25C26.3807 86.75 27.5 85.6307 27.5 84.25V75.2855C27.5 74.6225 27.2366 73.9866 26.7678 73.5178L23.2322 69.9822C22.7634 69.5134 22.1275 69.25 21.4645 69.25H15ZM16.25 76.75C15.9048 76.75 15.625 77.0298 15.625 77.375C15.625 77.7202 15.9048 78 16.25 78H23.125C23.4702 78 23.75 77.7202 23.75 77.375C23.75 77.0298 23.4702 76.75 23.125 76.75H16.25ZM15.625 79.875C15.625 79.5298 15.9048 79.25 16.25 79.25H20.625C20.9702 79.25 21.25 79.5298 21.25 79.875C21.25 80.2202 20.9702 80.5 20.625 80.5H16.25C15.9048 80.5 15.625 80.2202 15.625 79.875ZM16.25 81.75C15.9048 81.75 15.625 82.0298 15.625 82.375C15.625 82.7202 15.9048 83 16.25 83H23.125C23.4702 83 23.75 82.7202 23.75 82.375C23.75 82.0298 23.4702 81.75 23.125 81.75H16.25Z"
            fill="#A14300" />
        <rect x="116" y="58" width="40" height="40" rx="16" fill="#FFD9D9" />
        <path fill-rule="evenodd" clip-rule="evenodd"
            d="M135.186 71.9328C137.086 70.0325 140.167 70.0325 142.067 71.9328C143.968 73.8331 143.968 76.9141 142.067 78.8144C140.717 80.1647 138.77 80.5564 137.072 79.9859L136.703 79.8618L136.427 80.1373L135.776 80.7888H134.309C134.143 80.7888 133.983 80.855 133.865 80.9729C133.747 81.0908 133.681 81.2508 133.681 81.4175L133.681 82.5156H132.582C132.235 82.5156 131.954 82.7971 131.954 83.1444V84.2425L129.758 84.2425V81.678L133.863 77.5729L134.138 77.2973L134.014 76.928C133.444 75.2304 133.835 73.2831 135.186 71.9328ZM142.956 71.0436C140.565 68.6521 136.688 68.6521 134.296 71.0436C132.696 72.6443 132.167 74.91 132.708 76.949L128.863 80.7941C128.631 81.0265 128.5 81.3417 128.5 81.6704V84.8712C128.5 85.038 128.566 85.1979 128.684 85.3158C128.802 85.4338 128.962 85.5 129.129 85.5H131.972C132.656 85.5 133.211 84.9451 133.211 84.2607V83.7732H134.309C134.476 83.7732 134.636 83.7069 134.754 83.589C134.872 83.4711 134.938 83.3111 134.938 83.1444L134.938 82.0463H136.036C136.203 82.0463 136.363 81.9801 136.481 81.8621L137.051 81.2919C139.09 81.8328 141.356 81.3043 142.956 79.7036C145.348 77.3122 145.348 73.435 142.956 71.0436ZM139.887 75.3787C140.586 75.3787 141.153 74.8121 141.153 74.1132C141.153 73.4142 140.586 72.8476 139.887 72.8476C139.188 72.8476 138.621 73.4142 138.621 74.1132C138.621 74.8121 139.188 75.3787 139.887 75.3787Z"
            fill="#7E1013" />
    </g>
    <defs>
        <clipPath id="clip0_9313_78133">
            <rect width="156" height="156" fill="white" />
        </clipPath>
    </defs>
</svg>