<svg width="157" height="156" viewBox="0 0 157 156" fill="none" xmlns="http://www.w3.org/2000/svg">
    <g clip-path="url(#clip0_9282_77365)">
        <rect x="19" y="18" width="120" height="120" rx="59" fill="#273035" fill-opacity="0.2" />
        <path fill-rule="evenodd" clip-rule="evenodd"
            d="M90.7071 70.296C91.0976 70.6906 91.0976 71.3304 90.7071 71.725L76.9899 85.5857C76.4432 86.1381 75.5568 86.1381 75.0101 85.5857L69.2929 79.8087C68.9024 79.4141 68.9024 78.7743 69.2929 78.3797C69.6834 77.9851 70.3166 77.9851 70.7071 78.3797L76 83.7279L89.2929 70.296C89.6834 69.9013 90.3166 69.9013 90.7071 70.296Z"
            fill="#ABE4B4" />
        <rect x="19" y="18" width="120" height="120" rx="59" stroke="#273035" stroke-width="4" />
        <rect x="58.5" width="40" height="40" rx="16" fill="#30284A" />
        <path fill-rule="evenodd" clip-rule="evenodd"
            d="M81 16.25C81 17.6307 79.8807 18.75 78.5 18.75C77.1193 18.75 76 17.6307 76 16.25C76 14.8693 77.1193 13.75 78.5 13.75C79.8807 13.75 81 14.8693 81 16.25ZM82.25 16.25C82.25 18.3211 80.5711 20 78.5 20C76.4289 20 74.75 18.3211 74.75 16.25C74.75 14.1789 76.4289 12.5 78.5 12.5C80.5711 12.5 82.25 14.1789 82.25 16.25ZM73.3194 23.7255C73.7816 22.974 74.6251 22.5 75.551 22.5H81.449C82.3749 22.5 83.2184 22.974 83.6806 23.7255L84.6584 25.3152C84.8859 25.6852 84.6468 26.25 84.075 26.25H72.925C72.3532 26.25 72.1141 25.6852 72.3416 25.3152L73.3194 23.7255ZM72.2546 23.0706C72.9494 21.9411 74.2007 21.25 75.551 21.25H81.449C82.7993 21.25 84.0506 21.9411 84.7454 23.0706L85.7231 24.6603C86.4918 25.9101 85.569 27.5 84.075 27.5H72.925C71.431 27.5 70.5082 25.9101 71.2769 24.6603L72.2546 23.0706Z"
            fill="#B994FF" />
        <rect x="58.5" y="116" width="40" height="40" rx="16" fill="#26333D" />
        <path fill-rule="evenodd" clip-rule="evenodd"
            d="M80.5977 128.706C82.015 128.094 83.6423 128.901 84.0144 130.399L85.2512 135.379H86.625C86.9702 135.379 87.25 135.659 87.25 136.004C87.25 136.349 86.9702 136.629 86.625 136.629H70.375C70.0298 136.629 69.75 136.349 69.75 136.004C69.75 135.659 70.0298 135.379 70.375 135.379H71.7488L72.9856 130.399C73.3577 128.901 74.985 128.094 76.4023 128.706L77.7572 129.29C78.2313 129.495 78.7687 129.495 79.2428 129.29L80.5977 128.706ZM82.8012 130.7C82.6152 129.951 81.8015 129.548 81.0929 129.853L79.7379 130.438C78.9478 130.779 78.0522 130.779 77.2621 130.438L75.9071 129.853C75.1985 129.548 74.3848 129.951 74.1988 130.7L73.0492 135.329H83.9508L82.8012 130.7Z"
            fill="#88CAC2" />
        <path fill-rule="evenodd" clip-rule="evenodd"
            d="M76.7145 138.629C76.1527 137.799 75.2025 137.254 74.125 137.254C72.3991 137.254 71 138.653 71 140.379C71 142.105 72.3991 143.504 74.125 143.504C75.8509 143.504 77.25 142.105 77.25 140.379C77.25 139.689 77.8096 139.129 78.5 139.129C79.1904 139.129 79.75 139.689 79.75 140.379C79.75 142.105 81.1491 143.504 82.875 143.504C84.6009 143.504 86 142.105 86 140.379C86 138.653 84.6009 137.254 82.875 137.254C81.7975 137.254 80.8473 137.799 80.2855 138.629C79.8317 138.166 79.1994 137.879 78.5 137.879C77.8006 137.879 77.1683 138.166 76.7145 138.629ZM76 140.379C76 141.415 75.1605 142.254 74.125 142.254C73.0895 142.254 72.25 141.415 72.25 140.379C72.25 139.344 73.0895 138.504 74.125 138.504C75.1605 138.504 76 139.344 76 140.379ZM81 140.379C81 141.415 81.8395 142.254 82.875 142.254C83.9105 142.254 84.75 141.415 84.75 140.379C84.75 139.344 83.9105 138.504 82.875 138.504C81.8395 138.504 81 139.344 81 140.379Z"
            fill="#88CAC2" />
        <rect x="0.5" y="58" width="40" height="40" rx="16" fill="#3E3537" />
        <path fill-rule="evenodd" clip-rule="evenodd"
            d="M26.75 75.5H23.625C22.5895 75.5 21.75 74.6605 21.75 73.625V70.5H15.5C14.8096 70.5 14.25 71.0596 14.25 71.75V84.25C14.25 84.9404 14.8096 85.5 15.5 85.5H25.5C26.1904 85.5 26.75 84.9404 26.75 84.25V75.5ZM23 71.0178L26.2322 74.25H23.625C23.2798 74.25 23 73.9702 23 73.625V71.0178ZM15.5 69.25C14.1193 69.25 13 70.3693 13 71.75V84.25C13 85.6307 14.1193 86.75 15.5 86.75H25.5C26.8807 86.75 28 85.6307 28 84.25V75.2855C28 74.6225 27.7366 73.9866 27.2678 73.5178L23.7322 69.9822C23.2634 69.5134 22.6275 69.25 21.9645 69.25H15.5ZM16.75 76.75C16.4048 76.75 16.125 77.0298 16.125 77.375C16.125 77.7202 16.4048 78 16.75 78H23.625C23.9702 78 24.25 77.7202 24.25 77.375C24.25 77.0298 23.9702 76.75 23.625 76.75H16.75ZM16.125 79.875C16.125 79.5298 16.4048 79.25 16.75 79.25H21.125C21.4702 79.25 21.75 79.5298 21.75 79.875C21.75 80.2202 21.4702 80.5 21.125 80.5H16.75C16.4048 80.5 16.125 80.2202 16.125 79.875ZM16.75 81.75C16.4048 81.75 16.125 82.0298 16.125 82.375C16.125 82.7202 16.4048 83 16.75 83H23.625C23.9702 83 24.25 82.7202 24.25 82.375C24.25 82.0298 23.9702 81.75 23.625 81.75H16.75Z"
            fill="#FFD5A1" />
        <rect x="116.5" y="58" width="40" height="40" rx="16" fill="#3D2E3A" />
        <path fill-rule="evenodd" clip-rule="evenodd"
            d="M135.686 71.9328C137.586 70.0325 140.667 70.0325 142.567 71.9328C144.468 73.8331 144.468 76.9141 142.567 78.8144C141.217 80.1647 139.27 80.5564 137.572 79.9859L137.203 79.8618L136.927 80.1373L136.276 80.7888H134.809C134.643 80.7888 134.483 80.855 134.365 80.9729C134.247 81.0908 134.181 81.2508 134.181 81.4175L134.181 82.5156H133.082C132.735 82.5156 132.454 82.7971 132.454 83.1444V84.2425L130.258 84.2425V81.678L134.363 77.5729L134.638 77.2973L134.514 76.928C133.944 75.2304 134.335 73.2831 135.686 71.9328ZM143.456 71.0436C141.065 68.6521 137.188 68.6521 134.796 71.0436C133.196 72.6443 132.667 74.91 133.208 76.949L129.363 80.7941C129.131 81.0265 129 81.3417 129 81.6704V84.8712C129 85.038 129.066 85.1979 129.184 85.3158C129.302 85.4338 129.462 85.5 129.629 85.5H132.472C133.156 85.5 133.711 84.9451 133.711 84.2607V83.7732H134.809C134.976 83.7732 135.136 83.7069 135.254 83.589C135.372 83.4711 135.438 83.3111 135.438 83.1444L135.438 82.0463H136.536C136.703 82.0463 136.863 81.9801 136.981 81.8621L137.551 81.2919C139.59 81.8328 141.856 81.3043 143.456 79.7036C145.848 77.3122 145.848 73.435 143.456 71.0436ZM140.387 75.3787C141.086 75.3787 141.653 74.8121 141.653 74.1132C141.653 73.4142 141.086 72.8476 140.387 72.8476C139.688 72.8476 139.121 73.4142 139.121 74.1132C139.121 74.8121 139.688 75.3787 140.387 75.3787Z"
            fill="#FDB0B2" />
    </g>
    <defs>
        <clipPath id="clip0_9282_77365">
            <rect width="156" height="156" fill="white" transform="translate(0.5)" />
        </clipPath>
    </defs>
</svg>